<svg width="320" height="326" viewBox="0 0 320 326" fill="none" xmlns="http://www.w3.org/2000/svg">
<g clip-path="url(#clip0)">
<path d="M126.92 5.36846C136.25 -3.97154 143.92 -0.801538 143.92 12.3685V313.528C143.92 326.718 136.27 329.888 126.92 320.528L39.16 232.768H-19V93.1385H39.19L126.92 5.36846Z" fill="#231815"/>
<path d="M302 272.149C299.101 272.152 296.245 271.456 293.674 270.119C291.102 268.782 288.891 266.843 287.23 264.469L166.47 91.9988C163.731 88.0828 162.661 83.2395 163.494 78.5342C164.326 73.8289 166.994 69.6471 170.91 66.9088C174.826 64.1704 179.669 63.0998 184.374 63.9325C189.08 64.7651 193.261 67.4329 196 71.3488L316.68 243.819C318.567 246.512 319.68 249.67 319.899 252.951C320.118 256.232 319.434 259.511 317.921 262.43C316.408 265.35 314.124 267.799 311.317 269.513C308.511 271.226 305.288 272.138 302 272.149V272.149Z" fill="#231815"/>
<path d="M181.2 272.149C177.908 272.147 174.679 271.242 171.865 269.532C169.051 267.822 166.76 265.374 165.241 262.452C163.722 259.531 163.033 256.249 163.25 252.964C163.467 249.678 164.581 246.515 166.47 243.819L287.18 71.3487C289.918 67.4367 294.099 64.7728 298.801 63.943C303.504 63.1131 308.343 64.1853 312.255 66.9237C316.167 69.662 318.831 73.8423 319.661 78.5447C320.491 83.2472 319.418 88.0867 316.68 91.9987L196 264.469C194.336 266.848 192.12 268.788 189.543 270.126C186.966 271.463 184.104 272.157 181.2 272.149V272.149Z" fill="#231815"/>
</g>
<defs>
<clipPath id="clip0">
<rect width="320" height="326" fill="white"/>
</clipPath>
</defs>
</svg>
