<svg width="320" height="326" viewBox="0 0 320 326" fill="none" xmlns="http://www.w3.org/2000/svg">
<g clip-path="url(#clip0)">
<path d="M261.67 279.17C258.218 279.17 254.844 278.147 251.974 276.23C249.104 274.312 246.867 271.587 245.546 268.398C244.226 265.209 243.88 261.7 244.553 258.315C245.227 254.93 246.889 251.82 249.33 249.38C272.211 226.445 285.06 195.371 285.06 162.975C285.06 130.579 272.211 99.5048 249.33 76.5699C247.673 74.9573 246.352 73.0316 245.445 70.9045C244.538 68.7775 244.063 66.4915 244.047 64.1792C244.031 61.8669 244.474 59.5744 245.351 57.4348C246.228 55.2952 247.521 53.3511 249.155 51.7154C250.79 50.0796 252.733 48.7848 254.872 47.9061C257.011 47.0275 259.303 46.5824 261.615 46.5968C263.927 46.6112 266.214 47.0847 268.341 47.9899C270.469 48.8951 272.396 50.214 274.01 51.8699C288.601 66.4583 300.175 83.778 308.071 102.84C315.968 121.902 320.032 142.332 320.032 162.965C320.032 183.598 315.968 204.028 308.071 223.09C300.175 242.152 288.601 259.472 274.01 274.06C272.392 275.684 270.469 276.971 268.351 277.848C266.233 278.725 263.962 279.175 261.67 279.17ZM199.67 246.25C196.219 246.248 192.845 245.222 189.976 243.304C187.107 241.385 184.871 238.659 183.551 235.47C182.23 232.281 181.884 228.772 182.557 225.387C183.23 222.002 184.891 218.892 187.33 216.45C201.507 202.254 209.47 183.012 209.47 162.95C209.47 142.888 201.507 123.645 187.33 109.45C184.176 106.15 182.439 101.746 182.49 97.1817C182.542 92.617 184.378 88.2539 187.606 85.026C190.834 81.7981 195.197 79.9618 199.762 79.9102C204.326 79.8586 208.73 81.5958 212.03 84.7499C232.726 105.505 244.348 133.619 244.348 162.93C244.348 192.24 232.726 220.355 212.03 241.11C210.407 242.74 208.478 244.034 206.353 244.916C204.229 245.798 201.95 246.252 199.65 246.25H199.67ZM145.95 5.36993C155.27 -3.97007 162.95 -0.800073 162.95 12.3699V313.53C162.95 326.72 155.29 329.89 145.95 320.53L58.19 232.8H0V93.1399H58.19L145.95 5.36993Z" fill="#231815"/>
</g>
<defs>
<clipPath id="clip0">
<rect width="320" height="326" fill="white"/>
</clipPath>
</defs>
</svg>
