<svg xmlns="http://www.w3.org/2000/svg" viewBox="0 0 444.22 84.77"><defs><style>.cls-1{fill:#fff;}</style></defs><g id="圖層_2" data-name="圖層 2"><g id="對話框_文字_按鈕" data-name="對話框  文字 按鈕"><path class="cls-1" d="M0,65.51V.54H13.23V54.47H46.12v11Z"/><path class="cls-1" d="M52.55,41.11A25.73,25.73,0,0,1,55.63,29a21.24,21.24,0,0,1,8.74-8.94A26,26,0,0,1,77,17q10.77,0,17.65,7t6.89,17.68q0,10.77-7,17.85a23.52,23.52,0,0,1-17.5,7.08,27.46,27.46,0,0,1-12.44-2.95,20.25,20.25,0,0,1-9-8.64A28.9,28.9,0,0,1,52.55,41.11Zm12.87.67q0,7.06,3.35,10.81a10.94,10.94,0,0,0,16.51,0q3.33-3.75,3.33-10.9,0-7-3.33-10.72a10.94,10.94,0,0,0-16.51,0Q65.43,34.72,65.42,41.78Z"/><path class="cls-1" d="M120.74,32.53l-11.39-2.05q1.92-6.89,6.61-10.19T129.9,17q8.4,0,12.51,2A12.48,12.48,0,0,1,148.2,24q1.68,3.06,1.68,11.24l-.14,14.65a51.18,51.18,0,0,0,.6,9.23,27.38,27.38,0,0,0,2.26,6.37H140.18c-.33-.84-.73-2.07-1.21-3.71-.21-.74-.36-1.24-.45-1.47A22.71,22.71,0,0,1,131.64,65a19.75,19.75,0,0,1-7.82,1.56q-7.32,0-11.55-4a13.23,13.23,0,0,1-4.22-10.05A13.5,13.5,0,0,1,110,45.38a12.58,12.58,0,0,1,5.39-4.83,42,42,0,0,1,10-2.93q8.81-1.65,12.2-3.08V33.29c0-2.41-.59-4.13-1.79-5.16s-3.44-1.54-6.74-1.54a9,9,0,0,0-5.23,1.32A9.15,9.15,0,0,0,120.74,32.53Zm16.8,10.19a75.85,75.85,0,0,1-7.64,1.92q-5.22,1.13-6.84,2.19a5.25,5.25,0,0,0-2.45,4.42,6.16,6.16,0,0,0,2,4.56,6.87,6.87,0,0,0,5,1.92,10.89,10.89,0,0,0,6.48-2.23,7.87,7.87,0,0,0,3-4.16,24.66,24.66,0,0,0,.49-6.12Z"/><path class="cls-1" d="M205.78,65.51H194.11v-7a18.71,18.71,0,0,1-6.86,6.05,17.5,17.5,0,0,1-8,2,18.1,18.1,0,0,1-14-6.59q-5.84-6.59-5.83-18.39,0-12.06,5.67-18.34A18.51,18.51,0,0,1,179.46,17q7.95,0,13.76,6.61V0h12.56ZM172.26,40.75q0,7.61,2.1,11a9.51,9.51,0,0,0,8.49,4.91A9.26,9.26,0,0,0,190.23,53q3-3.67,3-11,0-8.18-2.94-11.78a9.71,9.71,0,0,0-15,0Q172.27,33.69,172.26,40.75Z"/><path class="cls-1" d="M218.15,11.62V0h12.56V11.62Zm0,53.89V18.05h12.56V65.51Z"/><path class="cls-1" d="M286.75,65.51H274.19V41.29c0-5.12-.27-8.44-.8-9.94a7,7,0,0,0-2.62-3.51,7.44,7.44,0,0,0-4.36-1.25,10,10,0,0,0-5.85,1.79A9,9,0,0,0,257,33.11q-1,3-1,10.9v21.5H243.49V18.05h11.66v7q6.21-8,15.64-8a18.81,18.81,0,0,1,7.6,1.5,12.8,12.8,0,0,1,5.21,3.82,13.87,13.87,0,0,1,2.45,5.27,38.64,38.64,0,0,1,.7,8.45Z"/><path class="cls-1" d="M298.32,68.64l14.34,1.74a4.89,4.89,0,0,0,1.66,3.44q1.79,1.34,5.63,1.34,4.91,0,7.37-1.47a6.09,6.09,0,0,0,2.5-3.18,18.94,18.94,0,0,0,.58-5.76V57.82q-5.62,7.7-14.21,7.69a17.49,17.49,0,0,1-15.14-8.09q-4.38-6.39-4.38-15.91,0-11.92,5.74-18.23A18.54,18.54,0,0,1,316.69,17q8.79,0,14.52,7.73V18.05H343V60.64q0,8.4-1.38,12.55a15.64,15.64,0,0,1-3.89,6.53A17.32,17.32,0,0,1,331,83.43a35.32,35.32,0,0,1-10.57,1.34q-12.06,0-17.12-4.14a13,13,0,0,1-5-10.47C298.28,69.74,298.29,69.23,298.32,68.64ZM309.54,40.8q0,7.55,2.92,11.06a9.05,9.05,0,0,0,7.22,3.51,10,10,0,0,0,7.77-3.6q3.18-3.6,3.18-10.66,0-7.36-3-10.95a9.67,9.67,0,0,0-7.69-3.57,9.26,9.26,0,0,0-7.44,3.51Q309.53,33.6,309.54,40.8Z"/><path class="cls-1" d="M355.38,65.51V53h12.56V65.51Z"/><path class="cls-1" d="M380.81,65.51V53h12.56V65.51Z"/><path class="cls-1" d="M406.24,65.51V53h12.55V65.51Z"/><path class="cls-1" d="M431.66,65.51V53h12.56V65.51Z"/></g></g></svg>