<svg xmlns="http://www.w3.org/2000/svg" viewBox="0 0 177.25 151">
  <g data-name="圖層 2">
    <g data-name="對話框 文字 按鈕">
      <path d="m94.3 14.92-.71 1.21c-8.81-4.43-21 5-25.2 8.68-9.21-3.77-20 5.08-23.18 7.92L26.86 9.66c-11.13-14-30.51 1.4-19.38 15.4l50.77 63.88c-4.79-6-10.25-5.83-18.67-6.25-20.51-1-21.06 22-3.61 24 38.89 4.45 61.28 18.07 77.55 38.54L171.66 99A108.07 108.07 0 0 1 159 72.41c-4.49-15-14.47-34.12-24.57-46.83L123.1 11.37c-11.3-14.22-28.8 3.55-28.8 3.55Z" style="fill:#fff"/>
      <path d="M113.4 1.75c-9.54-.51-18.48 7-21.19 9.47a16.05 16.05 0 0 0-3.33-.52c-9.54-.51-18.47 7-21.19 9.47a16.76 16.76 0 0 0-3.33-.53c-7.43-.4-14.49 4.06-18.54 7.23L30.09 7.09c-7.17-9-17.42-8.57-23.84-3.46s-9.17 15-2 24l41.21 51.85a28.5 28.5 0 0 0-5.67-.92c-13.11-.66-19.74 7.15-20.37 14.7s4.68 16.19 16.08 17.5c34.52 3.94 57.58 15.36 74.79 37l2.57 3.24 64.39-51.19-2.18-3.18a103.7 103.7 0 0 1-12.13-25.4c-4.69-15.69-14.85-35.07-25.32-48.23L126.34 8.8a17.5 17.5 0 0 0-12.94-7.05Zm17.77 26.4C140.88 40.36 150.69 59 155 73.59a110.07 110.07 0 0 0 11.16 24.47l-52.05 41.38C95.76 118 71.6 106.57 36.44 102.55c-6.46-.74-9.09-5-8.79-8.61s3.54-7.54 11.72-7.13c7.32.37 15.8 4.89 19.76 9.87l6.47-5.14-54.89-69.05c-4-5-2.54-9.84.68-12.4s8.24-2.89 12.24 2.14l40.5 50.94L70.59 58 51 33.33c3.3-2.58 8.43-5.69 13-5.44a9.26 9.26 0 0 1 6.89 3.93l12.53 15.84 6.47-5.14L77.3 26.68a22 22 0 0 0-2-2.17c3.3-2.6 8.53-5.82 13.17-5.57a9.29 9.29 0 0 1 6.89 3.94l12.59 15.83 6.47-5.14-12.6-15.83a20 20 0 0 0-2-2.17C103.08 13 108.29 9.75 113 10a9.23 9.23 0 0 1 6.91 3.93Z" style="fill:#040000"/>
    </g>
  </g>
</svg>
