<svg xmlns="http://www.w3.org/2000/svg" xmlns:xlink="http://www.w3.org/1999/xlink" viewBox="0 0 967.38 1237.17"><defs><style>.cls-1{isolation:isolate;}.cls-2{fill:#8a8a8a;}.cls-3{fill:#554b46;}.cls-4{fill:#888623;}.cls-5{fill:#cdad23;}.cls-6{fill:#b78423;}.cls-7{fill:#0d1b23;}.cls-13,.cls-8{fill:#fff;}.cls-8{opacity:0.2;}.cls-9{fill:#2e1b23;}.cls-10{fill:#fbeac6;}.cls-11{fill:#686868;}.cls-12{fill:#551b23;}.cls-14{fill:gray;}.cls-15{fill:#441b23;}.cls-16{fill:#481b23;}.cls-17{fill:#813a23;}.cls-18{fill:#231815;}.cls-19{fill:#c63523;}.cls-20{fill:#fbdbb2;}.cls-21,.cls-22{opacity:0.4;mix-blend-mode:multiply;}.cls-21{fill:url(#未命名漸層_33);}.cls-22{fill:url(#未命名漸層_33-2);}.cls-23{fill:#e91b23;}.cls-24{fill:#d10d23;}.cls-25{fill:#723d33;}.cls-26{fill:#4d2e33;}.cls-27{fill:#3e1b23;}.cls-28{fill:#8f1b23;}.cls-29{fill:#b9b5b3;}.cls-30{fill:#8f8080;}.cls-31{fill:#def4ff;}.cls-32{fill:#463829;}.cls-33{fill:#76dbff;}.cls-34{fill:#58c0ff;}</style><radialGradient id="未命名漸層_33" cx="4101.36" cy="656.25" r="52.63" gradientTransform="matrix(-0.66, -0.75, -0.75, 0.66, 3840.56, 3201.96)" gradientUnits="userSpaceOnUse"><stop offset="0.18" stop-color="#e86678"/><stop offset="0.29" stop-color="#e86778" stop-opacity="0.98"/><stop offset="0.4" stop-color="#e96a7a" stop-opacity="0.94"/><stop offset="0.51" stop-color="#e96f7c" stop-opacity="0.85"/><stop offset="0.61" stop-color="#ea757f" stop-opacity="0.74"/><stop offset="0.72" stop-color="#eb7e83" stop-opacity="0.59"/><stop offset="0.82" stop-color="#ed8988" stop-opacity="0.41"/><stop offset="0.92" stop-color="#ee958e" stop-opacity="0.2"/><stop offset="1" stop-color="#f0a194" stop-opacity="0"/></radialGradient><radialGradient id="未命名漸層_33-2" cx="4450.69" cy="720.87" r="52.63" gradientTransform="matrix(-0.66, -0.75, -0.75, 0.66, 3766.21, 3463.49)" xlink:href="#未命名漸層_33"/></defs><g class="cls-1"><g id="圖層_2" data-name="圖層 2"><g id="人物"><path class="cls-2" d="M584.66,1166.31a222,222,0,0,0-32.21,0s-76.68,5.75-80.18,58.91c-.15,2.36,14.41,5.6,15.78,5.92,25.53,6,52.12,6.35,78.31,5.88,25.71-.46,52,.1,77.32-4.74,7-1.34,15.36-2.87,21.16-7.06C661.34,1172.11,584.82,1166.32,584.66,1166.31Z"/><rect class="cls-3" x="555.09" y="1065.25" width="24.42" height="117.92" rx="11.85"/><path class="cls-4" d="M327.23,978.63s-13.66-.32-13.84,4c-.22,5.32-.69,7.63.49,15.59,2,13.28,7.16,27.24,19.84,32L445.35,1055c38,8.43,82,24.84,121.28,26.69,35.13,1.65,74.51-7.73,109.57-11.28,86.9-7.81,81.47-62.38,81.47-62.38V725.14c-8.14-63-139.85-43.39-139.85-43.39L362.63,974.82Z"/><path class="cls-5" d="M588.32,712.65c-8.33-5.85,104.18-22.91,115,40.2V982.11c0,22.41-2.64,28.7-24.71,39.07-18,8.47-39.24,14.11-59.18,17.24-27.77,4.35-53.65-2.83-80.54-8.14L467,1016.06c-40.68-8-81.25-16.55-122-24.29q-10.17-1.93-20.35-3.91c-3.32-.64-8.73-.55-10.58-3.31-2.19-3.27.52-7.45,3-9.72,3.2-2.9,7.55-4.77,11.67-6.3,2.36-.88,23.6-6,23.6-6S621.27,735.79,588.32,712.65Z"/><path class="cls-6" d="M588.32,712.65C616.11,732.17,429.22,896.53,370,947.53c4.44,4.37,9,8.59,13.9,12.51,17.71,14.23,38.07,24.84,58.91,33.89,15.58,6.76,31.73,12.77,48.62,14.57,17.64,1.88,35.4-.9,53-2.85a570.27,570.27,0,0,1,73.1-3.33c19.76.38,47.57,8.06,66.5,1.43,35.51-12.44-.84-75.39-6.1-97.67a374.37,374.37,0,0,1-7.1-39.43c-.52-4.13-.57-36.21-2.78-37.38a168.69,168.69,0,0,1,35.27,25.15V752.85C692.5,689.74,580,706.8,588.32,712.65Z"/><path class="cls-5" d="M703.36,982.11v-3.5c-91.17-20.51-213.84-47.33-294.51-65-32.61,28.85-56.45,49-56.45,49s-21.24,5.08-23.6,6c-4.12,1.53-8.47,3.4-11.67,6.3-2.51,2.27-5.22,6.45-3,9.72,1.85,2.76,7.26,2.67,10.58,3.31q10.17,2,20.35,3.91c40.76,7.74,81.33,16.24,122,24.29l71.89,14.22c26.89,5.31,52.77,12.49,80.54,8.14,19.94-3.13,41.14-8.77,59.18-17.24C700.73,1010.81,703.36,1004.52,703.36,982.11Z"/><path class="cls-6" d="M684.67,1018.17c1.4-.75,2.73-1.49,3.94-2.22l.22-.13c1.32-.81,2.51-1.62,3.61-2.44l.41-.33a29.23,29.23,0,0,0,2.79-2.39l.12-.11a23.83,23.83,0,0,0,2.42-2.78v0a20.81,20.81,0,0,0,1.83-3,.47.47,0,0,1,.05-.1,26.8,26.8,0,0,0,2.29-7.17h0c-31.9-8.9-64-17.33-94.77-29.44-17.79-7-35.12-15.18-52.8-22.42l-.18,0-9.36-2.06-8.43-1.85-7.25-1.6-14.72-3.23-1.67-.37-32.76-7.18-7.3-1.6L465.31,926l-19.16-4.2c-14.92-1-29.91-1.33-44.88-1.48-28.64,25.21-48.87,42.27-48.87,42.27s-21.24,5.08-23.6,6c-4.12,1.53-8.47,3.4-11.67,6.3a12.9,12.9,0,0,0-1.2,1.24c8,2.58,16,6.26,23.7,8.37a273.51,273.51,0,0,0,80.53,9.32c11.73-.44,23.49-1.65,35.17-.56,14.29,1.32,28,6,41.6,10.63,42.72,14.49,86.18,28.53,130.93,33.12,4.2-.79,8.43-1.71,12.64-2.73l.63-.15c4-1,7.91-2.06,11.81-3.23l1.83-.55q5.67-1.76,11.17-3.8c.57-.21,1.12-.44,1.68-.66,3.77-1.45,7.47-3,11-4.65,1.78-.84,3.39-1.64,4.93-2.43Z"/><path class="cls-7" d="M372.91,1056l39.8-15.89c.82-.32-4.46-26-4.83-28.17H382.23l-3.33,13.68c-12-.88-25.74.62-32.64,11.78-4.8,7.76-3,18.18.61,26.09A3.2,3.2,0,0,0,348,1065c.89.56,2,.18,3-.21Z"/><path class="cls-8" d="M348.2,1047c1.2-5.75,5.58-10.88,9.67-13.58,2.11-1.39,6-3.1,8.59-2,4,1.74-1.34,3.34-3.28,4.74-2.77,2-9.26,15.48-13.75,13.22-2.48-1.26.16-5.54,2.62-4.91"/><path class="cls-9" d="M378,976.49c0,14.44.11,28.88.08,43.33h32.83l-1.16-16.56-.95-13.62c-.26-3.8-1.62-9.22-.81-12.87,1-4.74,9.92-4.43,13.51-4.43h10.59v-27c-14.77-1.1-42.11-4.6-50.95,12.28-2.58,4.92-3.15,10.65-3.14,16.21Z"/><path class="cls-7" d="M471,1078.72q19.89-8,39.81-15.89c.81-.33-4.47-26-4.84-28.17H480.34L477,1048.34c-12-.88-25.75.62-32.65,11.78-4.8,7.76-3,18.18.61,26.09a3.2,3.2,0,0,0,1.09,1.48c.88.55,2,.18,3-.21Z"/><path class="cls-8" d="M446.31,1069.67c1.21-5.75,5.58-10.88,9.67-13.58,2.11-1.39,6-3.11,8.59-2,4,1.74-1.34,3.34-3.28,4.74-2.77,2-9.26,15.48-13.75,13.21-2.48-1.25.16-5.54,2.63-4.9"/><path class="cls-9" d="M476.11,999.21c0,14.44.11,28.88.08,43.32H509L507.86,1026l-.95-13.62c-.26-3.8-1.61-9.22-.81-12.87,1-4.75,9.92-4.43,13.51-4.43h10.6V968.11c-14.77-1.1-42.11-4.61-51,12.28-2.58,4.92-3.15,10.65-3.14,16.21Z"/><path class="cls-10" d="M293,780.11c-107.61,1.69-83-34.76-83-34.76,8.92-14.22,78.59-3.58,78.59-3.58L293,780.11"/><path class="cls-10" d="M725,796.54c68.14,83.31,25.74,85.56,25.74,85.56-16.13,1.41-51.52-59.46-51.52-59.46L725,796.54"/><path class="cls-11" d="M664.84,1225.22c-2-31-28.93-45.85-51-52.87-.68,35.76-89.16,37.21-137.29,35.54a49.88,49.88,0,0,0-4.26,17.33c-.15,2.36,14.41,5.6,15.78,5.92,25.53,6,52.12,6.35,78.31,5.88,25.71-.46,52,.1,77.32-4.74C650.67,1230.94,659,1229.41,664.84,1225.22Z"/><path class="cls-12" d="M644.25,924.5,622.52,752.74l71.15,66.41,33.47-28s-61.61-101-113.45-96.67L476.43,865.59l-25-76.87-7.34-73.36H422.2l-4.43-19.7c-9.56,24-100.21,43.55-145.88,42.26l7.17,43.82c47.91,5.17,86.85-5,116-14.28-1.3,45.31-5.16,105.25-16.48,115.21,0,0-59.74,73.58-85,75.07,0,0,72.36,46.5,163.41,11,0,0,137.19,71.36,196.17,63.11,0,0,70-19.6,89.84-49.6C743,982.24,651.38,974.3,644.25,924.5Z"/><path class="cls-13" d="M414.37,718.54S525,705.71,568.55,714.67s-93.79,150.68-93.79,150.68l-41.44-103Z"/><path class="cls-14" d="M474.76,865.35s1.11-1.15,3.07-3.21c4.86-87.59,19.32-130.84,19.48-131.29l-3.17-1.08c-.16.46-15,44.86-19.78,134.58Z"/><path class="cls-14" d="M429.64,716.94c1.3,14.81,0,43.56,3.68,45.37,5.24,2.56,62.4-32,62.4-32l52.38,49.86,22.62-64.88a15.7,15.7,0,0,0-2.16-.62C535,707.76,461.5,713.81,429.64,716.94Z"/><path class="cls-13" d="M429.64,710.43c1.3,14.81,0,43.56,3.68,45.38,5.24,2.55,62.4-32,62.4-32l52.38,49.85,22.62-64.87a14.41,14.41,0,0,0-2.16-.63C535,701.25,461.5,707.3,429.64,710.43Z"/><path class="cls-15" d="M428.31,968c-28-.65-58.25-2.1-79.89-19.84-1.74-1.43-3.51-3.12-3.92-5.34-1.7-9.09,15-18.65,21.32-22.83,8.64-5.7,12.39-4.94,15.63-15.67.49-1.64,1.16-3.47,2.74-4.11a4.78,4.78,0,0,1,3.1.08c3.57,1.08,6.46,3.62,9.53,5.75,6.63,4.6,18.36,12.93,26.75,9,1.68-.79-5.37-10.9-5.84-11.49-3.52-4.44-7.79-8.25-11.93-12.11-8.74-8.14-12.67-14-14.71-25.44.79,4.34,7.68,12.54,12.15,9-4.27-6.08-5-13.93-3-21s7-13.44,13.45-16.56c-4.07-5.48-5.93-12.72-8.24-19.05a130.7,130.7,0,0,1-6-22.7,129.22,129.22,0,0,1,.52-46.77A308.19,308.19,0,0,1,350.21,765c-11.72,2.73-55.84,2.53-72.72,7.18l1.57,9.59c47.91,5.17,86.85-5,116-14.28-1.3,45.31-5.16,105.25-16.48,115.21l-.38.46-.25.31-.43.52-.28.34-.72.87-.3.35-.82,1-.5.6-1,1.14-.53.63-1.25,1.46-.43.5-1.46,1.71-.51.59L368.17,895l-.46.53c-.61.71-1.25,1.43-1.9,2.18-.09.09-.17.19-.25.28-.72.82-1.46,1.66-2.23,2.52l-.12.14c-6.65,7.48-14.87,16.37-23.5,24.91l-.06.05c-1,1-2,2-3.08,3l-.26.25-3,2.85-.36.35c-1,.91-1.95,1.81-2.93,2.7l-.45.41q-1.44,1.32-2.88,2.58l-.46.4c-1,.85-1.93,1.68-2.89,2.49l-.4.34c-1,.82-1.95,1.63-2.91,2.41l-.32.25c-1,.8-2,1.58-3,2.33l-.14.1c-6.33,4.83-12.3,8.55-17.43,10.39h0A539.12,539.12,0,0,0,428.31,968Z"/><path class="cls-15" d="M563.84,980.33c.71,3.36,1.78,6.2,4.71,6.39,13.7.88,24.74,7.63,37.2,13.38,30.77,14.21,77.4,3.69,111.26,4.79,10.85-6.59,20.42-14.2,26-22.65,0,0-91.64-7.94-98.77-57.74L622.52,752.74l81.84,83.48,33.47-28s-60-97.82-107.49-111.78l-24.69,73.47c-2.61,7.76-5.25,15.87-4.17,24,.6,4.53,2.34,8.9,2.5,13.47.35,10.18-12.18,13.92-18.78,19.67-9.45,8.23-18.73,16.64-28.1,25-2.36,2.1-4.84,5.74-2.63,8a5.43,5.43,0,0,0,3,1.28A39.87,39.87,0,0,0,596.92,845c-5.15,33.63-31.81,62.95-64.81,71.26-6,1.53-13.52,3.6-14.69,9.72,16,2.39,31.72-4.66,46.36-11.54L587,903.49a13,13,0,0,1-3.61,11.88l16.43-3.86c1.89,19.87-17.79,35.61-37.19,40.36s-40,2.73-59.23,8.28c15.44,2.82,34.13,3.39,48.84,8.58,11.72,4.14,8.7,10.53,16.1,18.86,18.07,20.33,63,19.34,86.56,13"/><polygon class="cls-16" points="467.35 876.91 562.33 711.32 623.58 704.98 582.56 765.86 614.8 779.41 467.35 876.91"/><polygon class="cls-17" points="467.35 876.91 559.39 709.29 611.24 704.98 570.22 765.86 602.46 779.41 467.35 876.91"/><polygon class="cls-16" points="440.25 720.59 474.39 864.99 411.56 779.17 422.85 773.42 397.37 720.7 440.25 720.59"/><polygon class="cls-17" points="444.1 715.36 474.76 865.35 414.37 776.39 425.66 770.64 400.18 717.91 444.1 715.36"/><path class="cls-10" d="M863.28,400.73s75.8,210.94-236.35,305.74c0,0-447,91.91-495.92-231.16-1.62-10.7,2.4-9.85,1.68-21.47C132.69,453.84,542.21,206.51,863.28,400.73Z"/><ellipse class="cls-18" cx="572.63" cy="478.84" rx="20.45" ry="33.3"/><ellipse class="cls-18" cx="331.5" cy="508.07" rx="20.45" ry="33.3" transform="translate(-46.89 33.89) rotate(-5.47)"/><path class="cls-19" d="M386,566.9a516,516,0,0,0,152-21.72c9.13,26.34,8.46,56.52-10.25,78.59-28.39,33.47-85.91,35.81-118,6.57C392.32,614.54,382.76,590.16,386,566.9Z"/><path class="cls-20" d="M548.1,689.61s-111,34.37-317-40.46c146.62,108.52,395.81,57.32,395.81,57.32,251.31-76.32,251.16-227.9,241.55-284.1l-72.09-23.31S843.86,644.44,548.1,689.61Z"/><circle class="cls-21" cx="647.64" cy="545.43" r="52.63" transform="translate(-195.99 617.71) rotate(-45)"/><circle class="cls-22" cx="294.76" cy="586.45" r="52.63" transform="translate(-328.35 380.19) rotate(-45)"/><path class="cls-23" d="M223.88,490.08c57.17-20.93,113.42-43.47,174.8-54.17a833.18,833.18,0,0,1,171.61-11.53c61.7,2.13,154.25,2.66,209.75,32,0,0,157.56,83.21,187.29-7.3,0,0,3-28.88-35.67-38.2-9.52-2.29-25-21.8-30.07-30.26-5.21-8.66-8.29-18.64-12.92-27.69q-11.13-21.76-24.22-42.43c-23.17-36.63-50.84-70.71-83.44-99.37-63.73-56-144.81-85.5-229.88-77.81-133.86,12.08-266.71,45.57-346.78,165-22.87,34.1-33.25,74.26-51.75,110.56-8,15.75-17.29,31.09-29.47,44-10.82,11.43-28.6,20.83-31.38,37.82C88,513.57,112.32,524.9,132,519.81,163.44,511.66,193.78,501.09,223.88,490.08Z"/><path class="cls-24" d="M581.36,152.67c34.3.12,61,25.85,87.24,44.59,39.85,28.49,79.65,58.24,108.35,98.58,6.35,8.93,12.29,18.89,12.54,29.84.6,26.71-32.09,28.95-51.49,27.93-100-5.3-201.84-17-301.13,2.41C338.93,375.17,259,433.48,172.09,478.84c159.57-83.26,366.29-127.15,541.53-71,64.74,20.76,128.1,72.06,199.59,54,24-6.07,21.63-17,6.46-31.48-10.92-10.38-25.67-17.32-35.3-29-12.46-15.1-13.26-33.23-20.31-50.86C836.82,282.44,797.4,231.39,735.63,192.2,691.65,164.3,633.24,147.55,581.36,152.67Z"/><path class="cls-12" d="M256.92,179.81c-16.91,8.33-34.28,19-43.93,33.63-24.64,37.28,61.82,26.53,76.88,25.13,22.22-2.06,45.78-3.75,67.51-8.9,75.5-17.9,158.07-37,219.87-87.94,13.91-11.46,43.38-32.56,32.35-54.22-12.41-24.39-55.63-9.93-74.08-4l-115.3,39.76c-47.29,16.31-96.6,26.87-142.53,47.06C271.27,173.12,264.14,176.25,256.92,179.81Z"/><path class="cls-12" d="M265.73,199.37S299.31,29.21,343.8,31.69c13.35.74,27.4.23,27.4.23s45.31-56.56,78.24-19.1c19.19,21.84,77.93,81.3,77.93,81.3S493.15,185.7,265.73,199.37Z"/><path class="cls-25" d="M527.31,99.26s-13.18-13.34-29.08-29.69C408.52,141,327.55,153,278.63,150.84c-8.24,29.76-13,53.66-13,53.66C493.09,190.84,527.31,99.26,527.31,99.26Z"/><path class="cls-16" d="M413.1,182.26c-14,12-29.67,22-42.49,35.21,75.62-17.81,154.36-41.28,207.95-97.53,10.93-11.46,21-25.72,23.51-40.85-17.35-11.74-50.87-.62-66.55,4.39l-13.91,4.79C506.35,72.76,465,30.49,449.44,12.82,434.1-4.63,416.09-1.67,401.21,6.45c4.59,9.76,12.74,19.78,16.42,27.67a368.17,368.17,0,0,1,21.91,62.3c3.48,13.32,6.28,27.27,3.68,40.79C439.74,155.29,427.07,170.25,413.1,182.26Z"/><path class="cls-26" d="M426.31,169.22c84.76-31.52,101.06-75.1,101.06-75.1s-2.17-2.19-5.76-5.85h0c-.05,0-.1-.1-.15-.15l-2.9-3-.31-.31L515,81.51a3.57,3.57,0,0,1-.27-.28L511,77.41l-.61-.62-4.18-4.28L506,72.3l-7.66-7.87a430.72,430.72,0,0,1-57.11,38.67c2.6,11.26,4.2,22.83,2,34.11C440.9,149.26,434.46,159.9,426.31,169.22Z"/><path class="cls-27" d="M467.35,876.91c-18.53,33.74-22,70.08-21.41,95.73,3.66-1.19,7.34-2.46,11.07-3.91C443.91,933.64,467.35,876.91,467.35,876.91Z"/><circle class="cls-28" cx="477.52" cy="901.03" r="5.99"/><circle class="cls-28" cx="471.52" cy="931.68" r="5.99"/><rect class="cls-29" x="202.5" y="667.86" width="17.29" height="49.45" transform="translate(-263.37 145.7) rotate(-23.99)"/><path class="cls-3" d="M86.06,410.12a145,145,0,1,0,191.4,73.5A145,145,0,0,0,86.06,410.12ZM196.61,658.5A126.9,126.9,0,1,1,261,491,126.9,126.9,0,0,1,196.61,658.5Z"/><path class="cls-30" d="M91.45,422.22A131.73,131.73,0,1,0,265.35,489,131.73,131.73,0,0,0,91.45,422.22ZM196.61,658.5A126.9,126.9,0,1,1,261,491,126.9,126.9,0,0,1,196.61,658.5Z"/><circle class="cls-31" cx="145.01" cy="542.57" r="126.9" transform="translate(-208.09 105.84) rotate(-23.99)"/><rect class="cls-3" x="229.41" y="698.38" width="31.32" height="137.99" transform="translate(-290.86 165.95) rotate(-23.99)"/><rect class="cls-32" x="256.79" y="830.05" width="36.08" height="8.38" transform="translate(-315.47 183.83) rotate(-23.99)"/><path class="cls-10" d="M211.17,737.9c3.79-2.46,9-3.23,15-1.15,10.49,3.63,15,15.64,12.4,25.93-3.24,12.65-18.24,18-27,6.42C205.36,760.81,200.6,744.78,211.17,737.9Z"/><path class="cls-33" d="M551.61,720.29c4.47-.32,9.37-.24,12.9,2.52,5,3.89,5.11,11.82,1.85,17.25s-9,8.84-14.59,11.72c3.79,4.31,7.39,9.73,6.31,15.37-1.05,5.46-6.42,9.29-11.92,10.12s-11.06-.74-16.27-2.69a77,77,0,0,1-20.28-10.91C476.27,737.81,533.12,721.64,551.61,720.29Z"/><path class="cls-33" d="M461.65,726.23c-7.95-2.21-16.48-3.48-24.41-1.19-6.06,1.75-12.15,7-11.07,13.23.59,3.45,3.33,6.23,6.47,7.78s6.68,2.09,10.14,2.6a14.52,14.52,0,0,0-8,9.71,11.14,11.14,0,0,0,4.4,11.48c3.87,2.54,8.94,2,13.48,1.08,9.43-1.92,19-5.42,25.43-12.57,4.13-4.59,10.12-15.89,7.26-22.36C482.62,729.92,468.51,728.13,461.65,726.23Z"/><path class="cls-34" d="M482.62,732.94a23.86,23.86,0,0,0-6.31-3c-3.53,2.89-13.46,13.17-3.79,31.67l1.11.68a30.66,30.66,0,0,0,4.41-4,35.06,35.06,0,0,0,4.88-7.41Z"/><path class="cls-34" d="M564.51,722.81c-3.53-2.76-8.43-2.84-12.9-2.52A81.87,81.87,0,0,0,542,721.7a18.11,18.11,0,0,1,8.57,7.12c2.33,4,2.51,9.33-.25,13S543,746.68,538.57,747a37.37,37.37,0,0,1-9.56-.57c-1.92-.36-4.39-.66-5.39,1a56,56,0,0,0,10.1,2.64c3.19.52,6.53.8,9.31,2.45s4.75,5.24,3.38,8.16a35.59,35.59,0,0,1-19.5,2.32,60.25,60.25,0,0,1-18.75-6.38,43,43,0,0,1-8.37-5.47c1,3.87,4,8,9.82,12.51a76.87,76.87,0,0,0,20.29,10.91c5.2,1.95,10.77,3.53,16.26,2.69s10.87-4.66,11.92-10.12c1.08-5.64-2.52-11.06-6.31-15.37,5.63-2.88,11.34-6.3,14.59-11.72S569.5,726.7,564.51,722.81Z"/><path class="cls-34" d="M478,758.34a23.64,23.64,0,0,0,3.67-5.37,4.13,4.13,0,0,0-3.44-.64,12.66,12.66,0,0,0-3.33,1.4,76.59,76.59,0,0,1-14.29,6.12,36.38,36.38,0,0,1-15.4,1.34,4,4,0,0,1-2-.71c-1.08-.91-1-2.57-.77-4,.28-1.92.66-4,2.17-5.25a7.56,7.56,0,0,1,3.17-1.28c2.22-.52,4.45-1,6.68-1.43,2-.39,4.36-.52,6.23-1.23a1,1,0,0,0,.64-.75c0-.5-.44-.87-.89-1.07a8.91,8.91,0,0,0-5.88,0c-7.32,2.09-15.25-4.31-21.92-6.5-.8-.27-6.69-2.36-6.52-3.38-.65,3.88,1.93,7.72,5.29,9.77s7.36,2.67,11.24,3.26a14.38,14.38,0,0,0-8.1,10.6c-.62,4.59,1.81,9.59,6.05,11.43,2.63,1.14,5.61,1,8.45.73A56.93,56.93,0,0,0,465,767.2,37,37,0,0,0,478,758.34Z"/><path class="cls-33" d="M478.42,730.71a13.12,13.12,0,0,0-2.14,1.67,17.26,17.26,0,0,0-4.59,9.34c-3.87,21.2,15.42,27.85,28.55,18.9,8.16-5.58,20.45-23.09,8.11-31.54-2.68-1.83-5.91-2.22-9-2.32a56.8,56.8,0,0,0-13.81,1.31A22.52,22.52,0,0,0,478.42,730.71Z"/><path class="cls-34" d="M508.35,729.08h0a16.08,16.08,0,0,1-5.82,15.7,46.46,46.46,0,0,1-5.85,4.72,2.9,2.9,0,0,1-2.21.71c-1.49-.37-1.56-2.61-2.83-3.48-.78,1-.57,2.48-.56,3.79s-.52,2.89-1.8,3.1c-1.58.25-2.51-1.71-2.83-3.28A74.34,74.34,0,0,1,485,733.77a18,18,0,0,0-2.68,18.5,15.74,15.74,0,0,1-10.88-8.15c-2,19.26,16.23,25.1,28.84,16.5C508.4,755,520.69,737.53,508.35,729.08Z"/></g></g></g></svg>