<svg width="2167" height="823" fill="none" xmlns="http://www.w3.org/2000/svg">
  <g clip-path="url(#a)">
    <path d="M2098.06 53.89c-51.81-23.62-108.34-32.407-163.74-27.817-55.39 4.59-113 20.357-160.48 55.32-50 36.756-88.45 89.383-131.29 136.293-41.7 45.672-87.46 82.885-144.19 95.921-75.1 17.26-151.69 8.51-224.76-16.741-36.29-12.556-71.72-28.197-106.5-45.685-37.9-19.055-74.72-42.662-113.72-58.518-155.418-63.222-310.737 1.72-458.209 63.146-74.804 31.118-148.622 58.986-227.697 69.191-71.898 9.268-141.875 8.56-210.537-20.851C100.442 279.947 48.269 244.252.063 201.489v469.247H2167.1V99.79a262.358 262.358 0 0 0-69.04-45.9Z" fill="#65D5F5"/>
    <path d="M2132.78 127.683c-63.8-39.35-141.61-48.415-211.9-32.357-58.12 13.277-105.26 54.523-146.57 102.597-41.08 47.758-77.82 101.155-122.47 144.526-49.94 48.554-109.93 80.052-174.98 86.323-71.31 6.891-140.95-15.388-205.41-50.097-34.71-18.688-68.23-40.26-101.09-63.02-34.92-24.163-68.75-50.451-108.02-63.917-146.485-50.224-283.04 64.486-409.664 134.486a637.273 637.273 0 0 1-220.759 73.679c-39.487 5.513-79.012 7.245-118.777 7.017-35.052-.202-70.659-.923-105.066-9.761-69.346-17.803-131.981-68.722-186.656-120.286A1085.253 1085.253 0 0 1-.063 316.06v354.676H2166.97V156.93a148.116 148.116 0 0 0-34.19-29.247Z" fill="#0AC0EF"/>
    <path d="M2081.1 195.091c-41.34-11.38-84.81-16.514-126.77-6.424-35.38 8.535-68.51 26.212-98.18 50.578-25.82 21.154-49.35 45.924-71.4 72.288-23.02 27.514-44.62 55.99-71.07 79.154-51.3 44.926-111.82 73.919-175.08 84.528-63.27 10.609-127.74 5.45-189.4-13.327-56.19-17.184-106.52-46.784-155.48-83.2-46.59-34.608-91.83-73.338-142.3-99.891-53.395-28.109-111.305-38.857-168.583-21.243-66.856 20.573-125.903 68.508-181.614 115.001-56.28 46.987-112.18 96.401-175.637 129.34-66.844 34.595-139.992 57.355-213.368 57.355-70.483-.076-145.312-10.963-212.585-36.34C60.677 508.192 28.14 482.524 0 450.445v372.542h2167.04v-577.23c-24.31-25.567-52.68-41.55-85.94-50.666Z" fill="#3DCBF2"/>
    <path d="M2166.81 302.568a666.846 666.846 0 0 0-149.62-14.111c-38.68.67-78.82 4.716-114.8 18.967-36.51 14.402-64.44 42.219-95.56 64.259-83.21 58.809-190.28 119.591-295.93 129.162 47.27-4.273 92.09-4.64 138.99-16.02 51.42-12.467 101.84-31.004 147.96-55.699 25.92-13.909 48.83-32.332 75.13-45.659 30.19-15.299 60.73-18.499 94.43-21.078 64.6-4.931 138.76-8.295 199.64 16.438l-.24-76.259Z" fill="#0AC0EF"/>
    <path d="M645.461 505.423c18.663-8.434 37.579-28.147 56.065-38.844 48.459-28.045 101.857-48.668 157.215-58.265 175.369-30.347 339.899 92.557 507.249 125.508 175.08 34.469 369.22 32.458 525.84-62.324-20.68 12.518-39.09 39.981-59.83 54.75-59.72 42.498-128.43 66.434-197.43 77.536-127.63 20.547-259.04-1.783-381.31-39.198-91.99-28.172-168.94-92.216-263.322-113.952-102.602-23.619-210.878.683-306.708 38.781a839.482 839.482 0 0 0-37.769 16.008Z" fill="#0AC0EF"/>
    <path d="M877.075 502.477a688.735 688.735 0 0 1 90.978 6.663c78.347 11.19 141.587 46.392 213.907 73.641 117.62 44.256 244.49 71.315 370.68 67.901 106.43-2.871 208.83-34.14 299.96-88.41 37.9-22.583 71.82-57.772 112.56-74.261 42.96-17.36 94.41-13.605 138.48-3.793-25.92-5.791-81.37 36.011-100.16 48.403a651.552 651.552 0 0 0-92.94 74.387c-28.6 27.615-50.31 62.451-83.71 85.008-98.56 66.561-259.52 81.961-374.8 83.087-188.4 1.833-362.38-53.435-529.782-135.295 0 0-258.098-126.154-433.331-44.559 65.782-30.625 123.199-60.314 196.777-74.147 62.825-11.734 127.217-19.207 191.381-18.625Z" fill="#09B0EC"/>
    <path d="M2162.12 610.953c-39.42-13.137-80.63-22.899-121.98-25.441-52.33-3.224-105.63 11.38-155.54 26.351a1125.368 1125.368 0 0 0-131.21 48.681c-42.23 18.702-83.55 39.198-127.05 54.523-83 29.259-170.37 44.761-257.97 37.352-88.25-7.473-170.94-37.39-251.86-73.957-84.81-38.288-168.447-83.605-258.287-107.566-88.994-23.721-181.956-27.123-271.809-6.323-87.427 20.231-170.722 59.075-245.778 110.386-66.351 45.368-127.988 98.917-192.064 148.028H2167v-210.39l-4.88-1.644Z" fill="#65D5F5"/>
    <path d="M681.056 618.236c-88.286 9.724-176.724 45.722-255.091 88.713-59.224 32.484-114.088 71.682-164.998 116.038h845.953c-64.21-32.875-121.379-79.47-181.134-120.21-73.932-50.388-153.967-94.543-244.73-84.541ZM2109.1 643.968c-77.63-14.516-154.85 11.013-223.01 49.439-81.36 45.874-165.34 93.354-252.71 129.543h533.58V665.274c-18.22-9.926-37.51-17.513-57.86-21.306Z" fill="#09B0EC" style="mix-blend-mode:multiply" opacity=".5"/>
    <path d="M643.212 720.922c-99.393 3.376-190.067 46.961-274.474 102.065h553.447c-19.257-8.965-38.021-18.966-56.128-28.905-34.445-18.865-68.852-40.601-105.711-53.865-37.642-13.555-77.255-20.661-117.134-19.295ZM2076.1 736.879c-61.3 3.654-116.47 26.313-172.04 52.348a661.61 661.61 0 0 1-88.75 33.76H2167v-78.901c-30.17-4.817-60.36-9.079-90.9-7.207Z" fill="#06A0DE" style="mix-blend-mode:multiply" opacity=".5"/>
    <path d="M0 579.873s131.261 90.8 368.738 0c0 0-146.79 123.688-368.738 119.932V579.873ZM793.768 347.797s122.099-122.284 249.722-17.689c0 0-106.395-49.465-249.722 17.689Z" fill="#09B0EC"/>
    <path d="M1431.41 322.319c-51.81-.721-105.44-4.527-153.41-23.86-15.67-6.322-7.45-22.836-19.5-34.608-10.02-9.787-46.83-14.453-59.04-7.498-3.15-21.078-24.43-37.82-45.85-36.087-10.64-19.397-33.71-31.308-55.83-28.83-5.58-18.056-28.59-28.475-46-20.825-5.21-12.644-19.55-19.182-33.17-21.129-13.62-1.947-27.61-.493-41.131-3.022-12.18-2.263-23.629-7.675-35.898-9.395-12.269-1.719-26.535 1.404-32.853 12.013-28.974-19.776-71.632-16.704-97.422 7.017-11.284-5.791-26.75-1.454-33.308 9.345a20.775 20.775 0 0 0-25.423 1.024 20.37 20.37 0 0 0-3.791 24.96c-6.659-11.039-32.512-6.626-41.205-1.859-3.437 0-6.078 3.92-8.352 8.573-18.701-5.766-42.494-7.384-58.972 3.123a40.456 40.456 0 0 0-14.493 15.949 40.49 40.49 0 0 0 2.946 41.452 40.438 40.438 0 0 0 16.602 13.737c12.294 5.614 26.459 4.88 39.954 3.793 13.748-1.138 27.976-2.681 39.879-9.622a40.152 40.152 0 0 0 11.283-9.838l.342-.291c1.453-1.264 2.982-2.794 4.928-3.06a8.855 8.855 0 0 1 3.904.645c17.753 5.678 34.989 13.138 54.018 12.936 20.735-.203 42.722-10.432 50.707-29.411 30.2 16.437 69.838 14.035 97.776-5.956-.417 12.645 13.558 22.014 26.358 21.799 12.801-.215 24.413-6.992 35.591-13.188 11.19-6.196 23.49-12.164 36.21-10.571l5.87 9.648c6.03-8.522 19.99-2.959 26.54 5.159 6.54 8.118 11.86 18.966 22.11 21.179 12.8 2.744 28.48-9.445 37.81-.328 2.8 2.756 3.9 6.726 5.35 10.368 9.49 23.885 40.22 36.896 64.18 27.173a26.66 26.66 0 0 0 15.86 27.249c10.49 4.349 30.32-3.402 37.31-12.278 45.6 20.547 98.88 28.538 148.94 29.992 64.71 1.897 124.68-18.069 164.27-68.823-41.2 31.181-91.29 44.066-143.09 43.345ZM1989.69 2.301c-18.39-3.793-40.91-4.526-52.19 10.862-12.79-13.732-35.57-16.084-50.76-5.21-8.78 6.26-24.35-5.45-34.26-2.453-12.37 3.794-22.29 12.316-29.25 23.127-32.5-27.097-47.43 6.524-38.6 31.485-25.99 12.77-62.67 42.042-91.9 99.992 12.63-11.001 25.57-21.673 38.61-32.193 11.57-9.306 23.24-18.448 35.17-27.299 9.17-6.803 19.79-20.03 32.02-20.838 9.2-.607 16.56 3.793 26.07 1.833 11.37-2.402 21.79-7.372 32.28-12.24 16.43-7.586 32.98-17.702 51-21.053 35.8-6.676 72.83-5.26 108.51 1.505 52.48 9.964 102.35 31.093 150.61 54.371-46.94-51.716-109.83-87.866-177.31-101.889Z" fill="#C8FFFF"/>
  </g>
  <defs>
    <clipPath id="a">
      <path fill="#fff" d="M0 0h2167v823H0z"/>
    </clipPath>
  </defs>
</svg>
