<svg xmlns="http://www.w3.org/2000/svg" viewBox="0 0 1269.57 1562.71"><defs><style>.cls-1,.cls-3{fill:none;stroke:#fff;stroke-linecap:round;stroke-linejoin:round;}.cls-1{stroke-width:11.26px;}.cls-2{fill:#9c4a5a;}.cls-3{stroke-width:8.49px;}</style></defs><g id="圖層_2" data-name="圖層 2"><g id="人物"><line class="cls-1" x1="558.1" y1="29.45" x2="558.1" y2="531.95"/><line class="cls-1" x1="422.22" y1="46.34" x2="552.28" y2="531.72"/><line class="cls-1" x1="295.34" y1="97.83" x2="546.59" y2="533"/><line class="cls-1" x1="186.11" y1="180.39" x2="541.43" y2="535.71"/><line class="cls-1" x1="101.98" y1="288.42" x2="537.15" y2="539.67"/><line class="cls-1" x1="48.67" y1="414.54" x2="534.04" y2="544.59"/><line class="cls-1" x1="29.81" y1="550.16" x2="532.31" y2="550.16"/><line class="cls-1" x1="46.7" y1="686.04" x2="532.08" y2="555.98"/><line class="cls-1" x1="98.19" y1="812.91" x2="533.36" y2="561.66"/><line class="cls-1" x1="180.75" y1="922.14" x2="536.07" y2="566.82"/><line class="cls-1" x1="288.78" y1="1006.28" x2="540.03" y2="571.1"/><line class="cls-1" x1="414.9" y1="1059.59" x2="544.95" y2="574.21"/><line class="cls-1" x1="550.52" y1="1078.44" x2="550.52" y2="575.94"/><line class="cls-1" x1="686.4" y1="1061.55" x2="556.34" y2="576.18"/><line class="cls-1" x1="813.27" y1="1010.07" x2="562.02" y2="574.89"/><line class="cls-1" x1="922.5" y1="927.5" x2="567.18" y2="572.18"/><line class="cls-1" x1="1006.64" y1="819.48" x2="571.46" y2="568.23"/><line class="cls-1" x1="1059.95" y1="693.36" x2="574.58" y2="563.3"/><line class="cls-1" x1="1078.8" y1="557.74" x2="576.31" y2="557.74"/><line class="cls-1" x1="1061.91" y1="421.86" x2="576.54" y2="551.91"/><line class="cls-1" x1="1010.43" y1="294.98" x2="575.25" y2="546.23"/><line class="cls-1" x1="927.86" y1="185.75" x2="572.54" y2="541.07"/><line class="cls-1" x1="819.84" y1="101.62" x2="568.59" y2="536.79"/><line class="cls-1" x1="693.72" y1="48.3" x2="563.66" y2="533.68"/><rect class="cls-2" x="1018.57" y="939.53" width="66.37" height="664.3" transform="translate(-539.42 834.04) rotate(-35.03)"/><path class="cls-2" d="M558.1,1.07C250.22,1.07.63,250.66.63,558.54S250.22,1116,558.1,1116s557.46-249.58,557.46-557.46S866,1.07,558.1,1.07Zm0,1074.19c-285.38,0-516.72-231.35-516.72-516.72S272.72,41.82,558.1,41.82s516.72,231.34,516.72,516.72S843.48,1075.26,558.1,1075.26Z"/><path class="cls-2" d="M413.32,19.13C115.93,98.82-60.55,404.5,19.13,701.89s385.37,473.87,682.76,394.18,473.87-385.36,394.18-682.75S710.71-60.55,413.32,19.13Zm278,1037.59c-275.65,73.86-559-89.73-632.85-365.38s89.72-559,365.38-632.85,559,89.72,632.85,365.38S967,982.86,691.34,1056.72Z"/><circle class="cls-1" cx="557.6" cy="557.6" r="464" transform="translate(-230.97 557.6) rotate(-45)"/><circle class="cls-3" cx="557.6" cy="557.6" r="350.06" transform="translate(-230.97 557.6) rotate(-45)"/><circle class="cls-3" cx="557.6" cy="557.6" r="235.33" transform="translate(-230.97 557.6) rotate(-45)"/></g></g></svg>