<svg xmlns="http://www.w3.org/2000/svg" xmlns:xlink="http://www.w3.org/1999/xlink" viewBox="0 0 1308.63 2780.67"><defs><style>.cls-1,.cls-19{fill:none;}.cls-2{isolation:isolate;}.cls-3{fill:#ece9e9;}.cls-4{fill:#86d5c2;}.cls-5{fill:#06a0de;}.cls-17,.cls-19,.cls-5{opacity:0.5;mix-blend-mode:multiply;}.cls-6{fill:#0ad3c5;}.cls-7{fill:#0adac9;}.cls-8{fill:#00b8c4;}.cls-16,.cls-9{fill:#13becf;}.cls-10{fill:#ffffe6;}.cls-11{fill:#69e1c0;}.cls-12{fill:#13cbcf;}.cls-13{fill:#65dddc;}.cls-14{fill:#0a9bbf;}.cls-15{fill:#0a88bf;}.cls-16{opacity:0.53;}.cls-17{fill:#0ac5ff;}.cls-18{clip-path:url(#clip-path);}.cls-19{stroke:#06a0de;stroke-linecap:round;stroke-linejoin:round;stroke-width:4px;}</style><clipPath id="clip-path"><rect class="cls-1" x="12.32" y="109.05" width="1284" height="342"/></clipPath></defs><g class="cls-2"><g id="圖層_2" data-name="圖層 2"><g id="底圖"><rect class="cls-3" x="14.1" y="2.67" width="1284" height="2778"/><path class="cls-4" d="M12.32,0V2778H95.1V579.77l25.43-15C188.34,522.18,228.6,373.21,228.6,373.21c2.41-2.85,855.67-2.95,858.17,0,0,0,40.26,149,108.07,191.53l25.43,15V2778h76V0Z"/><path class="cls-5" d="M1107.76,336.82H207.61C158.23,541.05,66.19,557,66.19,557V2778H95.1V579.77l25.43-15C188.34,522.18,228.6,373.21,228.6,373.21c2.41-2.85,855.67-3,858.17,0,0,0,40.26,149,108.07,191.53l25.43,15V2778h28.91V557S1157.14,541.05,1107.76,336.82Z"/><path class="cls-6" d="M304.79,2400.32c-19.56-19.5-31.36-42.91-39.09-72-8.93-33.53-5.28-70,30.53-85.88,23.64-10.5,72.31-2.63,77.95,27.62,1.87,10-3.43,21.08-12.45,26-8.17,4.51-21.2,12.29-29.48,4.49-5.51-5.19-3.46-14.86-8.4-19.67-9.34-9.09-17.6,3.42-18.43,11.64-1.13,11.28,3.77,24,7.38,34.55A123.13,123.13,0,0,0,336.61,2368c22,25.26,79.11,42.63,110.77,53.43,33.86,11.56,47.19,20.51,83.19,20.51-7.33-.89-21.7,6.7-28.78,8.88l-54.17,16.66c-19,5.85-31,5.46-49-4.34-24.14-13.09-47-28.27-69.88-43.43A154.89,154.89,0,0,1,304.79,2400.32Z"/><ellipse class="cls-7" cx="198.64" cy="2257.67" rx="6.62" ry="6.48"/><ellipse class="cls-8" cx="249.16" cy="2228.46" rx="22.09" ry="21.63"/><ellipse class="cls-9" cx="409.29" cy="2336.57" rx="14.29" ry="13.99"/><ellipse class="cls-7" cx="417.36" cy="2283.29" rx="9.53" ry="9.33"/><ellipse class="cls-8" cx="480.89" cy="2310.35" rx="12.5" ry="12.23"/><path class="cls-10" d="M192,2533.26s187.94-74.45,386.09,4.56c0,0,149.13,79,337.07,29,0,0-116.45,86-361.58-2,0,0-224.59-73.14-361.58-31.57"/><path class="cls-8" d="M136.54,2201c4.7-7.87,25.51-48.2,30.61-21.2,2.4,12.68,34.26,15.56,50.77,3.29s31.46-31.93,18.69-49.29c-49.82-67.7-178.39,21.34-197.25,74-19.29,53.85-5.26,111.21,13.53,163.24,20.56,56.9,51.71,129.18,110.34,157.57a94,94,0,0,0,31.45,9.15c16.88-2.81,425-65,425-65S29.94,2379.38,136.54,2201Z"/><path class="cls-11" d="M0,2399.45c27.16-15.72,71.23-37,127.1-43.88,115.07-14.21,204,41.91,242.53,62.69,222.36,119.88,571.11,35.86,773-166.13,46-46,111.26-125.08,166-255.47v655.12H6.48Z"/><path class="cls-12" d="M1017.59,2122c25.82-25.23,90.87-31.12,114.84-.85,7.93,10,12,22.44,14.74,34.81,25.37,112.94-42.83,195.56-136,251C950,2443.39,884.5,2475.07,814,2487.79s-223-8.12-283.4-45.88c4.79,3,36-2.95,42.7-3.11,23.07-.55,45.64.39,68.71.73,143.37,2.11,286.65-44.56,399.85-130.78,24.35-18.55,60.23-60.47,63.26-91.64,2.26-23.25-12.1-45-49.78-43.73-14.68.49-30.52,3.5-41.82-8.84C1002.62,2152.61,1006.76,2132.56,1017.59,2122Z"/><path class="cls-9" d="M0,2463.71c62.78-30.58,146.8-67.18,251.51-78.36,154-16.44,206.66,37.71,390.65,70.52,126.27,22.52,442.39,78.89,593.66-106.57,44.28-54.28,63.52-115.89,72.81-158.29v460.77H0Z"/><path class="cls-7" d="M1235.83,2349.3c-151.28,185.46-467.4,129.09-593.67,106.57-184-32.81-236.64-87-390.65-70.52C146.8,2396.53,62.78,2433.13,0,2463.71V2491c62.78-30.58,146.8-67.19,251.51-78.37,154-16.44,206.66,37.72,390.65,70.53,126.27,22.52,442.39,78.89,593.67-106.57,44.27-54.28,63.51-115.9,72.8-158.3V2191C1299.34,2233.41,1280.1,2295,1235.83,2349.3Z"/><path class="cls-8" d="M1173.88,2239c-18.9-3.23-41.09,2.94-48.2,17.71-4.64,9.64-1.71,21.67,7.14,29.3s23.12,10.44,34.77,6.83c9,9.26,9,22.56,4.79,33.66-57.16,149.79-533.16,234.66-657.66,172.22,66.51,33.36,160.12,70.87,233.9,89.78,42.93,11,106-3,150-6,48-3.32,96.07-.44,144.09-4.4C1160.67,2568.3,1323.58,2264.6,1173.88,2239Z"/><ellipse class="cls-7" cx="943.43" cy="2200.7" rx="10.3" ry="8.73"/><ellipse class="cls-7" cx="921.46" cy="2283.49" rx="16.74" ry="14.19"/><ellipse class="cls-8" cx="980.75" cy="2239.01" rx="19" ry="16.11"/><path class="cls-6" d="M1014.25,2297.67c-14.29-2.4-31.15,2.54-36.66,14.09-3.6,7.55-1.48,16.9,5.17,22.79s17.43,8,26.27,5.1c6.71,7.15,6.66,17.52,3.35,26.19-44.54,117.07-405.8,186.2-499.58,138.35,50.1,25.56,120.7,54.2,176.43,68.46,32.42,8.3,80.33-3,113.67-5.64,36.35-2.89,72.77-1,109.18-4.34C1001.51,2554.34,1127.43,2316.7,1014.25,2297.67Z"/><path class="cls-13" d="M542.16,2345.91c-2.92-10.72-4.2-22.33-.27-32.73,9-23.72,44.15-30.5,65-15.56,15.72,11.27,23.39,30.41,37.19,43.89,12.44,12.17,30.79,19.33,48,15.72s31.74-19.56,30.59-36.74c-.46-6.76-2.72-14.74,2.26-19.44,10.37,8.68,12.85,16.64,17.63,29.14,17.58-3.42,41.83,2,58.14,9.3l-57.74,11.58c.35,20-26,39-42.17,46.14-33,14.57-77.46,18.42-112.38,4.46C563.88,2391.89,548.83,2370.36,542.16,2345.91Z"/><ellipse class="cls-10" cx="584.36" cy="2321.17" rx="9.21" ry="9.02"/><path class="cls-14" d="M1308.63,2523.79c-122.47,25.18-249.38,33.35-374.93,28.75-115.16-4.22-233.71-11.65-343.34-45-119.11-36.23-248.5-104.37-377.09-58.26-68,24.38-135.49,61.62-193,101.1q-10.2,7-20.25,14.18v216.11H1308.63Z"/><path class="cls-15" d="M174.66,2780.67h1134V2672.06c-40.2,17.73-88.13,24.64-134.13,29.75-160.18,17.79-323.88,23.56-483,.15-68.95-10.14-136.75-25.72-206.34-32.37s-142.72-3.78-205.65,21.34C253.58,2701.29,189.64,2745.16,174.66,2780.67Z"/><path class="cls-16" d="M253.69,2575.65s168.16-79.5,299.92-10.82c0,0,251.23,104.48,361.57,76.08-42.34,10.9-84.06,16.86-128.13,16.41-50.66-.52-101.16-8.09-150-21-84.42-22.2-147.57-64.44-237-63-62.79,1-154.55,2.23-201.4,50.41Z"/><path class="cls-17" d="M144.81,371c-6.41-44.19-35.51-84.17-74-112.24C59.1,250.24,36.21,235,12.32,223.61v89.51a191.11,191.11,0,0,1,47.15,28.05c30.73,24.57,54.94,64.36,37.1,97.67-3.4-12.1-23.41-14.73-34.07-6.74s-13.34,21.78-12.63,34.25c.77,13.33,8,29.31,22.84,30.21,7.28.44,14.09-3.11,20-7C132.54,463.1,151.22,415.23,144.81,371Z"/><path class="cls-17" d="M1163.82,371c6.41-44.19,35.51-84.17,74-112.24,11.73-8.56,34.63-23.83,58.52-35.19v89.51a191.17,191.17,0,0,0-47.16,28.05c-30.72,24.57-54.93,64.36-37.09,97.67,3.4-12.1,23.41-14.73,34.06-6.74s13.34,21.78,12.63,34.25c-.76,13.33-8,29.31-22.83,30.21-7.29.44-14.1-3.11-20-7C1176.09,463.1,1157.41,415.23,1163.82,371Z"/><g class="cls-18"><path class="cls-19" d="M1296.32,180.05s-161,94.52-152,176.81c0,0-25-40.27-19-56.46h-942c6,16.19-19.06,56.46-19.06,56.46,9-82.29-151.94-176.81-151.94-176.81"/></g></g></g></g></svg>