<svg width="2179" height="674" fill="none" xmlns="http://www.w3.org/2000/svg">
  <g clip-path="url(#a)">
    <path d="M102.315 230.75c58.935 2.231 108.374-17.778 156.2-42.366 44.074-22.672 85.774-48.152 130.792-69.722 54.607-26.176 115.025-46.184 180.297-45.07 34.643.591 70.335 4.855 101.777 16.743 26.142 9.866 48.848 23.748 69.521 39.518 43.655 33.248 82.849 73.777 139.988 93.668 58.188 20.258 133.19 25.322 193.43 7.177 56.86-17.057 99.24-51.393 142.46-83.499 52.08-38.679 110.83-73.974 180.89-90.046 74.94-17.188 150.47-9.185 216.51 23.472 60.05 29.64 108.6 70.103 162.66 105.594 51.81 34.048 113.29 64.75 179.36 78.723 55.62 11.73 121.51 8.043 169.82-18.303a190.993 190.993 0 0 0 52.76-42.196V674H0V200.442a217.794 217.794 0 0 0 102.315 30.308Z" fill="#65D5F5"/>
    <path d="M89.761 264.706a342.866 342.866 0 0 0 145.379 2.624c49.15-9.867 89.276-31.358 127.854-56.353 47.904-31.03 96.254-67.636 158.942-78.933 59.919-10.772 116.101 3.097 165.776 29.548 47.511 25.296 88.305 57.297 135.291 83.118 53.125 29.206 116.914 49.189 182.097 53.059 33.85 2.008 69.52 1.312 102.39-5.917a331.522 331.522 0 0 0 81.33-30.033c53.07-27.697 97.38-63.713 144.84-96.685 27.85-19.353 57.01-39.243 93.03-48.546a227.537 227.537 0 0 1 104.68-1.601c70.93 15.233 131.18 51.026 191.52 82.2 120.27 62.021 348.06 158.247 455.78 50.921v425.891H0V228.217a317.044 317.044 0 0 0 89.761 36.489Z" fill="#0AC0EF"/>
    <path d="M129.428 310.234c69.823 4.185 138.4-10.615 199.015-37.275a583.321 583.321 0 0 0 87.886-48.546c24.621-16.348 49.465-33.786 79.136-44.439 72.434-26.005 144.487-2.165 200.038 36.881 47.826 33.628 98.091 63.923 158.575 82.541 61.651 18.986 126.713 24.995 192.682 23.053 63.64-1.876 131.08-8.24 186.84-34.113 25.68-11.887 48.53-27.12 65.85-46.184 17.05-18.802 30.17-39.362 45.28-59.148 15.65-20.481 33.7-41.487 59.85-54.712 32.23-16.322 69.13-19.681 106.13-12.163 71.59 14.577 128.07 55.841 184.85 90.532 54.44 33.299 110.61 66.153 174.87 87.159 94.63 30.912 210.96 56.864 308.35 26.241V674H0V276.449a348.855 348.855 0 0 0 129.428 33.785Z" fill="#09B0EC" style="mix-blend-mode:multiply" opacity=".5"/>
    <path d="m2179 397.826-45.69 3.504c-150.71 2.283-323.38-85.651-327.04-87.527a6939.171 6939.171 0 0 1-89.61-57.075c-48.3-31.279-96.15-70.85-150.7-86.962-38.14-11.297-79.66-13.764-116.33 1.902-26.75 11.428-45.39 31.555-62.48 50.58-17.09 19.025-33.58 37.249-55 53.243-23.48 17.542-50.83 31.778-80.02 42.969-119.36 45.843-269.162 36.187-387.86-5.248-65.193-22.764-124.483-54.45-186.265-82.082-32.203-14.432-66.465-24.837-103.954-25.676-32.151-.709-63.173 7.281-91.06 19.208-52.299 22.37-88.424 60.354-138.374 85.283-47.419 23.617-102.905 37.328-159.06 39.545-53.191 2.1-104.938-7.964-149.537-30.439-11.648-5.852-24.03-12.517-36.033-19.943V674H2178.78v-9.093c0-49.149-4.97-266.7.22-267.081Z" fill="#0AC0EF"/>
    <path d="M2176.64 473.322c-43.89-5.668-92.37-22.725-113.81-28.865-96.2-27.448-190.87-62.979-283.16-101.448-61.23-25.559-116.74-64.041-182.91-76.466a290.827 290.827 0 0 0-147.71 10.759c-49.84 17.056-94.72 46.42-131.64 83.839-132.08 133.908-364.546 60.433-506.763-15.009-57.572-30.545-104.938-52.732-171.836-52.863-67.161-.144-161.894 12.36-220.502 49.858C232.517 461.907 63.33 411.773 0 385.204v43.298c208.328 80.193 420.238-38.679 420.238-38.679 238.065-102.799 428.934 3.319 428.934 3.319 74.375 43.114 157.318 72.032 243.288 78.868 51.16 4.08 111.88 8.174 160.88-10.379 50.71-19.195 85.84-71.139 130.77-100.306 70.07-45.475 172.52-74.931 255.47-52.482 71.99 19.471 138.81 67.571 208.56 95.203 74.61 29.573 151.28 53.794 228.73 74.786 5.25 1.404 54.48 11.809 100.02 21.688-.16-9.407-.21-18.499-.25-27.198Z" fill="#0AADEF"/>
    <path d="m45.412 669.971-40.939-3.122L0 663.713v-74.905c97.382 30.676 213.72 4.724 308.347-26.241 64.275-20.993 120.43-53.794 174.854-87.159 56.797-34.743 113.28-76.007 184.848-90.532 37.017-7.544 73.916-4.172 106.145 12.15 26.143 13.238 44.205 34.244 59.854 54.725 15.085 19.681 28.241 40.346 45.281 59.134 17.288 19.078 40.165 34.311 65.835 46.198 55.776 25.821 123.206 32.197 186.856 34.113 65.97 1.942 131.01-4.067 192.68-23.053 60.47-18.618 110.75-48.926 158.56-82.541 55.57-39.059 127.61-62.886 200.05-36.881 29.67 10.653 54.52 28.091 79.13 44.439a583.437 583.437 0 0 0 87.88 48.546c60.62 26.66 129.18 41.46 199.02 37.275a348.73 348.73 0 0 0 129.44-33.93v22.672c-12.01 7.414-24.4 14.092-36.04 19.944-44.67 22.462-96.38 32.538-149.53 30.439-56.16-2.23-111.66-15.954-159.08-39.558-49.93-24.85-86.06-62.874-138.37-85.283-27.87-11.927-58.9-19.917-91.05-19.209-37.49.84-71.76 11.284-103.95 25.677-61.78 27.632-121.09 59.318-186.27 82.069-118.69 41.434-268.48 51.091-387.847 5.248-29.134-11.192-56.483-25.428-80.016-42.97-21.407-15.994-38.04-34.389-54.987-53.243-16.948-18.854-35.797-39.086-62.53-50.527-36.728-15.666-78.205-13.212-116.35-1.902-54.529 16.151-102.381 55.683-150.678 86.962a7246.07 7246.07 0 0 1-89.617 57.075c-3.66 1.823-176.323 89.809-327.053 87.526Z" fill="#09B0EC" style="mix-blend-mode:multiply" opacity=".5"/>
    <path d="M394.423 87.645c-7.608-1.312-16.226-.683-21.867 4.592-5.64 5.274-5.771 16.295 1.181 19.681-9.785.538-17.118 11.414-15.19 20.992 1.928 9.578 11.517 16.637 21.316 17.057 9.798.42 19.269-5.012 25.277-12.753-3.437-.144-5.614 4.973-3.122 7.36 14.245 3.937 30.694-6.639 33.121-21.215 12.855 10.916 36.085 4.159 41.07-11.966 15.15 5.169 33.488-1.706 41.503-15.561 23.611 10.562 50.803 1.876 76.644.866 25.251-.997 50.357 5.655 73.457 16.02 45.149 20.337 82.494 54.319 123.473 82.134 40.978 27.816 89.709 50.278 138.623 42.55a279.746 279.746 0 0 1-91.257-32.171c-9.602-5.419-19.099-11.586-25.736-20.39-4.106-5.458-6.992-11.743-11.11-17.188a47.224 47.224 0 0 0-31.967-18.171c5.627.629-3.857-12.557-4.735-13.226-5.601-4.317-12.803-5.904-18.365-10.181-9.562-7.348-1.311-17.621-8.054-25.48-7.437-8.739-23.991-1.037-33.081-.63a25.758 25.758 0 0 1-15.269-3.621c-6.558-4.304-9.549-11.809-14.783-17.28-5.811-6.154-13.996-9.184-22.299-10.09-12.855-1.443-25.212 2.73-38.04 1.312-14.665-1.574-37.542-31.489-50.804-25.086-2.951 1.43-5.902 3.805-9.103 3.07-2.335-.538-3.935-2.624-5.549-4.395-6.558-7.4-17.865-13.554-28.057-12.95-2.204.118-21.683 8.003-18.929 9.184a77.268 77.268 0 0 0-36.282-5.917 10.292 10.292 0 0 0-4.866 1.312c-3.07 2.007-3.319 6.665-1.535 9.853 1.784 3.189 5.024 5.248 8.133 7.203-6.834-3.936-14.705-7.098-22.47-5.72-7.766 1.377-14.862 8.843-13.288 16.571-5.824-2.296-34.918-15.403-39.68-9.053a24.94 24.94 0 0 0-4.381 14.358 24.94 24.94 0 0 0 4.657 14.27 23.46 23.46 0 0 0 18.128 9.343 60.331 60.331 0 0 0-16.764-4.684ZM1888.73 227.824c-77.39-31.174-153.89-70.851-222.9-118.977-37.05-25.795-79.57-52.77-115.44-81.347-25.26-20.18-61.65-24.47-91.51-12.477-6.8-.263-13.62-.197-20.41.13a28.683 28.683 0 0 0-11.77-11.72A28.632 28.632 0 0 0 1410.41.21c-11.94 1.508-21.92 10.326-27.05 21.307l-2.41.368-7.07 1.076c-19.09-14.092-54.17-14.59-62.86 11.073a34.468 34.468 0 0 0-1.21 4.58 38.792 38.792 0 0 0-10.41 12.989c-33.36-16.782-79.7 4.841-88.3 41.185-9.18-11.205-28.49-9.92-38.13.853-9.64 10.772-9.94 27.802-3.26 40.673-18.08-6.284-51.16 9.001-47.41 24.024-12.28 9.853-17.43 34.205-7.33 45.528 10.6 11.808 28.51 13.829 44.7 9.184 15.37-4.382 29.28-34.113 32.37-34.874 33.82-7.702 66.44-20.179 93.31-38.915 20.88-14.564 41.88-34.009 69.09-32.802 10.29.473 20.31 4.042 30.59 3.307 26.23-1.89 48.77-30.715 71.92-20.18 5.06 2.297 8.88 6.259 14.15 8.174 18.1 6.561 34.76-13.75 54.49-14.957 9.34-.577 18.15 3.28 26.35 7.059 61.59 28.38 118.96 66.429 179.92 96.488 66.9 32.985 136.06 61.771 207.99 81.767 33.68 9.368 69.01 17.24 104.19 15.076 30.55-1.864 56.85-20.114 81.98-36.567-68.64 44.754-169.17 8.646-237.29-18.802Z" fill="#C8FFFF"/>
  </g>
  <defs>
    <clipPath id="a">
      <path fill="#fff" d="M0 0h2179v674H0z"/>
    </clipPath>
  </defs>
</svg>
