<svg xmlns="http://www.w3.org/2000/svg" xmlns:xlink="http://www.w3.org/1999/xlink" viewBox="0 0 1868.23 635.3"><defs><style>.cls-1{fill:none;}.cls-2{clip-path:url(#clip-path);}.cls-3{fill:#65d5f5;}.cls-4{fill:#3dcbf2;}.cls-5{fill:#0ac0ef;}.cls-6{fill:#0aaaef;}.cls-7{fill:#c8ffff;}</style><clipPath id="clip-path" transform="translate(87.87 -85.69)"><rect class="cls-1" width="1470.71" height="833.3"/></clipPath></defs><g id="圖層_2" data-name="圖層 2"><g id="浪2"><g class="cls-2"><path class="cls-3" d="M-22.8,258.62c55,17.64,118.38,17.22,175.06,4C258.1,237.82,343.89,171.44,458,164.9c51.82-3,98.24,10.29,141,30.87,39.71,19.11,76.48,42.27,120,56.8,52.61,17.57,115.77,22.5,172.8,17.2,60.67-5.64,115.24-24.42,164.52-50.55,47.53-25.21,91-55.25,142.59-76.1,25.72-10.39,54.6-19.7,84.32-20.83,29.38-1.12,58.33,4,85.1,12.76,52.54,17.15,97.16,44,143.67,68.35,36.42,19,76,34.48,119.54,42.76,40.41,7.68,84.72,10.2,124.9.3a185.89,185.89,0,0,0,24-7.63V721H-87.87V222.58C-70.44,237.83-48.65,250.33-22.8,258.62Z" transform="translate(87.87 -85.69)"/><path class="cls-4" d="M-15.85,279.13c43.93,12.84,92.38,14.19,138.06,5.59C179.35,274,229.36,249.37,285.1,235.64c25.81-6.36,52.94-10.81,80.32-9.61a252.07,252.07,0,0,1,90.15,21.45c27.54,12.11,53.62,25.84,81.65,37.41a747.52,747.52,0,0,0,77.91,27.69c113.55,32.78,239.68,30.07,347.24-13.82,53.55-21.84,104.16-48,152.21-75.85,45.94-26.61,100.54-60.56,162.33-61,58.32-.43,109.21,24.52,154.67,48.72,22.27,11.86,44.09,24.3,67.34,35.15a624.19,624.19,0,0,0,85.36,32c48.21,14.34,105.71,26.93,157.14,13.88a167.72,167.72,0,0,0,38.94-15.23V721H-87.87V244A235.11,235.11,0,0,0-15.85,279.13Z" transform="translate(87.87 -85.69)"/><path class="cls-3" d="M30.94,334.07c56.79,5.73,108.16-13,157.63-31.09,54.59-20,109.14-38.52,171.64-36.69,118.62,3.48,215.57,56.47,318.43,93.48C729.08,377.92,784.4,395,841.58,393.85c59.87-1.22,119.87-17.62,167.93-43.77,45.14-24.55,80.13-57.4,123.9-83.09,22.77-13.37,48.37-25.58,77.31-30,27.72-4.25,56.18-2.48,83.15,3.63,55,12.47,102.67,37.59,149.16,61.69,48,24.91,97.44,49.47,153.15,64.18,52.22,13.79,108.57,19.33,161.78,4.93,7.71-2.08,15.16-4.51,22.4-7.18V721H-87.87V287.08C-54.22,310.53-14.82,329.45,30.94,334.07Z" transform="translate(87.87 -85.69)"/><path class="cls-5" d="M8.89,349.72c52.85,5.48,102.3-7.51,147.46-26.88,49.15-21.08,95.69-47.46,152.78-55.6,115.79-16.51,213.22,42.2,305.43,84,48.83,22.13,99.36,40.06,156.49,46.9s122,7.48,177.57-6.21c98.63-24.27,148.91-103.32,252.13-121.72,131.73-23.48,230.81,55.77,341.53,91.72,27,8.76,55.89,15.32,85.64,15.48a249.37,249.37,0,0,0,79.61-13.05A300.22,300.22,0,0,0,1780.36,328V721H-87.87V311.24C-63.47,331.48-30.1,345.67,8.89,349.72Z" transform="translate(87.87 -85.69)"/><path class="cls-6" d="M-27.14,458.8c36.74-22.94,70.2-47.94,115.8-63.54C145.13,375.94,212,363.38,276.1,369c58.78,5.11,110,25,157.58,47.14,25.83,12,51,24.32,79.14,34a632.51,632.51,0,0,0,84.56,22.81,784.15,784.15,0,0,0,184.51,13.29c63.75-2.87,123.35-14.31,183.86-27.13,61.23-13,125-26.42,190.2-23.94,34.81,1.33,67.35,7,98.41,17.44,28.21,9.49,54.54,21.11,82.29,31.14,58.61,21.18,119.55,36.19,184.27,47,56.37,9.42,117.36,13.45,172.64-1.13,27.37-7.22,53-17.59,73.6-31.56,4.57-3.1,8.93-6.31,13.2-9.58V721H-87.87V488.19A293.23,293.23,0,0,0-27.14,458.8Z" transform="translate(87.87 -85.69)"/><path class="cls-7" d="M1478,187.35c-1.8-1.24-3.6-2.49-5.38-3.76-21.24-15.06-44.1-32.67-70-30.4-.89-20.66-21.8-34.84-41.86-39.87s-41.64-4.6-60.45-13.22c-10.85-5-20.75-12.94-32.62-14.23-13.66-1.48-26.56,6.23-40.17,8.18-14.26,2-28.63-2.31-43-2.4S1153.42,98,1150,112c-12.84-3.82-27.88,6.41-29,19.75-11.75-1.9-24.5-1.48-34.61,4.81s-16.38,19.71-11.6,30.61c-8-5.89-19.46-.14-26,7.32s-11.54,17-20.61,21c-13.07,5.76-29.63-2.3-42,4.8-15.11,8.67-15.89,22.6-36.54,22.35-33.73-.42-18.33,22.23-39.58,33.3-84.76,44.12-198.3-4.13-273.83-45.31-6.46-3.52-12.95-7.23-18-12.54-4.28-4.47-7.41-9.92-11.58-14.48-7.55-8.24-18-13.08-28.21-17.7-13.59-6.18-27.88-12.49-42.79-11.6-11.47-16.12-38.13-18.12-51.87-3.88-16.05-13.62-42.41-12.85-57.63,1.7a20.48,20.48,0,0,0-38.68-.35,34.55,34.55,0,0,0-33-5.88c-11.41,4.05-18.45,13.8-22.27,24.77-20.68-7-21.38,18.26-29.75,30.21-11.14,15.92-34.32,28.84-54.26,25.92,24.89,3.64,49.79-4.8,73.53-13.12l38.22-13.38c10.92,6,25.95,3,33.79-6.66,2.85,8,17.92,4.56,17-3.9,20.48,12.52,50.06,6.92,64.56-12.21a42.59,42.59,0,0,0,43.07,9.34c.75,8.58,9.48,14.69,18.06,15.51s17-2.33,25-5.42a12.68,12.68,0,0,0,4.07,14.62c6.26,4.59,14.89,2.39,22.63,1.81,22.77-1.68,43.24,12.39,63.15,23.58a289.53,289.53,0,0,0,99.76,33.92c21.13,7,56.26,7.47,68.7,8.88,26.82,3,38.29,1.61,65.15-1,53.13-5.07,105.22-20.1,153.63-42.43,71-32.79,137.12-81,214.51-92.65,64.22-9.63,130.26,7.52,188,37.31,38.08,19.66,73.24,44.71,111.75,63.51s82,31.3,124.18,23.4A497,497,0,0,1,1478,187.35Z" transform="translate(87.87 -85.69)"/></g></g></g></svg>