<svg width="2167" height="733" viewBox="0 0 2167 733" fill="none" xmlns="http://www.w3.org/2000/svg">
<g clip-path="url(#clip0)">
<path d="M68.9419 69.8829C120.804 44.4992 177.283 35.0415 232.673 39.8903C288.062 44.7391 345.681 61.8849 393.224 99.4057C443.224 138.916 481.742 195.502 524.519 245.93C566.128 295.028 611.977 335.028 668.694 349.034C743.798 367.6 820.388 358.192 893.461 331.039C929.76 317.552 965.187 300.736 999.96 281.941C1037.89 261.456 1074.69 236.072 1113.68 219.026C1269.07 151.043 1424.43 220.876 1571.89 286.92C1646.59 320.361 1720.5 350.324 1799.59 361.291C1871.48 371.289 1941.46 370.489 2010.12 338.877C2066.59 312.883 2118.84 274.483 2166.99 228.514V733H0V119.231C20.1798 99.1212 43.464 82.4546 68.9419 69.8829V69.8829Z" fill="#65D5F5"/>
<path d="M34.2183 149.223C98.0186 106.924 175.887 97.1662 246.116 114.432C304.22 128.699 351.377 173.048 392.738 224.715C433.822 276.062 470.557 333.438 515.207 380.087C565.148 432.284 625.203 466.146 690.192 472.894C761.522 480.302 831.147 456.348 895.601 419.037C930.275 398.942 963.81 375.758 996.711 351.284C1031.63 325.29 1065.46 297.057 1104.7 282.581C1251.18 228.594 1387.78 351.874 1514.35 427.155C1582.17 467.668 1657.11 494.562 1735.05 506.356C1774.54 512.284 1814.06 514.144 1853.8 513.894C1888.86 513.674 1924.46 512.894 1958.87 503.407C2028.21 484.261 2090.86 429.535 2145.52 374.098C2152.75 366.767 2159.9 359.305 2166.95 351.714V733H0V180.666C9.73557 168.471 21.2775 157.866 34.2183 149.223V149.223Z" fill="#0AC0EF"/>
<path d="M85.8728 221.616C127.224 209.359 170.695 203.88 212.681 214.727C248.137 223.895 281.207 242.9 310.878 269.034C336.636 291.778 360.214 318.402 382.267 346.745C405.28 376.328 426.848 406.93 453.339 431.844C504.636 480.132 565.148 511.305 628.423 522.712C691.51 534.079 756.162 528.71 817.812 508.415C874.014 489.95 924.341 458.068 973.35 418.977C1019.91 381.776 1065.17 340.187 1115.65 311.624C1169.04 281.411 1226.95 269.854 1284.23 288.789C1351.08 310.894 1410.13 362.431 1465.84 412.419C1522.13 462.916 1578.03 516.043 1641.49 551.455C1708.32 588.735 1781.47 613.189 1854.85 613.089C1925.33 612.999 2000.21 601.302 2067.44 574.009C2106.39 558.203 2138.92 530.6 2167.06 496.118V733H0V276.112C24.2619 248.659 52.6352 231.483 85.8728 221.616Z" fill="#3DCBF2"/>
<path d="M4.16089 515.773C37.8443 502.327 73.0632 492.319 108.401 489.71C153.101 486.411 198.653 501.337 241.302 516.703C279.789 530.646 317.253 547.31 353.418 566.571C389.499 585.726 424.797 606.721 461.977 622.427C532.901 652.42 607.549 668.286 682.405 660.688C757.816 653.04 828.462 622.387 897.612 584.926C970.081 545.656 1041.54 499.277 1118.31 474.733C1194.35 450.429 1273.79 446.95 1350.56 468.265C1425.26 489 1496.44 528.78 1560.59 581.347C1617.29 627.816 1669.96 682.672 1724.71 732.99H0V517.473L4.16089 515.773Z" fill="#65D5F5"/>
<g style="mix-blend-mode:multiply" opacity="0.5">
<path d="M1269.74 523.262C1345.18 533.259 1420.74 570.1 1487.7 614.149C1538.3 647.421 1585.23 687.571 1628.68 733.02H905.805C960.67 699.358 1009.52 651.61 1060.58 609.87C1123.76 558.253 1192.18 513.004 1269.74 523.262Z" fill="#09B0EC"/>
</g>
<g style="mix-blend-mode:multiply" opacity="0.5">
<path d="M49.4749 549.645C115.801 534.769 181.781 560.922 240.024 600.293C309.55 647.281 381.306 695.929 455.934 733H0V571.43C15.6033 561.252 32.0884 553.544 49.4749 549.645Z" fill="#09B0EC"/>
</g>
<g style="mix-blend-mode:multiply" opacity="0.5">
<path d="M1302.03 628.436C1386.96 631.905 1464.43 676.504 1536.57 733H1063.61C1080.07 723.822 1096.1 713.525 1111.57 703.377C1141.01 684.052 1170.4 661.787 1201.9 648.201C1234.08 634.314 1267.96 627.036 1302.03 628.436Z" fill="#06A0DE"/>
</g>
<g style="mix-blend-mode:multiply" opacity="0.5">
<path d="M77.6699 644.782C130.048 648.521 177.184 671.775 224.678 698.409C248.985 711.996 274.348 723.565 300.515 733H0V652.16C25.7777 647.231 51.5752 642.922 77.6699 644.782Z" fill="#06A0DE"/>
</g>
<path d="M585.952 639.413C584.129 626.156 591.331 611.95 601.961 607.821C612.592 603.692 625.342 610.18 630.295 622.217C631.504 609.53 641.678 599.033 652.278 599.543C662.879 600.053 672.36 611.47 672.716 624.237C683.98 616.159 699.663 618.408 709.035 629.435C722.845 598.523 758.272 584.906 784.416 600.443C796.453 583.847 812.344 571.35 829.8 564.751C838.815 561.352 851.377 561.442 854.676 572.109C868.179 559.233 886.992 559.503 903.675 554.294C914.206 551.015 924.133 545.396 934.02 539.927C1024.1 490.12 1121.41 449.1 1220.23 458.547C1191.66 463.38 1163.18 468.931 1134.8 475.203C1108.05 481.112 1081.39 487.68 1055.69 498.198C983.317 527.79 922.3 586.896 855.122 630.745C851.902 632.845 848.504 634.954 844.848 634.944C841.014 634.944 837.497 632.595 833.802 631.375C818.536 626.376 804.151 640.463 790.212 649.53C768.585 663.627 741.995 666.196 718.783 656.449C695.007 673.265 665.534 678.203 638.785 669.876C631.563 667.626 624.331 664.427 616.891 665.077C610.947 665.587 605.429 668.506 599.871 671.005C584.684 677.864 545.591 687.691 542.877 657.888C540.479 631.235 573.291 620.788 585.952 639.413Z" fill="#C8FFFF"/>
<path d="M584.189 285.01C575.679 280.181 523.856 226.924 518.397 217.976C511.621 206.839 510.858 192.203 505.241 180.236C499.623 168.269 484.02 160.121 476.511 170.568C483.832 137.816 454.23 102.255 425.55 109.353C431.821 93.4771 416.525 72.9221 401.971 77.6409C399.871 56.0962 378.195 40.2801 360.412 47.3084C349.94 20.315 319.269 14.9363 293.63 13.3167C286.002 12.8468 278.027 12.4469 271.082 16.106C264.593 19.5252 259.431 27.7032 260.64 35.6212C256.796 19.3452 240.727 9.3377 225.966 10.6274C210.729 11.9271 197.236 22.6244 186.556 35.2613C192.233 25.2638 186.556 10.8273 177.452 4.99877C168.347 -0.8298 157.351 -0.409901 146.998 0.579856C137.091 1.51963 126.669 3.11923 119.071 10.4274C112.938 16.336 109.966 27.2733 112.919 35.2813C107.192 28.0531 97.8799 24.554 89.6275 27.1433C79.6116 30.2826 72.1716 42.0597 72.6471 54.0167C66.0491 45.6288 54.359 43.2994 45.7004 48.6381C37.0418 53.9767 32.1676 66.4937 34.5552 77.471C33.5001 76.0862 32.1728 74.9365 30.6566 74.0938C29.1404 73.2512 27.468 72.7338 25.7443 72.5743C24.0207 72.4147 22.2829 72.6163 20.6401 73.1665C18.9973 73.7166 17.4849 74.6035 16.1977 75.7714C10.8183 80.8501 10.7192 89.768 13.2257 96.5763C-0.792573 107.244 -2.23898 117.981 2.82344 125.249C1.97144 135.357 3.64571 145.354 9.18365 150.353C18.1494 158.461 32.2469 156.412 40.3606 147.184C42.8175 144.385 45.0366 140.885 48.3752 139.866C52.9819 138.476 57.4995 142.385 62.2449 142.865C70.3487 143.705 76.3423 134.917 82.8016 129.208C101.536 112.652 130.959 119.831 148.554 101.705C157.946 109.119 169.361 113.456 181.266 114.135C193.171 114.814 204.997 111.802 215.157 105.504C220.923 118.771 236.239 120.79 249.069 122C274.869 124.46 300.208 130.516 324.361 139.996C323.212 151.663 334.862 159.721 345.027 160.471C355.191 161.22 365.742 158.061 375.381 161.84C371.032 169.508 374.965 181.495 382.633 183.935C387.121 185.364 392.461 184.045 396.097 187.414C398.771 189.893 399.574 194.122 401.357 197.502C407.599 209.319 422.597 207.609 433.931 212.158C443.174 215.857 450.327 224.155 457.886 231.333C473.476 246.213 492.571 256.832 513.364 262.186C536.467 282.741 559.996 304.745 585.684 318.672C641.701 349.067 703.702 366.543 767.218 369.839C833.039 373.168 917.505 350.644 969.11 301.046C855.052 348.574 761.611 385.615 584.189 285.01Z" fill="#C8FFFF"/>
<path d="M0.158651 337.307C48.7519 326.11 100.01 321.221 149.752 322.151C188.389 322.861 228.581 327.22 264.553 342.466C301.08 357.942 328.948 387.855 360.125 411.549C443.343 474.764 550.396 540.107 656.043 550.395C608.778 545.796 563.969 545.396 517.08 533.179C465.673 519.762 415.257 499.847 369.13 473.294C343.194 458.368 320.289 438.542 293.997 424.216C263.81 407.77 233.267 404.331 199.574 401.561C134.961 396.253 60.8085 392.634 -0.00976562 419.257L0.158651 337.307Z" fill="#09B0EC"/>
</g>
<defs>
<clipPath id="clip0">
<rect width="2167" height="733" fill="white"/>
</clipPath>
</defs>
</svg>
