<svg width="2178" height="741" viewBox="0 0 2178 741" fill="none" xmlns="http://www.w3.org/2000/svg">
<g clip-path="url(#clip0)">
<path d="M75.8592 201.702C139.979 222.277 213.868 221.787 279.946 206.367C403.335 177.441 503.35 100.017 636.38 92.3889C696.793 88.8898 750.909 104.391 800.759 128.395C847.054 150.685 889.921 177.698 940.657 194.645C1001.99 215.139 1075.62 220.889 1142.11 214.707C1212.84 208.129 1276.46 186.224 1333.91 155.747C1389.32 126.342 1440 91.3042 1500.14 66.9852C1530.12 54.8666 1563.79 44.0076 1598.44 42.6896C1632.69 41.3832 1666.44 47.3551 1697.65 57.5726C1758.9 77.576 1810.92 108.893 1865.14 137.295C1907.6 159.456 1953.75 177.511 2004.5 187.169C2051.61 196.127 2103.27 199.066 2150.11 187.519C2159.63 185.188 2168.98 182.215 2178.09 178.619V741.012H0V159.666C20.3201 177.453 45.7231 192.033 75.8592 201.702Z" fill="#65D5F5"/>
<path d="M83.9616 225.624C135.176 240.601 191.659 242.175 244.913 232.144C311.528 219.641 369.83 190.913 434.812 174.898C464.901 167.48 496.53 162.29 528.45 163.69C564.727 165.46 600.361 173.943 633.547 188.708C665.654 202.833 696.058 218.848 728.736 232.343C758.393 244.777 788.716 255.559 819.564 264.64C951.942 302.873 1098.99 299.713 1224.38 248.52C1286.81 223.047 1345.81 192.534 1401.83 160.05C1455.38 129.013 1519.04 89.4146 1591.07 88.9014C1659.06 88.3999 1718.39 117.501 1771.39 145.727C1797.35 159.561 1822.79 174.07 1849.89 186.726C1882.11 201.577 1915.37 214.052 1949.41 224.05C2005.61 240.776 2072.65 255.46 2132.6 240.239C2148.42 236.235 2163.67 230.268 2178 222.475V741.012H0V184.649C25.4375 203.014 53.8371 216.873 83.9616 225.624V225.624Z" fill="#3DCBF2"/>
<path d="M138.51 289.705C204.716 296.388 264.604 274.542 322.276 253.442C385.918 230.115 449.513 208.514 522.376 210.648C660.664 214.707 773.689 276.513 893.605 319.681C952.408 340.851 1016.9 360.773 1083.56 359.431C1153.36 358.008 1223.31 338.88 1279.34 308.379C1331.96 279.744 1372.75 241.429 1423.78 211.464C1450.33 195.87 1480.17 181.629 1513.91 176.473C1546.22 171.516 1579.4 173.58 1610.85 180.707C1674.96 195.252 1730.54 224.551 1784.74 252.661C1840.7 281.715 1898.33 310.362 1963.28 327.519C2024.16 343.603 2089.85 350.065 2151.89 333.269C2160.87 330.843 2169.56 328.009 2178 324.895V741.012H0V234.897C39.2295 262.249 85.1624 284.316 138.51 289.705Z" fill="#65D5F5"/>
<path d="M112.804 307.959C174.417 314.351 232.066 299.199 284.714 276.607C342.014 252.019 396.27 221.25 462.826 211.756C597.815 192.499 711.4 260.977 818.899 309.732C875.826 335.544 934.734 356.457 1001.34 364.435C1067.94 372.413 1143.57 373.159 1208.35 357.192C1323.33 328.884 1381.95 236.681 1502.29 215.22C1655.86 187.833 1771.37 280.269 1900.44 322.2C1931.92 332.418 1965.6 340.069 2000.28 340.256C2031.84 340.255 2063.19 335.114 2093.09 325.035C2123.19 314.82 2151.75 300.553 2178 282.625V741.012H0V263.077C28.4457 286.684 67.3488 303.235 112.804 307.959Z" fill="#0AC0EF"/>
<path d="M70.7996 435.187C113.631 408.431 152.639 379.271 205.8 361.076C271.634 338.541 349.591 323.892 424.32 330.447C492.846 336.407 552.559 359.606 608.028 385.43C638.141 399.426 667.484 413.796 700.29 425.087C732.496 436.223 765.436 445.113 798.871 451.692C869.71 465.332 941.913 470.535 1013.97 467.193C1088.29 463.845 1157.78 450.502 1228.32 435.549C1299.7 420.386 1374.05 404.733 1450.06 407.626C1490.64 409.177 1528.57 415.791 1564.78 427.968C1597.67 439.037 1628.37 452.59 1660.72 464.289C1729.05 488.992 1800.09 506.5 1875.54 519.108C1941.26 530.096 2012.36 534.796 2076.81 517.79C2108.72 509.369 2138.6 497.274 2162.61 480.979C2167.94 477.364 2173.02 473.62 2178 469.806V741.012H0V469.467C24.8395 460.804 48.5966 449.301 70.7996 435.187V435.187Z" fill="#0AAAEF"/>
<path d="M1825.51 118.574C1823.41 117.128 1821.31 115.67 1819.23 114.189C1794.47 96.6229 1767.82 76.083 1737.63 78.7307C1736.59 54.6333 1712.21 38.0941 1688.83 32.2272C1665.44 26.3603 1640.28 26.8618 1618.35 16.8077C1605.7 10.9758 1594.16 1.71472 1580.32 0.210093C1564.4 -1.51615 1549.36 7.47663 1533.49 9.75107C1516.87 12.0838 1500.12 7.05673 1483.36 6.95176C1466.61 6.84678 1447.11 14.3583 1443.12 30.6876C1428.15 26.232 1410.62 38.164 1409.31 53.7235C1395.61 51.5074 1380.75 51.9973 1368.96 59.3338C1357.18 66.6703 1349.87 82.3231 1355.44 95.0366C1346.11 88.1667 1332.75 94.8734 1325.13 103.575C1317.5 112.276 1311.68 123.403 1301.1 128.068C1285.86 134.787 1266.56 125.386 1252.14 133.667C1234.52 143.78 1233.61 160.027 1209.54 159.736C1170.22 159.246 1188.17 185.664 1163.4 198.576C1064.58 250.037 932.216 193.759 844.163 145.727C836.631 141.622 829.065 137.295 823.178 131.101C818.188 125.887 814.539 119.531 809.678 114.212C800.876 104.601 788.693 98.9557 776.79 93.567C760.947 86.3588 744.288 78.9989 726.906 80.037C713.534 61.235 682.453 58.9022 666.435 75.5115C647.724 59.6254 616.993 60.5235 599.249 77.4943C597.662 72.7965 594.652 68.7096 590.638 65.8004C586.624 62.8913 581.804 61.3042 576.848 61.2593C571.891 61.2145 567.044 62.714 562.977 65.55C558.911 68.386 555.828 72.4178 554.156 77.0861C548.852 72.7704 542.537 69.8763 535.807 68.6765C529.076 67.4766 522.151 68.0105 515.684 70.2278C502.382 74.9516 494.175 86.3238 489.722 99.119C465.613 90.9543 464.797 120.417 455.039 134.355C442.052 152.924 415.028 167.994 391.782 164.588C420.799 168.833 449.828 158.989 477.504 149.285L522.061 133.679C534.792 140.677 552.314 137.178 561.454 125.911C564.776 135.242 582.345 131.229 581.273 121.362C605.148 135.965 639.633 129.433 656.537 107.12C663.118 113.345 671.275 117.65 680.125 119.57C688.975 121.49 698.182 120.952 706.749 118.014C707.623 128.022 717.8 135.148 727.803 136.105C737.806 137.061 747.622 133.387 756.948 129.783C755.795 132.757 755.634 136.025 756.49 139.098C757.345 142.171 759.17 144.885 761.693 146.836C768.991 152.189 779.052 149.623 788.076 148.947C814.621 146.987 838.485 163.398 861.696 176.45C897.718 196.644 937.138 210.054 977.998 216.013C1002.63 224.178 1043.59 224.726 1058.09 226.371C1089.36 229.87 1102.73 228.249 1134.04 225.204C1195.98 219.291 1256.71 201.76 1313.14 175.715C1395.92 137.469 1473 81.2384 1563.22 67.6501C1638.09 56.4179 1715.08 76.4212 1782.39 111.168C1826.79 134.099 1867.78 163.316 1912.67 185.244C1957.57 207.172 2008.27 221.752 2057.44 212.538C1974.21 198.493 1895.06 166.424 1825.51 118.574V118.574Z" fill="#C8FFFF"/>
</g>
<defs>
<clipPath id="clip0">
<rect width="2178" height="741" fill="white"/>
</clipPath>
</defs>
</svg>
