<svg xmlns="http://www.w3.org/2000/svg" xmlns:xlink="http://www.w3.org/1999/xlink" viewBox="0 0 1661.17 513.7"><defs><style>.cls-1{fill:none;}.cls-2{isolation:isolate;}.cls-3{clip-path:url(#clip-path);}.cls-4{fill:#65d5f5;}.cls-5{fill:#0ac0ef;}.cls-6{fill:#09b0ec;opacity:0.5;mix-blend-mode:multiply;}.cls-7{fill:#0aadef;}.cls-8{fill:#c8ffff;}</style><clipPath id="clip-path" transform="translate(0 -170.69)"><rect class="cls-1" width="1428.26" height="758.35"/></clipPath></defs><g class="cls-2"><g id="圖層_2" data-name="圖層 2"><g id="浪3"><g class="cls-3"><path class="cls-4" d="M78,346.56c44.93,1.7,82.62-13.55,119.08-32.29,33.6-17.28,65.39-36.7,99.71-53.14,41.63-19.95,87.69-35.2,137.45-34.35,26.41.45,53.62,3.7,77.59,12.76,19.93,7.52,37.24,18.1,53,30.12,33.28,25.34,63.16,56.23,106.72,71.39,44.36,15.44,101.54,19.3,147.46,5.47,43.35-13,75.66-39.17,108.61-63.64,39.7-29.48,84.49-56.38,137.9-68.63,57.13-13.1,114.71-7,165.06,17.89,45.78,22.59,82.79,53.43,124,80.48,39.5,25.95,86.37,49.35,136.74,60,42.4,8.94,92.63,6.13,129.46-13.95A145.54,145.54,0,0,0,1661,326.51V684.39H0V323.46A166.06,166.06,0,0,0,78,346.56Z" transform="translate(0 -170.69)"/><path class="cls-5" d="M68.43,372.44a261.44,261.44,0,0,0,110.83,2c37.47-7.52,68.06-23.9,97.47-42.95,36.52-23.65,73.38-51.55,121.17-60.16,45.68-8.21,88.51,2.36,126.38,22.52,36.22,19.28,67.32,43.67,103.14,63.35,40.5,22.26,89.13,37.49,138.82,40.44,25.81,1.53,53,1,78.06-4.51a252.8,252.8,0,0,0,62-22.89c40.46-21.11,74.24-48.56,110.42-73.69,21.23-14.75,43.46-29.91,70.92-37a173.53,173.53,0,0,1,79.81-1.22c54.07,11.61,100,38.89,146,62.65,91.69,47.27,265.35,120.61,347.47,38.81V684.39H0V344.63A241.74,241.74,0,0,0,68.43,372.44Z" transform="translate(0 -170.69)"/><path class="cls-6" d="M98.67,407.14c53.23,3.19,105.51-8.09,151.72-28.41a444.73,444.73,0,0,0,67-37c18.77-12.46,37.71-25.75,60.33-33.87,55.22-19.82,110.15-1.65,152.5,28.11,36.46,25.63,74.78,48.72,120.89,62.91,47,14.47,96.6,19.05,146.89,17.57,48.52-1.43,99.93-6.28,142.44-26,19.58-9.06,37-20.67,50.2-35.2,13-14.33,23-30,34.52-45.08,11.93-15.61,25.69-31.62,45.63-41.7,24.57-12.44,52.7-15,80.91-9.27,54.57,11.11,97.63,42.56,140.92,69,41.5,25.38,84.32,50.42,133.31,66.43,72.14,23.56,160.83,43.34,235.07,20V684.39H0v-303A266,266,0,0,0,98.67,407.14Z" transform="translate(0 -170.69)"/><path class="cls-5" d="M1661.17,473.9l-34.83,2.67h0c-114.9,1.74-246.53-65.28-249.32-66.71q-34.3-21.47-68.32-43.5c-36.82-23.84-73.3-54-114.88-66.28-29.08-8.61-60.73-10.49-88.69,1.45-20.39,8.71-34.6,24.05-47.63,38.55s-25.6,28.39-41.93,40.58c-17.9,13.37-38.75,24.22-61,32.75-91,34.94-205.2,27.58-295.69-4-49.7-17.35-94.9-41.5-142-62.56-24.55-11-50.67-18.93-79.25-19.57-24.51-.54-48.16,5.55-69.42,14.64-39.87,17.05-67.41,46-105.49,65-36.15,18-78.45,28.45-121.26,30.14-40.55,1.6-80-6.07-114-23.2-8.88-4.46-18.32-9.54-27.47-15.2V684.39H1661v-6.93C1661,640,1657.21,474.19,1661.17,473.9Z" transform="translate(0 -170.69)"/><path class="cls-7" d="M1659.37,531.44c-33.46-4.32-70.42-17.32-86.76-22-73.34-20.92-145.51-48-215.87-77.32-46.68-19.48-89-48.81-139.44-58.28a221.78,221.78,0,0,0-112.61,8.2c-38,13-72.21,35.38-100.36,63.9C903.64,548,726.42,492,618,434.5c-43.89-23.28-80-40.19-131-40.29-51.2-.11-123.42,9.42-168.1,38C177.26,522.74,48.28,484.53,0,464.28v33c158.82,61.12,320.37-29.48,320.37-29.48,181.49-78.35,327,2.53,327,2.53,56.7,32.86,119.93,54.9,185.47,60.11,39,3.11,85.29,6.23,122.65-7.91,38.66-14.63,65.44-54.22,99.69-76.45,53.42-34.66,131.52-57.11,194.76-40,54.88,14.84,105.82,51.5,159,72.56,56.88,22.54,115.33,41,174.37,57,4,1.07,41.53,9,76.25,16.53C1659.44,545,1659.4,538.07,1659.37,531.44Z" transform="translate(0 -170.69)"/><path class="cls-6" d="M34.62,681.32h0L3.41,678.94,0,676.55V619.46c74.24,23.38,162.93,3.6,235.07-20,49-16,91.81-41,133.3-66.43,43.3-26.48,86.36-57.93,140.92-69,28.22-5.75,56.35-3.18,80.92,9.26,19.93,10.09,33.7,26.1,45.63,41.71,11.5,15,21.53,30.75,34.52,45.07,13.18,14.54,30.62,26.15,50.19,35.21,42.52,19.68,93.93,24.54,142.45,26,50.29,1.48,99.88-3.1,146.89-17.57,46.1-14.19,84.43-37.29,120.88-62.91,42.36-29.77,97.28-47.93,152.51-28.11,22.62,8.12,41.56,21.41,60.32,33.87a444.84,444.84,0,0,0,67,37c46.21,20.32,98.48,31.6,151.72,28.41A265.88,265.88,0,0,0,1661,586.11v17.28c-9.15,5.65-18.6,10.74-27.47,15.2-34.06,17.12-73.48,24.8-114,23.2-42.81-1.7-85.12-12.16-121.27-30.15-38.07-18.94-65.61-47.92-105.49-65-21.25-9.09-44.9-15.18-69.41-14.64-28.58.64-54.71,8.6-79.25,19.57-47.1,21.06-92.31,45.21-142,62.55-90.49,31.58-204.68,38.94-295.68,4-22.21-8.53-43.06-19.38-61-32.75-16.32-12.19-29-26.21-41.92-40.58S576.22,515,555.84,506.28c-28-11.94-59.62-10.07-88.7-1.45-41.57,12.31-78.05,42.44-114.87,66.28q-34,22-68.32,43.5C281.16,616,149.53,683.06,34.62,681.32Z" transform="translate(0 -170.69)"/><path class="cls-8" d="M300.69,237.49c-5.8-1-12.37-.52-16.67,3.5s-4.4,12.42.9,15c-7.46.41-13.05,8.7-11.58,16s8.78,12.68,16.25,13,14.69-3.82,19.27-9.72c-2.62-.11-4.28,3.79-2.38,5.61,10.86,3,23.4-5.06,25.25-16.17,9.8,8.32,27.51,3.17,31.31-9.12,11.55,3.94,25.53-1.3,31.64-11.86,18,8.05,38.73,1.43,58.43.66,19.25-.76,38.39,4.31,56,12.21,34.42,15.5,62.89,41.4,94.13,62.6s68.39,38.32,105.68,32.43a213.3,213.3,0,0,1-69.57-24.52c-7.32-4.13-14.56-8.83-19.62-15.54-3.13-4.16-5.33-8.95-8.47-13.1a36,36,0,0,0-24.37-13.85c4.29.48-2.94-9.57-3.61-10.08-4.27-3.29-9.76-4.5-14-7.76-7.29-5.6-1-13.43-6.14-19.42-5.67-6.66-18.29-.79-25.22-.48a19.64,19.64,0,0,1-11.64-2.76c-5-3.28-7.28-9-11.27-13.17-4.43-4.69-10.67-7-17-7.69-9.8-1.1-19.22,2.08-29,1-11.18-1.2-28.62-24-38.73-19.12-2.25,1.09-4.5,2.9-6.94,2.34-1.78-.41-3-2-4.23-3.35-5-5.64-13.62-10.33-21.39-9.87-1.68.09-16.53,6.1-14.43,7a58.92,58.92,0,0,0-27.66-4.51,7.85,7.85,0,0,0-3.71,1c-2.34,1.53-2.53,5.08-1.17,7.51s3.83,4,6.2,5.49c-5.21-3-11.21-5.41-17.13-4.36s-11.33,6.74-10.13,12.63c-4.44-1.75-26.62-11.74-30.25-6.9a19,19,0,0,0,.21,21.82,17.89,17.89,0,0,0,13.82,7.12A46,46,0,0,0,300.69,237.49Z" transform="translate(0 -170.69)"/><path class="cls-8" d="M1439.88,344.33c-59-23.76-117.32-54-169.93-90.68-28.24-19.66-60.66-40.22-88-62-19.26-15.38-47-18.65-69.77-9.51-5.18-.2-10.38-.15-15.56.1a21.84,21.84,0,0,0-21.39-11.39c-9.1,1.15-16.71,7.87-20.62,16.24l-1.84.28-5.39.82c-14.55-10.74-41.29-11.12-47.92,8.44a26.26,26.26,0,0,0-.92,3.49,29.6,29.6,0,0,0-7.94,9.9c-25.43-12.79-60.76,3.69-67.31,31.39-7-8.54-21.72-7.56-29.07.65s-7.58,21.19-2.49,31c-13.78-4.79-39,6.86-36.14,18.31-9.36,7.51-13.29,26.07-5.59,34.7,8.08,9,21.74,10.54,34.08,7,11.72-3.34,22.32-26,24.68-26.58,25.78-5.87,50.65-15.38,71.13-29.66,15.92-11.1,31.93-25.92,52.67-25,7.85.36,15.49,3.08,23.32,2.52,20-1.44,37.18-23.41,54.83-15.38,3.86,1.75,6.77,4.77,10.79,6.23,13.8,5,26.5-10.48,41.54-11.4,7.12-.44,13.84,2.5,20.09,5.38,46.95,21.63,90.69,50.63,137.16,73.54,51,25.14,103.73,47.08,158.56,62.32,25.68,7.14,52.61,13.14,79.43,11.49,23.29-1.42,43.34-15.33,62.5-27.87C1568.45,392.77,1491.81,365.25,1439.88,344.33Z" transform="translate(0 -170.69)"/></g></g></g></g></svg>