<svg xmlns="http://www.w3.org/2000/svg" viewBox="0 0 976 387.98">
  <g data-name="圖層 2">
    <g data-name="對話框 文字 按鈕">
      <path d="M910.59 41.65H65.41C29.44 41.65 0 68.84 0 102.08v127.84c0 33.23 29.44 60.43 65.41 60.43h366.36l21.92 38.06L488 388l34.31-59.57 21.92-38.06h366.36c36 0 65.41-27.2 65.41-60.43V102.08c0-33.24-29.44-60.43-65.41-60.43Z" style="fill:#d2d2d2"/>
      <path d="M910.59 0H65.41C29.44 0 0 27.19 0 60.43v148c0 33.23 29.44 60.43 65.41 60.43h383.44l4.84 14.72L488 388l34.31-104.42 4.84-14.72h383.44c36 0 65.41-27.2 65.41-60.43v-148C976 27.19 946.56 0 910.59 0Z" style="fill:#fff"/>
    </g>
  </g>
</svg>
