<svg xmlns="http://www.w3.org/2000/svg" xmlns:xlink="http://www.w3.org/1999/xlink" viewBox="0 0 712.36 784.74"><defs><style>.cls-1{isolation:isolate;}.cls-2{fill:#d05657;}.cls-3{fill:#e86061;}.cls-4{fill:#f09f8f;}.cls-5{fill:#fae4cc;}.cls-6{fill:#f5d7b2;}.cls-7{fill:#ed8985;}.cls-8{fill:#231815;}.cls-10,.cls-9{opacity:0.4;mix-blend-mode:multiply;}.cls-9{fill:url(#未命名漸層_33);}.cls-10{fill:url(#未命名漸層_33-2);}.cls-11{fill:#fff;}.cls-12{fill:#b3484a;}.cls-13{fill:none;stroke:#231815;stroke-linecap:round;stroke-linejoin:round;stroke-width:10px;}</style><radialGradient id="未命名漸層_33" cx="-16483.4" cy="1174.99" r="32.97" gradientTransform="matrix(-0.71, -0.71, -0.71, 0.71, -10466.26, -12228.4)" gradientUnits="userSpaceOnUse"><stop offset="0.18" stop-color="#e86678"/><stop offset="0.29" stop-color="#e86778" stop-opacity="0.98"/><stop offset="0.4" stop-color="#e96a7a" stop-opacity="0.94"/><stop offset="0.51" stop-color="#e96f7c" stop-opacity="0.85"/><stop offset="0.61" stop-color="#ea757f" stop-opacity="0.74"/><stop offset="0.72" stop-color="#eb7e83" stop-opacity="0.59"/><stop offset="0.82" stop-color="#ed8988" stop-opacity="0.41"/><stop offset="0.92" stop-color="#ee958e" stop-opacity="0.2"/><stop offset="1" stop-color="#f0a194" stop-opacity="0"/></radialGradient><radialGradient id="未命名漸層_33-2" cx="-16238.67" cy="1191.46" r="32.97" gradientTransform="matrix(-0.71, -0.71, -0.71, 0.71, -10523.96, -12104.51)" xlink:href="#未命名漸層_33"/></defs><g class="cls-1"><g id="圖層_2" data-name="圖層 2"><g id="人物"><path class="cls-2" d="M177.81,383.57c-.53-2.57-4.75-4.1-7.78-6.16a50.77,50.77,0,0,1-17.61-21.08,68.84,68.84,0,0,1-5.66-26.51c-.14-5.42,2-10.56,3.09-15.8.48-2.33,1.23-5.46.57-7.82-1.71-6.09-16.55,2.65-19.79,3.74-9.87,3.31-20.29,6.86-30.78,7.05a74.29,74.29,0,0,1-26.69-4.91c-17-6.18-32.45-16.18-50.12-20.64-29.63-7.5-26,14.62-15,35.48a206.94,206.94,0,0,0,15.55,25.77c12.35,17,27.81,32.31,46.55,42.12,24,12.58,51.35,13.56,76.83,4.7,6.47-2.25,13.25-3.45,19.61-6.07a28.07,28.07,0,0,0,9.14-5.51C177.51,386.16,178.05,384.75,177.81,383.57Z"/><path class="cls-3" d="M137.43,374.34a66.47,66.47,0,0,1-13,4.09,92.15,92.15,0,0,1-13.58,1.82,89.59,89.59,0,0,1-27.4-2.68,88.61,88.61,0,0,1-13.06-4.66,82.83,82.83,0,0,1-12-6.83,76.06,76.06,0,0,1-19.25-19.29,132.48,132.48,0,0,0,21.57,15.6,114.15,114.15,0,0,0,11.79,5.7,114.56,114.56,0,0,0,12.39,4.12,119.88,119.88,0,0,0,25.94,3.7c4.4.15,8.83.12,13.26-.16A132.2,132.2,0,0,0,137.43,374.34Z"/><path class="cls-3" d="M117.65,358.14a102.41,102.41,0,0,1-26.18-1.91,115.42,115.42,0,0,1-25.22-7.93,91.67,91.67,0,0,1-22.49-14.12,73.69,73.69,0,0,1-9.22-9.56,62.34,62.34,0,0,1-7.09-11.1,125.8,125.8,0,0,0,9.07,9.24,99.59,99.59,0,0,0,9.94,8,128.2,128.2,0,0,0,22.06,12.5,187.45,187.45,0,0,0,24,8.76C100.71,354.44,109.08,356.46,117.65,358.14Z"/><path class="cls-3" d="M123.8,337a45.54,45.54,0,0,1-17.43,2.76A69.08,69.08,0,0,1,88.86,337a94.84,94.84,0,0,1-16.33-6.5,107,107,0,0,1-14.94-9.08c5.72,1.38,11.19,3.25,16.62,5.06s10.79,3.63,16.19,5.2a143.33,143.33,0,0,0,16.37,3.8A116.64,116.64,0,0,0,123.8,337Z"/><path class="cls-2" d="M703.24,195.41c-9.14,8.78-22.1,14.29-35.86,15.29,16.56,9.22,31.84,18.28,45,26.11-9.76,8.81-24,14-39.18,14.36l-3.14-1c10.23,5.9,19.81,11.59,28.44,16.73-9.76,8.81-24,14-39.19,14.37l-3.13-1c10.23,5.91,19.81,11.59,28.44,16.73-9.77,8.81-24,14-39.19,14.37l-3.13-1c10.23,5.9,19.8,11.58,28.44,16.73-9.77,8.8-24,14-39.19,14.36l-3.13-1c10.23,5.9,19.8,11.59,28.44,16.73a56.54,56.54,0,0,1-25,12.56c5.24,3.17,10.26,6.23,15,9.11-8.35,8-19.88,13.25-32.32,14.86,24.76,20,24.61,59.72,18.86,84.9-7.73,33.8-39.37,56.35-78.07,59.39-13.29,1-50.36,2.25-60.86-7.42-10.16-9.37,11.71-24.52,14.08-35.23,4.43-20.07,6-40.72,7.12-61.32a1438.22,1438.22,0,0,0,.08-155.11c-2.81-52.61-43.51-111.93-44.59-164.06C541.54,86.78,651.68,163.76,703.24,195.41Z"/><path class="cls-3" d="M617.91,286.39a22,22,0,0,1-3.51-.12A74.86,74.86,0,0,1,603.62,284c-13.1-3.42-26.14-7.18-39.12-11.16-.13-2.09-.31-4.2-.47-6.3,24.43,8.36,47.39,15.9,57.81,18.41C623.84,285.47,618.67,286.36,617.91,286.39Z"/><path class="cls-3" d="M622.61,253.79a23.24,23.24,0,0,1-3.51-.11,74.9,74.9,0,0,1-10.78-2.24c-18.42-4.8-36.7-10.26-54.89-16.1-.36-2.35-.77-4.69-1.17-7,30,10.43,61.53,21,74.27,24.09C628.54,252.87,623.36,253.76,622.61,253.79Z"/><path class="cls-3" d="M613.16,313.28a24.67,24.67,0,0,1-3.51-.12,74.9,74.9,0,0,1-10.78-2.24c-13.75-3.58-27.42-7.55-41-11.74,0-2.06.06-4.12.08-6.18,24.93,8.54,48.56,16.31,59.17,18.87C619.09,312.35,613.91,313.24,613.16,313.28Z"/><path class="cls-3" d="M614.43,169.67c1.88.55-3.18,1.25-3.9,1.26a22.91,22.91,0,0,1-3.36-.24,66.13,66.13,0,0,1-10.09-2.58c-24-7.53-47.55-16.28-70.9-25.68q-1.84-4.45-3.83-8.91C555,147.13,599.06,165.17,614.43,169.67Z"/><path class="cls-3" d="M626.65,217.19a24.67,24.67,0,0,1-3.51-.12,73.57,73.57,0,0,1-10.78-2.24c-23.74-6.18-47.25-13.43-70.61-21.26-.72-2.58-1.48-5.16-2.26-7.75,34.16,12,75.91,26.31,91.08,30C632.58,216.27,627.4,217.16,626.65,217.19Z"/><path class="cls-3" d="M610.14,350.21a22,22,0,0,1-3.51-.12,74.86,74.86,0,0,1-10.78-2.23q-15.92-4.16-31.7-8.88.3-2.85.55-5.7c21.15,7.17,40.16,13.31,49.36,15.53C616.07,349.29,610.89,350.18,610.14,350.21Z"/><path class="cls-3" d="M524.45,441.09q1.06-3.12,2-6.27c33.63,11.8,73.61,25.45,88.38,29,2,.48-3.17,1.37-3.92,1.41a24.67,24.67,0,0,1-3.51-.12,74.62,74.62,0,0,1-10.78-2.24C572.36,456.56,548.33,449.12,524.45,441.09Z"/><path class="cls-3" d="M563.82,504.86c2,.48-3.17,1.37-3.92,1.4a24.67,24.67,0,0,1-3.51-.12,73.57,73.57,0,0,1-10.78-2.24c-15-3.91-29.94-8.25-44.8-12.89,1-1.76,2-3.53,3-5.31C529.06,494.36,553.09,502.27,563.82,504.86Z"/><path class="cls-3" d="M515.78,462.54c31.71,11.06,66.67,22.9,80.27,26.17,2,.49-3.17,1.37-3.92,1.41a24.76,24.76,0,0,1-3.52-.12,74.77,74.77,0,0,1-10.77-2.24c-21.8-5.68-43.4-12.24-64.88-19.34C513.92,466.47,514.87,464.51,515.78,462.54Z"/><path class="cls-3" d="M584.69,409.74a24.67,24.67,0,0,1-3.51-.12,73.3,73.3,0,0,1-10.78-2.24c-11.64-3-23.23-6.33-34.77-9.81.4-1.86.8-3.72,1.18-5.59,22.12,7.52,42.24,14,51.8,16.35C590.62,408.82,585.44,409.71,584.69,409.74Z"/><path class="cls-3" d="M599.9,375.37a24.67,24.67,0,0,1-3.51-.12A74.62,74.62,0,0,1,585.61,373c-8.31-2.16-16.58-4.49-24.83-6.88.27-1.77.54-3.53.79-5.3C579.8,367,595.66,372,603.82,374,605.83,374.45,600.65,375.33,599.9,375.37Z"/><path class="cls-3" d="M603.37,438a24.67,24.67,0,0,1-3.51-.12,74.9,74.9,0,0,1-10.78-2.24c-19.57-5.1-39-10.93-58.28-17.19q.76-3.09,1.51-6.19c30.22,10.5,62.13,21.23,75,24.33C609.3,437.08,604.12,438,603.37,438Z"/><path class="cls-4" d="M124.38,105.21c39.39-47.3,92.72-83.92,145.56-97.5,108.2-27.8,228.58,21.16,279.71,121.38,43.73,85.71,42.06,192.3,16.28,283.09-24,84.44-67.63,161.61-152.31,196.31-16.58,6.8-44.1,16.85-42.86,39.14,1.28,23.23,16.47,48.06,30.25,66.09,19.37,25.36,45.05,46.14,70.45,66.62-6.57,6-17.69,4.73-27,2.64-62-13.87-120.17-44-165.7-85.88-2.66-2.44-5.51-5.05-9.15-5.78s-7.51.69-11,2c-46.81,17.71-102,17.57-150.41-.38a236.38,236.38,0,0,0,87.37-48.58c8-7.07,15.71-15.33,17-25.64,4.51-35.34,3.76-74.19-9-107.88-12.5-32.93-40.08-53.5-62.47-79.32-40.93-47.2-77.59-106.33-78.73-170.64C61.34,206.47,86.37,150.87,124.38,105.21Z"/><path class="cls-2" d="M195.53,644.37c8-7.07,15.71-15.33,17-25.64A309.13,309.13,0,0,0,215,586a543.71,543.71,0,0,1,60.09,14.77,993,993,0,0,1,98.06,35,23.73,23.73,0,0,0-2.39,12c1.28,23.23,16.47,48,30.25,66.09,19.37,25.36,45.05,46.14,70.45,66.62-6.57,6-17.69,4.73-27,2.64-62-13.87-120.17-44-165.7-85.88-2.66-2.44-5.51-5.05-9.15-5.78s-7.51.69-11,2c-46.81,17.71-102,17.57-150.41-.38A236.38,236.38,0,0,0,195.53,644.37Z"/><path class="cls-3" d="M423.94,760.26a82.88,82.88,0,0,1-11.91-6.6,121.75,121.75,0,0,1-10.95-8.14,126.4,126.4,0,0,1-18.93-19.75,120.14,120.14,0,0,1-7.7-11.38c-.59-1-1.13-2-1.69-3s-1.11-2-1.61-3l-1.53-3.07-1.39-3.15a89.4,89.4,0,0,1-7-26.31c1.67,4.22,3.15,8.43,5,12.48s3.76,8,5.85,11.94,4.4,7.65,6.77,11.36l1.82,2.75c.61.92,1.27,1.81,1.9,2.71s1.26,1.8,1.92,2.68,1.3,1.78,2,2.64A205.87,205.87,0,0,0,404,742.32c3.14,3.14,6.34,6.23,9.68,9.2S420.41,757.42,423.94,760.26Z"/><path class="cls-3" d="M338.13,667.92c.18,7.46,2.4,14.3,5.35,20.81,1.48,3.26,3.14,6.45,4.9,9.62s3.53,6.31,5.44,9.38c3.75,6.18,7.8,12.17,12.1,18q3.24,4.38,6.62,8.71c2.25,2.9,4.61,5.71,6.91,8.66a93.62,93.62,0,0,1-16.89-14.6,113.62,113.62,0,0,1-13.47-17.92,110.85,110.85,0,0,1-5.37-9.87,80.39,80.39,0,0,1-4.29-10.45,48.82,48.82,0,0,1-2.33-11.16A31.07,31.07,0,0,1,338.13,667.92Z"/><path class="cls-3" d="M337.18,725a78.61,78.61,0,0,1-13.73-12.55,91.4,91.4,0,0,1-10.88-15.21,62,62,0,0,1-6.89-17.62,36.59,36.59,0,0,1-.84-9.51,26.43,26.43,0,0,1,2-9.22,48,48,0,0,0,3.06,17.57,103.61,103.61,0,0,0,7.51,16.06c2.94,5.18,6.15,10.26,9.51,15.29S333.71,719.84,337.18,725Z"/><path class="cls-3" d="M136.9,692.27a176.47,176.47,0,0,0,22.72-8.77c3.64-1.73,7.24-3.53,10.75-5.47s6.95-4,10.31-6.21a166.2,166.2,0,0,0,19.12-14.59,219.3,219.3,0,0,0,17.11-17.36,90,90,0,0,1-14.34,20.19,103.76,103.76,0,0,1-19.13,16,106.51,106.51,0,0,1-22.32,11.08,99.89,99.89,0,0,1-11.94,3.47A67.25,67.25,0,0,1,136.9,692.27Z"/><path class="cls-3" d="M237.33,641.73c-1,6.88-4.5,13.35-8.8,18.87a78.84,78.84,0,0,1-7,7.78c-2.47,2.45-5.09,4.74-7.78,7a103,103,0,0,1-17.4,11.47,81.22,81.22,0,0,1-19.42,7.31c5.95-3.55,11.77-7,17.37-10.79s11-7.73,16.28-11.93a175.67,175.67,0,0,0,15-13.34A59.89,59.89,0,0,0,237.33,641.73Z"/><path class="cls-3" d="M220.68,688.35c3.58-3,7.22-5.73,10.84-8.45s7.23-5.38,10.77-8.09,7-5.49,10.3-8.45a63.44,63.44,0,0,0,9.16-9.86,22,22,0,0,1-2.34,6.67,36.53,36.53,0,0,1-3.91,5.92,59.68,59.68,0,0,1-10.12,9.73,78.92,78.92,0,0,1-11.75,7.45A61.8,61.8,0,0,1,220.68,688.35Z"/><path class="cls-5" d="M394.62,616.83c9.77-28.47,8.09-79.71,8.11-90.74.08-55,11.92-98.16,4.15-153.23-13.63-96.65-161-147.88-244.79-135.73a87.8,87.8,0,0,0-26.83,8.23C113.19,256.41,98.4,276.55,90,302.11c-2.57,7.84-7.74,23.95-9.16,38,14.77,33.55,36.77,64.46,60.18,91.45,22.39,25.82,50,46.39,62.47,79.31,10.7,28.18,13,59.94,10.79,90.25,51.11,66.51,158.56,34.52,158.85,34.59C377.16,627.46,385.62,621.47,394.62,616.83Z"/><path class="cls-6" d="M406.88,372.86c-13.63-96.65-161-147.88-244.79-135.73a90.67,90.67,0,0,0-19.54,5.06l17.35,40.92S94.43,305,212.82,324.87c0,0,190.59,19,166.8,194.17,0,0,8.7,117.09-106.8,100.69-12.66-1.79-44.52-12.12-49.12-11.63,44.75,58.2,149.18,27.52,149.45,27.58,4-8.22,12.47-14.21,21.47-18.85,9.77-28.47,8.09-79.71,8.11-90.74C402.81,471.11,414.65,427.93,406.88,372.86Z"/><path class="cls-7" d="M484.7,194.84c9.92-4.53,14.48-16.41,11.35-27.91a25.72,25.72,0,0,1,2.24,3.95c5.6,12.25,1,26.33-10.17,31.46s-24.84-.65-30.44-12.9a28.09,28.09,0,0,1-1.53-4.28C462.81,195.05,474.77,199.38,484.7,194.84Z"/><path class="cls-7" d="M444.91,213.57c9.92-4.54,14.48-16.41,11.35-27.92a26.31,26.31,0,0,1,2.24,4c5.6,12.24,1.05,26.33-10.17,31.45s-24.84-.65-30.44-12.89a27,27,0,0,1-1.52-4.28C423,213.78,435,218.11,444.91,213.57Z"/><path class="cls-7" d="M522.35,256.73c9.93-4.54,14.48-16.41,11.36-27.92a26.27,26.27,0,0,1,2.23,4c5.6,12.24,1,26.33-10.16,31.45s-24.85-.64-30.44-12.89a26.1,26.1,0,0,1-1.53-4.28C500.47,256.94,512.43,261.27,522.35,256.73Z"/><path class="cls-7" d="M482.56,275.46c9.93-4.54,14.48-16.41,11.36-27.92a27.63,27.63,0,0,1,2.24,4c5.59,12.25,1,26.33-10.17,31.46s-24.84-.65-30.44-12.9a25.77,25.77,0,0,1-1.53-4.28C460.68,275.67,472.64,280,482.56,275.46Z"/><path class="cls-7" d="M529,220.53c9.93-4.54,14.48-16.41,11.36-27.92a27.63,27.63,0,0,1,2.24,3.95c5.59,12.25,1,26.33-10.17,31.46s-24.84-.65-30.44-12.9a26.71,26.71,0,0,1-1.53-4.28C507.08,220.74,519,225.06,529,220.53Z"/><path class="cls-7" d="M489.18,239.25c9.92-4.53,14.47-16.41,11.35-27.92a27.21,27.21,0,0,1,2.24,4c5.6,12.25,1,26.33-10.17,31.45s-24.84-.64-30.44-12.89a27.06,27.06,0,0,1-1.53-4.28C467.29,239.46,479.25,243.79,489.18,239.25Z"/><path class="cls-7" d="M551.5,328.46c9.93-4.53,14.48-16.41,11.36-27.92a27.21,27.21,0,0,1,2.24,4c5.59,12.25,1,26.33-10.17,31.45s-24.84-.64-30.44-12.89a27.06,27.06,0,0,1-1.53-4.28C529.62,328.67,541.58,333,551.5,328.46Z"/><path class="cls-7" d="M511.72,347.19c9.92-4.54,14.48-16.41,11.35-27.92a26.7,26.7,0,0,1,2.24,4c5.6,12.25,1,26.33-10.17,31.46s-24.84-.65-30.44-12.9a26.6,26.6,0,0,1-1.53-4.27C489.83,347.4,501.79,351.72,511.72,347.19Z"/><path class="cls-7" d="M517.68,313.86c9.93-4.53,14.48-16.41,11.36-27.92a26.27,26.27,0,0,1,2.23,4c5.6,12.25,1.05,26.33-10.16,31.45s-24.85-.64-30.44-12.89a26.1,26.1,0,0,1-1.53-4.28C495.8,314.07,507.76,318.4,517.68,313.86Z"/><path class="cls-7" d="M418.63,317.49c9.92-4.54,14.48-16.41,11.35-27.92a26.2,26.2,0,0,1,2.24,3.95c5.6,12.25,1,26.33-10.17,31.46s-24.84-.65-30.44-12.9a27,27,0,0,1-1.52-4.28C396.74,317.7,408.7,322,418.63,317.49Z"/><path class="cls-7" d="M428.78,282.07c9.92-4.53,14.48-16.4,11.35-27.91a26.2,26.2,0,0,1,2.24,4c5.6,12.25,1.05,26.33-10.17,31.46s-24.84-.65-30.44-12.9a27,27,0,0,1-1.52-4.28C406.89,282.29,418.85,286.61,428.78,282.07Z"/><path class="cls-7" d="M525.61,395.43c9.93-4.54,14.48-16.41,11.36-27.92a26.27,26.27,0,0,1,2.23,4c5.6,12.24,1,26.33-10.16,31.45s-24.85-.64-30.44-12.89a26.1,26.1,0,0,1-1.53-4.28C503.73,395.64,515.69,400,525.61,395.43Z"/><path class="cls-8" d="M142,162.41c-2.87,14.14,4.78,27.63,17.09,30.13s24.62-6.95,27.49-21.09-4.79-27.63-17.1-30.13S144.85,148.27,142,162.41Z"/><circle class="cls-9" cx="358.43" cy="257.97" r="32.97" transform="translate(-82.41 231.84) rotate(-32.35)"/><circle class="cls-10" cx="116.03" cy="220.46" r="32.97" transform="translate(-99.96 96.3) rotate(-32.35)"/><path class="cls-2" d="M384.79,354.88c.4-1.33,1.82-2.47,4.56-4,35.16-20.05,63.81-56.19,83.26-91.75,4.5-8.22,11.4-34.65,21.7-37,15.41-3.51,24.38,29.57,25.84,40.32,5.77,42.57,4.49,113.14-37.69,140.28-35.61,22.9-78.76-14.66-95.67-42C385.14,358,384.36,356.33,384.79,354.88Z"/><path class="cls-3" d="M423.38,353c4-2.78,7.83-5.64,11.55-8.67s7.36-6.12,10.87-9.33a175.65,175.65,0,0,0,19.38-20.73,137.2,137.2,0,0,0,15.19-23.82c1.12-2.09,2-4.29,3-6.43.87-2.2,1.87-4.37,2.61-6.64,1.76-4.45,3-9.08,4.34-13.75a78.31,78.31,0,0,1-1.72,14.51c-.24,1.2-.51,2.39-.85,3.57l-1,3.56c-.36,1.17-.77,2.33-1.16,3.49l-.6,1.75-.69,1.71a101.53,101.53,0,0,1-14.82,25.48,120.23,120.23,0,0,1-20.94,20.63A105,105,0,0,1,423.38,353Z"/><path class="cls-3" d="M438.1,371.32c5.07-3.65,10-7.26,14.81-11s9.46-7.56,13.89-11.62a134.83,134.83,0,0,0,12.46-13c1.95-2.29,3.73-4.71,5.5-7.18s3.33-5.09,5-7.77a43.89,43.89,0,0,1-2.61,9.07,56.64,56.64,0,0,1-4.36,8.44,71.36,71.36,0,0,1-12.25,14.47,87.47,87.47,0,0,1-15.21,11.14A70.76,70.76,0,0,1,438.1,371.32Z"/><path class="cls-3" d="M468.17,380.33a199.11,199.11,0,0,0,14.1-18,150.2,150.2,0,0,0,11.46-19.39A115.57,115.57,0,0,0,501.65,322a124.47,124.47,0,0,0,3.79-22.48,60.22,60.22,0,0,1,1.31,11.62c.09,2-.07,3.92-.14,5.89-.08,1-.2,2-.3,2.94l-.16,1.47-.23,1.46a79.08,79.08,0,0,1-7.21,22.48,93,93,0,0,1-13,19.62,91.37,91.37,0,0,1-8.22,8.36A63.52,63.52,0,0,1,468.17,380.33Z"/><path class="cls-11" d="M151.43,253.31c3.95.69,127.63,28.74,147.1,21.6,0,0,6.41,42.72-49.21,36.12s-75.39-10-78.68-12.35-16.73-10-17.94-12.46S151.43,253.31,151.43,253.31Z"/><path class="cls-12" d="M311.68,293.13c-1.73-4.83-4.68-8.22-8.54-9.8a21.61,21.61,0,0,0-15.09.4,13.55,13.55,0,0,0-2.1.84c-17.14,7.81-34,11.61-50.34,11.3-28,.79-64.53-11.72-77.24-34a1.48,1.48,0,0,0-.61-.58l-.29-.25c-1.77-1.5-7.15-6.06-14-5.42-4.42.41-8.54,2.92-12.19,7.42-3.78,4.33-5.13,10.14-3.91,16.81,2.43,13.23,14.83,28.84,28.79,36.29a159.32,159.32,0,0,0,64.75,20.95,152,152,0,0,0,29.78,0c20-.47,49.06-11.18,58.76-25.82C313.37,305.33,314.11,299.23,311.68,293.13Z"/><path class="cls-2" d="M304.53,237.86s-108,2.5-157.14-31.06c0,0-21-8.11-24.44,16-3.16,22.48,23.31,39.18,41.68,44.38,28.78,8.15,58.23,14.24,88.05,16.91,22.3,2,63,5.47,67.8-24.34.79-4.91.62-10.26-2.13-14.4S309.52,237.74,304.53,237.86Z"/><path class="cls-13" d="M343.49,183.87c-22.4-6.07-43-.19-62.78,10.49,8.63-4.66,37.44,7.08,45.16,10.81"/></g></g></g></svg>