<svg width="2179" height="674" viewBox="0 0 2179 674" fill="none" xmlns="http://www.w3.org/2000/svg">
<g clip-path="url(#clip0)">
<path d="M102.315 230.75C161.25 232.981 210.689 212.972 258.515 188.384C302.589 165.712 344.289 140.232 389.307 118.662C443.914 92.4863 504.332 72.4775 569.604 73.5927C604.247 74.1832 639.939 78.4473 671.381 90.3345C697.523 100.201 720.229 114.083 740.902 129.853C784.557 163.101 823.751 203.63 880.89 223.521C939.078 243.779 1014.08 248.843 1074.32 230.698C1131.18 213.641 1173.56 179.305 1216.78 147.199C1268.86 108.52 1327.61 73.2254 1397.67 57.1528C1472.61 39.9649 1548.14 47.9684 1614.18 80.6253C1674.23 110.265 1722.78 150.728 1776.84 186.219C1828.65 220.267 1890.13 250.969 1956.2 264.942C2011.82 276.672 2077.71 272.985 2126.02 246.639C2145.97 235.822 2163.84 221.534 2178.78 204.443V674H0V200.442C31.0652 218.873 66.225 229.288 102.315 230.75V230.75Z" fill="#65D5F5"/>
<path d="M89.7614 264.706C137.476 275.964 187.05 276.859 235.14 267.33C284.29 257.463 324.416 235.972 362.994 210.977C410.898 179.947 459.248 143.341 521.936 132.044C581.855 121.272 638.037 135.141 687.712 161.592C735.223 186.888 776.017 218.889 823.003 244.71C876.128 273.916 939.917 293.899 1005.1 297.769C1038.95 299.777 1074.62 299.081 1107.49 291.852C1135.8 285.444 1163.14 275.347 1188.82 261.819C1241.89 234.122 1286.2 198.106 1333.66 165.134C1361.51 145.781 1390.67 125.891 1426.69 116.588C1460.98 107.925 1496.83 107.377 1531.37 114.987C1602.3 130.22 1662.55 166.013 1722.89 197.187C1843.16 259.208 2070.95 355.434 2178.67 248.108V673.999H0V228.217C27.8751 244.908 58.1489 257.214 89.7614 264.706V264.706Z" fill="#0AC0EF"/>
<g style="mix-blend-mode:multiply" opacity="0.5">
<path d="M129.428 310.234C199.251 314.419 267.828 299.619 328.443 272.959C359.079 259.333 388.483 243.091 416.329 224.413C440.95 208.065 465.794 190.627 495.465 179.974C567.899 153.969 639.952 177.809 695.503 216.855C743.329 250.483 793.594 280.778 854.078 299.396C915.729 318.382 980.791 324.391 1046.76 322.449C1110.4 320.573 1177.84 314.209 1233.6 288.336C1259.28 276.449 1282.13 261.216 1299.45 242.152C1316.5 223.35 1329.62 202.79 1344.73 183.004C1360.38 162.523 1378.43 141.517 1404.58 128.292C1436.81 111.97 1473.71 108.611 1510.71 116.129C1582.3 130.706 1638.78 171.97 1695.56 206.661C1750 239.96 1806.17 272.814 1870.43 293.82C1965.06 324.732 2081.39 350.684 2178.78 320.061V674H0V276.449C40.5606 295.954 84.5107 307.427 129.428 310.234V310.234Z" fill="#09B0EC"/>
</g>
<path d="M2179 397.826L2133.31 401.33C1982.6 403.613 1809.93 315.679 1806.27 313.803C1776.28 295.023 1746.41 275.998 1716.66 256.728C1668.36 225.449 1620.51 185.878 1565.96 169.766C1527.82 158.469 1486.3 156.002 1449.63 171.668C1422.88 183.096 1404.24 203.223 1387.15 222.248C1370.06 241.273 1353.57 259.497 1332.15 275.491C1308.67 293.033 1281.32 307.269 1252.13 318.46C1132.77 364.303 982.968 354.647 864.27 313.212C799.077 290.448 739.787 258.762 678.005 231.13C645.802 216.698 611.54 206.293 574.051 205.454C541.9 204.745 510.878 212.735 482.991 224.662C430.692 247.032 394.567 285.016 344.617 309.945C297.198 333.562 241.712 347.273 185.557 349.49C132.366 351.59 80.6187 341.526 36.02 319.051C24.3719 313.199 11.9892 306.534 -0.0131226 299.108V674H2178.78V664.907C2178.78 615.758 2173.81 398.207 2179 397.826Z" fill="#0AC0EF"/>
<path d="M2176.64 473.322C2132.75 467.654 2084.27 450.597 2062.83 444.457C1966.63 417.009 1871.96 381.478 1779.67 343.009C1718.44 317.45 1662.93 278.968 1596.76 266.543C1547.42 257.322 1496.54 261.029 1449.05 277.302C1399.21 294.358 1354.33 323.722 1317.41 361.141C1185.33 495.049 952.864 421.574 810.647 346.132C753.075 315.587 705.709 293.4 638.811 293.269C571.65 293.125 476.917 305.629 418.309 343.127C232.517 461.907 63.3301 411.773 0 385.204V428.502C208.328 508.695 420.238 389.823 420.238 389.823C658.303 287.024 849.172 393.142 849.172 393.142C923.547 436.256 1006.49 465.174 1092.46 472.01C1143.62 476.09 1204.34 480.184 1253.34 461.631C1304.05 442.436 1339.18 390.492 1384.11 361.325C1454.18 315.85 1556.63 286.394 1639.58 308.843C1711.57 328.314 1778.39 376.414 1848.14 404.046C1922.75 433.619 1999.42 457.84 2076.87 478.832C2082.12 480.236 2131.35 490.641 2176.89 500.52C2176.73 491.113 2176.68 482.021 2176.64 473.322Z" fill="#0AADEF"/>
<g style="mix-blend-mode:multiply" opacity="0.5">
<path d="M45.412 669.971L4.47299 666.849L0 663.713V588.808C97.3825 619.484 213.72 593.532 308.347 562.567C372.622 541.574 428.777 508.773 483.201 475.408C539.998 440.665 596.481 399.401 668.049 384.876C705.066 377.332 741.965 380.704 774.194 397.026C800.337 410.264 818.399 431.27 834.048 451.751C849.133 471.432 862.289 492.097 879.329 510.885C896.617 529.963 919.494 545.196 945.164 557.083C1000.94 582.904 1068.37 589.28 1132.02 591.196C1197.99 593.138 1263.03 587.129 1324.7 568.143C1385.17 549.525 1435.45 519.217 1483.26 485.602C1538.83 446.543 1610.87 422.716 1683.31 448.721C1712.98 459.374 1737.83 476.812 1762.44 493.16C1790.28 511.837 1819.69 528.079 1850.32 541.706C1910.94 568.366 1979.5 583.166 2049.34 578.981C2094.27 576.134 2138.22 564.612 2178.78 545.051V567.723C2166.77 575.137 2154.38 581.815 2142.74 587.667C2098.07 610.129 2046.36 620.205 1993.21 618.106C1937.05 615.876 1881.55 602.152 1834.13 578.548C1784.2 553.698 1748.07 515.674 1695.76 493.265C1667.89 481.338 1636.86 473.348 1604.71 474.056C1567.22 474.896 1532.95 485.34 1500.76 499.733C1438.98 527.365 1379.67 559.051 1314.49 581.802C1195.8 623.236 1046.01 632.893 926.643 587.05C897.509 575.858 870.16 561.622 846.627 544.08C825.22 528.086 808.587 509.691 791.64 490.837C774.692 471.983 755.843 451.751 729.11 440.31C692.382 424.644 650.905 427.098 612.76 438.408C558.231 454.559 510.379 494.091 462.082 525.37C432.349 544.614 402.477 563.639 372.465 582.445C368.805 584.268 196.142 672.254 45.412 669.971Z" fill="#09B0EC"/>
</g>
<path d="M394.423 87.6447C386.815 86.3326 378.197 86.9624 372.556 92.2368C366.916 97.5113 366.785 108.532 373.737 111.918C363.952 112.456 356.619 123.332 358.547 132.91C360.475 142.488 370.064 149.547 379.863 149.967C389.661 150.387 399.132 144.955 405.14 137.214C401.703 137.07 399.526 142.187 402.018 144.574C416.263 148.511 432.712 137.935 435.139 123.359C447.994 134.275 471.224 127.518 476.209 111.393C491.359 116.562 509.697 109.687 517.712 95.8318C541.323 106.394 568.515 97.7081 594.356 96.6978C619.607 95.7006 644.713 102.353 667.813 112.718C712.962 133.055 750.307 167.037 791.286 194.852C832.264 222.668 880.995 245.13 929.909 237.402C897.853 232.061 866.972 221.174 838.652 205.231C829.05 199.812 819.553 193.645 812.916 184.841C808.81 179.383 805.924 173.098 801.806 167.653C797.963 162.64 793.154 158.449 787.663 155.328C782.172 152.206 776.111 150.218 769.839 149.482C775.466 150.111 765.982 136.925 765.104 136.256C759.503 131.939 752.301 130.352 746.739 126.075C737.177 118.727 745.428 108.454 738.685 100.595C731.248 91.8563 714.694 99.5581 705.604 99.9648C700.261 100.375 694.924 99.1094 690.335 96.3435C683.777 92.04 680.786 84.5351 675.552 79.0638C669.741 72.9103 661.556 69.8795 653.253 68.9742C640.398 67.5309 628.041 71.7032 615.213 70.2862C600.548 68.7118 577.671 38.797 564.409 45.1998C561.458 46.63 558.507 49.0048 555.306 48.27C552.971 47.7321 551.371 45.6459 549.757 43.8747C543.199 36.4747 531.892 30.3212 521.7 30.9247C519.496 31.0428 500.017 38.9282 502.771 40.1091C491.329 35.2465 478.883 33.2166 466.489 34.1917C464.783 34.2191 463.111 34.67 461.623 35.5038C458.553 37.5112 458.304 42.169 460.088 45.3573C461.872 48.5456 465.112 50.6055 468.221 52.5604C461.387 48.6243 453.516 45.4622 445.751 46.8399C437.985 48.2175 430.889 55.6831 432.463 63.4111C426.639 61.115 397.545 48.0076 392.783 54.3579C389.883 58.58 388.353 63.5934 388.402 68.7159C388.452 73.8384 390.078 78.8214 393.059 82.9869C395.183 85.8078 397.916 88.1129 401.055 89.7303C404.194 91.3478 407.657 92.236 411.187 92.3287C405.854 89.9651 400.208 88.3874 394.423 87.6447V87.6447Z" fill="#C8FFFF"/>
<path d="M1888.73 227.824C1811.34 196.65 1734.84 156.973 1665.83 108.847C1628.78 83.0524 1586.26 56.0767 1550.39 27.5003C1525.13 7.32093 1488.74 3.03054 1458.88 15.0227C1452.08 14.7603 1445.26 14.8259 1438.47 15.1539C1435.79 10.1703 1431.69 6.0917 1426.7 3.4322C1421.71 0.772708 1416.04 -0.348598 1410.41 0.209637C1398.47 1.71849 1388.49 10.5355 1383.36 21.5173L1380.95 21.8847L1373.88 22.9606C1354.79 8.86916 1319.71 8.37059 1311.02 34.0343C1310.51 35.5311 1310.11 37.0611 1309.81 38.6133C1305.44 42.139 1301.89 46.5706 1299.4 51.6026C1266.04 34.8215 1219.7 56.4441 1211.1 92.7879C1201.92 81.583 1182.61 82.8688 1172.97 93.6407C1163.33 104.413 1163.03 121.443 1169.71 134.314C1151.63 128.03 1118.55 143.315 1122.3 158.338C1110.02 168.191 1104.87 192.543 1114.97 203.866C1125.57 215.674 1143.48 217.695 1159.67 213.05C1175.04 208.668 1188.95 178.937 1192.04 178.176C1225.86 170.474 1258.48 157.997 1285.35 139.261C1306.23 124.697 1327.23 105.252 1354.44 106.459C1364.73 106.932 1374.75 110.501 1385.03 109.766C1411.26 107.876 1433.8 79.0507 1456.95 89.5865C1462.01 91.8826 1465.83 95.8449 1471.1 97.7605C1489.2 104.321 1505.86 84.0103 1525.59 82.8032C1534.93 82.2259 1543.74 86.0833 1551.94 89.862C1613.53 118.242 1670.9 156.291 1731.86 186.35C1798.76 219.335 1867.92 248.121 1939.85 268.117C1973.53 277.485 2008.86 285.357 2044.04 283.193C2074.59 281.329 2100.89 263.079 2126.02 246.626C2057.38 291.38 1956.85 255.272 1888.73 227.824Z" fill="#C8FFFF"/>
</g>
<defs>
<clipPath id="clip0">
<rect width="2179" height="674" fill="white"/>
</clipPath>
</defs>
</svg>
