<svg xmlns="http://www.w3.org/2000/svg" xmlns:xlink="http://www.w3.org/1999/xlink" viewBox="0 0 527.43 627.14"><defs><style>.cls-1{isolation:isolate;}.cls-2{fill:#d05657;}.cls-3{fill:#e86061;}.cls-4{fill:#f09f8f;}.cls-5{fill:#fae4cc;}.cls-6{fill:#f5d7b2;}.cls-7{fill:#ed8985;}.cls-8{fill:#231815;}.cls-10,.cls-9{opacity:0.4;mix-blend-mode:multiply;}.cls-9{fill:url(#未命名漸層_33);}.cls-10{fill:url(#未命名漸層_33-2);}.cls-11{fill:#b3484a;}</style><radialGradient id="未命名漸層_33" cx="-10041.32" cy="-157.02" r="27.8" gradientTransform="matrix(-0.71, -0.71, -0.71, 0.71, -6967.4, -6780.07)" gradientUnits="userSpaceOnUse"><stop offset="0.18" stop-color="#e86678"/><stop offset="0.29" stop-color="#e86778" stop-opacity="0.98"/><stop offset="0.4" stop-color="#e96a7a" stop-opacity="0.94"/><stop offset="0.51" stop-color="#e96f7c" stop-opacity="0.85"/><stop offset="0.61" stop-color="#ea757f" stop-opacity="0.74"/><stop offset="0.72" stop-color="#eb7e83" stop-opacity="0.59"/><stop offset="0.82" stop-color="#ed8988" stop-opacity="0.41"/><stop offset="0.92" stop-color="#ee958e" stop-opacity="0.2"/><stop offset="1" stop-color="#f0a194" stop-opacity="0"/></radialGradient><radialGradient id="未命名漸層_33-2" cx="-9834.96" cy="-143.13" r="27.8" gradientTransform="matrix(-0.71, -0.71, -0.71, 0.71, -7013.88, -6600.54)" xlink:href="#未命名漸層_33"/></defs><g class="cls-1"><g id="圖層_2" data-name="圖層 2"><g id="浪3"><path class="cls-2" d="M496.66,56.09C492.1,65.76,483.56,74,473,78.93c15.82,2.27,30.58,4.8,43.29,7-5,9.88-14.66,18.26-26.54,23.12l-2.78.13c9.84,1.57,19.09,3.16,27.44,4.61-5,9.88-14.66,18.25-26.54,23.11l-2.78.14c9.84,1.56,19.09,3.16,27.44,4.61-5,9.88-14.66,18.25-26.54,23.11l-2.78.13c9.84,1.57,19.09,3.17,27.44,4.62-5,9.87-14.66,18.25-26.54,23.11l-2.78.13c9.83,1.57,19.08,3.16,27.44,4.61a47.69,47.69,0,0,1-15.88,17.41c5.08.92,10,1.82,14.52,2.67a48.51,48.51,0,0,1-21,21.44c25.53,8.3,37.37,39.63,40.42,61.19,4.1,28.95-14,56.24-43.61,70.28-10.15,4.83-39,16.94-50.16,12.48-10.82-4.31,1.84-22.83.48-32C431,333.72,426,317,420.71,300.42a1214.26,1214.26,0,0,0-46.64-122.2c-18.05-40.59-68-75-84.51-115.78C336.59,19.22,446.52,46.68,496.66,56.09Z"/><path class="cls-3" d="M456.85,153.44a20.45,20.45,0,0,1-2.8,1,63.18,63.18,0,0,1-9.16,1.48c-11.36,1.26-22.76,2.22-34.18,3-.73-1.61-1.51-3.22-2.27-4.82,21.76-.77,42.11-1.75,51.08-2.91C461.24,150.92,457.43,153.18,456.85,153.44Z"/><path class="cls-3" d="M450.74,126.35a20.59,20.59,0,0,1-2.81,1,63,63,0,0,1-9.16,1.48c-16,1.77-32,3-48.08,3.85-1-1.74-2-3.46-3-5.19,26.77-.82,54.79-2,65.75-3.39C455.13,123.83,451.32,126.09,450.74,126.35Z"/><path class="cls-3" d="M461.2,176a19.18,19.18,0,0,1-2.8,1,63,63,0,0,1-9.16,1.49c-11.91,1.32-23.88,2.31-35.87,3.11q-.87-2.46-1.8-4.9c22.22-.77,43.17-1.77,52.3-2.95C465.6,173.53,461.78,175.79,461.2,176Z"/><path class="cls-3" d="M419,62.55c1.64-.13-2.13,1.94-2.7,2.17a19.5,19.5,0,0,1-2.71.82,54.25,54.25,0,0,1-8.72,1c-21.15,1.29-42.36,1.5-63.58,1.13-1.86-2-3.77-3.93-5.7-5.87C365.32,62.71,405.5,63.63,419,62.55Z"/><path class="cls-3" d="M442.9,96.3a18.91,18.91,0,0,1-2.81,1,63,63,0,0,1-9.16,1.49c-20.56,2.27-41.26,3.64-62,4.51-1.34-1.82-2.72-3.62-4.11-5.42C395.32,97,432.51,95.7,445.56,94,447.29,93.79,443.48,96.05,442.9,96.3Z"/><path class="cls-3" d="M470,206a19.31,19.31,0,0,1-2.81,1,61.63,61.63,0,0,1-9.16,1.49c-9.19,1-18.4,1.85-27.64,2.55q-.63-2.32-1.29-4.65c18.82-.73,35.64-1.61,43.56-2.64C474.34,203.53,470.53,205.79,470,206Z"/><path class="cls-3" d="M429.81,303.42q-.1-2.78-.3-5.55c30-.83,65.64-2.11,78.35-3.76,1.72-.22-2.09,2-2.67,2.29a20.46,20.46,0,0,1-2.8,1,63.18,63.18,0,0,1-9.16,1.48C472.21,301.18,451,302.56,429.81,303.42Z"/><path class="cls-3" d="M480,341.79c1.73-.23-2.09,2-2.67,2.29a20.45,20.45,0,0,1-2.8,1,63,63,0,0,1-9.16,1.48c-13,1.44-26.07,2.52-39.17,3.34.27-1.7.53-3.4.77-5.09C449.49,344,470.8,343,480,341.79Z"/><path class="cls-3" d="M429.45,322.92c28.3-.83,59.4-2,71.1-3.55,1.72-.22-2.09,2-2.67,2.29a20.45,20.45,0,0,1-2.8,1,61.84,61.84,0,0,1-9.16,1.48c-18.88,2.1-37.87,3.43-56.92,4.31Q429.26,325.66,429.45,322.92Z"/><path class="cls-3" d="M467.82,260.59a19.18,19.18,0,0,1-2.8,1,61.63,61.63,0,0,1-9.16,1.49c-10.09,1.11-20.2,2-30.34,2.73-.25-1.58-.5-3.17-.76-4.75,19.69-.74,37.5-1.65,45.73-2.72C472.22,258.08,468.4,260.34,467.82,260.59Z"/><path class="cls-3" d="M469.45,228.94a20.45,20.45,0,0,1-2.8,1,61.63,61.63,0,0,1-9.16,1.48c-7.2.8-14.41,1.46-21.63,2.06-.32-1.47-.64-2.94-1-4.41,16.2-.67,30.21-1.47,37.23-2.38C473.85,226.43,470,228.69,469.45,228.94Z"/><path class="cls-3" d="M491.05,277.23a20.13,20.13,0,0,1-2.81,1,61.63,61.63,0,0,1-9.16,1.48c-16.94,1.88-34,3.14-51.08,4-.22-1.77-.44-3.55-.68-5.33,27-.82,55.34-2,66.39-3.41C495.44,274.72,491.63,277,491.05,277.23Z"/><path class="cls-4" d="M13.58,159.34c16.78-49.12,47.76-94,85.29-120.62,76.84-54.48,186.4-52.16,256.85,11.38,60.25,54.33,91,138.79,98.06,218.06,6.54,73.72-4.61,147.65-60.85,200.48-11,10.35-29.66,26.55-22,43.73,8,17.91,27.45,32.89,43.73,43,22.89,14.14,49.38,22.77,75.55,31.26-3.36,6.74-12.51,9-20.5,10.22-53,7.73-107.91,1.49-156.37-17.75-2.83-1.13-5.86-2.32-8.94-1.8s-5.71,2.81-8.06,4.9c-31.55,28-75.09,44.56-118.58,45A199.57,199.57,0,0,0,232,562.57c4.14-8,7.75-16.81,5.69-25.33-7.1-29.19-19.38-59.55-39.61-82.24-19.76-22.18-47.68-30.07-73.08-43.66C78.5,386.49,31.83,351,11.57,300.65-5.58,258.07-2.62,206.74,13.58,159.34Z"/><path class="cls-2" d="M232,562.57c4.14-8,7.75-16.81,5.69-25.33a260.67,260.67,0,0,0-8-26.55,458.28,458.28,0,0,1,51.78-6.46,837,837,0,0,1,87.76-2A20.14,20.14,0,0,0,371,512.37c8,17.91,27.45,32.89,43.73,43,22.89,14.14,49.38,22.77,75.55,31.26-3.36,6.74-12.51,9-20.5,10.22-53,7.73-107.91,1.49-156.37-17.75-2.83-1.13-5.86-2.32-8.94-1.8s-5.71,2.81-8.06,4.9c-31.55,28-75.09,44.56-118.58,45A199.57,199.57,0,0,0,232,562.57Z"/><path class="cls-3" d="M446.75,585.07a70.32,70.32,0,0,1-11.36-1.61,99.5,99.5,0,0,1-11.07-3.13,104.94,104.94,0,0,1-20.87-9.84,93,93,0,0,1-18.06-14.42A74.72,74.72,0,0,1,372,537.45a156.8,156.8,0,0,0,15.92,16c2.82,2.43,5.77,4.7,8.76,6.91s6.1,4.23,9.25,6.19A178.74,178.74,0,0,0,425.65,577,207.22,207.22,0,0,0,446.75,585.07Z"/><path class="cls-3" d="M351.36,538.18A44.94,44.94,0,0,0,361.85,553c2.14,2.12,4.41,4.13,6.75,6.1s4.68,3.9,7.11,5.75q7.23,5.6,15,10.56c5.14,3.35,10.47,6.42,15.89,9.61a79.42,79.42,0,0,1-17.7-6.41,96.74,96.74,0,0,1-16-10.06,93.91,93.91,0,0,1-7.2-6.16,67,67,0,0,1-6.52-6.94,42.33,42.33,0,0,1-5.2-8.08A26.33,26.33,0,0,1,351.36,538.18Z"/><path class="cls-3" d="M367.81,583.42a66,66,0,0,1-14.6-5.75,77,77,0,0,1-13.15-8.7,52.71,52.71,0,0,1-10.73-11.8c-2.92-4.47-4.92-9.82-4.74-15.1a40.55,40.55,0,0,0,7.7,12.92A87.26,87.26,0,0,0,343,565.37c3.87,3.2,7.93,6.23,12.09,9.18S363.52,580.4,367.81,583.42Z"/><path class="cls-3" d="M200.2,618a149.48,149.48,0,0,0,15.25-13.76c1.15-1.25,2.35-2.46,3.47-3.72l3.36-3.82,3.18-3.95c1.09-1.3,2-2.71,3-4.06l1.51-2,1.39-2.12c.91-1.42,1.91-2.79,2.76-4.24l2.58-4.38.65-1.09c.21-.37.38-.76.58-1.13l1.17-2.26,1.18-2.26.59-1.13.52-1.16,2.1-4.67c.8-1.54,1.32-3.16,2-4.76s1.27-3.21,2-4.81c-.24,1.71-.53,3.42-.83,5.14a44.73,44.73,0,0,1-1.11,5.11l-1.49,5c-.13.42-.23.85-.39,1.25l-.49,1.22-1,2.44a80.2,80.2,0,0,1-4.51,9.51c-.38.79-.88,1.51-1.34,2.27l-1.39,2.23L233.5,589,232,591.15l-1.58,2.11c-.52.71-1,1.42-1.62,2.08l-3.44,4-3.69,3.75c-1.24,1.24-2.59,2.37-3.89,3.53A69.47,69.47,0,0,1,200.2,618Z"/><path class="cls-3" d="M264.09,547.9c1.25,5.73.49,11.87-1.27,17.51a61.39,61.39,0,0,1-3.18,8.25c-1.21,2.67-2.58,5.27-4,7.81a85.31,85.31,0,0,1-10.26,14.27,67.54,67.54,0,0,1-13.09,11.61c3.62-4.58,7.16-9.06,10.44-13.72s6.35-9.41,9.22-14.3a155.86,155.86,0,0,0,7.86-15A51.28,51.28,0,0,0,264.09,547.9Z"/><path class="cls-3" d="M265,589.63c1.92-3.44,4-6.69,6-9.92s4.08-6.41,6.05-9.61,3.86-6.44,5.57-9.76a53.35,53.35,0,0,0,4.25-10.52,24.34,24.34,0,0,1-1.14,11.8,50,50,0,0,1-5,10.71,66.76,66.76,0,0,1-7,9.4A51.66,51.66,0,0,1,265,589.63Z"/><path class="cls-2" d="M175.15,328.81c-2.19-.3-4.59,2.63-7.08,4.45a42.77,42.77,0,0,1-21.7,8.11,58,58,0,0,1-22.67-2.93c-4.35-1.41-7.83-4.57-11.7-6.89-1.72-1-4-2.5-6.06-2.64-5.32-.35-2.53,13.9-2.57,16.78-.13,8.79-.23,18.07-3,26.47A62.73,62.73,0,0,1,89,392c-9.68,11.81-22,21.28-30.46,34.08-14.26,21.46,4.35,24.76,24,21.88a174.27,174.27,0,0,0,24.85-5.15c17-5.06,33.49-13.06,46.54-25.22,16.75-15.59,25.17-37,25.27-59.78,0-5.78,1-11.51.66-17.3A23.72,23.72,0,0,0,178,331.7C177.12,329.77,176.16,329,175.15,328.81Z"/><path class="cls-3" d="M156.49,358.33a55.83,55.83,0,0,1-.39,11.48,75.76,75.76,0,0,1-2.36,11.31,71.69,71.69,0,0,1-17.16,30.12,69.52,69.52,0,0,1-8.81,7.65A63.82,63.82,0,0,1,107,428.8,113.76,113.76,0,0,0,125.5,416a102.65,102.65,0,0,0,7.82-7.79,97.71,97.71,0,0,0,6.75-8.7A103.31,103.31,0,0,0,150.3,380c1.34-3.46,2.55-7,3.57-10.6A111.18,111.18,0,0,0,156.49,358.33Z"/><path class="cls-3" d="M138.07,369.53a85.2,85.2,0,0,1-8.87,20.27,95.77,95.77,0,0,1-13.36,17.85A76.44,76.44,0,0,1,98.3,421.56a60.36,60.36,0,0,1-10.18,4.67,52.86,52.86,0,0,1-10.81,2.53,107.73,107.73,0,0,0,9.89-4.63c.81-.39,1.58-.87,2.36-1.31s1.56-.88,2.31-1.38,1.51-1,2.27-1.44l2.21-1.52a110.4,110.4,0,0,0,16.11-14.05q3.69-3.89,7.11-8.05c2.27-2.78,4.45-5.65,6.58-8.56Q132.48,379,138.07,369.53Z"/><path class="cls-3" d="M123,358.72a38.4,38.4,0,0,1-2.69,14.63,58.44,58.44,0,0,1-7.14,13.14,80,80,0,0,1-9.74,11.17A90.67,90.67,0,0,1,92,407c2.7-4.16,5.72-8,8.68-11.79s5.91-7.57,8.67-11.42a118.45,118.45,0,0,0,7.61-12A98.48,98.48,0,0,0,123,358.72Z"/><path class="cls-5" d="M380.47,480.93c-.87-25.36-17.62-65.22-20.93-73.91-16.49-43.33-20.17-80.9-42.87-121.94-39.84-72-171.37-68-233.67-33.2a73.84,73.84,0,0,0-18.65,14.57c-14.06,15.34-19.64,35.66-18.55,58.31.34,6.95,1.12,21.2,4.22,32.67,21.73,22,48.37,39.69,74.94,53.91,25.4,13.59,53.32,21.48,73.08,43.66,16.91,19,28.25,43.3,35.67,67.83,60.28,37,135.28-20.56,135.53-20.59C369.93,494.55,374.78,487.29,380.47,480.93Z"/><path class="cls-6" d="M316.67,285.08c-39.84-72-171.37-68-233.67-33.2a75.55,75.55,0,0,0-13.86,9.88l26,27s-45,37,54.26,16.95c0,0,155.82-42.44,189.84,102.72,0,0,42.1,89.59-53.81,111.46-10.5,2.4-38.71,3.85-42.19,5.63,52.78,32.37,125.79-23.25,126-23.28.69-7.69,5.54-14.95,11.23-21.31-.87-25.36-17.62-65.22-20.93-73.91C343.05,363.69,339.37,326.12,316.67,285.08Z"/><path class="cls-7" d="M324.36,121.44c6.45-6.56,6.46-17.28.54-25.41a23.29,23.29,0,0,1,3,2.44c8.1,8,8.75,20.43,1.46,27.84s-19.76,7-27.85-1a22,22,0,0,1-2.5-2.91C307.19,128.2,317.91,128,324.36,121.44Z"/><path class="cls-7" d="M298.66,148.17c6.45-6.56,6.46-17.28.54-25.41a23.29,23.29,0,0,1,2.95,2.44c8.1,8,8.75,20.43,1.46,27.84s-19.76,7-27.85-1a22.66,22.66,0,0,1-2.5-2.91C281.49,154.93,292.21,154.73,298.66,148.17Z"/><path class="cls-7" d="M372.65,158.85c6.45-6.56,6.47-17.29.54-25.41a22.46,22.46,0,0,1,2.95,2.44c8.1,8,8.75,20.42,1.46,27.84s-19.76,7-27.85-1a23.27,23.27,0,0,1-2.49-2.91C355.48,165.6,366.2,165.41,372.65,158.85Z"/><path class="cls-7" d="M347,185.58c6.45-6.56,6.47-17.29.54-25.41a21.7,21.7,0,0,1,2.95,2.44c8.1,8,8.75,20.42,1.47,27.84s-19.77,7-27.86-1a22.65,22.65,0,0,1-2.49-2.92C329.78,192.33,340.5,192.14,347,185.58Z"/><path class="cls-7" d="M367,128.34c6.45-6.56,6.46-17.28.54-25.41a23.29,23.29,0,0,1,2.95,2.44c8.1,8,8.75,20.43,1.46,27.84s-19.76,7-27.86-1a22.69,22.69,0,0,1-2.49-2.91C349.79,135.1,360.51,134.9,367,128.34Z"/><path class="cls-7" d="M341.26,155.07c6.45-6.56,6.46-17.28.54-25.41a23.29,23.29,0,0,1,2.95,2.44c8.1,8,8.75,20.43,1.46,27.84s-19.76,7-27.86-1a23.39,23.39,0,0,1-2.49-2.91C324.09,161.83,334.81,161.63,341.26,155.07Z"/><path class="cls-7" d="M417.21,206.57c6.45-6.56,6.46-17.29.54-25.41a21.7,21.7,0,0,1,2.95,2.44c8.1,8,8.75,20.42,1.46,27.84s-19.76,7-27.85-1a22.65,22.65,0,0,1-2.49-2.92C400,213.32,410.76,213.13,417.21,206.57Z"/><path class="cls-7" d="M391.51,233.3c6.45-6.57,6.47-17.29.54-25.41a21.7,21.7,0,0,1,2.95,2.44c8.1,8,8.75,20.42,1.46,27.84s-19.76,7-27.85-1a21.92,21.92,0,0,1-2.49-2.91C374.34,240.05,385.06,239.86,391.51,233.3Z"/><path class="cls-7" d="M386.18,205.25c6.45-6.56,6.46-17.28.53-25.41a22.69,22.69,0,0,1,3,2.44c8.09,8,8.75,20.43,1.46,27.84s-19.76,7-27.86-1a21.92,21.92,0,0,1-2.49-2.91C369,212,379.73,211.81,386.18,205.25Z"/><path class="cls-7" d="M309.25,237.93c6.45-6.56,6.46-17.28.54-25.41a23.29,23.29,0,0,1,2.95,2.44c8.1,8,8.75,20.43,1.46,27.84s-19.76,7-27.86-1a23.39,23.39,0,0,1-2.49-2.91C292.08,244.69,302.8,244.49,309.25,237.93Z"/><path class="cls-7" d="M306.58,207c6.45-6.56,6.47-17.28.54-25.4a21.7,21.7,0,0,1,2.95,2.44c8.1,8,8.75,20.42,1.46,27.83s-19.76,7-27.85-1a21.92,21.92,0,0,1-2.49-2.91C289.41,213.74,300.13,213.55,306.58,207Z"/><path class="cls-7" d="M417,267.11c6.45-6.56,6.47-17.28.54-25.41a23.29,23.29,0,0,1,3,2.44c8.1,8,8.75,20.43,1.47,27.84s-19.77,7-27.86-1a22.57,22.57,0,0,1-2.49-2.91C399.81,273.86,410.53,273.67,417,267.11Z"/><path class="cls-8" d="M168.07,175.53c2,12,12.09,20.32,22.54,18.58s17.29-12.89,15.29-24.89-12.09-20.32-22.53-18.58S166.07,163.52,168.07,175.53Z"/><path class="cls-8" d="M44.66,199.09c2,12,12.09,20.32,22.54,18.58s17.29-12.88,15.29-24.88S70.4,172.47,60,174.21,42.66,187.09,44.66,199.09Z"/><circle class="cls-9" cx="243.92" cy="209.18" r="27.8" transform="translate(-69.61 279.58) rotate(-53.27)"/><circle class="cls-10" cx="41.7" cy="252.62" r="27.8" transform="translate(-185.71 134.97) rotate(-53.27)"/><path class="cls-11" d="M198.78,243.8s-75.4,30.84-119,20.44c0,0-17-.05-12.89,17.86,3.82,16.67,27,21.31,41.29,20a363,363,0,0,0,66.56-11.8c16.24-4.61,45.83-13.11,41.19-35.39-.77-3.67-2.33-7.39-5.38-9.57S202.25,242.38,198.78,243.8Z"/><path class="cls-2" d="M195.41,209.57s-84.33,34.49-133.12,22.85c0,0-19,0-14.42,20,4.27,18.65,30.15,23.84,46.18,22.41,25.12-2.25,50.16-6.32,74.45-13.2,18.16-5.15,51.27-14.66,46.07-39.58-.86-4.11-2.61-8.27-6-10.71S199.3,208,195.41,209.57Z"/><path class="cls-2" d="M358,252.91c-2.08.74-2.87,4.44-4.24,7.21a42.76,42.76,0,0,1-15.56,17.16,57.71,57.71,0,0,1-21.48,7.8c-4.51.75-9.06-.46-13.55-.74-2-.13-4.71-.39-6.61.44-4.88,2.13,4.14,13.51,5.43,16.09,3.91,7.86,8.08,16.15,9.46,24.89a62.6,62.6,0,0,1-1,22.86c-3.18,14.93-9.73,29-11.41,44.25-2.82,25.62,15.23,20,31.38,8.42a174.5,174.5,0,0,0,19.71-16c12.76-12.28,23.75-27,29.77-43.76,7.72-21.54,5.36-44.47-5-64.72-2.63-5.14-4.42-10.67-7.35-15.67a24,24,0,0,0-5.66-7C360.15,252.86,358.91,252.57,358,252.91Z"/><path class="cls-3" d="M354.94,287.71a56.3,56.3,0,0,1,4.92,10.37A76.13,76.13,0,0,1,363,309.21a75.18,75.18,0,0,1,.95,23.2,74.23,74.23,0,0,1-2.37,11.44,67.65,67.65,0,0,1-4.32,10.84A63.65,63.65,0,0,1,343.35,373a114.51,114.51,0,0,0,10.54-19.82,101.11,101.11,0,0,0,3.37-10.51,94.64,94.64,0,0,0,2-10.83,102.57,102.57,0,0,0,.1-22.09c-.4-3.7-.95-7.39-1.7-11.06A113,113,0,0,0,354.94,287.71Z"/><path class="cls-3" d="M343.71,306.11a85.07,85.07,0,0,1,1.42,22.08,96.39,96.39,0,0,1-3.67,22,76.42,76.42,0,0,1-9.2,20.41,60.86,60.86,0,0,1-6.89,8.83,54.07,54.07,0,0,1-8.45,7.21,107.91,107.91,0,0,0,6.66-8.66c.54-.72,1-1.5,1.5-2.25s1-1.49,1.41-2.29.91-1.54,1.36-2.31l1.27-2.37A110.52,110.52,0,0,0,337,348.87c1-3.43,1.86-6.91,2.62-10.42s1.35-7.06,1.92-10.62C342.57,320.68,343.3,313.46,343.71,306.11Z"/><path class="cls-3" d="M325.35,303.43a38.49,38.49,0,0,1,4.33,14.23,58.51,58.51,0,0,1-.31,15A80.65,80.65,0,0,1,325.84,347,91.79,91.79,0,0,1,320,360.54c.48-4.94,1.42-9.72,2.29-14.47s1.78-9.43,2.47-14.12A121.61,121.61,0,0,0,326,317.83,98.89,98.89,0,0,0,325.35,303.43Z"/></g></g></g></svg>