<svg xmlns="http://www.w3.org/2000/svg" viewBox="0 0 976 387.98"><defs><style>.cls-1{fill:#d2d2d2;}.cls-2{fill:#fff;}</style></defs><g id="圖層_2" data-name="圖層 2"><g id="對話框_文字_按鈕" data-name="對話框  文字 按鈕"><path class="cls-1" d="M910.59,41.65H65.41C29.44,41.65,0,68.84,0,102.08V229.92c0,33.23,29.44,60.43,65.41,60.43H431.77l21.92,38.06L488,388l34.31-59.57,21.92-38.06H910.59c36,0,65.41-27.2,65.41-60.43V102.08C976,68.84,946.56,41.65,910.59,41.65Z"/><path class="cls-2" d="M910.59,0H65.41C29.44,0,0,27.19,0,60.43v148c0,33.23,29.44,60.43,65.41,60.43H448.85l4.84,14.72L488,388l34.31-104.42,4.84-14.72H910.59c36,0,65.41-27.2,65.41-60.43v-148C976,27.19,946.56,0,910.59,0Z"/></g></g></svg>