<svg width="1284" height="2455" viewBox="0 0 1284 2455" fill="none" xmlns="http://www.w3.org/2000/svg">
<g clip-path="url(#clip0)">
<g clip-path="url(#clip1)">
<path d="M1284.1 -160.33H0.0996094V2617.67H1284.1V-160.33Z" fill="#ECE9E9"/>
<path d="M-1.67969 -163V2615H81.1003V416.77L106.53 401.77C174.34 359.18 214.6 210.21 214.6 210.21C217.01 207.36 1070.27 207.26 1072.77 210.21C1072.77 210.21 1113.03 359.21 1180.84 401.74L1206.27 416.74V2615H1282.27V-163H-1.67969Z" fill="#86D5C2"/>
<g style="mix-blend-mode:multiply" opacity="0.5">
<path d="M1093.76 173.82H193.61C144.23 378.05 52.1904 394 52.1904 394V2615H81.1004V416.77L106.53 401.77C174.34 359.18 214.6 210.21 214.6 210.21C217.01 207.36 1070.27 207.21 1072.77 210.21C1072.77 210.21 1113.03 359.21 1180.84 401.74L1206.27 416.74V2615H1235.18V394C1235.18 394 1143.14 378.05 1093.76 173.82Z" fill="#06A0DE"/>
</g>
<path d="M290.79 2237.32C271.23 2217.82 259.43 2194.41 251.7 2165.32C242.77 2131.79 246.42 2095.32 282.23 2079.44C305.87 2068.94 354.54 2076.81 360.18 2107.06C362.05 2117.06 356.75 2128.14 347.73 2133.06C339.56 2137.57 326.53 2145.35 318.25 2137.55C312.74 2132.36 314.79 2122.69 309.85 2117.88C300.51 2108.79 292.25 2121.3 291.42 2129.52C290.29 2140.8 295.19 2153.52 298.8 2164.07C304.013 2179.13 312.1 2193.03 322.61 2205C344.61 2230.26 401.72 2247.63 433.38 2258.43C467.24 2269.99 480.57 2278.94 516.57 2278.94C509.24 2278.05 494.87 2285.64 487.79 2287.82L433.62 2304.48C414.62 2310.33 402.62 2309.94 384.62 2300.14C360.48 2287.05 337.62 2271.87 314.74 2256.71C306.132 2251.06 298.109 2244.56 290.79 2237.32Z" fill="#0AD3C5"/>
<path d="M184.64 2101.15C188.296 2101.15 191.26 2098.25 191.26 2094.67C191.26 2091.09 188.296 2088.19 184.64 2088.19C180.983 2088.19 178.02 2091.09 178.02 2094.67C178.02 2098.25 180.983 2101.15 184.64 2101.15Z" fill="#0ADAC9"/>
<path d="M235.16 2087.09C247.36 2087.09 257.25 2077.41 257.25 2065.46C257.25 2053.51 247.36 2043.83 235.16 2043.83C222.96 2043.83 213.07 2053.51 213.07 2065.46C213.07 2077.41 222.96 2087.09 235.16 2087.09Z" fill="#00B8C4"/>
<path d="M395.29 2187.56C403.182 2187.56 409.58 2181.3 409.58 2173.57C409.58 2165.84 403.182 2159.58 395.29 2159.58C387.398 2159.58 381 2165.84 381 2173.57C381 2181.3 387.398 2187.56 395.29 2187.56Z" fill="#13BECF"/>
<path d="M403.36 2129.62C408.623 2129.62 412.89 2125.44 412.89 2120.29C412.89 2115.14 408.623 2110.96 403.36 2110.96C398.097 2110.96 393.83 2115.14 393.83 2120.29C393.83 2125.44 398.097 2129.62 403.36 2129.62Z" fill="#0ADAC9"/>
<path d="M466.89 2159.58C473.793 2159.58 479.39 2154.1 479.39 2147.35C479.39 2140.6 473.793 2135.12 466.89 2135.12C459.986 2135.12 454.39 2140.6 454.39 2147.35C454.39 2154.1 459.986 2159.58 466.89 2159.58Z" fill="#00B8C4"/>
<path d="M178 2370.26C178 2370.26 365.94 2295.81 564.09 2374.82C564.09 2374.82 713.22 2453.82 901.16 2403.82C901.16 2403.82 784.71 2489.82 539.58 2401.82C539.58 2401.82 314.99 2328.68 178 2370.25" fill="#FFFFE6"/>
<path d="M122.54 2038C127.24 2030.13 148.05 1989.8 153.15 2016.8C155.55 2029.48 187.41 2032.36 203.92 2020.09C220.43 2007.82 235.38 1988.16 222.61 1970.8C172.79 1903.1 44.2203 1992.14 25.3603 2044.8C6.07027 2098.65 20.1003 2156.01 38.8903 2208.04C59.4503 2264.94 90.6003 2337.22 149.23 2365.61C159.097 2370.48 169.742 2373.57 180.68 2374.76C197.56 2371.95 605.68 2309.76 605.68 2309.76C605.68 2309.76 15.9403 2216.38 122.54 2038Z" fill="#00B8C4"/>
<path d="M-14 2236.45C13.16 2220.73 57.23 2199.45 113.1 2192.57C228.17 2178.36 317.1 2234.48 355.63 2255.26C577.99 2375.14 926.74 2291.12 1128.63 2089.13C1174.63 2043.13 1239.89 1964.05 1294.63 1833.66V2488.78H-7.52L-14 2236.45Z" fill="#69E1C0"/>
<path d="M1003.59 1959C1029.41 1933.77 1094.46 1927.88 1118.43 1958.15C1126.36 1968.15 1130.43 1980.59 1133.17 1992.96C1158.54 2105.9 1090.34 2188.52 997.17 2243.96C936 2280.39 870.5 2312.07 800 2324.79C729.5 2337.51 577 2316.67 516.6 2278.91C521.39 2281.91 552.6 2275.96 559.3 2275.8C582.37 2275.25 604.94 2276.19 628.01 2276.53C771.38 2278.64 914.66 2231.97 1027.86 2145.75C1052.21 2127.2 1088.09 2085.28 1091.12 2054.11C1093.38 2030.86 1079.02 2009.11 1041.34 2010.38C1026.66 2010.87 1010.82 2013.88 999.52 2001.54C988.62 1989.61 992.76 1969.56 1003.59 1959Z" fill="#13CBCF"/>
<path d="M-14 2300.71C48.78 2270.13 132.8 2233.53 237.51 2222.35C391.51 2205.91 444.17 2260.06 628.16 2292.87C754.43 2315.39 1070.55 2371.76 1221.82 2186.3C1266.1 2132.02 1285.34 2070.41 1294.63 2028.01V2488.78H-14V2300.71Z" fill="#13BECF"/>
<path d="M1221.83 2186.3C1070.55 2371.76 754.43 2315.39 628.16 2292.87C444.16 2260.06 391.52 2205.87 237.51 2222.35C132.8 2233.53 48.78 2270.13 -14 2300.71V2328C48.78 2297.42 132.8 2260.81 237.51 2249.63C391.51 2233.19 444.17 2287.35 628.16 2320.16C754.43 2342.68 1070.55 2399.05 1221.83 2213.59C1266.1 2159.31 1285.34 2097.69 1294.63 2055.29V2028C1285.34 2070.41 1266.1 2132 1221.83 2186.3Z" fill="#0ADAC9"/>
<path d="M1159.88 2076C1140.98 2072.77 1118.79 2078.94 1111.68 2093.71C1107.04 2103.35 1109.97 2115.38 1118.82 2123.01C1127.67 2130.64 1141.94 2133.45 1153.59 2129.84C1162.59 2139.1 1162.59 2152.4 1158.38 2163.5C1101.22 2313.29 625.22 2398.16 500.72 2335.72C567.23 2369.08 660.84 2406.59 734.62 2425.5C777.55 2436.5 840.62 2422.5 884.62 2419.5C932.62 2416.18 980.69 2419.06 1028.71 2415.1C1146.67 2405.3 1309.58 2101.6 1159.88 2076Z" fill="#00B8C4"/>
<path d="M929.43 2046.43C935.118 2046.43 939.73 2042.52 939.73 2037.7C939.73 2032.88 935.118 2028.97 929.43 2028.97C923.741 2028.97 919.13 2032.88 919.13 2037.7C919.13 2042.52 923.741 2046.43 929.43 2046.43Z" fill="#0ADAC9"/>
<path d="M907.46 2134.68C916.705 2134.68 924.2 2128.33 924.2 2120.49C924.2 2112.65 916.705 2106.3 907.46 2106.3C898.215 2106.3 890.72 2112.65 890.72 2120.49C890.72 2128.33 898.215 2134.68 907.46 2134.68Z" fill="#0ADAC9"/>
<path d="M966.75 2092.12C977.243 2092.12 985.75 2084.91 985.75 2076.01C985.75 2067.11 977.243 2059.9 966.75 2059.9C956.257 2059.9 947.75 2067.11 947.75 2076.01C947.75 2084.91 956.257 2092.12 966.75 2092.12Z" fill="#00B8C4"/>
<path d="M1000.25 2134.67C985.96 2132.27 969.1 2137.21 963.59 2148.76C959.99 2156.31 962.11 2165.66 968.76 2171.55C975.41 2177.44 986.19 2179.55 995.03 2176.65C1001.74 2183.8 1001.69 2194.17 998.38 2202.84C953.84 2319.91 592.58 2389.04 498.8 2341.19C548.9 2366.75 619.5 2395.39 675.23 2409.65C707.65 2417.95 755.56 2406.65 788.9 2404.01C825.25 2401.12 861.67 2403.01 898.08 2399.67C987.51 2391.34 1113.43 2153.7 1000.25 2134.67Z" fill="#0AD3C5"/>
<path d="M528.16 2182.91C525.24 2172.19 523.96 2160.58 527.89 2150.18C536.89 2126.46 572.04 2119.68 592.89 2134.62C608.61 2145.89 616.28 2165.03 630.08 2178.51C642.52 2190.68 660.87 2197.84 678.08 2194.23C695.29 2190.62 709.82 2174.67 708.67 2157.49C708.21 2150.73 705.95 2142.75 710.93 2138.05C721.3 2146.73 723.78 2154.69 728.56 2167.19C746.14 2163.77 770.39 2169.19 786.7 2176.49L728.96 2188.07C729.31 2208.07 702.96 2227.07 686.79 2234.21C653.79 2248.78 609.33 2252.63 574.41 2238.67C549.88 2228.89 534.83 2207.36 528.16 2182.91Z" fill="#65DDDC"/>
<path d="M570.36 2167.19C575.447 2167.19 579.57 2163.15 579.57 2158.17C579.57 2153.19 575.447 2149.15 570.36 2149.15C565.274 2149.15 561.15 2153.19 561.15 2158.17C561.15 2163.15 565.274 2167.19 570.36 2167.19Z" fill="#FFFFE6"/>
<path d="M1294.63 2360.79C1172.16 2385.97 1045.25 2394.14 919.7 2389.54C804.54 2385.32 685.99 2377.89 576.359 2344.54C457.25 2308.31 327.86 2240.17 199.27 2286.28C131.27 2310.66 63.7795 2347.9 6.26953 2387.38C-0.530469 2392.05 -7.28047 2396.77 -13.9805 2401.56V2617.67H1294.63V2360.79Z" fill="#0A9BBF"/>
<path opacity="0.53" d="M239.69 2412.65C239.69 2412.65 407.85 2333.15 539.61 2401.83C539.61 2401.83 790.84 2506.31 901.18 2477.91C858.84 2488.81 817.12 2494.77 773.05 2494.32C722.39 2493.8 671.89 2486.23 623.05 2473.32C538.63 2451.12 475.48 2408.88 386.05 2410.32C323.26 2411.32 231.5 2412.55 184.65 2460.73L239.69 2412.65Z" fill="#13BECF"/>
<g style="mix-blend-mode:multiply" opacity="0.5">
<path d="M130.81 208C124.4 163.81 95.3003 123.83 56.8103 95.76C45.1003 87.24 22.2103 72 -1.67969 60.61V150.12C15.3042 157.154 31.1845 166.601 45.4703 178.17C76.2003 202.74 100.41 242.53 82.5703 275.84C79.1703 263.74 59.1603 261.11 48.5003 269.1C37.8403 277.09 35.1603 290.88 35.8703 303.35C36.6403 316.68 43.8703 332.66 58.7103 333.56C65.9903 334 72.8003 330.45 78.7103 326.56C118.54 300.1 137.22 252.23 130.81 208Z" fill="#0AC5FF"/>
</g>
<g style="mix-blend-mode:multiply" opacity="0.5">
<path d="M1149.82 208C1156.23 163.81 1185.33 123.83 1223.82 95.76C1235.55 87.2 1258.45 71.93 1282.34 60.57V150.08C1265.35 157.114 1249.47 166.561 1235.18 178.13C1204.46 202.7 1180.25 242.49 1198.09 275.8C1201.49 263.7 1221.5 261.07 1232.15 269.06C1242.8 277.05 1245.49 290.84 1244.78 303.31C1244.02 316.64 1236.78 332.62 1221.95 333.52C1214.66 333.96 1207.85 330.41 1201.95 326.52C1162.09 300.1 1143.41 252.23 1149.82 208Z" fill="#0AC5FF"/>
</g>
<g style="mix-blend-mode:multiply" opacity="0.5">
<path d="M1282.32 17.05C1282.32 17.05 1121.32 111.57 1130.32 193.86C1130.32 193.86 1105.32 153.59 1111.32 137.4H169.32C175.32 153.59 150.26 193.86 150.26 193.86C159.26 111.57 -1.67969 17.05 -1.67969 17.05" stroke="#06A0DE" stroke-width="4" stroke-linecap="round" stroke-linejoin="round"/>
</g>
</g>
</g>
<defs>
<clipPath id="clip0">
<rect width="1284" height="2455" fill="white"/>
</clipPath>
<clipPath id="clip1">
<rect width="1282" height="2781" fill="white" transform="translate(0 -163)"/>
</clipPath>
</defs>
</svg>
