<svg xmlns="http://www.w3.org/2000/svg" viewBox="0 0 1049.72 548.33"><defs><style>.cls-1{fill:#de94d7;}.cls-2{fill:#ffe100;}.cls-3{fill:#009ae3;}.cls-4{fill:#f695ab;}</style></defs><g id="圖層_2" data-name="圖層 2"><g id="對話框_文字_按鈕" data-name="對話框  文字 按鈕"><path class="cls-1" d="M214.93.41c-7.41,5.77-13,13.73-17.84,21.71a149.29,149.29,0,0,0-14.64,32.34c-3.28,10.44-5.5,21.73-4.31,32.71a39.06,39.06,0,0,0,4.58,14.7,41.38,41.38,0,0,0,11.21,13.45,27.38,27.38,0,0,0,15,5.48,39.45,39.45,0,0,0,13.58-2.11c4.67-1.49,9.18-3.37,13.71-5.21,2.12-.86,4.24-1.71,6.4-2.48.36-.12,1.82-.59.75-.26l1.72-.54c1-.3,2-.57,3-.79s2-.42,3.08-.55c.47-.06.93-.11,1.4-.14l.69,0c.95-.06-.83,0-.13,0a28.66,28.66,0,0,1,2.92.21c.21,0,.44.1.65.12-.41,0-1.2-.29-.41-.08.47.13.93.25,1.39.41.22.08.42.17.64.24s-1.38-.64-.5-.2c.48.24,1,.52,1.43.75s-1.37-.93-.52-.33l.59.42,1.25,1c.34.25.67.53,1,.79.69.52-1.15-1.11-.56-.5.18.19.38.37.56.56l.39.42c.61.65-.3-.34-.43-.55.2.33.46.62.67,1a4.83,4.83,0,0,0,.26.45c.18.23-.6-1.29-.3-.54.14.34.3.66.42,1,.06.18.11.37.18.55s-.26-1.22-.14-.48c.05.36.14.71.18,1.07s.05.67.07,1c0,.13,0,.41,0,.52-.16-.31.07-1,0-.26a18,18,0,0,1-.34,2.3,20.48,20.48,0,0,1-.67,2.28c-.14.41-.3.82-.46,1.22-.08.19-.17.38-.24.57-.14.38.2-.45.18-.4a2.59,2.59,0,0,1-.17.38,50.21,50.21,0,0,1-2.8,5c-4.91,7.76-11.15,14.61-16.91,21.72-5.54,6.83-11.32,14.08-14.19,22.52A22.24,22.24,0,0,0,233,194.89c7,6.63,16.61,8.37,25.94,7.2a54.63,54.63,0,0,0,23.18-8.56c4.81-3.23,11.18-8.73,9.78-15.32a13,13,0,0,0-3.23-6.11c-2.23-2.36-6.07-3.95-9.13-4.92a25.52,25.52,0,0,0-14.1-.45c-9.08,2.42-16.4,9.28-20.69,17.5a43,43,0,0,0-3.27,31.55c3.44,12.39,12.84,23.56,24,29.79,8.94,5,19.17,6.36,29.05,8.34l.28.06c-.92-.2.21,0,.4.08l1.66.37c1.05.24,2.1.51,3.13.79s2.09.62,3.11,1c.47.16.92.34,1.38.51.85.31-1.25-.55-.44-.19l.77.35c.94.42,1.82.95,2.73,1.43.34.17-1.39-.92-.53-.34l.58.4c.41.29.82.59,1.21.91.13.11.47.29.54.45-.11-.25-1.21-1.14-.48-.4.39.39.78.77,1.14,1.19.16.17.3.37.47.54-.31-.32-.84-1.1-.31-.36.31.44.62.87.9,1.33l.39.65c.5.82-.26-.55-.13-.25.23.53.51,1,.73,1.57s.42,1,.6,1.56c.09.27.18.55.26.82s.08.28.13.42c.16.48-.12-.42-.11-.4a5.39,5.39,0,0,1,.42,1.81q.21,1.05.36,2.1c.2,1.49.32,3,.38,4.47.12,2.66,3.33,5.19,5.68,5.82s4.71.14,4.59-2.63c-.28-6.56-1.85-13.39-5.87-18.73A34,34,0,0,0,303,248.07c-5.2-2-10.76-2.9-16.2-3.93-1.4-.27-2.8-.53-4.19-.81l-.95-.19c.05,0,1.27.27.47.09l-.41-.08-2.17-.49a65.16,65.16,0,0,1-8-2.35l-.9-.34c-1.3-.51.89.39.05,0-.67-.3-1.34-.6-2-.93s-1.15-.59-1.72-.91l-.84-.49c-1.06-.61,1.28.85,0,0a15.42,15.42,0,0,1-3.59-2.75c.08.1,1.05.95.26.22l-.45-.41c-.35-.32-.69-.65-1-1-.75-.73-1.47-1.48-2.17-2.26-.3-.33-.59-.66-.88-1l-.48-.57c-.5-.58.66.85.2.25s-1.1-1.45-1.63-2.2-1-1.47-1.44-2.23c-.21-.34-.42-.69-.62-1a3.56,3.56,0,0,1-.34-.6c.08.25.44.85.14.25a44.85,44.85,0,0,1-2-4.72c-.26-.71-.49-1.43-.71-2.15-.33-1.09.12.53-.07-.26-.11-.46-.23-.92-.33-1.38a39.44,39.44,0,0,1-.71-4.59c-.07-.76-.12-1.52-.14-2.28,0-.36,0-.71,0-1.06s0-1.33,0-.84,0-.52,0-.68l.09-1.18c.07-.79.17-1.57.29-2.35a37.12,37.12,0,0,1,.89-4.29,39.92,39.92,0,0,1,1.32-4.1c.24-.61.5-1.23.76-1.83-.39.88.12-.23.2-.4.16-.34.33-.67.5-1a38.6,38.6,0,0,1,4.54-6.83,34.51,34.51,0,0,1,2.81-3l.67-.61c.48-.46-.52.41.15-.13s1.06-.85,1.61-1.25a28.85,28.85,0,0,1,6.52-3.5c.9-.35-.62.17,0,0l.93-.27c.61-.16,1.23-.3,1.86-.41s1.1-.17,1.65-.23l.83-.06c1-.08-1,0,.15,0s2.42.36,3.6.35c0,0-1.31-.31-.56-.11l.36.08.84.23c.64.18,1.27.49,1.91.65,0,0-1.37-.62-.62-.25l.36.16.83.4q1,.5,1.89,1.08l-2.5-1.87c-1.49-1.78-.48-.48-.12,0,.1.14-.63-1.43-.32-.55a6.37,6.37,0,0,0,.23.61c0,.09-.25-1.34-.15-.5,0,.19.06.38.08.57s0,.35,0,.51c.06.36.15-1.14,0-.26a20.23,20.23,0,0,0-.62,2.23c0-.7.39-.76.08-.22-.11.2-.21.4-.33.6a11.69,11.69,0,0,1-.79,1.19,17.93,17.93,0,0,1-1.94,2.23c-.38.38-.77.73-1.17,1.1s.7-.57,0,0l-.79.63a42.72,42.72,0,0,1-6.35,4,58.9,58.9,0,0,1-7.53,3.24c-1,.36.47-.14-.17.06l-1.05.32c-.7.21-1.41.41-2.11.59-1.37.35-2.75.64-4.14.88s-2.67.39-4,.49c-.61,0-1.24,0-1.85.09,1.45-.15.3,0-.1,0l-1,0a35.5,35.5,0,0,1-3.83-.39c-1.3-.2.82.21.13,0l-.82-.2c-.6-.16-1.2-.34-1.78-.55s-1.34-.67.38.18c-.24-.12-.49-.22-.74-.33-.55-.26-1-.58-1.59-.85,2.11,1.1.34.19-.22-.25-.22-.17-1.07-.91-.1-.06s0,0-.21-.24-.36-.4-.54-.59c-.71-.73.93,1.29.2.25-.36-.51-.69-1-1-1.57s.61,1.27.12.2c-.13-.27-.25-.53-.37-.8-.27-.64-.47-1.3-.69-2s.12.43.11.43a2.63,2.63,0,0,1-.11-.48c-.06-.27-.13-.53-.18-.8a11.86,11.86,0,0,1-.24-1.69c0-.28,0-.57,0-.85s0-1.14,0-.35,0-.3,0-.46.06-.59.11-.88a22.26,22.26,0,0,1,.79-3.51c.17-.55.36-1.09.56-1.63l.33-.83c.15-.36.55-1.23.14-.36,5.25-11.21,14.19-20.38,21.86-29.94A86.51,86.51,0,0,0,270,130.78c2.2-4.26,4-9.15,2.86-14-1.5-6.48-7-11.4-12.71-14.39s-12.37-3.27-18.62-1.77-12.07,4.12-18,6.5c-1.47.6-3,1.19-4.46,1.74-.71.27-1.44.52-2.16.77l-.51.17c.09,0,.89-.27.22-.07-.42.13-.84.27-1.26.39a38.93,38.93,0,0,1-8.61,1.68c-.16,0-1.36,0-.51,0s-.47,0-.63,0c-.73,0-1.45-.07-2.16-.16l-.95-.13a2.27,2.27,0,0,0-.47-.09s1.31.32.57.12-1.4-.37-2.08-.62l-.46-.17c-.77-.25.64.27.65.28a4.92,4.92,0,0,0-.9-.42c-.35-.17-.68-.35-1-.54-1.37-.79.8.59.11.07s-1.24-.91-1.84-1.39,1,1,.53.48l-.53-.5c-.32-.31-.63-.62-.94-1s-.62-.69-.92-1-.45-.77.3.38c-.12-.18-.28-.35-.41-.52-.63-.82-1.22-1.67-1.77-2.54L192,102c-.18-.28-.35-.56-.52-.85l-.25-.44c-.48-.81.51,1.07.14.26a38.65,38.65,0,0,1-1.71-4.16c-.11-.34-.19-.68-.31-1-.19-.55.22.92.09.35-.05-.21-.11-.43-.16-.65-.19-.79-.36-1.59-.5-2.39a52.34,52.34,0,0,1-.66-9.77c0,1,0-.39,0-.64,0-.41,0-.82.07-1.23.07-.93.15-1.86.25-2.8.21-1.86.48-3.72.81-5.56a119.31,119.31,0,0,1,6.59-22.59c.73-1.83,1.49-3.66,2.29-5.47,0,0,.44-1,.23-.51l.16-.35c.19-.42.38-.84.58-1.26.43-.94.88-1.87,1.34-2.8Q203,35,206,30a101.49,101.49,0,0,1,11.8-16.42c.92-1,1.88-2,2.87-3,.43-.41.88-.8,1.32-1.21-.86.8-.05,0,.17-.13l.72-.57c2.09-1.63.93-4.36-.68-5.95A9.08,9.08,0,0,0,218.36.32c-1-.26-2.53-.61-3.43.09Z"/><path class="cls-2" d="M698.43,34c-10.64-3.55-22.37-3.93-33.43-2.69-11.84,1.33-23.89,4.6-34.11,10.9a43.7,43.7,0,0,0-11.77,10.19A33.64,33.64,0,0,0,615,59a29.19,29.19,0,0,0-2.27,8.52c-1.52,11.83,3.6,23.14,7.93,33.83,1,2.46,2,5.1,3,7.85a72.09,72.09,0,0,1,2.4,8.38,38.4,38.4,0,0,1,.12,17,35.32,35.32,0,0,1-3.86,9.26c-.38.67-.78,1.32-1.2,2l-.57.86-.39.55c-.12.18-.29.39-.07.09a36.13,36.13,0,0,1-2.76,3.29,37.1,37.1,0,0,1-3,2.79l-.79.65c-.13.1-.88.64-.38.3l-.51.36-.84.57q-1.62,1.08-3.33,2c-.55.3-1.11.59-1.67.88l-.52.25c-.48.24.52-.24.48-.23a9.83,9.83,0,0,0-.93.43c-5.19,2.37-10.63,4.14-16,6.16-3,1.13-6,2.32-8.89,3.65s-5.53,2.87-8.26,4.35c-9.44,5.11-18.92,10.3-27.53,16.75S529,203.4,523.76,212.84c-5.73,10.34-7.83,22.29-7.5,34a103.3,103.3,0,0,0,.86,10.53c.31,2.31,4.47,2.36,6.12,2.16a9.55,9.55,0,0,0,4-1.22c.69-.47,1.64-1.15,1.51-2.12-1.61-12.28-1.31-24.62,3.12-36.08a55.78,55.78,0,0,1,3.32-7.09c.6-1.07,1.23-2.12,1.9-3.15.33-.52.67-1,1-1.53l.57-.8-.11.15.33-.45a70.77,70.77,0,0,1,10.27-10.92c1-.84,1.95-1.66,2.94-2.46l1.35-1.06c.15-.11.3-.25.46-.35,0,0-.66.5-.28.22l.8-.6c2.11-1.56,4.27-3,6.46-4.46,4.42-2.87,9-5.51,13.58-8.07q3.59-2,7.19-3.94c1.16-.63,2.32-1.26,3.49-1.88l1.74-1c.18-.1.94-.64.41-.24s0,0,.24-.11l.68-.31c5.52-2.45,11.22-4.41,16.87-6.52a75.87,75.87,0,0,0,15-7.1,42.22,42.22,0,0,0,12.47-12.57,37.46,37.46,0,0,0,6.08-18.08,47.26,47.26,0,0,0-2.35-16.76c-3.44-11.26-9.2-21.1-11.42-32.7a40.91,40.91,0,0,1-.77-8.26,27.54,27.54,0,0,1,1.18-8,25.82,25.82,0,0,1,3.12-6.48c.29-.45.59-.88.9-1.31-.49.67.07-.09.19-.24s.39-.49.59-.73c.77-.93,1.59-1.82,2.45-2.67s1.8-1.69,2.75-2.47l.65-.52.33-.25c.37-.3-.31.23-.3.22a7.13,7.13,0,0,1,1.6-1.14c2.17-1.47,4.53-2.53,6.75-3.89,0,0-1,.45-.48.23l.41-.18.94-.43c.59-.26,1.18-.52,1.78-.76,1.26-.52,2.53-1,3.81-1.43l1.88-.62c.93-.3-1.14.33-.2.06l1.17-.33c1.28-.36,2.57-.69,3.87-1s2.71-.58,4.07-.83c.45-.08,1.74-.23-.18,0l.91-.14c.71-.11,1.42-.21,2.13-.29,1.31-.17,2.62-.3,3.94-.41l2-.13,1.05,0c.94,0-1.48,0-.22,0,2.58-.06,5.16,0,7.74.15l1,.07c.22,0,1.25.12.27,0s.14,0,.4,0l1,.12c1.2.15,2.4.34,3.6.56l1.67.34.75.17.25.06c-.88-.22.17.05.37.1l.71.21c.55.16,1.09.33,1.63.51a10.28,10.28,0,0,0,8.26-.83c.71-.48,1.61-1.14,1.51-2.12s-1.14-1.52-1.9-1.77Z"/><path class="cls-2" d="M393.24,117.92A35.93,35.93,0,0,0,381.38,124a63.13,63.13,0,0,0-11.52,10.93c-6.26,7.61-11.85,17.63-10.34,27.82.76,5.06,3.71,10.13,6.74,14.17a46.66,46.66,0,0,0,13.24,11.95,35.4,35.4,0,0,0,24.14,4.81C410.13,192.55,416.83,189,420,183a18,18,0,0,0,2.09-9.9,25.34,25.34,0,0,0-1.25-6.16,12.27,12.27,0,0,0-7.21-7.53c-.69-.28-1.41-.51-2.13-.73-5.42-1.64-11.3-2.1-16.74-.28a27.19,27.19,0,0,0-11.91,8.36,42.65,42.65,0,0,0-7.52,13.92,51.56,51.56,0,0,0-2.68,15.72,44.39,44.39,0,0,0,2.44,15.84,36.39,36.39,0,0,0,10.52,15.34,31.27,31.27,0,0,0,17.6,7.65c7,.56,14-1.19,20.45-3.83a74.16,74.16,0,0,0,12.14-6.19,6.28,6.28,0,0,0,3.18-4.62c.22-3.39-2.5-6.42-4.81-8.55a23.28,23.28,0,0,0-8.59-5,23.57,23.57,0,0,0-17.05.82c-7.05,3.35-11.15,10-13,17.36a43.3,43.3,0,0,0,5.35,33.62c6.58,10.47,18.39,18.72,31.11,18,6-.35,11.56-2.89,16.48-6.26.65-.44,0-2-.21-2.37a10.76,10.76,0,0,0-2.68-3.24c-1.37-1.15-4.1-3.37-6-2.09a32.18,32.18,0,0,1-11.31,5,21.26,21.26,0,0,1-10.12-.08c.87.2-.15-.06-.45-.15l-1.13-.38-1.11-.43c-.78-.31.27.08.31.14a4,4,0,0,0-.8-.39c-.36-.18-.71-.37-1.06-.56a3.88,3.88,0,0,0-.52-.3c.06,0,1.18.76.45.26-.33-.22-.67-.44-1-.67l-.49-.36c-1-.67,1.16,1,.28.22-.31-.26-.63-.52-.93-.79s-1.27-1.37,0,.05a24.54,24.54,0,0,0-1.89-2.05c.06.05.86,1.09.31.38-.12-.17-.26-.33-.38-.49-.26-.34-.5-.68-.75-1l-.71-1.05c-.31-.47-.25,0,.15.25-.17-.12-.31-.52-.41-.69-.45-.79-.88-1.6-1.27-2.43-.19-.39-.37-.79-.55-1.19l-.25-.6c-.3-.7.1.35,0-.11-.58-1.82-1.21-3.59-1.61-5.46a36.44,36.44,0,0,1-.63-11.26c.53-6,1.88-11.54,5.34-16.31a21,21,0,0,1,4.73-4.73c.4-.29.81-.55,1.23-.81s0,0-.1,0l.32-.17c.26-.14.52-.28.79-.41a19.16,19.16,0,0,1,2.74-1.11,22.1,22.1,0,0,1,2.78-.68c.44-.07.87-.13,1.31-.18s1.9-.06.8-.09a29.21,29.21,0,0,1,5.11.43c.38.08,1.07.41-.23-.07a5.44,5.44,0,0,0,.54.15c.38.1.75.22,1.12.35s.7.29,1,.41c-.29-.09-1.28-.61-.55-.24l.5.26.42.23c.74.38-1.36-.91-.7-.43s1.1,1.06-.33-.3c.67.64.62.82-.42-.46.08.11.19.2.27.3.45.52-1.11-1.42-.54-.65s-.67-1.24-.23-.36-.25-1.1-.08-.19a2.33,2.33,0,0,0,.08.36c.17.51-.07-.29,0-.39a3.94,3.94,0,0,0,0,.7,4.74,4.74,0,0,0-.19.71c0-.13.34-.59.07-.19-.08.12-.14.26-.21.38a6.83,6.83,0,0,1-1.24,1.39q-.41.33-.84.63c-.15.11-.32.21-.48.31s0,0,0,0l-.78.44q-2.12,1.22-4.3,2.32a75.75,75.75,0,0,1-8,3.51,53.79,53.79,0,0,1-7.22,2.13c-1.07.23-2.15.42-3.23.56q-.79.1-1.59.18l-.74.06-.49,0h-1.18c-.48,0-1,0-1.44,0a25.31,25.31,0,0,1-2.76-.3c-.41-.06-.82-.14-1.23-.23-.17,0-1-.23-.18,0s-.12,0-.3-.09a21.12,21.12,0,0,1-2.32-.79c-.21-.08-1.06-.46-.1,0s.18.08,0,0c-.36-.18-.72-.36-1.08-.56l-.49-.27c-.92-.51,1.26.82.55.34-.32-.22-.66-.44-1-.67l-.45-.33c-.51-.35,1.48,1.21.69.54-.32-.27-.64-.53-.95-.81l-.41-.38c1.73,1.53,1,1,.63.61s-.57-.6-.85-.91l-.36-.42c-.4-.44,1.06,1.34.46.56-.25-.33-.51-.66-.76-1l-.63-.93c-.46-.69.1.13.28.46-.11-.2-.25-.4-.36-.61-.41-.7-.79-1.41-1.13-2.15-.17-.34-.33-.7-.48-1.05-.07-.18-.14-.36-.22-.54-.23-.51.23.61.22.56s-.11-.28-.16-.41a39.77,39.77,0,0,1-1.44-4.86c-.18-.82-.34-1.65-.47-2.48-.07-.43-.13-.86-.19-1.3,0-.2-.05-.41-.07-.61s-.09-1,0-.37,0-.18,0-.3,0-.47-.05-.7c0-.45-.05-.89-.07-1.34,0-.9,0-1.79,0-2.69a50.43,50.43,0,0,1,.37-5.35,51.34,51.34,0,0,1,2.44-10.59c.14-.4.28-.8.43-1.19.07-.2.15-.4.22-.59s.41-1,.11-.27c.34-.82.7-1.63,1.08-2.42a41.15,41.15,0,0,1,2.56-4.53,31.73,31.73,0,0,1,6.54-7.33c.63-.5,1.27-1,1.94-1.41l1-.6s-.47.25,0,0l.62-.33a22,22,0,0,1,4.38-1.71,14.52,14.52,0,0,1,4.88-.76c-1.13-.12.21,0,.54,0s.93,0,1.39.06a26.89,26.89,0,0,1,2.7.33c.44.08.87.17,1.3.27.9.19-.78-.22-.17-.05l.66.18c1,.28,2,.61,2.9,1L411.28,161a26.38,26.38,0,0,1,1,3.12c.12.48.22,1,.31,1.45,0,.22.07.43.11.65s.09,1,0,.27a16.45,16.45,0,0,1-1.08,7.79c.23-.6,0,0-.08.17s-.16.34-.25.51c-.19.38-.41.77-.63,1.14a18,18,0,0,1-3.23,3.89,22.38,22.38,0,0,1-2,1.62c-.35.24-.71.46-1.06.69s0,0-.11.07-.46.26-.7.38a24.65,24.65,0,0,1-5.11,2,29,29,0,0,1-5.55.95l-.46,0c.46,0-.25,0-.36,0-.52,0-1,0-1.54,0-1,0-2-.12-3-.25s-2-.35-3-.55c-.24,0,.87.23.11,0l-.78-.22c-.52-.15-1-.32-1.54-.5s-1-.35-1.43-.55c-.18-.07-1-.42-.19-.07s-.18-.09-.4-.2c-.47-.23-.93-.47-1.39-.72l-.63-.35c-1.08-.62.87.57.18.1-.45-.29-.9-.58-1.33-.89l-.6-.44c-.95-.69,1,.83.34.27-.43-.36-.85-.71-1.26-1.08a6.19,6.19,0,0,0-.66-.61s1,1,.66.64l-.37-.37c-.4-.42-.79-.84-1.17-1.27-.16-.19-.88-1-.24-.27s-.07-.11-.22-.3c-.37-.48-.72-1-1.06-1.46-.19-.27-.36-.54-.55-.82-.44-.65.52.89,0,0a39.86,39.86,0,0,1-1.87-3.54l-.38-.84c-.07-.17-.39-1.21-.26-.63s-.07-.21-.12-.37c-.11-.33-.21-.66-.29-1a16.11,16.11,0,0,1-.34-1.65c0-.26-.08-.52-.11-.78.08.66,0-.28,0-.49a21.89,21.89,0,0,1,.16-3.62,34.79,34.79,0,0,1,5.68-14.36,62.61,62.61,0,0,1,11.27-13.14,42.49,42.49,0,0,1,12.29-8.1,23.71,23.71,0,0,1,2.95-1c2.26-.58-.49-4.11-1.2-4.86a13.25,13.25,0,0,0-3.57-2.79,4.57,4.57,0,0,0-2.95-.72Z"/><path class="cls-1" d="M819.65,217.64a172.05,172.05,0,0,0-27.2-20.16c-10.72-6.28-22.69-11.39-35.32-11.16a40.66,40.66,0,0,0-20,5.68c-4.45,2.68-8.26,6.28-10.26,11.15-3.47,8.46-1.77,18.66,1.71,26.82,3.09,7.24,8.47,15.47,16.85,16.84a19.79,19.79,0,0,0,15.94-5.11,12,12,0,0,0,3.38-10.56c-.59-4.48-2.82-8.65-5.36-12.31a53.37,53.37,0,0,0-11.06-11.74,44.37,44.37,0,0,0-14.21-7.69,29.66,29.66,0,0,0-7.7-1.32A33.42,33.42,0,0,0,714.82,200,39.5,39.5,0,0,0,691,221.75a29,29,0,0,0-2.19,14.45,24,24,0,0,0,6.59,13.6,30.73,30.73,0,0,0,6.89,5.32c1.61.93,4,.56,5.65.08s4.11-1.21,4.85-2.9c3.95-9,1.24-19-5.34-26-7.31-7.8-18.63-11-29-9-9,1.72-17.15,6-22.43,13.68-4.23,6.15-6.85,13.15-10.27,19.74-1,1.83-2,3.62-3.1,5.35.36-.55-.11.16-.15.22l-.44.63c-.3.42-.6.83-.92,1.24-.63.81-1.29,1.6-2,2.36s-1.46,1.48-2.23,2.18c.79-.72-.44.35-.69.54-.46.36-.93.7-1.41,1l-.57.38-.46.29.42-.25c-.5.26-1,.55-1.48.81l-.64.32-.53.24.57-.25c-.61.22-1.21.49-1.82.71-.91.33-4.73,2.07-3.13,3.51s5.45.21,7.07-.38a38.41,38.41,0,0,0,12.42-7.25,38.92,38.92,0,0,0,7.05-8.5c3.83-6,6.3-12.7,9.63-19,.39-.73.79-1.45,1.21-2.17l.63-1,.33-.52c.07-.12.56-.86.18-.29a35.49,35.49,0,0,1,3-3.89c.52-.56,1-1.1,1.61-1.61.17-.17.36-.32.53-.48-.71.65-.36.3-.19.17.39-.29.76-.61,1.15-.89s.68-.46,1-.69c1-.7-.81.44.27-.16.37-.2.74-.4,1.12-.58.17-.08,1-.44.08-.05s.17-.06.35-.13c.42-.17.84-.3,1.26-.47-1.86.73-.33.12.17,0s2.15-.32.23-.08a15.18,15.18,0,0,0,1.64-.28c.68-.18-1.37.07-.19,0l.87-.05.88,0c1.13,0-.68,0,0,0a35.63,35.63,0,0,1,3.58.4c-.81-.15.29.07.37.09l.66.16c.55.14,1.09.29,1.63.47a26.59,26.59,0,0,1,3.43,1.36,29.45,29.45,0,0,1,5.46,3.57c7.7,6.39,11.53,16.84,7.38,26.32l10.5-2.81c-4.49-2.61-8.47-6.15-10.73-10.8a23.47,23.47,0,0,1-2.08-12.77,32,32,0,0,1,4.86-12.92c.07-.11.14-.23.22-.34l0,.06.47-.67c.37-.52.76-1,1.16-1.52.71-.9,1.47-1.75,2.26-2.57.41-.43.84-.84,1.27-1.25l.61-.55c.65-.59-.31.23.19-.17.92-.73,1.85-1.46,2.84-2.11l.68-.45c.14-.09.32-.18.46-.28s-.88.5-.44.26,1-.57,1.54-.83l.73-.36.49-.22c.07-.05-1.16.47-.64.28s1.08-.44,1.63-.64l.37-.13c.57-.21-.91.29-.79.26l.77-.23c.3-.09.6-.16.9-.24,1.14-.3-1.15.21-.29.06s.19,0-.33,0a6,6,0,0,0,.74,0c.29,0,.58,0,.87,0,.49,0-.61,0-.56,0a2.8,2.8,0,0,0,.5,0c.51,0,1,.08,1.52.14l.76.11.51.08c-.22,0-.67-.14-.2,0a34.12,34.12,0,0,1,3.33.92c1.13.38,2.24.82,3.33,1.31l.76.36a2.06,2.06,0,0,1,.33.17c.55.28,1.1.58,1.63.88,8.26,4.73,15.84,12.11,19.75,20.76a23.25,23.25,0,0,1,1.8,5.59A15.87,15.87,0,0,1,754,236c0,.2,0,.39,0,.59,0,.4,0-.23,0,.28a12.26,12.26,0,0,1-.22,1.21,9.42,9.42,0,0,1-.83,2.26c-.09.16-.2.32-.28.48-.23.46.35-.4,0,0s-.55.7-.86,1l-.43.41c-.44.45.67-.49.15-.14-.18.12-.35.26-.52.39l-.23.15c-.45.36.54-.32.56-.33a4,4,0,0,0-.45.25c-.73.41.43-.18.63-.26l-.47.17c-.16.05,1.68-.52,1-.31l-.31.08c.13,0,1.71-.31.84-.19-.71.09,1.43-.06.72-.08l-.47,0c-.51.06,1.3.13.39,0-.15,0-.32,0-.47-.06-.67-.06.17-.08.32.07-.15-.15-.81-.2-1-.28s-.68-.25-1-.39-.31-.15.05,0l-.55-.29a16,16,0,0,1-2-1.36,26.78,26.78,0,0,1-6.93-8.47,45,45,0,0,1-4.59-12,40.61,40.61,0,0,1-.94-6.49,27.6,27.6,0,0,1,.21-6,23.4,23.4,0,0,1,1.63-5.8,22.94,22.94,0,0,1,1.38-2.59c-.26.43-.07.09.09-.12s.27-.37.41-.55c.3-.39.62-.77,1-1.13s.71-.71,1.06-1.06-.57.45,0,0l.79-.63c.52-.41,1.05-.8,1.6-1.17.06,0,.73-.51.75-.49s-.82.47-.38.23c.18-.09.34-.2.52-.29.54-.3,1.18-.52,1.69-.86,0,0-1.11.46-.58.26l.39-.17,1-.37c.22-.08,1.23-.41.23-.09s.13,0,.39-.1l.83-.22.42-.1c.66-.17-1.31.24-.63.14s1.14-.19,1.7-.28c1.23-.18-.95.07-.06,0l1-.07,1.75-.06c1,0-.67,0,.14,0l1,.05a39.06,39.06,0,0,1,3.9.42c.3.05.6.11.91.15s-.16,0-.21,0l.46.09,2.13.48a73.39,73.39,0,0,1,15.36,5.9,151.8,151.8,0,0,1,27.64,18.82c1.71,1.43,3.4,2.88,5.06,4.37a4.57,4.57,0,0,0,2.83.54,13.42,13.42,0,0,0,4.24-.92c.89-.36,4.75-2.08,3.14-3.51Z"/><path class="cls-3" d="M1047.81,258.27a82,82,0,0,0-16.4,1.33,68.2,68.2,0,0,0-16.74,5.68,41.22,41.22,0,0,0-18.19,16.29c-6.71,11.59-6.7,26.08-6.57,39.07.08,8,.46,16,.4,24v-.92a118.92,118.92,0,0,1-.67,12.37,52.36,52.36,0,0,1-3.8,14.2,67,67,0,0,1-4.33,8.69l.64-1.09a68,68,0,0,1-6.63,9.27c-1.15,1.37-2.36,2.69-3.61,4-.08.08-.6.5-.59.6s1.28-1.26.6-.6l-.9.87c-.7.67-1.42,1.33-2.14,2-2.6,2.32-5.33,4.5-8.12,6.58l-1.1.82c2.49-1.85.94-.69.35-.27s-1.48,1.06-2.22,1.58q-2.12,1.49-4.26,2.94c-12.21,8.3-25.08,16.45-34.18,28.34a61.44,61.44,0,0,0-11.05,23.6c-.78,3.44,6.66,1.4,8,1a27.46,27.46,0,0,0,7-3.23c1.21-.82,3.18-2,3.53-3.51A59.31,59.31,0,0,1,933.4,435l-.65,1.09a60.23,60.23,0,0,1,4.47-6.49c1.6-2,3.46-3.78,5.14-5.73.12-.14-1.22,1.19-.73.73l.37-.37.67-.64,1.46-1.34c1-.85,1.92-1.68,2.91-2.5s2-1.61,3-2.39c.46-.36.91-.71,1.38-1,.66-.5,2.89-2.11.24-.2,9-6.46,18.39-12.25,27.06-19.11,9.31-7.37,17.37-16.11,22.93-26.66a56.11,56.11,0,0,0,6-16.55,93.2,93.2,0,0,0,1.09-12.93c.25-9.72-.3-19.44-.35-29.17,0-1.2,0-2.4,0-3.6V309c.09-9.07.61-18.45,3.72-27.05a38.16,38.16,0,0,1,3-6.31l-.64,1.09a30.1,30.1,0,0,1,3.63-4.91l.56-.6c.6-.65-1.41,1.35-.54.54.4-.38.81-.76,1.23-1.12s.76-.62,1.14-.92c1.06-.84-1.75,1.24-.91.66l.8-.55c.42-.28.86-.54,1.29-.81-2.69,1.65-1.48.82-.32.24l.71-.35c.94-.48-3,1.3-1.36.63l1.66-.67c-3,1.19-1.93.67-.53.23l.85-.25.37-.11c1.26-.37-2.32.59-1.46.38,1.37-.33,2.73-.61,4.12-.85.95-.16-2.34.32-.65.1l1.16-.14c.85-.1,1.7-.18,2.56-.24s1.79-.11,2.68-.14l1.31,0h.67c1.16,0-1.59,0-.34,0a23.63,23.63,0,0,0,13.09-4.14c1.22-.83,3.16-2,3.53-3.51.28-1.18-.74-1.88-1.87-1.89Z"/><path class="cls-3" d="M.28,287.87C-.65,301.8.54,316.18,7,328.76,12.48,339.28,21.75,347.29,32,353c9.42,5.27,19.72,8.75,29.85,12.39,4.89,1.76,9.77,3.57,14.55,5.64l1.75.77c1.17.53-2.89-1.32-1.73-.78l.35.16,1,.49c1.22.57,2.43,1.17,3.62,1.79,2.35,1.23,4.65,2.54,6.88,4l.82.53c-3.3-2.14-2.42-1.61-1.74-1.15l.49.33,1.68,1.18c1.09.79,2.17,1.61,3.21,2.46s2.13,1.83,3.18,2.76c.29.26-2.18-2.05-1.36-1.27l.44.42.65.64c.51.51,1,1,1.51,1.54q1.5,1.59,2.9,3.29c.45.55.89,1.1,1.32,1.67.09.11.18.22.26.34.44.56,1.09,1.54-.8-1.1.23.33.47.65.7,1a68.83,68.83,0,0,1,4.88,8.06c.74,1.43,1.44,2.9,2.09,4.37l-.79-1.8a106.05,106.05,0,0,1,7.61,30.05l-.2-1.72q.38,3.27.62,6.54a8.43,8.43,0,0,0,2.31,5.31,15.72,15.72,0,0,0,6.45,4.26c2,.65,4.49,1.28,6.54.52,1.45-.53,3.22-1.67,3.09-3.49-1.22-16.28-4.49-32.62-12.64-46.95C114.8,383.4,105,374.11,93.67,366.9c-9.38-5.95-19.87-10-30.28-13.79-4.65-1.67-9.33-3.3-14-5.08-2.24-.87-4.46-1.77-6.66-2.74l-.81-.36c-1.11-.5,2.81,1.29,1.87.85l-.4-.19q-.8-.36-1.59-.75c-1.07-.52-2.13-1.06-3.18-1.63s-2-1.11-3-1.7l-1.37-.86-.72-.46c3.38,2.19,2.43,1.62,1.73,1.14l-.49-.33a53.59,53.59,0,0,1-5.3-4.19c-1.11-1,2.16,2,1.06,1l-.55-.53c-.42-.41-.83-.84-1.24-1.27-.78-.84-1.53-1.7-2.24-2.6-.18-.22-.35-.45-.53-.68-.87-1.14,1.55,2.14.7,1-.34-.48-.67-1-1-1.45-.66-1-1.27-2-1.85-3.09s-1.14-2.21-1.64-3.35l.79,1.81a58.57,58.57,0,0,1-4.29-16.67l.2,1.72a100.15,100.15,0,0,1-.27-18.16c.12-1.94-1.1-3.94-2.32-5.31A15.65,15.65,0,0,0,9.9,284.9c-3-1-9.31-1.74-9.62,3Z"/><path class="cls-4" d="M917.33,215.34a23.91,23.91,0,0,0-15.4,6.91c-3.8,3.9-6.44,8.79-9.09,13.5a81.73,81.73,0,0,1-4.71,7.62l.66-.91a25.58,25.58,0,0,1-11.23,9.14l1.05-.41a28.54,28.54,0,0,1-10.11,1.71c-1.36,0-1.89,1.56-1.92,2.62a10.94,10.94,0,0,0,1.79,5.38c1.84,3,5.07,7,9,7,6.61,0,13.28-2,18.24-6.53,4.31-3.94,7.23-9.2,10.06-14.24a84.86,84.86,0,0,1,4.86-7.95l-.66.91a23.94,23.94,0,0,1,10.43-8.65l-1,.4a24.33,24.33,0,0,1,6.95-1.5c1.36-.11,1.88-1.47,1.92-2.63a11,11,0,0,0-1.8-5.38,17.72,17.72,0,0,0-4.54-5.21c-1.28-.92-2.77-1.91-4.43-1.78Z"/><path class="cls-4" d="M152.82,253c.51.15,1,.3,1.51.47l.72.26c-2.46-.86-1.4-.56-.86-.32.85.38,1.65.8,2.47,1.24s-1.39-.93-.61-.37c.17.13.35.24.52.36q.51.36,1,.75a19,19,0,0,1,1.72,1.64l-.84-.92a18.62,18.62,0,0,1,4.07,8l-.25-1c1.71,6.85.88,14,1.27,21a29.82,29.82,0,0,0,2.06,10.15,17.17,17.17,0,0,0,8,8.1c6.69,3.55,14.94,4.1,22.36,3.86a11.74,11.74,0,0,0,5.45-1.27c.89-.57,1.79-1.6,1.1-2.72-.81-1.31-2.57-2-4-2.44a21.76,21.76,0,0,0-6.86-.86l-1.63,0h-.63c3.2,0,2,.05,1.32,0q-1.35-.06-2.7-.18c-1.22-.12,2.43.33,1.45.18l-.51-.07-1.22-.22c-.19,0-.39-.1-.59-.13s2.39.63,1.44.35c-.36-.1-.72-.19-1.07-.31s-1.58-.58-.12,0,.3.11,0,0-.59-.28-.88-.43l-.33-.19c-.77-.38,1.22.82.79.5a17.6,17.6,0,0,1-2.6-2.2l.84.93a15.28,15.28,0,0,1-3.17-6.27l.25,1c-1.52-6-.9-12.33-1.09-18.45s-1.09-13.12-5.4-18a28.11,28.11,0,0,0-13.52-8,21.54,21.54,0,0,0-6.86-.85c-1.58.07-4.08.31-5.46,1.28-.88.62-1.82,1.54-1.1,2.71a6.91,6.91,0,0,0,3.95,2.45Z"/><path class="cls-2" d="M33.15,517l.59-.16c.65-.17.29.22-.4.09a4.08,4.08,0,0,0,1-.2c.32-.06.66-.12,1-.16l.54-.07c.47-.07-1.65.11-.47,0l.82,0c1.53,0-1.06-.07-.36,0l.86,0c1.42.09-1.55-.27-.34,0l.81.14c1.25.24-1.13-.32-.42-.1l.84.25.34.12c.79.26-.33-.11-.52-.21.48.26,1,.44,1.48.7l.67.37c.6.32-.76-.52-.37-.23.16.12.34.22.5.33a20.81,20.81,0,0,1,2.55,2q.57.54,1.11,1.11l.36.39-.19-.22.58.68a55.06,55.06,0,0,1,4.16,5.79c2.53,3.94,4.77,8.09,7.7,11.74a22.18,22.18,0,0,0,13.25,8.46c8.27,1.66,16.23-1.06,23.1-5.57,2.13-1.4-.41-2.95-1.87-3.38-2.28-.68-5.91-1.14-8.07.28a46.58,46.58,0,0,1-4.69,2.73l-1,.48c-.74.37.71-.28.19-.08-.18.06-.35.15-.53.22-.68.26-1.36.51-2.06.71-.29.09-.59.16-.88.24-.57.16,1.32-.26.54-.13l-.38.07-.92.15c-1.13.17,1.48-.08.35,0a4.08,4.08,0,0,0-.86,0c.36-.1,1.81.1.73,0-.66-.07-1.49-.41.58.09-.25-.06-.52-.09-.78-.14-1.07-.18,1.49.47.48.12l-.66-.22c-.83-.25,1.26.57.38.15-.26-.12-.51-.23-.76-.36l-.6-.32c-.82-.44.86.59.1,0-.42-.3-.84-.59-1.24-.92-.8-.64-1.47-1.39-2.2-2.09.82.78-.33-.39-.54-.65-.36-.44-.71-.89-1-1.34-5.56-7.44-9.15-17.08-17.3-22.21-7.22-4.54-16.14-4.86-24.2-2.66-.64.18-1.78.74-1.83,1.55s1,1.51,1.59,1.79a12.35,12.35,0,0,0,8.28.59Z"/><path class="cls-4" d="M991.31,510.44a22.59,22.59,0,0,1-5.1,6.35l1-.8a16.38,16.38,0,0,1-2.7,1.82l-.63.32c-1,.5.85-.33.63-.26-.51.15-1,.38-1.5.53l-.66.19c-.76.23,2.21-.45.89-.22-.52.1-1,.17-1.56.26-1,.15,2.6-.2,1.27-.13l-.7,0c-.54,0-1.08,0-1.61,0,.19,0,2.89.07,1.46,0l-.71,0c-.55,0-1.1-.09-1.65-.15-1.56-.15,2.27.32,1.33.17l-.73-.1c-.56-.08-1.12-.18-1.68-.28-2.14-.39-4.27-.88-6.39-1.37a76.59,76.59,0,0,0-14.34-2.33c-5.86-.2-12.65.21-17.52,3.9-5.22,4-7.42,10.18-8.68,16.42-.24,1.22,1.69,2.35,2.44,2.73a16.53,16.53,0,0,0,6.24,1.51,16.06,16.06,0,0,0,6.4-.61c1.18-.44,2.52-1,2.8-2.36a40.2,40.2,0,0,1,2.13-7.38l-.39.93a18.13,18.13,0,0,1,4.83-7l-1,.8a12,12,0,0,1,2-1.36l.56-.28c.71-.39-1.58.61-.81.35.42-.14.82-.31,1.25-.43l.51-.13c.33-.11-2.25.45-1.07.26l1.23-.19c1-.15-2.47.19-1.43.15l.64,0,.64,0c1.38,0-2-.06-1.54,0,.87,0,1.73.09,2.59.18,1.43.15-2-.26-1.48-.19l.69.1,1.4.23c1.86.34,3.71.75,5.55,1.18,9.72,2.23,20.55,4.47,30.25.88a22.89,22.89,0,0,0,12.2-10.49c1.72-3.05-3.92-4.55-5.92-4.88a19.82,19.82,0,0,0-6.91-.13c-1.31.25-3.55.59-4.26,1.86Z"/></g></g></svg>