<svg width="1282" height="2781" fill="none" xmlns="http://www.w3.org/2000/svg">
  <g clip-path="url(#a)">
    <path d="M1284.1 2.67H.1v2778h1284V2.67Z" fill="#ECE9E9"/>
    <path d="M-1.68 0v2778H81.1V579.77l25.43-15c67.81-42.59 108.07-191.56 108.07-191.56 2.41-2.85 855.67-2.95 858.17 0 0 0 40.26 149 108.07 191.53l25.43 15V2778h76V0H-1.68Z" fill="#86D5C2"/>
    <path d="M1093.76 336.82H193.61C144.23 541.05 52.19 557 52.19 557v2221H81.1V579.77l25.43-15c67.81-42.59 108.07-191.56 108.07-191.56 2.41-2.85 855.67-3 858.17 0 0 0 40.26 149 108.07 191.53l25.43 15V2778h28.91V557s-92.04-15.95-141.42-220.18Z" fill="#06A0DE" style="mix-blend-mode:multiply" opacity=".5"/>
    <path d="M290.79 2400.32c-19.56-19.5-31.36-42.91-39.09-72-8.93-33.53-5.28-70 30.53-85.88 23.64-10.5 72.31-2.63 77.95 27.62 1.87 10-3.43 21.08-12.45 26-8.17 4.51-21.2 12.29-29.48 4.49-5.51-5.19-3.46-14.86-8.4-19.67-9.34-9.09-17.6 3.42-18.43 11.64-1.13 11.28 3.77 24 7.38 34.55a123.026 123.026 0 0 0 23.81 40.93c22 25.26 79.11 42.63 110.77 53.43 33.86 11.56 47.19 20.51 83.19 20.51-7.33-.89-21.7 6.7-28.78 8.88l-54.17 16.66c-19 5.85-31 5.46-49-4.34-24.14-13.09-47-28.27-69.88-43.43a155.023 155.023 0 0 1-23.95-19.39Z" fill="#0AD3C5"/>
    <path d="M184.64 2264.15c3.656 0 6.62-2.9 6.62-6.48 0-3.58-2.964-6.48-6.62-6.48-3.657 0-6.62 2.9-6.62 6.48 0 3.58 2.963 6.48 6.62 6.48Z" fill="#0ADAC9"/>
    <path d="M235.16 2250.09c12.2 0 22.09-9.68 22.09-21.63s-9.89-21.63-22.09-21.63-22.09 9.68-22.09 21.63 9.89 21.63 22.09 21.63Z" fill="#00B8C4"/>
    <path d="M395.29 2350.56c7.892 0 14.29-6.26 14.29-13.99s-6.398-13.99-14.29-13.99c-7.892 0-14.29 6.26-14.29 13.99s6.398 13.99 14.29 13.99Z" fill="#13BECF"/>
    <path d="M403.36 2292.62c5.263 0 9.53-4.18 9.53-9.33s-4.267-9.33-9.53-9.33c-5.263 0-9.53 4.18-9.53 9.33s4.267 9.33 9.53 9.33Z" fill="#0ADAC9"/>
    <path d="M466.89 2322.58c6.903 0 12.5-5.48 12.5-12.23s-5.597-12.23-12.5-12.23c-6.904 0-12.5 5.48-12.5 12.23s5.596 12.23 12.5 12.23Z" fill="#00B8C4"/>
    <path d="M178 2533.26s187.94-74.45 386.09 4.56c0 0 149.13 79 337.07 29 0 0-116.45 86-361.58-2 0 0-224.59-73.14-361.58-31.57" fill="#FFFFE6"/>
    <path d="M122.54 2201c4.7-7.87 25.51-48.2 30.61-21.2 2.4 12.68 34.26 15.56 50.77 3.29 16.51-12.27 31.46-31.93 18.69-49.29-49.82-67.7-178.39 21.34-197.25 74-19.29 53.85-5.26 111.21 13.53 163.24 20.56 56.9 51.71 129.18 110.34 157.57a94.024 94.024 0 0 0 31.45 9.15c16.88-2.81 425-65 425-65S15.94 2379.38 122.54 2201Z" fill="#00B8C4"/>
    <path d="M-14 2399.45c27.16-15.72 71.23-37 127.1-43.88 115.07-14.21 204 41.91 242.53 62.69 222.36 119.88 571.11 35.86 773-166.13 46-46 111.26-125.08 166-255.47v655.12H-7.52L-14 2399.45Z" fill="#69E1C0"/>
    <path d="M1003.59 2122c25.82-25.23 90.87-31.12 114.84-.85 7.93 10 12 22.44 14.74 34.81 25.37 112.94-42.83 195.56-136 251-61.17 36.43-126.67 68.11-197.17 80.83-70.5 12.72-223-8.12-283.4-45.88 4.79 3 36-2.95 42.7-3.11 23.07-.55 45.64.39 68.71.73 143.37 2.11 286.65-44.56 399.85-130.78 24.35-18.55 60.23-60.47 63.26-91.64 2.26-23.25-12.1-45-49.78-43.73-14.68.49-30.52 3.5-41.82-8.84-10.9-11.93-6.76-31.98 4.07-42.54Z" fill="#13CBCF"/>
    <path d="M-14 2463.71c62.78-30.58 146.8-67.18 251.51-78.36 154-16.44 206.66 37.71 390.65 70.52 126.27 22.52 442.39 78.89 593.66-106.57 44.28-54.28 63.52-115.89 72.81-158.29v460.77H-14v-188.07Z" fill="#13BECF"/>
    <path d="M1221.83 2349.3c-151.28 185.46-467.4 129.09-593.67 106.57-184-32.81-236.64-87-390.65-70.52-104.71 11.18-188.73 47.78-251.51 78.36V2491c62.78-30.58 146.8-67.19 251.51-78.37 154-16.44 206.66 37.72 390.65 70.53 126.27 22.52 442.39 78.89 593.67-106.57 44.27-54.28 63.51-115.9 72.8-158.3V2191c-9.29 42.41-28.53 104-72.8 158.3Z" fill="#0ADAC9"/>
    <path d="M1159.88 2239c-18.9-3.23-41.09 2.94-48.2 17.71-4.64 9.64-1.71 21.67 7.14 29.3 8.85 7.63 23.12 10.44 34.77 6.83 9 9.26 9 22.56 4.79 33.66-57.16 149.79-533.16 234.66-657.66 172.22 66.51 33.36 160.12 70.87 233.9 89.78 42.93 11 106-3 150-6 48-3.32 96.07-.44 144.09-4.4 117.96-9.8 280.87-313.5 131.17-339.1Z" fill="#00B8C4"/>
    <path d="M929.43 2209.43c5.688 0 10.3-3.91 10.3-8.73s-4.612-8.73-10.3-8.73c-5.689 0-10.3 3.91-10.3 8.73s4.611 8.73 10.3 8.73ZM907.46 2297.68c9.245 0 16.74-6.35 16.74-14.19s-7.495-14.19-16.74-14.19c-9.245 0-16.74 6.35-16.74 14.19s7.495 14.19 16.74 14.19Z" fill="#0ADAC9"/>
    <path d="M966.75 2255.12c10.493 0 19-7.21 19-16.11 0-8.9-8.507-16.11-19-16.11s-19 7.21-19 16.11c0 8.9 8.507 16.11 19 16.11Z" fill="#00B8C4"/>
    <path d="M1000.25 2297.67c-14.29-2.4-31.15 2.54-36.66 14.09-3.6 7.55-1.48 16.9 5.17 22.79 6.65 5.89 17.43 8 26.27 5.1 6.71 7.15 6.66 17.52 3.35 26.19-44.54 117.07-405.8 186.2-499.58 138.35 50.1 25.56 120.7 54.2 176.43 68.46 32.42 8.3 80.33-3 113.67-5.64 36.35-2.89 72.77-1 109.18-4.34 89.43-8.33 215.35-245.97 102.17-265Z" fill="#0AD3C5"/>
    <path d="M528.16 2345.91c-2.92-10.72-4.2-22.33-.27-32.73 9-23.72 44.15-30.5 65-15.56 15.72 11.27 23.39 30.41 37.19 43.89 12.44 12.17 30.79 19.33 48 15.72 17.21-3.61 31.74-19.56 30.59-36.74-.46-6.76-2.72-14.74 2.26-19.44 10.37 8.68 12.85 16.64 17.63 29.14 17.58-3.42 41.83 2 58.14 9.3l-57.74 11.58c.35 20-26 39-42.17 46.14-33 14.57-77.46 18.42-112.38 4.46-24.53-9.78-39.58-31.31-46.25-55.76Z" fill="#65DDDC"/>
    <path d="M570.36 2330.19c5.087 0 9.21-4.04 9.21-9.02 0-4.98-4.123-9.02-9.21-9.02-5.086 0-9.21 4.04-9.21 9.02 0 4.98 4.124 9.02 9.21 9.02Z" fill="#FFFFE6"/>
    <path d="M1294.63 2523.79c-122.47 25.18-249.38 33.35-374.93 28.75-115.16-4.22-233.711-11.65-343.341-45-119.11-36.23-248.499-104.37-377.089-58.26-68 24.38-135.49 61.62-193 101.1-6.8 4.67-13.55 9.39-20.25 14.18v216.11h1308.61v-256.88Z" fill="#0A9BBF"/>
    <path d="M160.66 2780.67h1134v-108.61c-40.2 17.73-88.13 24.64-134.13 29.75-160.18 17.79-323.88 23.56-483 .15-68.95-10.14-136.75-25.72-206.34-32.37-69.59-6.65-142.72-3.78-205.65 21.34-25.96 10.36-89.9 54.23-104.88 89.74Z" fill="#0A88BF"/>
    <path opacity=".53" d="M239.69 2575.65s168.16-79.5 299.92-10.82c0 0 251.23 104.48 361.57 76.08-42.34 10.9-84.06 16.86-128.13 16.41-50.66-.52-101.16-8.09-150-21-84.42-22.2-147.57-64.44-237-63-62.79 1-154.55 2.23-201.4 50.41l55.04-48.08Z" fill="#13BECF"/>
    <path d="M130.81 371c-6.41-44.19-35.51-84.17-74-112.24-11.71-8.52-34.6-23.76-58.49-35.15v89.51a191.12 191.12 0 0 1 47.15 28.05c30.73 24.57 54.94 64.36 37.1 97.67-3.4-12.1-23.41-14.73-34.07-6.74s-13.34 21.78-12.63 34.25c.77 13.33 8 29.31 22.84 30.21 7.28.44 14.09-3.11 20-7 39.83-26.46 58.51-74.33 52.1-118.56ZM1149.82 371c6.41-44.19 35.51-84.17 74-112.24 11.73-8.56 34.63-23.83 58.52-35.19v89.51a191.145 191.145 0 0 0-47.16 28.05c-30.72 24.57-54.93 64.36-37.09 97.67 3.4-12.1 23.41-14.73 34.06-6.74 10.65 7.99 13.34 21.78 12.63 34.25-.76 13.33-8 29.31-22.83 30.21-7.29.44-14.1-3.11-20-7-39.86-26.42-58.54-74.29-52.13-118.52Z" fill="#0AC5FF" style="mix-blend-mode:multiply" opacity=".5"/>
    <path d="M1282.32 180.05s-161 94.52-152 176.81c0 0-25-40.27-19-56.46h-942c6 16.19-19.06 56.46-19.06 56.46 9-82.29-151.94-176.81-151.94-176.81" stroke="#06A0DE" stroke-width="4" stroke-linecap="round" stroke-linejoin="round" style="mix-blend-mode:multiply" opacity=".5"/>
  </g>
  <defs>
    <clipPath id="a">
      <path fill="#fff" d="M0 0h1282v2781H0z"/>
    </clipPath>
  </defs>
</svg>
