<svg width="2178" height="741" fill="none" xmlns="http://www.w3.org/2000/svg">
  <g clip-path="url(#a)">
    <path d="M75.86 201.702c64.119 20.575 138.008 20.085 204.086 4.665C403.335 177.441 503.35 100.017 636.38 92.389c60.413-3.5 114.529 12.002 164.379 36.006 46.295 22.29 89.162 49.303 139.898 66.25 61.333 20.494 134.963 26.244 201.453 20.062 70.73-6.578 134.35-28.483 191.8-58.96 55.41-29.405 106.09-64.443 166.23-88.762 29.98-12.118 63.65-22.977 98.3-24.295 34.25-1.307 68 4.665 99.21 14.883 61.25 20.003 113.27 51.32 167.49 79.722 42.46 22.161 88.61 40.216 139.36 49.874 47.11 8.958 98.77 11.897 145.61.35a216.35 216.35 0 0 0 27.98-8.9v562.393H0V159.666c20.32 17.787 45.723 32.367 75.86 42.036Z" fill="#65D5F5"/>
    <path d="M83.962 225.624c51.214 14.977 107.697 16.551 160.951 6.52 66.615-12.503 124.917-41.231 189.899-57.246 30.089-7.418 61.718-12.608 93.638-11.208a293.757 293.757 0 0 1 105.097 25.018c32.107 14.125 62.511 30.14 95.189 43.635a871.211 871.211 0 0 0 90.828 32.297c132.378 38.233 279.426 35.073 404.816-16.12 62.43-25.473 121.43-55.986 177.45-88.47 53.55-31.037 117.21-70.635 189.24-71.149 67.99-.501 127.32 28.6 180.32 56.826 25.96 13.834 51.4 28.343 78.5 40.999a727.527 727.527 0 0 0 99.52 37.324c56.2 16.726 123.24 31.41 183.19 16.189a195.348 195.348 0 0 0 45.4-17.764v518.537H0V184.649a274.032 274.032 0 0 0 83.962 40.975Z" fill="#3DCBF2"/>
    <path d="M138.51 289.705c66.206 6.683 126.094-15.163 183.766-36.263 63.642-23.327 127.237-44.928 200.1-42.794 138.288 4.059 251.313 65.865 371.229 109.033 58.803 21.17 123.295 41.092 189.955 39.75 69.8-1.423 139.75-20.551 195.78-51.052 52.62-28.635 93.41-66.95 144.44-96.915 26.55-15.594 56.39-29.835 90.13-34.991 32.31-4.957 65.49-2.893 96.94 4.234 64.11 14.545 119.69 43.844 173.89 71.954 55.96 29.054 113.59 57.701 178.54 74.858 60.88 16.084 126.57 22.546 188.61 5.75 8.98-2.426 17.67-5.26 26.11-8.374v416.117H0V234.897c39.23 27.352 85.162 49.419 138.51 54.808Z" fill="#65D5F5"/>
    <path d="M112.804 307.959c61.613 6.392 119.262-8.76 171.91-31.352 57.3-24.588 111.556-55.357 178.112-64.851 134.989-19.257 248.574 49.221 356.073 97.976 56.927 25.812 115.835 46.725 182.441 54.703 66.6 7.978 142.23 8.724 207.01-7.243 114.98-28.308 173.6-120.511 293.94-141.972 153.57-27.387 269.08 65.049 398.15 106.98 31.48 10.218 65.16 17.869 99.84 18.056a290.59 290.59 0 0 0 92.81-15.221 349.946 349.946 0 0 0 84.91-42.41v458.387H0V263.077c28.446 23.607 67.349 40.158 112.804 44.882Z" fill="#0AC0EF"/>
    <path d="M70.8 435.187c42.831-26.756 81.839-55.916 135-74.111 65.834-22.535 143.791-37.184 218.52-30.629 68.526 5.96 128.239 29.159 183.708 54.983 30.113 13.996 59.456 28.366 92.262 39.657a737.215 737.215 0 0 0 98.581 26.605 913.739 913.739 0 0 0 215.099 15.501c74.32-3.348 143.81-16.691 214.35-31.644 71.38-15.163 145.73-30.816 221.74-27.923 40.58 1.551 78.51 8.165 114.72 20.342 32.89 11.069 63.59 24.622 95.94 36.321 68.33 24.703 139.37 42.211 214.82 54.819 65.72 10.988 136.82 15.688 201.27-1.318 31.91-8.421 61.79-20.516 85.8-36.811 5.33-3.615 10.41-7.359 15.39-11.173v271.206H0V469.467a341.767 341.767 0 0 0 70.8-34.28Z" fill="#0AAAEF"/>
    <path d="M1825.51 118.574a487.11 487.11 0 0 1-6.28-4.385c-24.76-17.566-51.41-38.106-81.6-35.458-1.04-24.098-25.42-40.637-48.8-46.504-23.39-5.867-48.55-5.365-70.48-15.42-12.65-5.831-24.19-15.092-38.03-16.597-15.92-1.726-30.96 7.267-46.83 9.541-16.62 2.333-33.37-2.694-50.13-2.8-16.75-.104-36.25 7.407-40.24 23.737-14.97-4.456-32.5 7.476-33.81 23.036-13.7-2.217-28.56-1.727-40.35 5.61-11.78 7.336-19.09 22.99-13.52 35.703-9.33-6.87-22.69-.164-30.31 8.538-7.63 8.701-13.45 19.828-24.03 24.493-15.24 6.719-34.54-2.682-48.96 5.599-17.62 10.113-18.53 26.36-42.6 26.069-39.32-.49-21.37 25.928-46.14 38.84-98.82 51.461-231.184-4.817-319.237-52.849-7.532-4.105-15.098-8.432-20.985-14.626-4.99-5.214-8.639-11.57-13.5-16.889-8.802-9.611-20.985-15.256-32.888-20.645-15.843-7.208-32.502-14.568-49.884-13.53-13.372-18.802-44.453-21.135-60.471-4.526-18.711-15.886-49.442-14.987-67.186 1.983a23.883 23.883 0 0 0-8.611-11.694 23.868 23.868 0 0 0-36.482 11.286 40.273 40.273 0 0 0-38.472-6.858c-13.302 4.724-21.509 16.096-25.962 28.891-24.109-8.165-24.925 21.298-34.683 35.236-12.987 18.569-40.011 33.639-63.257 30.233 29.017 4.245 58.046-5.599 85.722-15.303l44.557-15.606c12.731 6.998 30.253 3.499 39.393-7.768 3.322 9.331 20.891 5.318 19.819-4.549 23.875 14.603 58.36 8.071 75.264-14.242a49.641 49.641 0 0 0 50.212 10.894c.874 10.008 11.051 17.134 21.054 18.091 10.003.956 19.819-2.718 29.145-6.322a14.794 14.794 0 0 0 4.745 17.053c7.298 5.353 17.359 2.787 26.383 2.111 26.545-1.96 50.409 14.451 73.62 27.503a337.41 337.41 0 0 0 116.302 39.563c24.632 8.165 65.592 8.713 80.092 10.358 31.27 3.499 44.64 1.878 75.95-1.167 61.94-5.913 122.67-23.444 179.1-49.489 82.78-38.246 159.86-94.477 250.08-108.065 74.87-11.232 151.86 8.771 219.17 43.518 44.4 22.931 85.39 52.148 130.28 74.076 44.9 21.928 95.6 36.508 144.77 27.294a579.218 579.218 0 0 1-231.93-93.964Z" fill="#C8FFFF"/>
  </g>
  <defs>
    <clipPath id="a">
      <path fill="#fff" d="M0 0h2178v741H0z"/>
    </clipPath>
  </defs>
</svg>
