<svg xmlns="http://www.w3.org/2000/svg" viewBox="0 0 461.47 461.47"><defs><style>.cls-1{fill:#fff;stroke:#fff;stroke-linecap:round;stroke-linejoin:round;stroke-width:14.79px;}.cls-2{fill:#c6000b;}</style></defs><g id="圖層_2" data-name="圖層 2"><g id="圖層_1-2" data-name="圖層 1"><path class="cls-1" d="M300.34,132,299,116.93a6.1,6.1,0,0,1-.6-.79l-19.27,1.69,1.4,15.93,5,17.43L298.87,150Zm-12.13,17.64c-1.25,0-2.82-.9-2.56-2.47s1.15-3,3.35-2.66c1.4.22,2.79.15,2.87,2C291.41,148.56,290.07,149.72,288.21,149.66ZM348.88,343a10.07,10.07,0,0,0,7.38-.31,9.2,9.2,0,0,0,5.1-5.94,9.38,9.38,0,0,0-.59-7.51,9.81,9.81,0,0,0-5.81-4.95,9.79,9.79,0,0,0-12.46,6.19,9.1,9.1,0,0,0,.55,7.84A10.32,10.32,0,0,0,348.88,343Zm20.4-187a6.56,6.56,0,0,0,1.59-5.14,10.34,10.34,0,0,0-2.4-5.51,18.93,18.93,0,0,0-6-4.8,30.69,30.69,0,0,0-9.42-3,48.89,48.89,0,0,0-12.41-.34A35.86,35.86,0,0,0,326,141.31a21.71,21.71,0,0,0-8.66,8.33,17.68,17.68,0,0,0-2.28,10.27,15.1,15.1,0,0,0,4.29,9.69,24.47,24.47,0,0,0,9.7,5.75,96.07,96.07,0,0,0,15.22,3.44q8.22,1.23,11.93,3.05a7.36,7.36,0,0,1,4.1,6.46c.18,2-.79,3.92-2.91,5.68a14.9,14.9,0,0,1-8.46,3.12,24.51,24.51,0,0,1-7-.31,2.12,2.12,0,0,1-1.79.62c-2,0-3.35-.56-3.47-2.78a20.81,20.81,0,0,1-5.33-5.41,15.14,15.14,0,0,0-3.17-3.56,6.12,6.12,0,0,0-4.38-1,7.09,7.09,0,0,0-5,2.52,6.78,6.78,0,0,0-1.63,5.15,14.71,14.71,0,0,0,4,8.45q3.61,4.08,10.63,6.38a41.37,41.37,0,0,0,16.51,1.48,47.15,47.15,0,0,0,16.63-4.16,25.32,25.32,0,0,0,5.28-3.44,2.58,2.58,0,0,1-1.22.25,1.61,1.61,0,0,1-1.67-1.82,2.18,2.18,0,0,1,2.23-1.92c1.41-.1,1.27,1,1.47,1.79a1.8,1.8,0,0,1-.41,1.39,19.4,19.4,0,0,0,4.1-5,21.65,21.65,0,0,0,2.46-12.79,14.53,14.53,0,0,0-3.43-8.37,22.43,22.43,0,0,0-8.44-5.86,58.33,58.33,0,0,0-13.8-3.6q-7.05-1.07-11.08-1.89a19.44,19.44,0,0,1-6.52-2.38,5.54,5.54,0,0,1-2.72-4.35c-.17-2,.73-3.8,2.72-5.33a14.45,14.45,0,0,1,7.75-2.73,15,15,0,0,1,7.49.9,15.9,15.9,0,0,1,5.07,3.72,30.22,30.22,0,0,0,4.76,4.26,6.92,6.92,0,0,0,3.69,1.16,2,2,0,0,1-.81-2.05c.37-1.43,0-4.33,2.86-3.7,2.08-.2,3.4.45,3.24,2.4a6.41,6.41,0,0,1-.59,2.35A6.57,6.57,0,0,0,369.28,156ZM309.59,324.65a9.13,9.13,0,0,0,1.56,7.71,10.36,10.36,0,0,0,6.39,3.88,10.06,10.06,0,0,0,7.28-1.28,9.19,9.19,0,0,0,4.28-6.54,9.34,9.34,0,0,0-1.56-7.37,9.7,9.7,0,0,0-6.4-4.15,9.78,9.78,0,0,0-11.55,7.75ZM232.88,150a5.7,5.7,0,0,0-1.7,4.73,5.89,5.89,0,0,0,2.4,4.4,8.4,8.4,0,0,0,6,1.3l2.32-.2,3,33.79a51.71,51.71,0,0,0,2.47,13,12.9,12.9,0,0,0,6.25,7.19c3,1.59,7.25,2.15,12.75,1.67q8.7-.76,13.15-3.43t4.07-6.92a5.77,5.77,0,0,0-2.08-4.07,5.29,5.29,0,0,0-4-1.37,22.09,22.09,0,0,0-4.08.91,21.75,21.75,0,0,1-4.15.91,5.29,5.29,0,0,1-4.21-1,6.53,6.53,0,0,1-1.87-3.48,53.5,53.5,0,0,1-.84-6.32l-2.84-32.38,3.29-.28a18.33,18.33,0,0,0,7.9-2.13,5.09,5.09,0,0,0,2.37-5.21,5.87,5.87,0,0,0-2.36-4.37,8.33,8.33,0,0,0-5.87-1.28l-6.45.57-1.05-12a37.71,37.71,0,0,0-1.08-6.83,7.52,7.52,0,0,0-2.65-3.89,8.75,8.75,0,0,0-6.28-2,8.49,8.49,0,0,0-4.22,1.51,8,8,0,0,0-2.71,3.19,9.9,9.9,0,0,0-.9,4.27q0,2.44.36,6.7l.93,10.57-1.93.17Q234.82,148,232.88,150Zm21.51-16.27c.22.63-1,.81-1.2.6-1.77-1.5-.26-3.52-1-5.54C256.57,129.44,253.83,132.12,254.39,133.72Zm-1.72,70.53c1.48.17,2.8.51,2.73,2.35-.09,2.17-1.81,1.56-3.07,1.67-1.66.16-2.32-.58-1.92-2C250.15,204.19,251.25,204.09,252.67,204.25ZM87.49,133a8.81,8.81,0,0,0-6.61,3.5c-1.57,2.09-2.19,5.06-1.85,8.93l2.7,30.87a2,2,0,0,1,.88-1c1.13-.58,2.73-.88,3.48.07,1,1.22-.16,2.26-1.36,2.85a2.54,2.54,0,0,0-1.66,2.59c1.64.56,3.4-2.4,4.6-.35.8,1.37,1,3.14,2.52,4.3-3,0-6,.36-7.07-3.36a4,4,0,0,1-1-1.22l3.17,36.23a2.58,2.58,0,0,1,3.4-.38c.53.29,1.18.8.66,1.63-1.2,1.89-2.52,1-3.9.52v0a15,15,0,0,0,2.2,7.24,2.8,2.8,0,0,1,.61-.06c1.06.26,2.16.67,2.07,2a1.28,1.28,0,0,1-.06.34c2,1.05,4.57,1.46,8,1.16l30.14-2.64c-.11-1.9.81-3.14,3.63-2,1.24.51,2.92.43,3.89,1.32l8.57-.75q4.71-.41,7-2.79a7.14,7.14,0,0,0,2-5.85,7.37,7.37,0,0,0-3-5.46q-2.67-2-7.32-1.63l-38.82,3.4-.09-1.09a2.24,2.24,0,0,1-2-2.53c0-1,.44-1.68,1.47-1.36l.17,0-5.6-63.87c-.34-3.92-1.49-6.75-3.44-8.51A9.15,9.15,0,0,0,87.49,133Zm2.28,37.8c-1.49.24-3,.5-4.11-1-.29-.43-.65-.81-1.15-1.42,1.28-.86,2-.7,2.77-.19,1,.67,2.65-.39,3.13,1.35C90.57,170.12,90.37,170.71,89.77,170.81Zm14.28,45.92c.3,2.12-2.52,2.25-4.21,2.76-2-.38-4.43-.81-4.27-3.06.13-1.74-.19-4.62,3.56-4.57S103.73,214.55,104.05,216.73ZM99.59,205c0,1.49-1.11,1.65-2.26,1.66-1.52.08-2.74-.23-2.72-2.13,0-1.26.47-2.22,1.87-2.06S99.54,203,99.59,205ZM98,188.46c.09,1.36.12,2.47-2.05,2.38-2.48-.11-3.91-1.39-4.14-3.47a2.62,2.62,0,0,1,2.8-2.72C96.31,185,98.37,185.79,98,188.46Zm-6.09-22.15c-3.23-.11-3.82-2.33-4-4.76-.13-2.23,1.66-2.89,3.26-2.78a4.12,4.12,0,0,1,4.07,4.61C95.15,164.78,94.41,167.09,91.92,166.31ZM290.83,318.25a45.71,45.71,0,0,0-.12-5.71,41.81,41.81,0,0,0-3.69-14.3,31.28,31.28,0,0,0-19.85-17.1,39.21,39.21,0,0,0-14.74-1.31c-.14,0-.27,0-.41.06a1.82,1.82,0,0,1,.51,1.55c-.18,2-2.06,1.78-3.54,2-1.13-.36-3.21.36-2.86-1.84a2.64,2.64,0,0,1,.25-.78,36.83,36.83,0,0,0-8.11,2.82,31.11,31.11,0,0,0-10.45,8.23,32,32,0,0,0-6,12,42.25,42.25,0,0,0-1.16,14.86A41.46,41.46,0,0,0,224.31,333a31.78,31.78,0,0,0,19.79,17.14,38.13,38.13,0,0,0,14.61,1.32A39.23,39.23,0,0,0,273,347.59a31.34,31.34,0,0,0,10.45-8.29,32,32,0,0,0,6.09-12,38.84,38.84,0,0,0,1-5.55,2.75,2.75,0,0,1-1.25-1.64C289,318.9,289.85,318.39,290.83,318.25Zm-18.75,8H272a19.51,19.51,0,0,1-2.26,4.91,15.43,15.43,0,0,1-12.21,7.15,15.62,15.62,0,0,1-9.43-1.94,15.26,15.26,0,0,1-2.91-2.24,1.89,1.89,0,0,1-1.05.44c-.9.11-1.19-.38-1.25-1.16a3.48,3.48,0,0,1,.25-1.62,21.24,21.24,0,0,1-1.73-2.79,28.42,28.42,0,0,1-2.35-6.79,12.81,12.81,0,0,1-1.79.16c-4.38.1-7.7-2.76-7.82-6.74-.12-3.82,3.53-7.16,8-7.33.4,0,.75,0,1.11,0a26.55,26.55,0,0,1,.8-3.57,17,17,0,0,1,5.37-8.43,15.81,15.81,0,0,1,8.85-3.47,15.44,15.44,0,0,1,13.26,4.88q5.26,5.58,6.21,16.35a34.14,34.14,0,0,1-.42,9.9,6.19,6.19,0,0,1,5.72,2.95C275.91,326.69,274,326.5,272.08,326.27Zm7-28.13c-1.67.08-3-1.12-2.88-2.2a3.75,3.75,0,0,1,3.37-3.38c1.84-.15,1.58,1.49,2.13,2.66C281.3,296.53,281.14,298.05,279.11,298.14Zm101.43-21.33,1.12-2.6a82.64,82.64,0,0,0,3.22-8.22q2.33-7,1.75-11.31a6.87,6.87,0,0,0-.34-1.37,3.15,3.15,0,0,1-2.82,2c-1.31.15-1.6-1-1.61-2.1,0-1.73,1.31-1.32,1.9-1.43a4.24,4.24,0,0,1,1.88.18,9,9,0,0,0-4.95-3.41,9.81,9.81,0,0,0-8.11.52q-3.69,2-5.41,7.18-1.26,3.81-3.61,12.74l-7.95,30.57a30,30,0,0,0-1,9.27,5,5,0,0,0,3.74,4.4,5.18,5.18,0,0,0,5.72-1.36,25.6,25.6,0,0,0,4.67-7.81L378,282.61A4.93,4.93,0,0,1,380.54,276.81ZM374,257.5c-1.59.17-2.87-.55-2.83-2.22,0-1.87,2-2.17,3.25-2.55s2.09,1,2.9,2C376.59,256.05,375.73,257.33,374,257.5ZM118.79,321.32a1.88,1.88,0,0,1-1.54-.61,54.4,54.4,0,0,0,4.34,13.93,43.24,43.24,0,0,0,11.06,14.63,42.06,42.06,0,0,0,16.14,8.4,56.69,56.69,0,0,0,20.15,1.61,67,67,0,0,0,17.1-3.64A77.48,77.48,0,0,0,202,347.42a24.79,24.79,0,0,0,4.58-3.78,9.27,9.27,0,0,0,2.27-4.13,19.42,19.42,0,0,0,.2-5.84l-1.59-18.12c-.28-3.26-1.07-5.66-2.35-7.2a7.67,7.67,0,0,0-4.76-2.76,27.52,27.52,0,0,0-6.83-.12l-21.73,1.9a9,9,0,0,0-6.05,2.61,6.8,6.8,0,0,0-1.83,5.43c.23,2.58,1.3,4.32,3.22,5.24s4.67,1.21,8.24.9l14.83-1.3,1.35,15.35a63.82,63.82,0,0,1-10.82,5.75,6.52,6.52,0,0,0,2,1,2.83,2.83,0,0,1,1.79,4c-.84,1.43-1.11,4.19-3.53,3.52-1.17-.09-2.15.14-2.48-.22-2-2.24-4.62-3.82-6.93-5.68-1.23.21-2.48.38-3.77.5a29.51,29.51,0,0,1-15.14-2.27,2.31,2.31,0,0,1,.6,1.63c-.69,1.6-1.7,2.86-3.83,2.64-1.46-.15-3-.56-2.6-2.3.41-1.91,2.12-2.59,4-2.58a3.47,3.47,0,0,1,.81.09,25.1,25.1,0,0,1-6-4.31q-8.41-8.29-9.88-24.93a47.16,47.16,0,0,1,.74-14.17,30.07,30.07,0,0,1,4.74-11.17,24.68,24.68,0,0,1,8.35-7.42,29.42,29.42,0,0,1,11.66-3.33,25.23,25.23,0,0,1,10.78,1,19.37,19.37,0,0,1,7,4.19,76.93,76.93,0,0,1,6.73,7.86,9,9,0,0,0,3.43,2.42,8.58,8.58,0,0,0,4.05.62,9,9,0,0,0,6.19-3.11,8.2,8.2,0,0,0,2.14-6.39,16.81,16.81,0,0,0-3-7.47,28.83,28.83,0,0,0-7.61-7.58,37.24,37.24,0,0,0-12.5-5.37,51.56,51.56,0,0,0-17.11-1.07,59.93,59.93,0,0,0-20.47,5.2,42.78,42.78,0,0,0-14.69,11.14,41.68,41.68,0,0,0-8.31,16.38,59.67,59.67,0,0,0-1.51,20.48c.11,1.35.31,2.64.49,3.94.32-.89,1.18-1.24,2.31-1.2s2,.52,2.2,1.78A2.73,2.73,0,0,1,118.79,321.32Zm68.13-11.57c-.42-.51-1-1.55-.23-1.95,1.79-.92,3.32-.22,4.65,1.49C189.85,310.21,188.57,311.77,186.92,309.75Zm-21.1,36.77c1.12,0,2.45-.12,2.3,1.47-.19,2-1.9,2.87-3.52,3.25s-2.45-.94-2.91-2.27C161.45,348.26,164.4,346.56,165.82,346.52Zm7-75.58c1.86.14,4.25-.9,5.16,2.05-.67,1.86-1.7,3.47-3.87,3.61s-4.1-.67-4.29-3.26C169.71,271.29,171.19,270.81,172.85,270.94Zm-43.27,12.77c2,0,2.14,2.09,2.12,3.94.24,2.06-.58,3.19-3,3.25-2.08.05-2.88-1.12-2.64-2.76C126.4,286.13,127.05,283.67,129.58,283.71ZM220,213a22.14,22.14,0,0,0,5.1-6.62,11.47,11.47,0,0,0,1.38-5.74,5.34,5.34,0,0,0-2-4,6.41,6.41,0,0,0-4.52-1.1,5.76,5.76,0,0,0-3.76,1.5q-3,3.38-4.93,5.37a38.78,38.78,0,0,1-4.22,3.78,18.6,18.6,0,0,1-4.85,2.76c-.5.19-1.05.32-1.57.47a2.14,2.14,0,0,1,1.07,1.24c0,2.79-1.3,2.49-2.53,2.61-1.78.16-1.61-1-1.6-2.07a2.22,2.22,0,0,1,.36-1.21c-.48.07-.93.17-1.44.21a16.51,16.51,0,0,1-8.81-1.57,15.4,15.4,0,0,1-4.84-3.72,1.8,1.8,0,0,0-.72,1.27c-.81-1.35-3.65-1.6-2.12-4a2.8,2.8,0,0,1,.49-.53,23.63,23.63,0,0,1-3-9.75l18.18-1.59c-1.48-1.55.46-2.89.64-5.36,1.6,2.17,3.2,3.29,2,5.12l13.59-1.19q6.9-.6,10.53-2.9t3.05-8.95a29.62,29.62,0,0,0-4.91-13.73,28.79,28.79,0,0,0-12-10.29q-7.77-3.69-18.09-2.8a39.69,39.69,0,0,0-14.22,3.82,29.56,29.56,0,0,0-10,7.9,4.12,4.12,0,0,1,.41,1.27c.35,2.71-1.43,2.64-3.08,2.65a33.71,33.71,0,0,0-3.43,8.5,44.3,44.3,0,0,0-1.05,14.68q1.45,16.57,11.72,25.42a31.52,31.52,0,0,0,17.77,7.29,3.55,3.55,0,0,1-.13-1.33c.21-1.56.67-4.22,3.32-3.42,2.5.76,6.28.47,6.66,4a6.87,6.87,0,0,1,0,.79,40.63,40.63,0,0,0,12.52-3A32.27,32.27,0,0,0,220,213Zm-37.7-59.17c.85-.16,2.48.07,2.37,1.37a3.07,3.07,0,0,1-2.31,2.36,2.29,2.29,0,0,1-2.31-2C179.92,154.12,181.49,154,182.32,153.87ZM180.52,168a14.12,14.12,0,0,1,10.41-5.49,18.44,18.44,0,0,1,1.95-.07,2.69,2.69,0,0,1,0-1.56c1.11-5-1.53-5.58,9.61-4.72-3.17,1.83-1.54,4.14-2.3,6.11a3.38,3.38,0,0,1-1,1.55,13.79,13.79,0,0,1,3.33,2.19q4.62,4.13,6.06,13.09l-31.92,2.79Q176.7,173,180.52,168ZM97.86,80.54c1.64.38,2.84,1.49,2.79,2.8v.26c2.32-2,4.67-4,7.08-6a4.72,4.72,0,0,1-.83.12c-2.29.12-1.48-2.11-1.43-3.62Q101.59,77.24,97.86,80.54Zm60.51,352.54a3.12,3.12,0,0,0,2.32.82ZM399.23,126.93a4.32,4.32,0,0,1-1.88-.23,195.08,195.08,0,0,1,29.38,90.07,4.62,4.62,0,0,1,1.79-.22,3.68,3.68,0,0,1,2.42,1A201.08,201.08,0,0,0,428,194c-1.51-1.38-2.71-3.08-2.76-4.32a7,7,0,0,1,1-4,199.51,199.51,0,0,0-25.44-61.22,3.9,3.9,0,0,1,.27.65C401.3,127.12,400.1,126.87,399.23,126.93Zm-316.87-29c.06,2-1.5,2.85-3.16,3.13a2.09,2.09,0,0,1-1.29-.13q-4.29,5-8.26,10.36a1.93,1.93,0,0,1,.07.49c0,1.06-.63,1.22-1.28,1.17q-5,6.89-9.46,14.2c.56.15,1,.51.93,1.44s-.3,2.47-1.59,2.34a2.29,2.29,0,0,1-1.23-.57,199.37,199.37,0,0,0-27,100.42c0,101.77,76.17,186.08,174.49,198.93-.44-.21-.54-.81-.63-1.43-.2-1.3.29-2.07,1.7-2.1a2.12,2.12,0,0,1,2.28,1.65c0,1.83-1.36,1.49-2.3,1.83a1.84,1.84,0,0,1-.54.12A200.44,200.44,0,0,0,381.52,363a3.37,3.37,0,0,1-.36.06c-1.76.06-2.34-1.3-2.45-2.66a2,2,0,0,1,0-.5c-1.5,1.72-3,3.41-4.6,5.08a2.63,2.63,0,0,1,1.07-.13c1.46.14,1.75,1.13,1.55,2.3s-1.26,1.61-2.45,1.71c-1.06-.42-1.84-1.11-1.51-2.39,0,0,0-.06,0-.1a197,197,0,0,1-76.9,49.78,8.6,8.6,0,0,0,.67.8c-.61,1.38-1.37,1.93-2.66,1.68a1.9,1.9,0,0,1-1.54-1.27,195.66,195.66,0,0,1-61.66,9.92c-75,0-140.3-42.23-173.4-104.15-1.45-.34-2.2-1.82-2.54-3-.19-.67.05-.92.43-1a196.38,196.38,0,0,1-17.73-124,2.68,2.68,0,0,1-.39-.58.79.79,0,0,1,.71-1.11,193.33,193.33,0,0,1,5.23-20.86,1.91,1.91,0,0,1-2.24-.67c-1.23-1.5-.06-2.7.77-4.69.81,1.57,1.41,2.73,2,3.8.83-2.59,1.7-5.16,2.63-7.71-.94,0-1.79-.15-1.81-1.61,0-1.26,1.62-.3,2-.74a4.76,4.76,0,0,1,.72-.06,196.13,196.13,0,0,1,20.54-39.57,2.14,2.14,0,0,1-.38-.13,1.72,1.72,0,0,1-.67-2.46c1-1.48,1.94-.8,3-.17a198.15,198.15,0,0,1,24.7-29,15.26,15.26,0,0,1-1.62-4.2q-4.53,4.31-8.78,8.9c.28.58.08,1-1,1.36-.06,0-.11-.09-.17-.12l-.91,1A1.8,1.8,0,0,1,82.36,97.89ZM438.87,284.32a215.23,215.23,0,0,1-66.35,107.75,4.45,4.45,0,0,0,2.52,1.2c-2.45.71-3.66,2.87-5.65,1.51a214.68,214.68,0,0,1-207.23,39.63,1.55,1.55,0,0,1,.34,1.65,3,3,0,0,1-2.2,1.8c-2.65-1-4.11-3.46-5.9-5.37a1.58,1.58,0,0,1-.45-1.05,214.86,214.86,0,0,1-40.88-21c.15.32.29.67.42,1-.59,1.31-.81,3-2.82,2.92s-3.42-.84-3.63-3.07,1.23-2.58,3.07-2.71h.23a216.61,216.61,0,0,1-63.82-67.38c-2.13.49-4.22.52-4.81-.32-1.52-2.2-2.1-5-2.94-7.19.28-1.47-.28-3.25,1.38-2.9a4.81,4.81,0,0,0,.53.07,211.42,211.42,0,0,1-9.93-21.55,2.26,2.26,0,0,1-1.84.53c-.89-.09-1.5-.26-1.51-1.41,0-1.5.84-1.85,2.05-1.8a2.5,2.5,0,0,1,.29.05A214.6,214.6,0,0,1,46.07,121l-.23-.21c-.72,3.39-4.86,2.48-6.28,5.51-.77-2.94,1.09-4,2.63-4.83,1.3-.7,2.38-1.15,2.1-2.85-1.06-2.89,1.74-2.56,2.94-3.13a1.3,1.3,0,0,1,1.84.64q3.84-6.08,8.08-11.87c-.92-.86-2.24-1.34-2.91-2.42-.25-.4-1.17-.6-.63-1.25.3-.37,1.09-.76,1.39-.61a10.55,10.55,0,0,1,3.3,2.71A216.48,216.48,0,0,1,73.15,84.81h0a.84.84,0,0,1,1-1c2.66-2.83,5.39-5.61,8.21-8.3H82c-1.94-.09-2.65-2.29-1.9-2.53,3.73-1.18.79-4,1.65-5.87.56-1.23-.16-1.53-1.16-1.57-2.36,2.15-4.66,4.35-6.93,6.59.09,1-.9,1.43-1.43,1.65h-.2q-3.7,3.74-7.22,7.64c.66.14.94.74.83,1.57-.39,2.71-2.11,2.86-4.16,2.2l-.26.32c0,.55.09,1.11.14,1.68l.07,0,0,.08c.51,0,1,0,1.53,0,1.2,0,2.53-.34,2.69,1.54.11,1.29-.51,1.59-1.66,1.64-1.81.07-2.93-.35-2.43-2.49a1.73,1.73,0,0,0-.13-.71h-.09s.07-.08.06-.08-.06.08-.06.08v-.12a2.07,2.07,0,0,1-.88-.81,225,225,0,0,0-14,18.24,4,4,0,0,1,.9,2.68c0,.39.74,2-1.1,1.4a20.8,20.8,0,0,0-2.4-.2,222.81,222.81,0,0,0-15.09,26.82,1.15,1.15,0,0,1,1.08,1.09.94.94,0,0,1-.87,1.16A1.18,1.18,0,0,1,28,137.2q-4.08,8.82-7.42,18.06a3.42,3.42,0,0,1,1.07-.18,2.37,2.37,0,0,1,2.6,1.59c-.6,1.25-1.32,2.35-2.93,2.43a1.47,1.47,0,0,1-1.67-1.21c-.24.71-.49,1.41-.72,2.12A3.26,3.26,0,0,1,21,162.7c.16,2-.54,5.1-4.47,4.87A223.34,223.34,0,0,0,21.94,310l.16,0c1.16,0,1.72.4,1.7,1.19a1,1,0,0,1-1,1.05c32.63,83,113.54,141.86,208,141.86,106,0,195-74.26,217.73-173.49-1.83,1.33-4.79.48-7,1.07C441.45,283.6,440.36,284.18,438.87,284.32ZM32.64,131.24c2.42-3.45,4.72-3,7.26.58a8.35,8.35,0,0,0-5.72,1.3c-.73.49-1.61.77-2.22.11C31.18,132.38,32.21,131.87,32.64,131.24ZM16.31,260.87c-1.44-.15-3.43.89-3.91-1.62-1.13-.43-1.21-1.7-2-2.46a1.73,1.73,0,0,1,0-2.51,2.63,2.63,0,0,1,2.58-.81c1.49.1,1.13,1.25,1.14,2.14,0,1.08,0,2.17-.09,3.26a13,13,0,0,1,2.39-.22,1.31,1.31,0,0,1,1.33,1.26C17.77,260.85,16.94,260.94,16.31,260.87Zm36.07,99.39c-1.53-.69-3.58-.79-4.14-2.88-.22-.81-.3-1.65,1.25-1.88a29.81,29.81,0,0,1,4.27,3.44C54.28,359.52,53.17,360.61,52.38,360.26ZM454,235.19c0-1.48.06-3,.06-4.45a222.48,222.48,0,0,0-59.91-152,2.52,2.52,0,0,1-.41.06c-1.4.37-1.95-1-1.91-1.83a2.22,2.22,0,0,1,.12-.58A223,223,0,0,0,111.11,42.21C113,42,113.5,43.49,114,45c-.33,1.69-1.87,1.78-3.11,1.85A2.68,2.68,0,0,1,108,44.23q-2.19,1.44-4.33,2.93a3.23,3.23,0,0,1-2.46,2.23,3.44,3.44,0,0,1-.65,0A225.2,225.2,0,0,0,82.88,63.5c1.38.18,2.6,1.25,3.69,2.8.64.92,2.91,2.45-.35,3.46-1.29.4-.61,1.38.14,1.94A214.12,214.12,0,0,1,219.08,16.16a5.14,5.14,0,0,1,2.29-.51,3,3,0,0,1,1.74.34c2.53-.09,5.07-.15,7.63-.15a213.71,213.71,0,0,1,85.12,17.6,2.31,2.31,0,0,1,3.34,1.37.28.28,0,0,1,0,.09A216.17,216.17,0,0,1,431,152.69a3.36,3.36,0,0,1,1.82-.58,3,3,0,0,1,3.26,3.4c-.22,2-.74,3.51-2.68,3.66a212.34,212.34,0,0,1,7.74,27.59,5.27,5.27,0,0,1,.63,2.23,7.85,7.85,0,0,1,0,.84,215.45,215.45,0,0,1,3.92,40.91q0,9-.75,17.83a12.86,12.86,0,0,0,2,0,15.86,15.86,0,0,1-2.27,3.36q-1,10.23-3,20.17a2.8,2.8,0,0,1,.3-.15c2.51-.56,5.06-.61,7.27,1.38a3.34,3.34,0,0,1,.65.76,222.35,222.35,0,0,0,4.07-34.87,2.25,2.25,0,0,1-1.71-2.46C452.22,235.32,453.09,235.3,454,235.19ZM235,15.61a2.83,2.83,0,0,1-2.76-2.84c-.1-1.62,1.67-.74,2.23-1.15,1.55,0,2.78-.16,2.74,1.74C237.21,14.9,236.42,15.64,235,15.61ZM343.47,44.4a1.75,1.75,0,0,1-1.85-1.69c-.14-1.93,1.29-2.15,2.74-2.16.92,0,2.08-.22,2,1.3C346.34,43.68,344.73,43.79,343.47,44.4Zm40,316.27a199.76,199.76,0,0,0,47.89-129.93c0-1.72,0-3.43-.07-5.14-.82,1.88-2.95,4.37-3.89,4l-.2-.07c0,.39,0,.78,0,1.17A195.62,195.62,0,0,1,379.47,359a5.53,5.53,0,0,1,1.55-.21C382.33,358.78,383.56,359,383.49,360.67Zm44.45-139.6-.67-.11c1.46.54,3.13.69,3.94,2,0-1.16-.09-2.32-.15-3.47C430.24,220.5,429.37,221.29,427.94,221.07Zm-86.83,42.72a87.78,87.78,0,0,0,2.12-8.57c.27-1.42.45-2.72.58-4a2.68,2.68,0,0,1-1.55.39c-2-.14-2.79-2-3.1-3.63-.05-.3-.14-3.1,2.13-2.61a7.37,7.37,0,0,1,2.62,1,16,16,0,0,0-.41-2.58q-1.14-4.2-6.69-5.27a9.45,9.45,0,0,0-10.42,4.25,2.79,2.79,0,0,0,.86.91,2.22,2.22,0,0,1-2.34,2.35,16.24,16.24,0,0,0-.5,1.89q-.77,3.93-1.93,13.09l-1.64,13.16c2.12.47,3.66,1.57,3.81,3.62.17,2.25-2.35,2.26-3.5,2.5a1.47,1.47,0,0,1-1-.23l-1.54,12.29a30.23,30.23,0,0,0,.21,9.33,5,5,0,0,0,4.28,3.87,5.16,5.16,0,0,0,5.5-2.09,25.33,25.33,0,0,0,3.62-8.34Zm-14.39-4.05a2.93,2.93,0,0,1,3.18-3c1.33.12,2.68.07,4,.09,0,0,0-.07,0-.1h0l.1,0c0-1.09-.93-2.49.64-3.05,1-.36,2.37-.72,3.37.44a1.49,1.49,0,0,1-.07,2.18c-.78.79-1.66,2-2.9.41-.12-.17-.65,0-1,0,0,0,0,.08,0,.12h-.09c.82,3.56-.62,5.5-3.81,5.51C328.1,262.37,326.65,261.34,326.72,259.74Zm-149.9-218c.3-1,1.23-1.12,2.53-1.15a6.1,6.1,0,0,1,.92.21,197,197,0,0,1,85.19-3.5,6.82,6.82,0,0,0,.88-2.83c-.06-.87,1.62-.63,2.52-.48,1.22.21,1.39,1,1,2.17a14.2,14.2,0,0,0-.53,1.88,197,197,0,0,1,127.12,87.22c0-.93.74-2.47,2.13-2.4a2.57,2.57,0,0,1,2.09,1.34,200.4,200.4,0,0,0-290.8-53.54c-1.09,1.55,0,4.18-.68,5.75A196.33,196.33,0,0,1,176.82,41.76Z"/><path class="cls-2" d="M300.34,132,299,116.93a6.1,6.1,0,0,1-.6-.79l-19.27,1.69,1.4,15.93,5,17.43L298.87,150Zm-12.13,17.64c-1.25,0-2.82-.9-2.56-2.47s1.15-3,3.35-2.66c1.4.22,2.79.15,2.87,2C291.41,148.56,290.07,149.72,288.21,149.66ZM348.88,343a10.07,10.07,0,0,0,7.38-.31,9.2,9.2,0,0,0,5.1-5.94,9.38,9.38,0,0,0-.59-7.51,9.81,9.81,0,0,0-5.81-4.95,9.79,9.79,0,0,0-12.46,6.19,9.1,9.1,0,0,0,.55,7.84A10.32,10.32,0,0,0,348.88,343Zm20.4-187a6.56,6.56,0,0,0,1.59-5.14,10.34,10.34,0,0,0-2.4-5.51,18.93,18.93,0,0,0-6-4.8,30.69,30.69,0,0,0-9.42-3,48.89,48.89,0,0,0-12.41-.34A35.86,35.86,0,0,0,326,141.31a21.71,21.71,0,0,0-8.66,8.33,17.68,17.68,0,0,0-2.28,10.27,15.1,15.1,0,0,0,4.29,9.69,24.47,24.47,0,0,0,9.7,5.75,96.07,96.07,0,0,0,15.22,3.44q8.22,1.23,11.93,3.05a7.36,7.36,0,0,1,4.1,6.46c.18,2-.79,3.92-2.91,5.68a14.9,14.9,0,0,1-8.46,3.12,24.51,24.51,0,0,1-7-.31,2.12,2.12,0,0,1-1.79.62c-2,0-3.35-.56-3.47-2.78a20.81,20.81,0,0,1-5.33-5.41,15.14,15.14,0,0,0-3.17-3.56,6.12,6.12,0,0,0-4.38-1,7.09,7.09,0,0,0-5,2.52,6.78,6.78,0,0,0-1.63,5.15,14.71,14.71,0,0,0,4,8.45q3.61,4.08,10.63,6.38a41.37,41.37,0,0,0,16.51,1.48,47.15,47.15,0,0,0,16.63-4.16,25.32,25.32,0,0,0,5.28-3.44,2.58,2.58,0,0,1-1.22.25,1.61,1.61,0,0,1-1.67-1.82,2.18,2.18,0,0,1,2.23-1.92c1.41-.1,1.27,1,1.47,1.79a1.8,1.8,0,0,1-.41,1.39,19.4,19.4,0,0,0,4.1-5,21.65,21.65,0,0,0,2.46-12.79,14.53,14.53,0,0,0-3.43-8.37,22.43,22.43,0,0,0-8.44-5.86,58.33,58.33,0,0,0-13.8-3.6q-7.05-1.07-11.08-1.89a19.44,19.44,0,0,1-6.52-2.38,5.54,5.54,0,0,1-2.72-4.35c-.17-2,.73-3.8,2.72-5.33a14.45,14.45,0,0,1,7.75-2.73,15,15,0,0,1,7.49.9,15.9,15.9,0,0,1,5.07,3.72,30.22,30.22,0,0,0,4.76,4.26,6.92,6.92,0,0,0,3.69,1.16,2,2,0,0,1-.81-2.05c.37-1.43,0-4.33,2.86-3.7,2.08-.2,3.4.45,3.24,2.4a6.41,6.41,0,0,1-.59,2.35A6.57,6.57,0,0,0,369.28,156ZM309.59,324.65a9.13,9.13,0,0,0,1.56,7.71,10.36,10.36,0,0,0,6.39,3.88,10.06,10.06,0,0,0,7.28-1.28,9.19,9.19,0,0,0,4.28-6.54,9.34,9.34,0,0,0-1.56-7.37,9.7,9.7,0,0,0-6.4-4.15,9.78,9.78,0,0,0-11.55,7.75ZM232.88,150a5.7,5.7,0,0,0-1.7,4.73,5.89,5.89,0,0,0,2.4,4.4,8.4,8.4,0,0,0,6,1.3l2.32-.2,3,33.79a51.71,51.71,0,0,0,2.47,13,12.9,12.9,0,0,0,6.25,7.19c3,1.59,7.25,2.15,12.75,1.67q8.7-.76,13.15-3.43t4.07-6.92a5.77,5.77,0,0,0-2.08-4.07,5.29,5.29,0,0,0-4-1.37,22.09,22.09,0,0,0-4.08.91,21.75,21.75,0,0,1-4.15.91,5.29,5.29,0,0,1-4.21-1,6.53,6.53,0,0,1-1.87-3.48,53.5,53.5,0,0,1-.84-6.32l-2.84-32.38,3.29-.28a18.33,18.33,0,0,0,7.9-2.13,5.09,5.09,0,0,0,2.37-5.21,5.87,5.87,0,0,0-2.36-4.37,8.33,8.33,0,0,0-5.87-1.28l-6.45.57-1.05-12a37.71,37.71,0,0,0-1.08-6.83,7.52,7.52,0,0,0-2.65-3.89,8.75,8.75,0,0,0-6.28-2,8.49,8.49,0,0,0-4.22,1.51,8,8,0,0,0-2.71,3.19,9.9,9.9,0,0,0-.9,4.27q0,2.44.36,6.7l.93,10.57-1.93.17Q234.82,148,232.88,150Zm21.51-16.27c.22.63-1,.81-1.2.6-1.77-1.5-.26-3.52-1-5.54C256.57,129.44,253.83,132.12,254.39,133.72Zm-1.72,70.53c1.48.17,2.8.51,2.73,2.35-.09,2.17-1.81,1.56-3.07,1.67-1.66.16-2.32-.58-1.92-2C250.15,204.19,251.25,204.09,252.67,204.25ZM87.49,133a8.81,8.81,0,0,0-6.61,3.5c-1.57,2.09-2.19,5.06-1.85,8.93l2.7,30.87a2,2,0,0,1,.88-1c1.13-.58,2.73-.88,3.48.07,1,1.22-.16,2.26-1.36,2.85a2.54,2.54,0,0,0-1.66,2.59c1.64.56,3.4-2.4,4.6-.35.8,1.37,1,3.14,2.52,4.3-3,0-6,.36-7.07-3.36a4,4,0,0,1-1-1.22l3.17,36.23a2.58,2.58,0,0,1,3.4-.38c.53.29,1.18.8.66,1.63-1.2,1.89-2.52,1-3.9.52v0a15,15,0,0,0,2.2,7.24,2.8,2.8,0,0,1,.61-.06c1.06.26,2.16.67,2.07,2a1.28,1.28,0,0,1-.06.34c2,1.05,4.57,1.46,8,1.16l30.14-2.64c-.11-1.9.81-3.14,3.63-2,1.24.51,2.92.43,3.89,1.32l8.57-.75q4.71-.41,7-2.79a7.14,7.14,0,0,0,2-5.85,7.37,7.37,0,0,0-3-5.46q-2.67-2-7.32-1.63l-38.82,3.4-.09-1.09a2.24,2.24,0,0,1-2-2.53c0-1,.44-1.68,1.47-1.36l.17,0-5.6-63.87c-.34-3.92-1.49-6.75-3.44-8.51A9.15,9.15,0,0,0,87.49,133Zm2.28,37.8c-1.49.24-3,.5-4.11-1-.29-.43-.65-.81-1.15-1.42,1.28-.86,2-.7,2.77-.19,1,.67,2.65-.39,3.13,1.35C90.57,170.12,90.37,170.71,89.77,170.81Zm14.28,45.92c.3,2.12-2.52,2.25-4.21,2.76-2-.38-4.43-.81-4.27-3.06.13-1.74-.19-4.62,3.56-4.57S103.73,214.55,104.05,216.73ZM99.59,205c0,1.49-1.11,1.65-2.26,1.66-1.52.08-2.74-.23-2.72-2.13,0-1.26.47-2.22,1.87-2.06S99.54,203,99.59,205ZM98,188.46c.09,1.36.12,2.47-2.05,2.38-2.48-.11-3.91-1.39-4.14-3.47a2.62,2.62,0,0,1,2.8-2.72C96.31,185,98.37,185.79,98,188.46Zm-6.09-22.15c-3.23-.11-3.82-2.33-4-4.76-.13-2.23,1.66-2.89,3.26-2.78a4.12,4.12,0,0,1,4.07,4.61C95.15,164.78,94.41,167.09,91.92,166.31ZM290.83,318.25a45.71,45.71,0,0,0-.12-5.71,41.81,41.81,0,0,0-3.69-14.3,31.28,31.28,0,0,0-19.85-17.1,39.21,39.21,0,0,0-14.74-1.31c-.14,0-.27,0-.41.06a1.82,1.82,0,0,1,.51,1.55c-.18,2-2.06,1.78-3.54,2-1.13-.36-3.21.36-2.86-1.84a2.64,2.64,0,0,1,.25-.78,36.83,36.83,0,0,0-8.11,2.82,31.11,31.11,0,0,0-10.45,8.23,32,32,0,0,0-6,12,42.25,42.25,0,0,0-1.16,14.86A41.46,41.46,0,0,0,224.31,333a31.78,31.78,0,0,0,19.79,17.14,38.13,38.13,0,0,0,14.61,1.32A39.23,39.23,0,0,0,273,347.59a31.34,31.34,0,0,0,10.45-8.29,32,32,0,0,0,6.09-12,38.84,38.84,0,0,0,1-5.55,2.75,2.75,0,0,1-1.25-1.64C289,318.9,289.85,318.39,290.83,318.25Zm-18.75,8H272a19.51,19.51,0,0,1-2.26,4.91,15.43,15.43,0,0,1-12.21,7.15,15.62,15.62,0,0,1-9.43-1.94,15.26,15.26,0,0,1-2.91-2.24,1.89,1.89,0,0,1-1.05.44c-.9.11-1.19-.38-1.25-1.16a3.48,3.48,0,0,1,.25-1.62,21.24,21.24,0,0,1-1.73-2.79,28.42,28.42,0,0,1-2.35-6.79,12.81,12.81,0,0,1-1.79.16c-4.38.1-7.7-2.76-7.82-6.74-.12-3.82,3.53-7.16,8-7.33.4,0,.75,0,1.11,0a26.55,26.55,0,0,1,.8-3.57,17,17,0,0,1,5.37-8.43,15.81,15.81,0,0,1,8.85-3.47,15.44,15.44,0,0,1,13.26,4.88q5.26,5.58,6.21,16.35a34.14,34.14,0,0,1-.42,9.9,6.19,6.19,0,0,1,5.72,2.95C275.91,326.69,274,326.5,272.08,326.27Zm7-28.13c-1.67.08-3-1.12-2.88-2.2a3.75,3.75,0,0,1,3.37-3.38c1.84-.15,1.58,1.49,2.13,2.66C281.3,296.53,281.14,298.05,279.11,298.14Zm101.43-21.33,1.12-2.6a82.64,82.64,0,0,0,3.22-8.22q2.33-7,1.75-11.31a6.87,6.87,0,0,0-.34-1.37,3.15,3.15,0,0,1-2.82,2c-1.31.15-1.6-1-1.61-2.1,0-1.73,1.31-1.32,1.9-1.43a4.24,4.24,0,0,1,1.88.18,9,9,0,0,0-4.95-3.41,9.81,9.81,0,0,0-8.11.52q-3.69,2-5.41,7.18-1.26,3.81-3.61,12.74l-7.95,30.57a30,30,0,0,0-1,9.27,5,5,0,0,0,3.74,4.4,5.18,5.18,0,0,0,5.72-1.36,25.6,25.6,0,0,0,4.67-7.81L378,282.61A4.93,4.93,0,0,1,380.54,276.81ZM374,257.5c-1.59.17-2.87-.55-2.83-2.22,0-1.87,2-2.17,3.25-2.55s2.09,1,2.9,2C376.59,256.05,375.73,257.33,374,257.5ZM118.79,321.32a1.88,1.88,0,0,1-1.54-.61,54.4,54.4,0,0,0,4.34,13.93,43.24,43.24,0,0,0,11.06,14.63,42.06,42.06,0,0,0,16.14,8.4,56.69,56.69,0,0,0,20.15,1.61,67,67,0,0,0,17.1-3.64A77.48,77.48,0,0,0,202,347.42a24.79,24.79,0,0,0,4.58-3.78,9.27,9.27,0,0,0,2.27-4.13,19.42,19.42,0,0,0,.2-5.84l-1.59-18.12c-.28-3.26-1.07-5.66-2.35-7.2a7.67,7.67,0,0,0-4.76-2.76,27.52,27.52,0,0,0-6.83-.12l-21.73,1.9a9,9,0,0,0-6.05,2.61,6.8,6.8,0,0,0-1.83,5.43c.23,2.58,1.3,4.32,3.22,5.24s4.67,1.21,8.24.9l14.83-1.3,1.35,15.35a63.82,63.82,0,0,1-10.82,5.75,6.52,6.52,0,0,0,2,1,2.83,2.83,0,0,1,1.79,4c-.84,1.43-1.11,4.19-3.53,3.52-1.17-.09-2.15.14-2.48-.22-2-2.24-4.62-3.82-6.93-5.68-1.23.21-2.48.38-3.77.5a29.51,29.51,0,0,1-15.14-2.27,2.31,2.31,0,0,1,.6,1.63c-.69,1.6-1.7,2.86-3.83,2.64-1.46-.15-3-.56-2.6-2.3.41-1.91,2.12-2.59,4-2.58a3.47,3.47,0,0,1,.81.09,25.1,25.1,0,0,1-6-4.31q-8.41-8.29-9.88-24.93a47.16,47.16,0,0,1,.74-14.17,30.07,30.07,0,0,1,4.74-11.17,24.68,24.68,0,0,1,8.35-7.42,29.42,29.42,0,0,1,11.66-3.33,25.23,25.23,0,0,1,10.78,1,19.37,19.37,0,0,1,7,4.19,76.93,76.93,0,0,1,6.73,7.86,9,9,0,0,0,3.43,2.42,8.58,8.58,0,0,0,4.05.62,9,9,0,0,0,6.19-3.11,8.2,8.2,0,0,0,2.14-6.39,16.81,16.81,0,0,0-3-7.47,28.83,28.83,0,0,0-7.61-7.58,37.24,37.24,0,0,0-12.5-5.37,51.56,51.56,0,0,0-17.11-1.07,59.93,59.93,0,0,0-20.47,5.2,42.78,42.78,0,0,0-14.69,11.14,41.68,41.68,0,0,0-8.31,16.38,59.67,59.67,0,0,0-1.51,20.48c.11,1.35.31,2.64.49,3.94.32-.89,1.18-1.24,2.31-1.2s2,.52,2.2,1.78A2.73,2.73,0,0,1,118.79,321.32Zm68.13-11.57c-.42-.51-1-1.55-.23-1.95,1.79-.92,3.32-.22,4.65,1.49C189.85,310.21,188.57,311.77,186.92,309.75Zm-21.1,36.77c1.12,0,2.45-.12,2.3,1.47-.19,2-1.9,2.87-3.52,3.25s-2.45-.94-2.91-2.27C161.45,348.26,164.4,346.56,165.82,346.52Zm7-75.58c1.86.14,4.25-.9,5.16,2.05-.67,1.86-1.7,3.47-3.87,3.61s-4.1-.67-4.29-3.26C169.71,271.29,171.19,270.81,172.85,270.94Zm-43.27,12.77c2,0,2.14,2.09,2.12,3.94.24,2.06-.58,3.19-3,3.25-2.08.05-2.88-1.12-2.64-2.76C126.4,286.13,127.05,283.67,129.58,283.71ZM220,213a22.14,22.14,0,0,0,5.1-6.62,11.47,11.47,0,0,0,1.38-5.74,5.34,5.34,0,0,0-2-4,6.41,6.41,0,0,0-4.52-1.1,5.76,5.76,0,0,0-3.76,1.5q-3,3.38-4.93,5.37a38.78,38.78,0,0,1-4.22,3.78,18.6,18.6,0,0,1-4.85,2.76c-.5.19-1.05.32-1.57.47a2.14,2.14,0,0,1,1.07,1.24c0,2.79-1.3,2.49-2.53,2.61-1.78.16-1.61-1-1.6-2.07a2.22,2.22,0,0,1,.36-1.21c-.48.07-.93.17-1.44.21a16.51,16.51,0,0,1-8.81-1.57,15.4,15.4,0,0,1-4.84-3.72,1.8,1.8,0,0,0-.72,1.27c-.81-1.35-3.65-1.6-2.12-4a2.8,2.8,0,0,1,.49-.53,23.63,23.63,0,0,1-3-9.75l18.18-1.59c-1.48-1.55.46-2.89.64-5.36,1.6,2.17,3.2,3.29,2,5.12l13.59-1.19q6.9-.6,10.53-2.9t3.05-8.95a29.62,29.62,0,0,0-4.91-13.73,28.79,28.79,0,0,0-12-10.29q-7.77-3.69-18.09-2.8a39.69,39.69,0,0,0-14.22,3.82,29.56,29.56,0,0,0-10,7.9,4.12,4.12,0,0,1,.41,1.27c.35,2.71-1.43,2.64-3.08,2.65a33.71,33.71,0,0,0-3.43,8.5,44.3,44.3,0,0,0-1.05,14.68q1.45,16.57,11.72,25.42a31.52,31.52,0,0,0,17.77,7.29,3.55,3.55,0,0,1-.13-1.33c.21-1.56.67-4.22,3.32-3.42,2.5.76,6.28.47,6.66,4a6.87,6.87,0,0,1,0,.79,40.63,40.63,0,0,0,12.52-3A32.27,32.27,0,0,0,220,213Zm-37.7-59.17c.85-.16,2.48.07,2.37,1.37a3.07,3.07,0,0,1-2.31,2.36,2.29,2.29,0,0,1-2.31-2C179.92,154.12,181.49,154,182.32,153.87ZM180.52,168a14.12,14.12,0,0,1,10.41-5.49,18.44,18.44,0,0,1,1.95-.07,2.69,2.69,0,0,1,0-1.56c1.11-5-1.53-5.58,9.61-4.72-3.17,1.83-1.54,4.14-2.3,6.11a3.38,3.38,0,0,1-1,1.55,13.79,13.79,0,0,1,3.33,2.19q4.62,4.13,6.06,13.09l-31.92,2.79Q176.7,173,180.52,168ZM97.86,80.54c1.64.38,2.84,1.49,2.79,2.8v.26c2.32-2,4.67-4,7.08-6a4.72,4.72,0,0,1-.83.12c-2.29.12-1.48-2.11-1.43-3.62Q101.59,77.24,97.86,80.54Zm60.51,352.54a3.12,3.12,0,0,0,2.32.82ZM399.23,126.93a4.32,4.32,0,0,1-1.88-.23,195.08,195.08,0,0,1,29.38,90.07,4.62,4.62,0,0,1,1.79-.22,3.68,3.68,0,0,1,2.42,1A201.08,201.08,0,0,0,428,194c-1.51-1.38-2.71-3.08-2.76-4.32a7,7,0,0,1,1-4,199.51,199.51,0,0,0-25.44-61.22,3.9,3.9,0,0,1,.27.65C401.3,127.12,400.1,126.87,399.23,126.93Zm-316.87-29c.06,2-1.5,2.85-3.16,3.13a2.09,2.09,0,0,1-1.29-.13q-4.29,5-8.26,10.36a1.93,1.93,0,0,1,.07.49c0,1.06-.63,1.22-1.28,1.17q-5,6.89-9.46,14.2c.56.15,1,.51.93,1.44s-.3,2.47-1.59,2.34a2.29,2.29,0,0,1-1.23-.57,199.37,199.37,0,0,0-27,100.42c0,101.77,76.17,186.08,174.49,198.93-.44-.21-.54-.81-.63-1.43-.2-1.3.29-2.07,1.7-2.1a2.12,2.12,0,0,1,2.28,1.65c0,1.83-1.36,1.49-2.3,1.83a1.84,1.84,0,0,1-.54.12A200.44,200.44,0,0,0,381.52,363a3.37,3.37,0,0,1-.36.06c-1.76.06-2.34-1.3-2.45-2.66a2,2,0,0,1,0-.5c-1.5,1.72-3,3.41-4.6,5.08a2.63,2.63,0,0,1,1.07-.13c1.46.14,1.75,1.13,1.55,2.3s-1.26,1.61-2.45,1.71c-1.06-.42-1.84-1.11-1.51-2.39,0,0,0-.06,0-.1a197,197,0,0,1-76.9,49.78,8.6,8.6,0,0,0,.67.8c-.61,1.38-1.37,1.93-2.66,1.68a1.9,1.9,0,0,1-1.54-1.27,195.66,195.66,0,0,1-61.66,9.92c-75,0-140.3-42.23-173.4-104.15-1.45-.34-2.2-1.82-2.54-3-.19-.67.05-.92.43-1a196.38,196.38,0,0,1-17.73-124,2.68,2.68,0,0,1-.39-.58.79.79,0,0,1,.71-1.11,193.33,193.33,0,0,1,5.23-20.86,1.91,1.91,0,0,1-2.24-.67c-1.23-1.5-.06-2.7.77-4.69.81,1.57,1.41,2.73,2,3.8.83-2.59,1.7-5.16,2.63-7.71-.94,0-1.79-.15-1.81-1.61,0-1.26,1.62-.3,2-.74a4.76,4.76,0,0,1,.72-.06,196.13,196.13,0,0,1,20.54-39.57,2.14,2.14,0,0,1-.38-.13,1.72,1.72,0,0,1-.67-2.46c1-1.48,1.94-.8,3-.17a198.15,198.15,0,0,1,24.7-29,15.26,15.26,0,0,1-1.62-4.2q-4.53,4.31-8.78,8.9c.28.58.08,1-1,1.36-.06,0-.11-.09-.17-.12l-.91,1A1.8,1.8,0,0,1,82.36,97.89ZM438.87,284.32a215.23,215.23,0,0,1-66.35,107.75,4.45,4.45,0,0,0,2.52,1.2c-2.45.71-3.66,2.87-5.65,1.51a214.68,214.68,0,0,1-207.23,39.63,1.55,1.55,0,0,1,.34,1.65,3,3,0,0,1-2.2,1.8c-2.65-1-4.11-3.46-5.9-5.37a1.58,1.58,0,0,1-.45-1.05,214.86,214.86,0,0,1-40.88-21c.15.32.29.67.42,1-.59,1.31-.81,3-2.82,2.92s-3.42-.84-3.63-3.07,1.23-2.58,3.07-2.71h.23a216.61,216.61,0,0,1-63.82-67.38c-2.13.49-4.22.52-4.81-.32-1.52-2.2-2.1-5-2.94-7.19.28-1.47-.28-3.25,1.38-2.9a4.81,4.81,0,0,0,.53.07,211.42,211.42,0,0,1-9.93-21.55,2.26,2.26,0,0,1-1.84.53c-.89-.09-1.5-.26-1.51-1.41,0-1.5.84-1.85,2.05-1.8a2.5,2.5,0,0,1,.29.05A214.6,214.6,0,0,1,46.07,121l-.23-.21c-.72,3.39-4.86,2.48-6.28,5.51-.77-2.94,1.09-4,2.63-4.83,1.3-.7,2.38-1.15,2.1-2.85-1.06-2.89,1.74-2.56,2.94-3.13a1.3,1.3,0,0,1,1.84.64q3.84-6.08,8.08-11.87c-.92-.86-2.24-1.34-2.91-2.42-.25-.4-1.17-.6-.63-1.25.3-.37,1.09-.76,1.39-.61a10.55,10.55,0,0,1,3.3,2.71A216.48,216.48,0,0,1,73.15,84.81h0a.84.84,0,0,1,1-1c2.66-2.83,5.39-5.61,8.21-8.3H82c-1.94-.09-2.65-2.29-1.9-2.53,3.73-1.18.79-4,1.65-5.87.56-1.23-.16-1.53-1.16-1.57-2.36,2.15-4.66,4.35-6.93,6.59.09,1-.9,1.43-1.43,1.65h-.2q-3.7,3.74-7.22,7.64c.66.14.94.74.83,1.57-.39,2.71-2.11,2.86-4.16,2.2l-.26.32c0,.55.09,1.11.14,1.68l.07,0,0,.08c.51,0,1,0,1.53,0,1.2,0,2.53-.34,2.69,1.54.11,1.29-.51,1.59-1.66,1.64-1.81.07-2.93-.35-2.43-2.49a1.73,1.73,0,0,0-.13-.71h-.09s.07-.08.06-.08-.06.08-.06.08v-.12a2.07,2.07,0,0,1-.88-.81,225,225,0,0,0-14,18.24,4,4,0,0,1,.9,2.68c0,.39.74,2-1.1,1.4a20.8,20.8,0,0,0-2.4-.2,222.81,222.81,0,0,0-15.09,26.82,1.15,1.15,0,0,1,1.08,1.09.94.94,0,0,1-.87,1.16A1.18,1.18,0,0,1,28,137.2q-4.08,8.82-7.42,18.06a3.42,3.42,0,0,1,1.07-.18,2.37,2.37,0,0,1,2.6,1.59c-.6,1.25-1.32,2.35-2.93,2.43a1.47,1.47,0,0,1-1.67-1.21c-.24.71-.49,1.41-.72,2.12A3.26,3.26,0,0,1,21,162.7c.16,2-.54,5.1-4.47,4.87A223.34,223.34,0,0,0,21.94,310l.16,0c1.16,0,1.72.4,1.7,1.19a1,1,0,0,1-1,1.05c32.63,83,113.54,141.86,208,141.86,106,0,195-74.26,217.73-173.49-1.83,1.33-4.79.48-7,1.07C441.45,283.6,440.36,284.18,438.87,284.32ZM32.64,131.24c2.42-3.45,4.72-3,7.26.58a8.35,8.35,0,0,0-5.72,1.3c-.73.49-1.61.77-2.22.11C31.18,132.38,32.21,131.87,32.64,131.24ZM16.31,260.87c-1.44-.15-3.43.89-3.91-1.62-1.13-.43-1.21-1.7-2-2.46a1.73,1.73,0,0,1,0-2.51,2.63,2.63,0,0,1,2.58-.81c1.49.1,1.13,1.25,1.14,2.14,0,1.08,0,2.17-.09,3.26a13,13,0,0,1,2.39-.22,1.31,1.31,0,0,1,1.33,1.26C17.77,260.85,16.94,260.94,16.31,260.87Zm36.07,99.39c-1.53-.69-3.58-.79-4.14-2.88-.22-.81-.3-1.65,1.25-1.88a29.81,29.81,0,0,1,4.27,3.44C54.28,359.52,53.17,360.61,52.38,360.26ZM454,235.19c0-1.48.06-3,.06-4.45a222.48,222.48,0,0,0-59.91-152,2.52,2.52,0,0,1-.41.06c-1.4.37-1.95-1-1.91-1.83a2.22,2.22,0,0,1,.12-.58A223,223,0,0,0,111.11,42.21C113,42,113.5,43.49,114,45c-.33,1.69-1.87,1.78-3.11,1.85A2.68,2.68,0,0,1,108,44.23q-2.19,1.44-4.33,2.93a3.23,3.23,0,0,1-2.46,2.23,3.44,3.44,0,0,1-.65,0A225.2,225.2,0,0,0,82.88,63.5c1.38.18,2.6,1.25,3.69,2.8.64.92,2.91,2.45-.35,3.46-1.29.4-.61,1.38.14,1.94A214.12,214.12,0,0,1,219.08,16.16a5.14,5.14,0,0,1,2.29-.51,3,3,0,0,1,1.74.34c2.53-.09,5.07-.15,7.63-.15a213.71,213.71,0,0,1,85.12,17.6,2.31,2.31,0,0,1,3.34,1.37.28.28,0,0,1,0,.09A216.17,216.17,0,0,1,431,152.69a3.36,3.36,0,0,1,1.82-.58,3,3,0,0,1,3.26,3.4c-.22,2-.74,3.51-2.68,3.66a212.34,212.34,0,0,1,7.74,27.59,5.27,5.27,0,0,1,.63,2.23,7.85,7.85,0,0,1,0,.84,215.45,215.45,0,0,1,3.92,40.91q0,9-.75,17.83a12.86,12.86,0,0,0,2,0,15.86,15.86,0,0,1-2.27,3.36q-1,10.23-3,20.17a2.8,2.8,0,0,1,.3-.15c2.51-.56,5.06-.61,7.27,1.38a3.34,3.34,0,0,1,.65.76,222.35,222.35,0,0,0,4.07-34.87,2.25,2.25,0,0,1-1.71-2.46C452.22,235.32,453.09,235.3,454,235.19ZM235,15.61a2.83,2.83,0,0,1-2.76-2.84c-.1-1.62,1.67-.74,2.23-1.15,1.55,0,2.78-.16,2.74,1.74C237.21,14.9,236.42,15.64,235,15.61ZM343.47,44.4a1.75,1.75,0,0,1-1.85-1.69c-.14-1.93,1.29-2.15,2.74-2.16.92,0,2.08-.22,2,1.3C346.34,43.68,344.73,43.79,343.47,44.4Zm40,316.27a199.76,199.76,0,0,0,47.89-129.93c0-1.72,0-3.43-.07-5.14-.82,1.88-2.95,4.37-3.89,4l-.2-.07c0,.39,0,.78,0,1.17A195.62,195.62,0,0,1,379.47,359a5.53,5.53,0,0,1,1.55-.21C382.33,358.78,383.56,359,383.49,360.67Zm44.45-139.6-.67-.11c1.46.54,3.13.69,3.94,2,0-1.16-.09-2.32-.15-3.47C430.24,220.5,429.37,221.29,427.94,221.07Zm-86.83,42.72a87.78,87.78,0,0,0,2.12-8.57c.27-1.42.45-2.72.58-4a2.68,2.68,0,0,1-1.55.39c-2-.14-2.79-2-3.1-3.63-.05-.3-.14-3.1,2.13-2.61a7.37,7.37,0,0,1,2.62,1,16,16,0,0,0-.41-2.58q-1.14-4.2-6.69-5.27a9.45,9.45,0,0,0-10.42,4.25,2.79,2.79,0,0,0,.86.91,2.22,2.22,0,0,1-2.34,2.35,16.24,16.24,0,0,0-.5,1.89q-.77,3.93-1.93,13.09l-1.64,13.16c2.12.47,3.66,1.57,3.81,3.62.17,2.25-2.35,2.26-3.5,2.5a1.47,1.47,0,0,1-1-.23l-1.54,12.29a30.23,30.23,0,0,0,.21,9.33,5,5,0,0,0,4.28,3.87,5.16,5.16,0,0,0,5.5-2.09,25.33,25.33,0,0,0,3.62-8.34Zm-14.39-4.05a2.93,2.93,0,0,1,3.18-3c1.33.12,2.68.07,4,.09,0,0,0-.07,0-.1h0l.1,0c0-1.09-.93-2.49.64-3.05,1-.36,2.37-.72,3.37.44a1.49,1.49,0,0,1-.07,2.18c-.78.79-1.66,2-2.9.41-.12-.17-.65,0-1,0,0,0,0,.08,0,.12h-.09c.82,3.56-.62,5.5-3.81,5.51C328.1,262.37,326.65,261.34,326.72,259.74Zm-149.9-218c.3-1,1.23-1.12,2.53-1.15a6.1,6.1,0,0,1,.92.21,197,197,0,0,1,85.19-3.5,6.82,6.82,0,0,0,.88-2.83c-.06-.87,1.62-.63,2.52-.48,1.22.21,1.39,1,1,2.17a14.2,14.2,0,0,0-.53,1.88,197,197,0,0,1,127.12,87.22c0-.93.74-2.47,2.13-2.4a2.57,2.57,0,0,1,2.09,1.34,200.4,200.4,0,0,0-290.8-53.54c-1.09,1.55,0,4.18-.68,5.75A196.33,196.33,0,0,1,176.82,41.76Z"/></g></g></svg>