<svg width="2167" height="733" fill="none" xmlns="http://www.w3.org/2000/svg">
  <g clip-path="url(#a)">
    <path d="M68.942 69.883c51.862-25.384 108.341-34.841 163.731-29.993 55.389 4.85 113.008 21.995 160.551 59.516 50 39.51 88.518 96.096 131.295 146.524 41.609 49.098 87.458 89.098 144.175 103.104 75.104 18.566 151.694 9.158 224.767-17.995 36.299-13.487 71.726-30.303 106.499-49.098 37.93-20.485 74.73-45.869 113.72-62.915 155.39-67.983 310.75 1.85 458.21 67.894 74.7 33.441 148.61 63.404 227.7 74.371 71.89 9.998 141.87 9.198 210.53-22.414 56.47-25.994 108.72-64.394 156.87-110.363V733H0V119.231a261.792 261.792 0 0 1 68.942-49.348Z" fill="#65D5F5"/>
    <path d="M34.218 149.223c63.8-42.299 141.669-52.057 211.898-34.791 58.104 14.267 105.261 58.616 146.622 110.283 41.084 51.347 77.819 108.723 122.469 155.372 49.941 52.197 109.996 86.059 174.985 92.807 71.33 7.408 140.955-16.546 205.409-53.857 34.674-20.095 68.209-43.279 101.11-67.753 34.919-25.994 68.749-54.227 107.989-68.703 146.48-53.987 283.08 69.293 409.65 144.574 67.82 40.513 142.76 67.407 220.7 79.201 39.49 5.928 79.01 7.788 118.75 7.538 35.06-.22 70.66-1 105.07-10.487 69.34-19.146 131.99-73.872 186.65-129.309 7.23-7.331 14.38-14.793 21.43-22.384V733H0V180.666a151.362 151.362 0 0 1 34.218-31.443Z" fill="#0AC0EF"/>
    <path d="M85.873 221.616c41.351-12.257 84.822-17.736 126.808-6.889 35.456 9.168 68.526 28.173 98.197 54.307 25.758 22.744 49.336 49.368 71.389 77.711 23.013 29.583 44.581 60.185 71.072 85.099 51.297 48.288 111.809 79.461 175.084 90.868 63.087 11.367 127.739 5.998 189.389-14.297 56.202-18.465 106.529-50.347 155.538-89.438 46.56-37.201 91.82-78.79 142.3-107.353 53.39-30.213 111.3-41.77 168.58-22.835 66.85 22.105 125.9 73.642 181.61 123.63 56.29 50.497 112.19 103.624 175.65 139.036 66.83 37.28 139.98 61.734 213.36 61.634 70.48-.09 145.36-11.787 212.59-39.08 38.95-15.806 71.48-43.409 99.62-77.891V733H0V276.112c24.262-27.453 52.635-44.629 85.873-54.496Z" fill="#3DCBF2"/>
    <path d="M4.16 515.773c33.684-13.446 68.903-23.454 104.241-26.063 44.7-3.299 90.252 11.627 132.901 26.993a866.02 866.02 0 0 1 112.116 49.868c36.081 19.155 71.379 40.15 108.559 55.856 70.924 29.993 145.572 45.859 220.428 38.261 75.411-7.648 146.057-38.301 215.207-75.762 72.469-39.27 143.928-85.649 220.698-110.193 76.04-24.304 155.48-27.783 232.25-6.468 74.7 20.735 145.88 60.515 210.03 113.082 56.7 46.469 109.37 101.325 164.12 151.643H0V517.473l4.16-1.7Z" fill="#65D5F5"/>
    <path d="M1269.74 523.262c75.44 9.997 151 46.838 217.96 90.887 50.6 33.272 97.53 73.422 140.98 118.871H905.805c54.865-33.662 103.715-81.41 154.775-123.15 63.18-51.617 131.6-96.866 209.16-86.608ZM49.475 549.645c66.326-14.876 132.306 11.277 190.549 50.648C309.55 647.281 381.306 695.929 455.934 733H0V571.43c15.603-10.178 32.088-17.886 49.475-21.785Z" fill="#09B0EC" style="mix-blend-mode:multiply" opacity=".5"/>
    <path d="M1302.03 628.436c84.93 3.469 162.4 48.068 234.54 104.564h-472.96c16.46-9.178 32.49-19.475 47.96-29.623 29.44-19.325 58.83-41.59 90.33-55.176 32.18-13.887 66.06-21.165 100.13-19.765ZM77.67 644.782c52.378 3.739 99.514 26.993 147.008 53.627A509.907 509.907 0 0 0 300.515 733H0v-80.84c25.778-4.929 51.575-9.238 77.67-7.378Z" fill="#06A0DE" style="mix-blend-mode:multiply" opacity=".5"/>
    <path d="M585.952 639.413c-1.823-13.257 5.379-27.463 16.009-31.592 10.631-4.129 23.381 2.359 28.334 14.396 1.209-12.687 11.383-23.184 21.983-22.674 10.601.51 20.082 11.927 20.438 24.694 11.264-8.078 26.947-5.829 36.319 5.198 13.81-30.912 49.237-44.529 75.381-28.992 12.037-16.596 27.928-29.093 45.384-35.692 9.015-3.399 21.577-3.309 24.876 7.358 13.503-12.876 32.316-12.606 48.999-17.815 10.531-3.279 20.458-8.898 30.345-14.367 90.08-49.807 187.39-90.827 286.21-81.38a1743.297 1743.297 0 0 0-85.43 16.656c-26.75 5.909-53.41 12.477-79.11 22.995-72.373 29.592-133.39 88.698-200.568 132.547-3.22 2.1-6.618 4.209-10.274 4.199-3.834 0-7.351-2.349-11.046-3.569-15.266-4.999-29.651 9.088-43.59 18.155-21.627 14.097-48.217 16.666-71.429 6.919-23.776 16.816-53.249 21.754-79.998 13.427-7.222-2.25-14.454-5.449-21.894-4.799-5.944.51-11.462 3.429-17.02 5.928-15.187 6.859-54.28 16.686-56.994-13.117-2.398-26.653 30.414-37.1 43.075-18.475ZM584.189 285.01c-8.51-4.829-60.333-58.086-65.792-67.034-6.776-11.137-7.539-25.773-13.156-37.74-5.618-11.967-21.221-20.115-28.73-9.668 7.321-32.752-22.281-68.313-50.961-61.215 6.271-15.876-9.025-36.43-23.579-31.712-2.1-21.545-23.776-37.36-41.559-30.333-10.472-26.993-41.143-32.372-66.782-33.991-7.628-.47-15.603-.87-22.548 2.789-6.489 3.42-11.651 11.597-10.442 19.515-3.844-16.276-19.913-26.283-34.674-24.994-15.237 1.3-28.73 11.997-39.41 24.634 5.677-9.997 0-24.434-9.104-30.262C168.347-.83 157.351-.41 146.998.579c-9.907.94-20.329 2.54-27.927 9.848-6.133 5.909-9.105 16.846-6.152 24.854-5.727-7.228-15.04-10.727-23.291-8.138-10.016 3.14-17.456 14.917-16.98 26.874-6.599-8.388-18.289-10.718-26.948-5.379-8.658 5.339-13.532 17.856-11.145 28.833a12.595 12.595 0 0 0-3.898-3.377 12.454 12.454 0 0 0-10.017-.927 12.535 12.535 0 0 0-4.442 2.604c-5.38 5.08-5.479 13.997-2.972 20.805C-.793 107.244-2.24 117.981 2.823 125.25c-.852 10.108.823 20.105 6.36 25.104 8.966 8.108 23.064 6.059 31.178-3.169 2.457-2.799 4.676-6.299 8.014-7.318 4.607-1.39 9.124 2.519 13.87 2.999 8.104.84 14.097-7.948 20.557-13.657 18.734-16.556 48.157-9.377 65.752-27.503a58.133 58.133 0 0 0 32.712 12.43 58.037 58.037 0 0 0 33.891-8.631c5.766 13.267 21.082 15.286 33.912 16.496a278.388 278.388 0 0 1 75.292 17.996c-1.149 11.667 10.501 19.725 20.666 20.475 10.164.749 20.715-2.41 30.354 1.369-4.349 7.668-.416 19.655 7.252 22.095 4.488 1.429 9.828.11 13.464 3.479 2.674 2.479 3.477 6.708 5.26 10.088 6.242 11.817 21.24 10.107 32.574 14.656 9.243 3.699 16.396 11.997 23.955 19.175 15.59 14.88 34.685 25.499 55.478 30.853 23.103 20.555 46.632 42.559 72.32 56.486 56.017 30.395 118.018 47.871 181.534 51.167 65.821 3.329 150.287-19.195 201.892-68.793-114.058 47.528-207.499 84.569-384.921-16.036Z" fill="#C8FFFF"/>
    <path d="M.159 337.307c48.593-11.197 99.851-16.086 149.593-15.156 38.637.71 78.829 5.069 114.801 20.315 36.527 15.476 64.395 45.389 95.572 69.083 83.218 63.215 190.271 128.558 295.918 138.846-47.265-4.599-92.074-4.999-138.963-17.216-51.407-13.417-101.823-33.332-147.95-59.885-25.936-14.926-48.841-34.752-75.133-49.078-30.187-16.446-60.73-19.885-94.423-22.655-64.613-5.308-138.766-8.927-199.584 17.696l.169-81.95Z" fill="#09B0EC"/>
  </g>
  <defs>
    <clipPath id="a">
      <path fill="#fff" d="M0 0h2167v733H0z"/>
    </clipPath>
  </defs>
</svg>
