<svg xmlns="http://www.w3.org/2000/svg" xmlns:xlink="http://www.w3.org/1999/xlink" viewBox="0 0 1396.89 1396.89">
  <defs>
    <linearGradient id="a" x1="698.44" y1="550.45" x2="698.44" y2="170.86" gradientUnits="userSpaceOnUse">
      <stop offset=".21" stop-color="#fff"/>
      <stop offset=".28" stop-color="#fff" stop-opacity=".95"/>
      <stop offset=".41" stop-color="#fff" stop-opacity=".82"/>
      <stop offset=".59" stop-color="#fff" stop-opacity=".6"/>
      <stop offset=".8" stop-color="#fff" stop-opacity=".31"/>
      <stop offset="1" stop-color="#fff" stop-opacity="0"/>
      <stop offset="1" stop-color="#fff" stop-opacity="0"/>
    </linearGradient>
    <linearGradient id="b" x1="917.54" y1="-250.3" x2="917.54" y2="-629.89" gradientTransform="rotate(-30 2302.222 706.918)" xlink:href="#a"/>
    <linearGradient id="c" x1="1507.66" y1="-834.23" x2="1507.66" y2="-1213.82" gradientTransform="matrix(.5 -.87 .87 .5 538.91 2347.23)" xlink:href="#a"/>
    <linearGradient id="d" x1="2310.68" y1="-1044.86" x2="2310.68" y2="-1424.45" gradientTransform="rotate(-90 2302.22 706.91)" xlink:href="#a"/>
    <linearGradient id="e" x1="3111.43" y1="-825.76" x2="3111.43" y2="-1205.35" gradientTransform="rotate(-120 2302.214 706.91)" xlink:href="#a"/>
    <linearGradient id="f" x1="3695.35" y1="-235.64" x2="3695.35" y2="-615.23" gradientTransform="rotate(-150 2302.217 706.91)" xlink:href="#a"/>
    <linearGradient id="g" x1="3905.99" y1="567.38" x2="3905.99" y2="187.79" gradientTransform="rotate(180 2302.215 706.91)" xlink:href="#a"/>
    <linearGradient id="h" x1="3686.89" y1="1368.13" x2="3686.89" y2="988.54" gradientTransform="rotate(150 2302.217 706.908)" xlink:href="#a"/>
    <linearGradient id="i" x1="3096.77" y1="1952.05" x2="3096.77" y2="1572.46" gradientTransform="matrix(-.5 .87 -.87 -.5 4065.53 -933.41)" xlink:href="#a"/>
    <linearGradient id="j" x1="2293.75" y1="2162.68" x2="2293.75" y2="1783.09" gradientTransform="rotate(90 2302.22 706.91)" xlink:href="#a"/>
    <linearGradient id="k" x1="1493" y1="1943.59" x2="1493" y2="1564" gradientTransform="rotate(60 2302.214 706.911)" xlink:href="#a"/>
    <linearGradient id="l" x1="909.08" y1="1353.47" x2="909.08" y2="973.88" gradientTransform="rotate(30 2302.214 706.904)" xlink:href="#a"/>
  </defs>
  <g data-name="圖層 2">
    <path style="fill:url(#a)" d="m698.45 698.45-33.54-286.07-33.53-286.06 63.1-61.98L765.51 0l-33.53 412.38-33.53 286.07z"/>
    <path style="fill:url(#b)" d="M698.45 698.45 526.37 467.47 354.3 236.5l23.66-85.22 29.35-91.24 177.15 373.9 113.99 264.51z"/>
    <path style="fill:url(#c)" d="M698.45 698.45 433.94 584.46l-264.5-114-22.13-85.63-20.2-93.69 340.36 235.23 230.98 172.08z"/>
    <path style="fill:url(#d)" d="m698.45 698.45-286.07 33.53-286.06 33.53-61.98-63.1L0 631.38l412.38 33.53 286.07 33.54z"/>
    <path style="fill:url(#e)" d="M698.45 698.45 467.47 870.52 236.5 1042.59l-85.22-23.66-91.24-29.35 373.9-177.15 264.51-113.98z"/>
    <path style="fill:url(#f)" d="m698.45 698.45-113.99 264.5-114 264.5-85.63 22.13-93.69 20.2 235.23-340.37 172.08-230.96z"/>
    <path style="fill:url(#g)" d="m698.45 698.45 33.53 286.06 33.53 286.06-63.1 61.98-71.03 64.34 33.53-412.38 33.54-286.06z"/>
    <path style="fill:url(#h)" d="m698.45 698.45 172.07 230.96 172.07 230.97-23.66 85.23-29.35 91.24-177.15-373.9-113.98-264.5z"/>
    <path style="fill:url(#i)" d="m698.45 698.45 264.5 113.98 264.5 113.99 22.13 85.64 20.2 93.69-340.37-235.23-230.96-172.07z"/>
    <path style="fill:url(#j)" d="m698.45 698.45 286.06-33.54 286.06-33.53 61.98 63.1 64.34 71.03-412.38-33.53-286.06-33.53z"/>
    <path style="fill:url(#k)" d="m698.45 698.45 230.96-172.08 230.97-172.07 85.23 23.66 91.24 29.35-373.9 177.15-264.5 113.99z"/>
    <path style="fill:url(#l)" d="m698.45 698.45 113.98-264.51 113.99-264.5 85.64-22.13 93.69-20.2-235.23 340.36-172.07 230.98z"/>
  </g>
</svg>
