<svg xmlns="http://www.w3.org/2000/svg" xmlns:xlink="http://www.w3.org/1999/xlink" viewBox="0 0 1396.89 1396.89"><defs><style>.cls-1{fill:url(#未命名漸層_64);}.cls-2{fill:url(#未命名漸層_64-2);}.cls-3{fill:url(#未命名漸層_64-3);}.cls-4{fill:url(#未命名漸層_64-4);}.cls-5{fill:url(#未命名漸層_64-5);}.cls-6{fill:url(#未命名漸層_64-6);}.cls-7{fill:url(#未命名漸層_64-7);}.cls-8{fill:url(#未命名漸層_64-8);}.cls-9{fill:url(#未命名漸層_64-9);}.cls-10{fill:url(#未命名漸層_64-10);}.cls-11{fill:url(#未命名漸層_64-11);}.cls-12{fill:url(#未命名漸層_64-12);}</style><linearGradient id="未命名漸層_64" x1="698.44" y1="550.45" x2="698.44" y2="170.86" gradientUnits="userSpaceOnUse"><stop offset="0.21" stop-color="#fff"/><stop offset="0.28" stop-color="#fff" stop-opacity="0.95"/><stop offset="0.41" stop-color="#fff" stop-opacity="0.82"/><stop offset="0.59" stop-color="#fff" stop-opacity="0.6"/><stop offset="0.8" stop-color="#fff" stop-opacity="0.31"/><stop offset="1" stop-color="#fff" stop-opacity="0"/><stop offset="1" stop-color="#fff" stop-opacity="0"/></linearGradient><linearGradient id="未命名漸層_64-2" x1="917.54" y1="-250.3" x2="917.54" y2="-629.89" gradientTransform="translate(-45.02 1245.82) rotate(-30)" xlink:href="#未命名漸層_64"/><linearGradient id="未命名漸層_64-3" x1="1507.66" y1="-834.23" x2="1507.66" y2="-1213.82" gradientTransform="matrix(0.5, -0.87, 0.87, 0.5, 538.91, 2347.23)" xlink:href="#未命名漸層_64"/><linearGradient id="未命名漸層_64-4" x1="2310.68" y1="-1044.86" x2="2310.68" y2="-1424.45" gradientTransform="translate(1595.31 3009.13) rotate(-90)" xlink:href="#未命名漸層_64"/><linearGradient id="未命名漸層_64-5" x1="3111.43" y1="-825.76" x2="3111.43" y2="-1205.35" gradientTransform="translate(2841.12 3054.14) rotate(-120)" xlink:href="#未命名漸層_64"/><linearGradient id="未命名漸層_64-6" x1="3695.35" y1="-235.64" x2="3695.35" y2="-615.23" gradientTransform="translate(3942.54 2470.22) rotate(-150)" xlink:href="#未命名漸層_64"/><linearGradient id="未命名漸層_64-7" x1="3905.99" y1="567.38" x2="3905.99" y2="187.79" gradientTransform="translate(4604.43 1413.82) rotate(180)" xlink:href="#未命名漸層_64"/><linearGradient id="未命名漸層_64-8" x1="3686.89" y1="1368.13" x2="3686.89" y2="988.54" gradientTransform="translate(4649.45 168) rotate(150)" xlink:href="#未命名漸層_64"/><linearGradient id="未命名漸層_64-9" x1="3096.77" y1="1952.05" x2="3096.77" y2="1572.46" gradientTransform="matrix(-0.5, 0.87, -0.87, -0.5, 4065.53, -933.41)" xlink:href="#未命名漸層_64"/><linearGradient id="未命名漸層_64-10" x1="2293.75" y1="2162.68" x2="2293.75" y2="1783.09" gradientTransform="translate(3009.13 -1595.31) rotate(90)" xlink:href="#未命名漸層_64"/><linearGradient id="未命名漸層_64-11" x1="1493" y1="1943.59" x2="1493" y2="1564" gradientTransform="translate(1763.31 -1640.32) rotate(60)" xlink:href="#未命名漸層_64"/><linearGradient id="未命名漸層_64-12" x1="909.08" y1="1353.47" x2="909.08" y2="973.88" gradientTransform="translate(661.89 -1056.4) rotate(30)" xlink:href="#未命名漸層_64"/></defs><g id="圖層_2" data-name="圖層 2"><g id="人物"><polygon class="cls-1" points="698.45 698.45 664.91 412.38 631.38 126.32 694.48 64.34 765.51 0 731.98 412.38 698.45 698.45"/><polygon class="cls-2" points="698.45 698.45 526.37 467.47 354.3 236.5 377.96 151.28 407.31 60.04 584.46 433.94 698.45 698.45"/><polygon class="cls-3" points="698.45 698.45 433.94 584.46 169.44 470.46 147.31 384.83 127.11 291.14 467.47 526.37 698.45 698.45"/><polygon class="cls-4" points="698.45 698.45 412.38 731.98 126.32 765.51 64.34 702.41 0 631.38 412.38 664.91 698.45 698.45"/><polygon class="cls-5" points="698.45 698.45 467.47 870.52 236.5 1042.59 151.28 1018.93 60.04 989.58 433.94 812.43 698.45 698.45"/><polygon class="cls-6" points="698.45 698.45 584.46 962.95 470.46 1227.45 384.83 1249.58 291.14 1269.78 526.37 929.41 698.45 698.45"/><polygon class="cls-7" points="698.45 698.45 731.98 984.51 765.51 1270.57 702.41 1332.55 631.38 1396.89 664.91 984.51 698.45 698.45"/><polygon class="cls-8" points="698.45 698.45 870.52 929.41 1042.59 1160.38 1018.93 1245.61 989.58 1336.85 812.43 962.95 698.45 698.45"/><polygon class="cls-9" points="698.45 698.45 962.95 812.43 1227.45 926.42 1249.58 1012.06 1269.78 1105.75 929.41 870.52 698.45 698.45"/><polygon class="cls-10" points="698.45 698.45 984.51 664.91 1270.57 631.38 1332.55 694.48 1396.89 765.51 984.51 731.98 698.45 698.45"/><polygon class="cls-11" points="698.45 698.45 929.41 526.37 1160.38 354.3 1245.61 377.96 1336.85 407.31 962.95 584.46 698.45 698.45"/><polygon class="cls-12" points="698.45 698.45 812.43 433.94 926.42 169.44 1012.06 147.31 1105.75 127.11 870.52 467.47 698.45 698.45"/></g></g></svg>