<svg xmlns="http://www.w3.org/2000/svg" xmlns:xlink="http://www.w3.org/1999/xlink" viewBox="0 0 2187.37 733.18"><defs><style>.cls-1{fill:none;}.cls-2{isolation:isolate;}.cls-3{clip-path:url(#clip-path);}.cls-4{fill:#65d5f5;}.cls-5{fill:#0ac0ef;}.cls-6{fill:#3dcbf2;}.cls-10,.cls-7{fill:#09b0ec;}.cls-7,.cls-8{opacity:0.5;mix-blend-mode:multiply;}.cls-8{fill:#06a0de;}.cls-9{fill:#c8ffff;}</style><clipPath id="clip-path" transform="translate(5.68 -72.61)"><rect class="cls-1" width="1470.64" height="808.91"/></clipPath></defs><g class="cls-2"><g id="圖層_2" data-name="圖層 2"><g id="浪1"><g class="cls-3"><path class="cls-4" d="M63.91,142.51c52.35-25.39,109.36-34.85,165.27-30s114.07,22,162.06,59.53c50.47,39.52,89.35,96.12,132.53,146.56,42,49.11,88.28,89.12,145.53,103.13,75.81,18.57,153.12,9.16,226.88-18,36.64-13.49,72.4-30.31,107.5-49.11,38.29-20.49,75.43-45.88,114.79-62.93,156.85-68,313.67,1.85,462.52,67.91,75.4,33.45,150,63.42,229.84,74.39,72.56,10,143.2,9.2,212.51-22.42,57-26,109.74-64.41,158.34-110.39V805.79H-5.68V191.87A264.22,264.22,0,0,1,63.91,142.51Z" transform="translate(5.68 -72.61)"/><path class="cls-5" d="M28.86,221.87c64.4-42.31,143-52.07,213.89-34.8,58.65,14.27,106.25,58.63,148,110.31,41.47,51.36,78.55,108.75,123.62,155.41C564.78,505,625.4,538.87,691,545.62c72,7.41,142.28-16.55,207.34-53.87,35-20.1,68.85-43.29,102.06-67.77,35.25-26,69.4-54.24,109-68.72,147.86-54,285.75,69.31,413.51,144.61a616.9,616.9,0,0,0,222.77,79.22c39.86,5.93,79.75,7.79,119.87,7.54,35.39-.22,71.32-1,106.05-10.49,70-19.15,133.23-73.89,188.41-129.34q10.95-11,21.63-22.39V805.79H-5.68V253.32A152.26,152.26,0,0,1,28.86,221.87Z" transform="translate(5.68 -72.61)"/><path class="cls-6" d="M81,294.28c41.74-12.26,85.62-17.74,128-6.89,35.79,9.17,69.17,28.18,99.12,54.32,26,22.75,49.8,49.38,72.06,77.73,23.23,29.59,45,60.2,71.74,85.12,51.78,48.3,112.86,79.48,176.73,90.89,63.68,11.37,128.94,6,191.17-14.3,56.73-18.47,107.53-50.36,157-89.46,47-37.21,92.68-78.81,143.64-107.38,53.89-30.22,112.34-41.78,170.16-22.84,67.48,22.11,127.09,73.66,183.32,123.66,56.82,50.51,113.24,103.65,177.3,139.07,67.46,37.29,141.3,61.75,215.37,61.65,71.14-.09,146.72-11.79,214.58-39.09,39.32-15.81,72.16-43.42,100.56-77.91V805.79H-5.68v-457C18.81,321.33,47.45,304.15,81,294.28Z" transform="translate(5.68 -72.61)"/><path class="cls-4" d="M-1.48,588.51c34-13.45,69.55-23.46,105.22-26.07,45.12-3.3,91.1,11.63,134.15,27a878.23,878.23,0,0,1,113.17,49.88c36.42,19.16,72.05,40.16,109.58,55.87,71.59,30,146.94,45.87,222.5,38.27,76.12-7.65,147.43-38.31,217.23-75.78,73.15-39.28,145.28-85.67,222.77-110.22,76.76-24.31,156.94-27.79,234.44-6.47,75.4,20.74,147.25,60.53,212,113.11,57.23,46.48,110.4,101.35,165.66,151.68H-5.68V590.21Z" transform="translate(5.68 -72.61)"/><path class="cls-7" d="M1276,596c76.14,10,152.42,46.85,220,90.91,51.08,33.28,98.45,73.44,142.31,118.9H908.64c55.38-33.67,104.69-81.43,156.23-123.18C1128.64,631,1197.71,585.74,1276,596Z" transform="translate(5.68 -72.61)"/><path class="cls-7" d="M44.26,622.39c66.95-14.88,133.55,11.28,192.34,50.66,70.18,47,142.61,95.66,217.94,132.74H-5.68V644.18C10.07,634,26.71,626.29,44.26,622.39Z" transform="translate(5.68 -72.61)"/><path class="cls-8" d="M1308.59,701.2c85.73,3.47,163.93,48.08,236.74,104.59h-477.4c16.61-9.18,32.79-19.48,48.41-29.63,29.72-19.33,59.38-41.6,91.18-55.19C1240,707.08,1274.2,699.8,1308.59,701.2Z" transform="translate(5.68 -72.61)"/><path class="cls-8" d="M72.72,717.55c52.87,3.74,100.45,27,148.39,53.64a516.88,516.88,0,0,0,76.55,34.6H-5.68V724.93C20.34,720,46.38,715.69,72.72,717.55Z" transform="translate(5.68 -72.61)"/><path class="cls-9" d="M585.78,712.18c-1.84-13.26,5.43-27.47,16.16-31.6s23.6,2.36,28.6,14.4c1.22-12.69,11.49-23.19,22.19-22.68S673,684.23,673.36,697c11.37-8.08,27.2-5.83,36.66,5.2,13.94-30.92,49.7-44.54,76.09-29,12.15-16.6,28.19-29.1,45.81-35.7,9.1-3.4,21.78-3.31,25.11,7.36,13.63-12.88,32.62-12.61,49.46-17.82,10.63-3.28,20.65-8.9,30.63-14.37,90.93-49.82,189.15-90.85,288.9-81.4q-43.26,7.25-86.23,16.66c-27,5.91-53.91,12.48-79.86,23-73.05,29.6-134.64,88.72-202.45,132.58-3.25,2.1-6.68,4.21-10.37,4.2-3.87,0-7.42-2.35-11.15-3.57-15.41-5-29.93,9.09-44,18.16-21.83,14.1-48.67,16.67-72.1,6.92-24,16.82-53.75,21.76-80.75,13.43-7.29-2.25-14.59-5.45-22.1-4.8-6,.51-11.57,3.43-17.18,5.93-15.33,6.86-54.79,16.69-57.53-13.12C539.88,704,573,693.55,585.78,712.18Z" transform="translate(5.68 -72.61)"/><path class="cls-9" d="M584,357.69c-8.59-4.83-60.9-58.1-66.41-67.05-6.84-11.14-7.61-25.78-13.28-37.75s-21.42-20.12-29-9.67c7.39-32.76-22.49-68.33-51.44-61.23,6.33-15.88-9.11-36.44-23.8-31.72-2.12-21.55-24-37.37-41.95-30.34-10.57-27-41.53-32.38-67.41-34-7.7-.47-15.75-.87-22.76,2.79-6.55,3.42-11.76,11.6-10.54,19.52-3.88-16.28-20.1-26.29-35-25-15.38,1.3-29,12-39.78,24.64,5.73-10,0-24.44-9.19-30.27s-20.29-5.41-30.74-4.42c-10,.94-20.52,2.54-28.19,9.85-6.19,5.91-9.19,16.85-6.21,24.86-5.78-7.23-15.18-10.73-23.51-8.14-10.11,3.14-17.62,14.92-17.14,26.88-6.66-8.39-18.46-10.72-27.2-5.38S26.79,139.12,29.2,150.1a12.68,12.68,0,0,0-18.53-1.7c-5.43,5.08-5.53,14-3,20.81C-6.48,179.88-7.94,190.62-2.83,197.89-3.69,208-2,218,3.59,223c9.05,8.11,23.28,6.06,31.47-3.17,2.48-2.8,4.72-6.3,8.09-7.32,4.65-1.39,9.21,2.52,14,3,8.18.84,14.23-7.95,20.75-13.66,18.91-16.56,48.61-9.38,66.37-27.51a59,59,0,0,0,67.23,3.8c5.82,13.27,21.28,15.29,34.23,16.5a283.17,283.17,0,0,1,76,18c-1.16,11.67,10.6,19.73,20.86,20.48s20.91-2.41,30.64,1.37c-4.39,7.67-.42,19.66,7.32,22.1,4.53,1.43,9.92.11,13.59,3.48,2.7,2.48,3.51,6.71,5.31,10.09,6.3,11.82,21.44,10.11,32.88,14.66,9.33,3.7,16.55,12,24.18,19.18a127.29,127.29,0,0,0,56,30.86c23.32,20.56,47.07,42.57,73,56.5a434,434,0,0,0,183.24,51.18c66.44,3.33,151.7-19.2,203.79-68.81C857.41,421.27,763.09,458.32,584,357.69Z" transform="translate(5.68 -72.61)"/><path class="cls-10" d="M-5.52,410c49.05-11.2,100.79-16.09,151-15.16,39,.71,79.57,5.07,115.88,20.32,36.87,15.48,65,45.4,96.47,69.1,84,63.23,192.06,128.59,298.7,138.88-47.71-4.6-92.94-5-140.27-17.22-51.89-13.42-102.78-33.34-149.34-59.9-26.18-14.93-49.3-34.76-75.84-49.09-30.47-16.45-61.3-19.89-95.31-22.66-65.22-5.31-140.07-8.93-201.46,17.7Z" transform="translate(5.68 -72.61)"/></g></g></g></g></svg>