<svg xmlns="http://www.w3.org/2000/svg" viewBox="0 0 976 387.98"><defs><style>.cls-1{fill:#d2d2d2;}.cls-2{fill:#fff;}.cls-3{fill:#231815;}.cls-4{fill:#951b23;}</style></defs><g id="圖層_2" data-name="圖層 2"><g id="對話框_文字_按鈕" data-name="對話框  文字 按鈕"><path class="cls-1" d="M910.59,41.65H65.41C29.44,41.65,0,68.84,0,102.08V229.92c0,33.23,29.44,60.43,65.41,60.43H431.77l21.92,38.06L488,388l34.31-59.57,21.92-38.06H910.59c36,0,65.41-27.2,65.41-60.43V102.08C976,68.84,946.56,41.65,910.59,41.65Z"/><path class="cls-2" d="M910.59,0H65.41C29.44,0,0,27.19,0,60.43v148c0,33.23,29.44,60.43,65.41,60.43H448.85l4.84,14.72L488,388l34.31-104.42,4.84-14.72H910.59c36,0,65.41-27.2,65.41-60.43v-148C976,27.19,946.56,0,910.59,0Z"/><path class="cls-3" d="M136.15,91.17H127V84.62H71.8v6.55H62.65V78.07h73.5Zm-10.5-5v6.64h-2.78c2.78,1.35,5.46,2.69,8.07,4.2l-5.29,6.55c-1.35-.84-2.61-1.59-3.87-2.43-5.88.33-11.93.58-18.14.92v2.18h25.62v6.56H103.64v1.68h33.51v6.88H62.65v-6.88H94.48v-1.68h-25v-6.56h25v-1.76c-7.56.34-15.29.59-23.27.84l-1.34-7c3.53,0,7-.09,10.33-.17.76-.59,1.51-1.26,2.35-1.93.51-.5,1-.93,1.52-1.43H72.81V86.21ZM94.48,45.89V44.21h9.16v1.68h32.17v6.89H103.64v1.93h26.63V61H67.94v-6.3H94.48V52.78H63V45.89Zm35.79,16.72V76.39H68.19V62.61ZM121,70.17V68.83H77.43v1.34ZM108.26,94.11l1.17-1.26H95c-.68.67-1.26,1.18-1.85,1.68S91.79,95.62,91.29,96c7.22-.17,13.86-.33,20.08-.5C110.27,95,109.27,94.61,108.26,94.11Z"/><path class="cls-3" d="M162.18,70.84,155.63,79a61.14,61.14,0,0,0-8.56-7.14l7-7.22A48.41,48.41,0,0,1,162.18,70.84Zm1.35,19.66a250.57,250.57,0,0,1-6.22,29.57l-9.24-5A195.72,195.72,0,0,0,155,87.56Zm.67-39.65L157.57,59a49.8,49.8,0,0,0-8.15-7.22l6.88-7.23A52.26,52.26,0,0,1,164.2,50.85ZM177,47.24c-2.19,3.78-4.12,7-6,9.66a4.94,4.94,0,0,0,1,.84c1.68-2.52,3.28-5,4.62-7.56l6.22,2.6c-1.6,2.52-3.11,4.71-4.45,6.72L181.59,58a113.24,113.24,0,0,1,2.6,11.17l-5.62,2.35A8.52,8.52,0,0,1,178.4,70a13.8,13.8,0,0,1-1.77.34V85.63h-6.55V71.51c-2.1.34-4.2.68-6.21.93l-1-6.22c1.09-.08,2.1-.17,3.1-.33.84-1,1.6-2,2.44-3-2.35-2-4.79-4-7.22-6.13l3.61-4.62c.42.34.84.67,1.34,1a83.53,83.53,0,0,0,4.62-8.57Zm-7.56,26.88a53.8,53.8,0,0,1-2.27,11.17l-5.63-2a48.87,48.87,0,0,0,2.36-10.17ZM219.3,86.89V102H175.62l-.33,1.93h47c-.67,7.56-2,12.18-4,14-1.84,1.59-4.45,2.43-7.81,2.43a39.3,39.3,0,0,1-6.55-.67l-1.26-6.55a46,46,0,0,0,6.89.67,2.85,2.85,0,0,0,1.84-.5c.51-.42.84-1.35,1.1-2.86H174.28l-.59,4-8.57-1.6,2.69-17.39H210.4v-2H166.8V86.89ZM176.88,61.6c-.84,1.18-1.59,2.19-2.26,3.11,1-.17,1.93-.25,2.85-.42C177.3,63.37,177.05,62.44,176.88,61.6Zm7,19.74-5.29,1.26a76.16,76.16,0,0,0-1.27-9.15l4.88-1A57.47,57.47,0,0,1,183.86,81.34Zm30.82-34.1c-1.84,3.36-3.61,6.21-5.2,8.57a12.56,12.56,0,0,0,1.26.92,76.33,76.33,0,0,0,4.62-7.22l6.21,2.6c-1.93,2.86-3.78,5.38-5.46,7.73l3.19-1.51a69.79,69.79,0,0,1,4.29,10.83L218,71.51c-.17-.5-.25-1.09-.42-1.59-.84.17-1.51.33-2.18.42V73.7l5.2-1.26a42.08,42.08,0,0,1,3,9.57l-6.3,1.6a40.44,40.44,0,0,0-1.93-8.82V85.63H208.8V71.43c-2.43.42-4.87.76-7.22,1l-1-6.22c1-.08,2-.17,3-.33,1.17-1.35,2.35-2.78,3.44-4.12-2.18-1.68-4.28-3.44-6.47-5.21V58H183.86V52.11h16.71v2.35l2.61-3.36c.5.34.92.68,1.34.93a81.77,81.77,0,0,0,3.95-7.48Zm-14.44,25.2V85.29H184.53V72.44Zm0-26.88v5.29H184.87V45.56Zm-.68,13.77v5.3H184.87v-5.3Zm0,6.56v5.29H184.87V65.89ZM194,80V77.73h-3.28V80Zm14.11-5.88a44,44,0,0,1-1.93,9.49l-5.29-1.93a47.84,47.84,0,0,0,1.68-8.57Zm6.64-12.52C213.84,62.86,213,64,212.16,65c1.35-.17,2.52-.33,3.7-.59C215.44,63.37,215.1,62.44,214.77,61.6Z"/><path class="cls-3" d="M250.89,46.57c-.34,1.17-.76,2.26-1.09,3.27h13.61V58c-1.26,1.76-2.36,3.28-3.36,4.62h6V98.39H236.78V67.73l-3.61-2.85a42.37,42.37,0,0,0,5.54-10,64.82,64.82,0,0,0,4-10.67Zm-8.15,55.1a95,95,0,0,1-2.94,17.72l-6.63-3.27A98.36,98.36,0,0,0,235.85,100Zm8.49,15.71-6.89.67a106.91,106.91,0,0,0-.93-15.37l6.56-1A92.26,92.26,0,0,1,251.23,117.38Zm2.68-59.64h-7.3c-.26.5-.42.92-.59,1.26-.67,1.34-1.26,2.52-1.85,3.61h6.38C251.73,61,252.91,59.42,253.91,57.74Zm-6,18.65V70.84h-3.28v5.55Zm0,13.77V84.28h-3.28v5.88Zm12.52,24.61-6.56,1.68a98.6,98.6,0,0,0-2.35-14.11l6.22-1.68A93.72,93.72,0,0,1,260.47,114.77Zm-5.63-38.38h3.27V70.84h-3.27Zm0,13.77h3.27V84.28h-3.27Zm53.84-43.93v62.33c0,7.89-3.19,11.84-9.49,11.84-1.51,0-3.11-.17-5-.33l-1.93-9.83a14.9,14.9,0,0,0,5.21.92c1.68,0,2.6-2,2.6-6.21V54.71H276.85V89.57a122.07,122.07,0,0,1-1.26,18.48,63.24,63.24,0,0,1-3,12.35l-8.15-3.27a49.77,49.77,0,0,0,1.77-6l-4.45,1.35A56.59,56.59,0,0,0,259.12,101L265,99.4c.84,2.1,1.51,4.29,2.19,6.47.08-.5.16-1,.25-1.51a123.75,123.75,0,0,0,1.17-18.57V46.23h40.07ZM284.41,61.6V56.39h8.23V61.6h5.88v8.57h-5.88v5h5.88v8.15H278.19V75.13h6.22v-5h-6.22V61.6Zm14.11,47H286v3.27h-7.47V85.63h20Zm-7.56-7.9V93.44h-5v7.22Z"/><path class="cls-3" d="M387.56,62.61v40.07H326.82V69.58c-1.25.84-2.43,1.6-3.61,2.27L318.68,63c10.24-6.22,17.72-12.77,22.26-19.66l9.57,2.94c-.84,1.26-1.68,2.44-2.6,3.61h28.81v6.89a59.87,59.87,0,0,1-4.28,5.88Zm-52.17,46.28A54.47,54.47,0,0,1,327.5,121l-8.23-7.14a45.56,45.56,0,0,0,7.55-10.25Zm3.45-49c-1,1-2,1.93-3,2.77h24.95a42.92,42.92,0,0,0,3.53-4.28H340.35C339.84,58.83,339.34,59.33,338.84,59.84ZM352.78,78.4V71.85H336.4V78.4Zm0,15V86.89H336.4v6.55Zm2.27,23.94-9.83,2.69a50,50,0,0,0-4-12.86l9.5-2.26A44.67,44.67,0,0,1,355.05,117.38Zm19.07-.59L364,120.07a51.56,51.56,0,0,0-4.28-13.19l9.49-2.94A54.67,54.67,0,0,1,374.12,116.79ZM362.27,78.4h15.8V71.85h-15.8Zm0,15h15.8V86.89h-15.8Zm33.18,21-9.57,5.63a46.53,46.53,0,0,0-7.81-11.18l8.81-5.54A51.5,51.5,0,0,1,395.45,114.44Z"/><path class="cls-3" d="M477.94,45.56v8.82H468.7V80h13.19v8.9H470.38v20c0,4.62-.84,7.65-2.52,9-1.85,1.68-4.95,2.52-9.32,2.52-2.61,0-5-.17-7.23-.33l-1.17-7.23h-27.3v3.28H413.6V92.51h39.06V111a35,35,0,0,0,5.88.51c1.34,0,2-1.26,2-4V88.9H407.38V80h51.49V54.38H410.32V45.56ZM451,57.07v20H416.2v-20Zm-7.48,47.54v-4H422.84v4Zm-1.68-35.78V65.21H425.44v3.62Z"/><path class="cls-3" d="M513.14,53.45c1.26-3.1,2.35-6.21,3.27-9.24L526,46.57c-.76,2.35-1.51,4.7-2.27,6.88h41.92v9.16h-45.7a118.69,118.69,0,0,1-5.79,11.17c-.84,1.6-1.77,3.11-2.61,4.54v42.42H502V91.59c-1.18,1.34-2.36,2.69-3.53,3.86l-6.64-7.22A94,94,0,0,0,506.42,67.4l2.52-4.79H494.15V53.45Zm22.34,26.21V64.88H545V79.66H563V88.9H545v20h21.34v9.16H514.82v-9.16h20.66v-20H517.76V79.66Z"/><path class="cls-3" d="M599.57,104.61H587.81v6.55h-8.57V48.5h20.33Zm-8.48-8.48V57.07h-3.28V96.13Zm10.5-40.07V47.24H627.8c0,30.24-.59,49.22-1.6,57q-1.12,8.31-3.53,11.09a9.86,9.86,0,0,1-7.3,2.77,14.52,14.52,0,0,1-5-.92L609.07,110a45.32,45.32,0,0,1-5.89,10.08L596,114.44a47.16,47.16,0,0,0,7.31-15c.5-1.85.92-3.78,1.26-5.62h-3.95V85.29h4.87c0-.84.09-1.76.09-2.69V74.45h-5V65.89h5V56.06Zm13.78,52.5c1.17,0,1.93-.67,2.35-2s.75-4.45,1-9.24c0-1.09.09-2.27.09-3.52H613.6A65.67,65.67,0,0,1,611,105c-.34.92-.59,1.76-.93,2.52A15.54,15.54,0,0,0,615.37,108.56Zm3.69-23.27c0-3.28.08-6.89.17-10.84h-4.87V82.6c0,.93-.09,1.85-.09,2.69Zm.25-19.4V56.06h-4.95v9.83Zm27.22,7.39a38.11,38.11,0,0,1,5.12,9.41,32.68,32.68,0,0,1,2.1,10.75c-.17,9.24-3.53,13.77-10.16,13.77a14.93,14.93,0,0,1-4-.58l-1-5.13v18.9h-8.82V47.49h24.28Zm-3.45-16.89h-4.45V74.62Zm.51,42c1,0,1.59-1.59,1.59-5a23.38,23.38,0,0,0-1.51-8,29.5,29.5,0,0,0-5-9V96.88A11.22,11.22,0,0,0,643.59,98.39Z"/><path class="cls-3" d="M682.4,44.55v10.5h7.22v7.23a94.88,94.88,0,0,1-7.89,17v.58a13.29,13.29,0,0,0,1.17.93,43.83,43.83,0,0,0,3.78-6.39l6.55,3.28a40,40,0,0,1-4.7,7.9c1.68,1.59,3.19,3.1,4.7,4.53L688,97.39a95.38,95.38,0,0,0-6.3-7.31V120.4h-8.82V92.18c-1,1.26-1.94,2.43-2.94,3.61l-6.56-6a103.35,103.35,0,0,0,16.38-25.54H664.34V55.05h8.57V44.55Zm54.51,1.34V88.57h-16.8v6.55h17v9.15h-17v6.56h19.74v9.24H688.61v-9.24h22v-6.56H693.91V95.12h16.71V88.57H693.91V45.89ZM710.62,62.61v-7.9h-7.56v7.9Zm0,17V71.85h-7.56v7.81Zm9.49-17h7.56v-7.9h-7.56Zm0,17h7.56V71.85h-7.56Z"/><path class="cls-3" d="M777.74,102H761.27v5.2h-9.49v-60h26Zm-9.58-9.16V56.39h-6.89V92.85Zm56.45-46.62v9.49h-8.82V73.45h10.5V82.6h-10.5v25c0,4.87-.76,8.06-2.18,9.83q-2.65,3-9.33,3a38.54,38.54,0,0,1-10.16-1.34l-1.68-9.83a35,35,0,0,0,10.5,1.6,2.89,2.89,0,0,0,2.68-1.1,13.62,13.62,0,0,0,.59-4.45V86.72c-7.22,12-17.22,22.59-29.82,31.67l-7.22-7.23Q788.7,98.44,798.4,82.6h-8.23c-.51,1.85-.93,3.53-1.35,5l-9.49-1.93a157.1,157.1,0,0,0,5.29-24.95l9.5,1.26c-.67,4.28-1.26,8.15-1.93,11.51h14V55.72H782.27V46.23Z"/><path class="cls-3" d="M887.27,79.33c-.58.67-3.36,3.27-8.23,7.81-3,2.69-4.45,5.29-4.45,7.73v1.42h-9.91V94.87a17.1,17.1,0,0,1,4.45-11.68l8.23-7.73c2.86-2.85,4.37-5.88,4.37-8.9,0-4.45-3.36-6.72-10.08-6.72-6.3,0-11.17,1-14.62,2.86V52a48.56,48.56,0,0,1,14.62-2.1c5.8,0,10.5,1.43,14.2,4.28a14.84,14.84,0,0,1,5.79,12.35A20.26,20.26,0,0,1,887.27,79.33ZM864,112.59V101.08h11.5v11.51Z"/><path class="cls-4" d="M239.26,232.25a79.63,79.63,0,0,1-7.82-19.4,80.83,80.83,0,0,1-2.85-20.58,79,79,0,0,1,2.85-20.41,80.86,80.86,0,0,1,7.82-19.41h10.16c-7.48,15.46-11.17,28.73-11.17,40s3.69,24.45,11.17,39.82Z"/><path class="cls-4" d="M308.39,166.73v9.49h-31.5v-9.49Zm-2.94,63.67h-9.16v-3.27h-7.56v3.27h-9.16V201.84h25.88Zm-.67-40.74v9.24H280.5v-9.24Zm0-34.1v9.15H280.84v-9.15Zm0,22.68v9.15H280.84v-9.15Zm-8.49,40.32v-7.9h-7.56v7.9Zm29.49-59.73v-4.28h9.57v4.28h16.72v8.57H335.35v2.27h13.1v7.9h-13.1v2.26h17.39v8.57H307.46v-8.57h18.32v-2.26H312.33v-7.9h13.45V167.4H309.4v-8.57Zm23.68,61.41c0,6.72-3.78,10.16-11.17,10.16-1.34,0-2.94-.17-4.62-.33l-1.6-8.91a21.44,21.44,0,0,0,6.22,1c1.18,0,1.85-1.18,1.93-3.61h-19V230.4H312V190.67h37.46Zm-9.24-19.07V198.9h-19v2.27Zm0,9.83v-2.27h-19V211Z"/><path class="cls-4" d="M373.49,215.28a61.37,61.37,0,0,1-3.28,15.12l-7.89-4a45.11,45.11,0,0,0,3.61-13.1Zm28.56-59.05v31.84H386.93V191h13.19v8.23H386.93v3.19c4.95-.17,9.49-.34,13.52-.59l1.26,7.56c-11.17,1-23.52,1.93-37,2.61L363,203.1c5.54-.08,10.67-.25,15.45-.42v-3.44H365V191h13.44v-2.94H363.66V156.23Zm-22.93,8.15h-6.89v3.19l4.2-1.18a45.73,45.73,0,0,1,2.69,5.8Zm0,15.45v-3.19l-5.3,1.6a43.54,43.54,0,0,0-1.59-6.13v7.72Zm5.2,46.29-8.14,2.6a111.49,111.49,0,0,0-2-12.43l7.56-2.35A93.54,93.54,0,0,1,384.32,226.12Zm10.84-1.35-8.23,2.61a72.58,72.58,0,0,0-2.61-13.11l7.56-2.26A84.72,84.72,0,0,1,395.16,224.77Zm-8.82-51.4a51.2,51.2,0,0,0,2.6-7.31l4.62,1.43v-3.11h-7.22Zm0,6.46h7.22v-6.72a41.36,41.36,0,0,1-2.35,5.72l-4.87-2.69Zm36.71,10.84h13.77v39.4h-9.15v-3.95H412.55v3.95h-9.16v-6.81l-4.28,2.52a63.35,63.35,0,0,0-5-11.51L401,210c.84,1.34,1.6,2.6,2.35,3.78v-23.1h10.5V154.55h9.16v12.52H438.5v8.82H423.05Zm4.62,26.54V199.49H412.55v17.72Z"/><path class="cls-4" d="M465.55,155.56v-1.35h8.15v1.35h16.46v6.22H473.7v1.34h13.78v18.06H473.7v1.26h16.71v6.3H473.7v2.94h6v-2h7.82v7.9h-35.7v-7.9h7.81v2h6v-2.94H449.09v-6.3h16.46v-1.26H451.78V163.12h13.77v-1.34H450.1v-6.22ZM517,203.44c-7,.59-14.78,1.09-23,1.43v1.84h27.3V213H494v1.6h31.25v6.55H494c-.09,3.7-.93,6.13-2.44,7.14-1.85,1.35-4.95,2.1-9.32,2.1-3.2,0-6.13-.17-8.91-.33l-1.26-8.24a50.91,50.91,0,0,0,10.17,1,2.42,2.42,0,0,0,2.6-1.68H449.09v-6.55h36.12V213H454.72v-6.3h30.49V205.2c-8.57.34-17.64.51-27.22.59l-2.35-6.89c19.24,0,38.47-.67,57.79-2Zm-51.49-33.77v-1.34h-6v1.34Zm0,6.22v-1.6h-6v1.6Zm8.15-6.22h6v-1.34h-6Zm0,6.22h6v-1.6h-6Zm41.66-21v8.23c0,1.76.17,2.77.51,3a1.22,1.22,0,0,0,.84.25,1.18,1.18,0,0,0,.67-.16c.17,0,.34-.17.5-.34a14.43,14.43,0,0,0,.51-3.44l6.89,3.27c-.34,3.53-1.18,5.71-2.53,6.56a5.47,5.47,0,0,1-2.43.75,28.6,28.6,0,0,1-3.61.25c-3.53,0-5.72-.33-6.47-1.09-2-.33-3-2.77-3-7.14v-2.6h-5.89c-.5,3.19-1.34,5.54-2.6,7.05-1.34,1.85-3.7,3.28-7,4.45l-3.61-6.88a9,9,0,0,0,4.28-2.94c1-1.35,1.51-4.46,1.6-9.24h21.33Zm-24.61,27v-7.56H521v5.21A21.79,21.79,0,0,1,516.2,187a10.26,10.26,0,0,1-1.51,1.35A52.7,52.7,0,0,0,524.94,191l-4,7.56a50.37,50.37,0,0,1-13.77-5.46l-.68.33a48.48,48.48,0,0,1-14.78,3.78l-1.93-6.89a37,37,0,0,0,10.58-2.18,25.73,25.73,0,0,1-5.38-6.3Zm18.31,1.6c.59-.51,1.18-1.09,1.68-1.6h-7.3a18.42,18.42,0,0,0,3.86,2.94A9.81,9.81,0,0,0,509.06,183.45Z"/><path class="cls-4" d="M543.42,168.33V154.55h9.49v13.78h6.89v9.24h-6.89v11.76c1.85-.59,3.61-1.26,5.29-1.94l1.6,8.24c-2.27,1.17-4.54,2.26-6.89,3.27v18.65c0,4.87-.67,8.06-1.93,9.83q-2.52,3-8.57,3a29.33,29.33,0,0,1-6.21-.67l-1.68-9.83a22.64,22.64,0,0,0,6.63.93,1.87,1.87,0,0,0,1.85-1.1,18.36,18.36,0,0,0,.42-4.45V202.77c-2,.75-3.95,1.43-5.88,2L534.26,195c3.11-.75,6.14-1.59,9.16-2.52V177.57h-8.9v-9.24Zm37-6.89v-6.89H590v6.89h7.56a36.14,36.14,0,0,0-3.61-3.61l6.89-4.2a27.78,27.78,0,0,1,5.2,5.2l-4.36,2.61h8.65v9.24H590v4.2h18.65v44c0,7.65-3.78,11.51-11.17,11.51-1.35,0-2.86-.17-4.54-.33l-2-9.83a23.79,23.79,0,0,0,6.56.92c1.09,0,1.68-1.51,1.68-4.53v-3.95H590v15.71h-9.58V212.68H571V230.4h-9.49V174.88h19v-4.2H560.81v-9.24Zm0,27.55v-4.87H571V189Zm0,14.45v-5.21H571v5.21ZM590,189h9.16v-4.87H590Zm0,14.45h9.16v-5.21H590Z"/><path class="cls-4" d="M631.79,168V154.55h9.57V168h8.82v9.58h-8.82v11.5c2.52-.75,4.88-1.51,7.23-2.35l1.26,7.9c-2.77,1.43-5.63,2.69-8.49,3.86v19.07c0,4.87-.67,8.06-2,9.83-1.6,2-4.45,3-8.49,3a38.38,38.38,0,0,1-7.22-.67L622,219.9a29.21,29.21,0,0,0,7.56.93,1.8,1.8,0,0,0,1.85-1.1,18.36,18.36,0,0,0,.42-4.45v-13.1c-2.35.84-4.62,1.6-6.89,2.27l-3.61-10.17c3.69-.84,7.14-1.68,10.5-2.52V177.57H622V168Zm61.07-11.76v31.16h-15.8v9.16h17.39v9.24H677.06v13a81.49,81.49,0,0,0,11.85.76,46.75,46.75,0,0,0,8.23-.68l-3,10.5h-5.21c-11.43,0-19.57-1.42-24.36-4.28a26.93,26.93,0,0,1-8.74-6.72,68.7,68.7,0,0,1-6.63,12l-7.56-6.89A65.6,65.6,0,0,0,649,209.07a79.62,79.62,0,0,0,3.78-17.39l9.24,1.93a99.66,99.66,0,0,1-2.94,15.2,25.15,25.15,0,0,0,7.14,6.56,4.43,4.43,0,0,0,1.34.75V187.39H651.86V156.23Zm-9.5,22V165.39h-22v12.85Z"/><path class="cls-4" d="M742.33,212.85a86.54,86.54,0,0,1-7.81,19.4H724.36c7.39-15.37,11.17-28.64,11.17-39.82s-3.78-24.52-11.17-40h10.16a88,88,0,0,1,7.81,19.41,82.66,82.66,0,0,1,2.86,20.41A84.6,84.6,0,0,1,742.33,212.85Z"/></g></g></svg>