<svg width="1282" height="2778" fill="none" xmlns="http://www.w3.org/2000/svg">
  <g clip-path="url(#a)">
    <path d="M1282.38 0h-1284v2778h1284V0Z" fill="#FEE4CE"/>
    <g opacity=".44" fill="#FED2AE">
      <path opacity=".44" d="M4.14 0H-.4v2778h4.54V0ZM22.95 0h-6.27v2778h6.27V0ZM41.74 0h-6.26v2778h6.26V0ZM60.54 0h-6.26v2778h6.26V0ZM79.35 0h-6.27v2778h6.27V0ZM98.14 0h-6.26v2778h6.26V0ZM116.95 0h-6.26v2778h6.26V0ZM135.75 0h-6.27v2778h6.27V0ZM154.54 0h-6.28v2778h6.28V0ZM173.34 0h-6.28v2778h6.28V0ZM192.15 0h-6.29v2778h6.29V0ZM210.92 0h-6.26v2778h6.26V0ZM229.72 0h-6.26v2778h6.26V0ZM248.52 0h-6.27v2778h6.27V0ZM267.32 0h-6.26v2778h6.26V0ZM286.13 0h-6.26v2778h6.26V0ZM304.93 0h-6.27v2778h6.27V0ZM323.72 0h-6.26v2778h6.26V0ZM342.52 0h-6.25v2778h6.25V0ZM361.32 0h-6.29v2778h6.29V0ZM380.12 0h-6.28v2778h6.28V0ZM398.92 0h-6.28v2778h6.28V0ZM417.71 0h-6.28v2778h6.28V0ZM436.5 0h-6.26v2778h6.26V0ZM455.3 0h-6.26v2778h6.26V0ZM474.48 0h-6.27v2778h6.27V0ZM493.28 0h-6.29v2778h6.29V0ZM512.07 0h-6.28v2778h6.28V0ZM530.87 0h-6.27v2778h6.27V0ZM549.66 0h-6.27v2778h6.27V0ZM568.45 0h-6.26v2778h6.26V0ZM587.26 0H581v2778h6.26V0ZM606.06 0h-6.27v2778h6.27V0ZM624.86 0h-6.26v2778h6.26V0ZM643.66 0h-6.26v2778h6.26V0Z"/>
    </g>
    <g opacity=".44" fill="#FED2AE">
      <path opacity=".44" d="M662.56 0h-6.26v2778h6.26V0ZM681.36 0h-6.27v2778h6.27V0ZM700.15 0h-6.26v2778h6.26V0ZM718.95 0h-6.26v2778h6.26V0ZM737.75 0h-6.27v2778h6.27V0ZM756.54 0h-6.28v2778h6.28V0ZM775.35 0h-6.28v2778h6.28V0ZM794.15 0h-6.29v2778h6.29V0ZM812.95 0h-6.28v2778h6.28V0ZM831.73 0h-6.26v2778h6.26V0ZM850.53 0h-6.27v2778h6.27V0ZM869.33 0h-6.26v2778h6.26V0ZM888.13 0h-6.26v2778h6.26V0ZM906.93 0h-6.27v2778h6.27V0ZM925.72 0h-6.26v2778h6.26V0ZM944.53 0h-6.26v2778h6.26V0ZM963.33 0h-6.27v2778h6.27V0ZM982.12 0h-6.28v2778h6.28V0ZM1000.92 0h-6.28v2778h6.28V0ZM1019.73 0h-6.29v2778h6.29V0ZM1038.5 0h-6.26v2778h6.26V0ZM1057.31 0h-6.26v2778h6.26V0ZM1076.11 0h-6.27v2778h6.27V0ZM1094.9 0h-6.26v2778h6.26V0ZM1113.71 0h-6.26v2778h6.26V0ZM1132.51 0h-6.27v2778h6.27V0ZM1151.3 0h-6.26v2778h6.26V0ZM1170.1 0h-6.25v2778h6.25V0ZM1188.91 0h-6.29v2778h6.29V0ZM1207.7 0h-6.28v2778h6.28V0ZM1226.5 0h-6.28v2778h6.28V0ZM1245.3 0h-6.28v2778h6.28V0ZM1264.08 0h-6.26v2778h6.26V0ZM1281.16 0h-4.54v2778h4.54V0Z"/>
    </g>
  </g>
  <defs>
    <clipPath id="a">
      <path fill="#fff" d="M0 0h1282v2778H0z"/>
    </clipPath>
  </defs>
</svg>
