<svg xmlns="http://www.w3.org/2000/svg" viewBox="0 0 498.75 508.87">
  <defs>
    <style>
      .cls-1{fill:#837c88}.cls-2{fill:#a29577}.cls-4,.cls-7{fill:none}.cls-7{stroke:#6a6260;stroke-linecap:round;stroke-linejoin:round;stroke-width:3.79px}
    </style>
  </defs>
  <g id="圖層_2" data-name="圖層 2">
    <g id="浪2">
      <path class="cls-1" d="m102.87 202.93 7.58 6.7L76.6 267s13.61-52 26.27-64.07Z"/>
      <path class="cls-2" d="M378.26 208.4c-1.43-10.19-2.79-19.89-.42-27.71-5.23-3.23-16.63-10.56-25.12-17.93-9.23-8-28.93-20.1-54.08-27.79-7.52-2.3-18.18-4.62-29.47-7.08-13.35-2.9-27.15-5.9-38.75-9.45-8.17-2.5-14.24-5-18.55-7.56l-1.39 4.56-24.39-13.2.9 4.17-23.94-7.32 2.4 3.66-6.94.19a69.26 69.26 0 0 1-14.27-1.65.49.49 0 0 0-.31-.06c-3.19-.66-6.83-1.55-10.89-2.8A154.59 154.59 0 0 1 102.23 85l29.17 29.58-9 .22c-1.75 0-13.38-2.3-25.89-5a219.38 219.38 0 0 0 51 37.26c3.85 2 7.5 3.92 11.05 5.76.25.13 37.93 19.83 39.14 20.69a6.16 6.16 0 0 0 .56.32 370.39 370.39 0 0 1 48.25 33.07c10.34 8.22 19.28 15.93 27.17 22.73 18.27 15.75 31.46 27.13 46.38 31.69a51 51 0 0 0 6.87 1.59c11.92 1.88 19.71 2.42 25.62 1.25l.27-.08h.3c9.09-2 13.68-8.31 22.47-20.37 6.41-8.71 4.51-22.24 2.67-35.31Z"/>
      <path d="m289.14 201.3 52.07 37.28c8.41 6 17.18 12.18 27 14.92 2.23-2.72 4.6-6 7.39-9.81 6.35-8.71 4.46-22.22 2.62-35.29a150.84 150.84 0 0 1-1.68-16c-14.82-10.17-32.18-17.9-42.44-23.28-13.53-7.11-28.39-11.24-43.19-15-11.84-3-22.17-10.49-34.08-13.23-9.23-2.12-49.51-15.61-58.77-17.61-8.24-1.79 27.58 23.86 19.32 22.12-5.59-1.17-22.71-8.14-28.3-9.31-11.92-2.5-26.86-10.57-38.78-13.07-1.81 10.29 95.44 47.2 138.84 78.28Z" style="fill:#847863"/>
      <path class="cls-4" d="M437.32 395.47c-6.49-4.88-12.62-9.47-15.14-14.38a2.78 2.78 0 0 0-1.32-1.24 137.14 137.14 0 0 0 7.14-13.61c11.66-2.91 18.29 2.59 26 9 4.76 4 10 8.3 16.75 10.37a25.39 25.39 0 0 0 3.49.81 128.41 128.41 0 0 1-6.85 11.26 116.53 116.53 0 0 1-12.25 15c-3.71-6.62-10.85-11.99-17.82-17.21ZM277.67 500.62c-3.43.64-4.93.29-5.49.12 0-1.16 2.75-11.46 39.52-41a3.92 3.92 0 0 0 .75-.83c14.83 0 29.19-.4 39.17-.74-23.03 15.53-61.52 40.14-73.95 42.45ZM418.31 415.61a72.83 72.83 0 0 1-8-20.61c2.19-2.74 4.33-5.62 6.41-8.69.37-.52.74-1.06 1.1-1.62 3.3 5.56 9.55 10.26 16.15 15.2 7 5.27 14.25 10.7 17 16.81a112 112 0 0 1-28.77 19.62 33 33 0 0 0-3.89-20.71ZM361.82 450.05c-14.84.62-82.46 3.09-103.85-2.12-1.89-.46-5-1.53-4.52-3.51.83-3.46 8.8-10.31 26.61-14 14.61-3 39.81-4.7 76.93 4.23l1.32.32c.39 2.53 1.37 6.96 3.51 15.08ZM394.46 427.41c-2-5.31 2-14.49 5.38-20.6 2-2.05 4.07-4.2 6.08-6.5a77.65 77.65 0 0 0 7.57 18.16c4.93 8.48 3.34 17.56 2.62 20.52a113 113 0 0 1-20.17 6c.61-4.63.84-11.38-1.48-17.58ZM376.66 365.82a123.08 123.08 0 0 0-7-11.19l1.64-2.79c6.71 7.62 24.93 28.89 30.5 41.21a140.49 140.49 0 0 1-4.9 5.48c-12.9-19.71-17.28-27.53-20.24-32.71ZM365.24 351.29c-5.57-3.5-16.36-9-26.95-7.13a23.57 23.57 0 0 0-2.67.63l.6-.33c7.1-3.67 17.7-2.32 30.77 3.87ZM389.3 429.25c2.24 6 1.55 12.92.87 16.78-7.23 1.26-15.37 2.46-20.54 3.2-1.89-7.16-3.68-14.61-3.83-16.39a2.67 2.67 0 0 0 0-.4 142.26 142.26 0 0 0 23.94-16.34c-1.35 4.55-1.89 9.28-.44 13.15ZM428.24 251.77a60.38 60.38 0 0 1-17.53 28.69 102.14 102.14 0 0 0-15.23-14.39c.23-.19.55-.45.83-.66 4.26-3.35 17.21-13.54 15.79-34.07-.64-9.1 3.43-21.74 5.7-28a177.84 177.84 0 0 1 16.26 9.2 158.1 158.1 0 0 1 13.06 9.31 62.08 62.08 0 0 0-18.88 29.92Z"/>
      <path class="cls-4" d="M406.57 231.72c1.22 17.61-9.61 26.13-13.68 29.33a11.94 11.94 0 0 0-2 1.76 62.84 62.84 0 0 0-14.47-7.26c1.72-2.2 3.52-4.63 5.46-7.3 8.19-11.24 6-27 4-40.92a123.61 123.61 0 0 1-1.63-16.94 184.4 184.4 0 0 1 28.47 10.55c-2.32 6.42-6.88 20.31-6.15 30.78ZM457.52 370.94c-7.35-6.1-14.92-12.39-27-10.81a65.53 65.53 0 0 0 3.06-12.23c3.7-.33 8.45-1.82 13.49-3.41 7-2.23 15-4.75 20.73-4.24 7.2.64 15.9 4.87 20.19 7.18a138.94 138.94 0 0 1-11.09 33.73c-7.9-.72-13.52-5.34-19.38-10.22ZM366.57 326.93a101.74 101.74 0 0 0-18.94-3.29 51.35 51.35 0 0 0-17.48 1.43c.53-.36 1.09-.71 1.67-1 8.75-5 20.74-5.28 35.63-.88Z"/>
      <path class="cls-4" d="M468.27 334.74c-6.79-.61-15.35 2.09-22.89 4.47a86 86 0 0 1-11.21 3.05 71 71 0 0 0-1.06-17.26c10.11-.58 18.87-9.21 26-16.23 2.25-2.23 4.38-4.33 6.34-6 5.87-4.95 19.36-3.35 25-2.15a176.49 176.49 0 0 1-1.42 41c-5.03-2.5-13.39-6.22-20.76-6.88Z"/>
      <path class="cls-4" d="M461.86 298.58c-2.12 1.79-4.33 4-6.66 6.27-7 6.93-15 14.77-23.31 14.66a87.7 87.7 0 0 0-5.06-14.18c7.54-4.37 20.8-15.42 25.62-26.72s19.58-20.35 24.38-23.05a103.59 103.59 0 0 1 13 39.36c-5.9-1.05-20.34-2.76-27.97 3.66ZM433.57 253.24a56.89 56.89 0 0 1 17.9-27.79 118.6 118.6 0 0 1 22.47 25.37c-5.5 3.08-21.08 12.72-26.58 25.61-4.47 10.48-17.06 20.24-23 23.92a105.2 105.2 0 0 0-10.15-15.62 64.92 64.92 0 0 0 19.36-31.49ZM329.74 287.61l.25-3 35.83-8.16c1.51.91 3.11 2 4.79 3.13-11.61 3.25-31.61 8.26-40.87 8.03ZM260 227.9c-23.43-13.15-51.49-29.22-52.35-30.64s-.06.11-.06.1-.13 0-.18 0-.19-.16-.3-.2 0-.06 0-.06a65.94 65.94 0 0 0-7.66-1.9 2.83 2.83 0 0 0-.77-.41c-.54-.2-4-1.47-9.07-3.32l3.06-5.54a190.57 190.57 0 0 1 26 9.8c7.19 4.95 14.82 10.52 23.24 17.21 6.45 5.23 12.5 10.22 18.09 14.96Z"/>
      <path class="cls-4" d="M96.56 109.82c12.51 2.65 24.14 5 25.89 5l9-.22L102.23 85A154.59 154.59 0 0 0 133 98.43c15.47 4.74 25.07 4.53 25.47 4.51l6.94-.19-2.4-3.66 23.99 7.32-.9-4.17 24.39 13.2 1.39-4.56c4.31 2.6 10.38 5.06 18.55 7.56 11.6 3.55 25.4 6.55 38.75 9.45 11.29 2.46 21.95 4.78 29.47 7.08 25.15 7.69 44.85 19.78 54.08 27.79 8.49 7.37 19.89 14.7 25.12 17.93-2.37 7.82-1 17.52.42 27.71 1.84 13.07 3.73 26.58-2.62 35.29-8.79 12.06-13.38 18.35-22.47 20.37h-.3l-.27.08c-5.91 1.17-13.7.63-25.62-1.25a51 51 0 0 1-6.87-1.59c-14.92-4.56-28.11-15.94-46.38-31.69-7.89-6.8-16.83-14.51-27.17-22.73a370 370 0 0 0-48.81-33.39 13.27 13.27 0 0 0 6.1-3.82c2-2.27 4.76-7.31.79-15.5-4.85-10-18.55-21.52-35.13-33.81 2.51-.35 4.47-1.6 5.06-3.52 1-3.12-2.06-6.81-6.75-8.24s-9.24-.07-10.19 3v.06l-6.85-4.9a2.77 2.77 0 0 0-3.22 4.51c22.68 16.19 46.14 32.93 52.12 45.27 1.35 2.78 2.53 6.41.11 9.17-2.12 2.41-6.44 3.7-11.12 2.68-7.11-3.85-14.42-7.61-22.35-11.68-5.93-3.05-12.06-6.2-18.74-9.72a219.38 219.38 0 0 1-51.03-37.17ZM86.55 191.39c9.85-8.33 22.56-15.76 38.21-18.65a172.69 172.69 0 0 0-38.21 18.65ZM371.83 328.75l.74-3.16c9.47 5.75 36.93 23 43.5 32.89a2.76 2.76 0 0 0 2.82 1.2 46.23 46.23 0 0 1-.85 5.25c-9.42-7.4-37.54-29.46-46.21-36.18ZM184.27 189.5v.07c-15.93-5.7-40.9-14.22-52.89-16.08l.37-1.21a495.6 495.6 0 0 1 55.42 12ZM346.05 307.44l-.06-2.69c17.17-.79 56.79 8.18 57.21 8.27a2.79 2.79 0 0 0 .76.06q1.07 1.51 2.07 3.09c-19.22-1.82-51.27-7.23-59.98-8.73ZM324.34 285.79c-8.85-4.22-31.65-14-52.64-13.46 14.3-2.1 32.3 1.87 52.78 11.67ZM340.48 305.84a80.75 80.75 0 0 0-39.68-2.4c15.7-7.46 34.2-1.45 39.64.64Z"/>
      <path class="cls-4" d="M380.25 277.07a100 100 0 0 0-15.2-9.94 38.12 38.12 0 0 0 5.88-5.11c14.18 3.38 35.53 19.72 47.48 43.66 4.95 9.9 9.46 23.64 7.75 38.92-1.62-9.63-5.72-20.41-13.4-32.33a148.34 148.34 0 0 0-32.51-35.2ZM274 242a2.73 2.73 0 0 0 2.35.09c5.54 4.73 10.68 9 15.66 12.67-5.45.31-16.53-1.71-36.16-15.41-26.5-18.5-45.69-30-52.46-33.94a12.61 12.61 0 0 1 2.58-2.41c7.41 4.45 45.91 27.39 68.03 39ZM197.8 203.57l-86.66 2.7-1.89-1.79c16.35-2.25 66.87-8.47 90.61-3.48a25.34 25.34 0 0 0-2.06 2.57Z"/>
      <path class="cls-2" d="M412.78 200.94c-2.38 6.42-6.94 20.31-6.21 30.78 1.22 17.61-9.61 26.13-13.68 29.33a11.94 11.94 0 0 0-2 1.76 62.84 62.84 0 0 0-14.47-7.26c1.72-2.2 3.52-4.63 5.46-7.3 8.19-11.24 6-27 4-40.92a123.61 123.61 0 0 1-1.63-16.94 184.4 184.4 0 0 1 28.53 10.55Z"/>
      <path class="cls-1" d="M447.12 221.87a62.08 62.08 0 0 0-18.88 29.9 60.38 60.38 0 0 1-17.53 28.69 102.14 102.14 0 0 0-15.23-14.39c.23-.19.55-.45.83-.66 4.26-3.35 17.21-13.54 15.79-34.07-.64-9.1 3.43-21.74 5.7-28a177.84 177.84 0 0 1 16.26 9.2 158.1 158.1 0 0 1 13.06 9.33Z"/>
      <path class="cls-2" d="M414.23 284.73a64.92 64.92 0 0 0 19.34-31.49 56.89 56.89 0 0 1 17.9-27.79 118.6 118.6 0 0 1 22.47 25.37c-5.5 3.08-21.08 12.72-26.58 25.61-4.47 10.48-17.06 20.24-23 23.92a105.2 105.2 0 0 0-10.13-15.62Z"/>
      <path class="cls-1" d="M489.85 294.92c-5.92-1.05-20.36-2.76-28 3.66-2.12 1.79-4.33 4-6.66 6.27-7 6.93-15 14.77-23.31 14.66a87.7 87.7 0 0 0-5.06-14.18c7.54-4.37 20.8-15.42 25.62-26.72s19.58-20.35 24.38-23.05a103.59 103.59 0 0 1 13.03 39.36Z"/>
      <path class="cls-2" d="M489 341.7c-5-2.58-13.35-6.3-20.72-7-6.79-.61-15.35 2.09-22.89 4.47a86 86 0 0 1-11.21 3.05 71 71 0 0 0-1.07-17.22c10.11-.58 18.87-9.21 26-16.23 2.25-2.23 4.38-4.33 6.34-6 5.87-4.95 19.36-3.35 25-2.15A176.49 176.49 0 0 1 489 341.7Z"/>
      <path class="cls-1" d="M476.88 381.16c-7.92-.72-13.5-5.34-19.36-10.22-7.35-6.1-14.92-12.39-27-10.81a65.53 65.53 0 0 0 3.06-12.23c3.7-.33 8.45-1.82 13.49-3.41 7-2.23 15-4.75 20.73-4.24 7.2.64 15.9 4.87 20.19 7.18a138.94 138.94 0 0 1-11.11 33.73Z"/>
      <path class="cls-2" d="M467.37 397.64a116.53 116.53 0 0 1-12.25 15c-3.69-6.56-10.83-11.93-17.8-17.15-6.49-4.88-12.62-9.47-15.14-14.38a2.78 2.78 0 0 0-1.32-1.24 137.14 137.14 0 0 0 7.14-13.63c11.66-2.91 18.29 2.59 26 9 4.76 4 10 8.3 16.75 10.37a25.39 25.39 0 0 0 3.49.81 128.41 128.41 0 0 1-6.87 11.22Z"/>
      <path class="cls-1" d="M422.22 436.32a33 33 0 0 0-3.91-20.71 72.83 72.83 0 0 1-8-20.61c2.19-2.74 4.33-5.62 6.41-8.69.37-.52.74-1.06 1.1-1.62 3.3 5.56 9.55 10.26 16.15 15.2 7 5.27 14.25 10.7 17 16.81a112 112 0 0 1-28.75 19.62Z"/>
      <path class="cls-2" d="M395.94 445c.61-4.61.84-11.36-1.48-17.56-2-5.31 2-14.49 5.38-20.6 2-2.05 4.07-4.2 6.08-6.5a77.65 77.65 0 0 0 7.57 18.16c4.93 8.48 3.34 17.56 2.62 20.52a113 113 0 0 1-20.17 5.98Z"/>
      <path class="cls-1" d="M312.43 458.94c14.83 0 29.19-.4 39.17-.74-23 15.5-61.5 40.11-73.93 42.42-3.43.64-4.93.29-5.49.12 0-1.16 2.75-11.46 39.52-41a3.92 3.92 0 0 0 .73-.8ZM357 434.68l1.32.32c.39 2.5 1.37 6.93 3.51 15.05-14.84.62-82.46 3.09-103.85-2.12-1.89-.46-5-1.53-4.52-3.51.83-3.46 8.8-10.31 26.61-14 14.6-2.97 39.8-4.67 76.93 4.26ZM389.75 416.1c-1.36 4.55-1.9 9.28-.45 13.15 2.24 6 1.55 12.92.87 16.78-7.23 1.26-15.37 2.46-20.54 3.2-1.89-7.16-3.68-14.61-3.83-16.39a2.67 2.67 0 0 0 0-.4 142.26 142.26 0 0 0 23.95-16.34Z"/>
      <path class="cls-2" d="m367 348.33-1.75 3c-5.57-3.5-16.36-9-26.95-7.13a23.57 23.57 0 0 0-2.67.63l.6-.33c7.09-3.71 17.69-2.36 30.77 3.83Z"/>
      <path class="cls-1" d="M401.85 393.05a140.49 140.49 0 0 1-4.9 5.48C384 378.82 379.62 371 376.66 365.82a123.08 123.08 0 0 0-7-11.19l1.64-2.79c6.76 7.62 24.98 28.89 30.55 41.21Z"/>
      <path class="cls-2" d="M331.82 324c8.75-5 20.74-5.28 35.63-.88l-.88 3.78a101.74 101.74 0 0 0-18.94-3.29 51.35 51.35 0 0 0-17.48 1.43c.53-.33 1.09-.68 1.67-1.04Z"/>
      <path class="cls-1" d="M418.89 359.68a46.23 46.23 0 0 1-.85 5.25c-9.42-7.4-37.54-29.46-46.21-36.18l.74-3.16c9.47 5.75 36.93 23 43.5 32.89a2.76 2.76 0 0 0 2.82 1.2ZM412.76 312.27a148.34 148.34 0 0 0-32.51-35.2 100 100 0 0 0-15.2-9.94 38.12 38.12 0 0 0 5.88-5.11c14.18 3.38 35.53 19.72 47.48 43.66 4.95 9.9 9.46 23.64 7.75 38.92-1.62-9.6-5.72-20.41-13.4-32.33Z"/>
      <path class="cls-2" d="M340.44 304.08v1.76a80.75 80.75 0 0 0-39.68-2.4c15.74-7.44 34.24-1.44 39.68.64Z"/>
      <path class="cls-1" d="M404 313.08q1.07 1.51 2.07 3.09c-19.22-1.82-51.27-7.23-60-8.73l-.06-2.69c17.17-.79 56.79 8.18 57.21 8.27a2.79 2.79 0 0 0 .78.06Z"/>
      <path class="cls-2" d="m324.48 284-.14 1.79c-8.85-4.22-31.65-14-52.64-13.46 14.3-2.1 32.3 1.87 52.78 11.67Z"/>
      <path class="cls-1" d="M365.82 276.41c1.51.91 3.11 2 4.79 3.13-11.63 3.29-31.57 8.3-40.87 8.07l.25-3ZM203.35 205.4a12.61 12.61 0 0 1 2.58-2.41c7.45 4.46 45.95 27.4 68 39a2.73 2.73 0 0 0 2.35.09c5.54 4.73 10.68 9 15.66 12.67-5.45.31-16.53-1.71-36.16-15.41-26.47-18.5-45.66-29.99-52.43-33.94Z"/>
      <path class="cls-2" d="M199.86 201a25.34 25.34 0 0 0-2.06 2.57l-86.66 2.7-1.89-1.79c16.35-2.25 66.87-8.48 90.61-3.48ZM131.72 172.28a495.6 495.6 0 0 1 55.42 12l-2.87 5.19v.07c-15.93-5.7-40.9-14.22-52.89-16.08Z"/>
      <path class="cls-1" d="M124.76 172.74a172.69 172.69 0 0 0-38.21 18.65c9.85-8.33 22.56-15.76 38.21-18.65ZM218.53 195.68c7.19 4.95 14.81 10.55 23.23 17.24 6.6 5.25 12.65 10.24 18.21 15-23.43-13.15-51.49-29.22-52.35-30.64s-.05.09-.06.09-.14.05-.19 0a3 3 0 0 0-.3-.19s0-.09 0-.09a65.94 65.94 0 0 0-7.66-1.9 2.81 2.81 0 0 0-.78-.37c-.54-.2-4-1.49-9.07-3.34l3.07-5.55a192.08 192.08 0 0 1 25.9 9.75Z"/>
      <path d="M178.42 114.86a9.35 9.35 0 1 1-6.21-11.68 9.35 9.35 0 0 1 6.21 11.68Z" style="fill:#150008"/>
      <path d="M498 298.44c-3.21-37.55-23.94-69.55-60-92.53a192.12 192.12 0 0 0-52.67-23.26 13.61 13.61 0 0 1 .74-1.88l1.58-3.22-3.09-1.82c-.16-.1-16.22-9.63-26.8-18.82-10.27-8.92-30.61-21.32-56.89-29.35-7.83-2.4-18.64-4.75-30.09-7.24-13.2-2.87-26.84-5.84-38.13-9.29-10.36-3.17-17.15-6.3-20.19-9.3l-4.56-4.51-2.1 6.89L175 87.4l1.67 7.74-31.88-9.74 6 9.16A104 104 0 0 1 135.31 91c-16.15-4.94-46.85-18.85-74.8-45.19 1.63 1.53 2.45 7.45 3.68 9.83 2 3.87 4.73 6.64 7.79 9.66 5.45 5.38 10.76 10.92 16.13 16.37L111 104.89c-7-1.43-16.29-3.38-24.91-5.24L75.23 97.3l7 8.59a170.61 170.61 0 0 0 18.6 18.53l36.53 25.93c2.13 1.21 4.31 2.41 6.56 3.59 6.72 3.54 12.87 6.7 18.81 9.75 11.57 5.95 21.8 11.2 32 17.08l-1.75-.53a3.12 3.12 0 0 0-.35-.25 2.78 2.78 0 0 0-1.58-.33 480.27 480.27 0 0 0-61-13.22 2.68 2.68 0 0 0-1 .05c-49.67 5.78-72.59 52.85-73.54 54.86a2.76 2.76 0 0 0 1.24 3.65 4.16 4.16 0 0 0 .54.23 2.79 2.79 0 0 0 3.14-1.23c18.76-29.28 60.53-44.16 65.68-45.9a2.91 2.91 0 0 0 1.53.53c7.89.2 31.81 8 51.41 14.92-31.89-.52-73.51 5.81-75.87 6.17a2.78 2.78 0 0 0-1.64.89c-21.37 23.92-34.71 84.15-35.27 86.7a2.79 2.79 0 0 0 1.9 3.24h.11a2.77 2.77 0 0 0 3.35-1.87c6.08-19.89 34.93-68.42 40.05-77l87-2.71c3.83 2.19 24.25 14 54 34.8 11.77 8.22 20.89 12.57 27.84 14.69 9.5 2.91 14.92 1.65 17.54.45a75.54 75.54 0 0 0 19.81 9.73 59.14 59.14 0 0 0 7.93 1.84c12.39 2 21.09 2.41 27.9 1.16a3.52 3.52 0 0 0 .79-.07 8.13 8.13 0 0 1 3.74.78l-30.46 7c-27.47-13.35-50.22-16.62-67.62-9.72-13.52 5.35-18.44 15-18.65 15.41a2.77 2.77 0 0 0 .92 3.52 2.87 2.87 0 0 0 .75.36 2.77 2.77 0 0 0 2.87-.8c22.81-25.31 78.89 4.06 79.47 4.37l.17.07.24.1h.15l.2.05c11.05 2.14 42.67-6.95 49.95-9.12a140.23 140.23 0 0 1 22.86 22.76c-12.22-2.59-41.87-8.42-55.44-7.07a71.47 71.47 0 0 0-20.24-4.91c-15.72-1.39-28.8 3.4-37.83 13.83a2.77 2.77 0 0 0 3.22 4.34c.25-.11 25.52-11.05 53.57-.28h.18a2 2 0 0 0 .33.08c1.88.33 45.34 8 66.75 9.53 5.1 9.09 9.26 19.94 9.55 31.34-10.89-13.24-45.46-33.6-47-34.5l-.12-.06a1.39 1.39 0 0 0-.28-.12l-.15-.07c-17.65-5.7-32-5.47-42.61.66a31.46 31.46 0 0 0-14.63 19 2.82 2.82 0 0 0 1.8 3.31h.06a2.87 2.87 0 0 0 3.36-1.59c8.68-18.87 44.82-8.05 49.15-6.67 9.62 7.47 40.66 31.81 47.62 37.26a48.56 48.56 0 0 1-3.55 7.51c-2.28 3.6-4.66 7-7.11 10.15-8.63-16.4-31.62-41.79-32.73-43l-.11-.1-.17-.16a2 2 0 0 0-.25-.18l-.12-.09h-.07l-.07-.05c-16.21-8.28-29.18-10-38.54-5.11-10.49 5.47-12.2 17.08-12.27 17.57a2.77 2.77 0 0 0 5.1 1.84c3.29-5.31 7.6-8.46 12.79-9.38 11.37-2 24 6.87 26.11 8.45a116.24 116.24 0 0 1 6.51 10.49c3 5.38 7.59 13.41 21.13 34a137.43 137.43 0 0 1-34 24.61l-.22-.05c-38.51-9.26-64.93-7.44-80.3-4.28-18.06 3.7-30.55 11.27-32.6 19.74-1.09 4.49.74 10 8.86 12.49.44.13.89.26 1.37.37 9.36 2.28 26.49 3.19 44.44 3.42-40.83 33.84-36.91 42.52-35.56 45.45a7.25 7.25 0 0 0 4.73 4c2.37.73 5.48.74 9.31 0 18.54-3.45 79.32-45.3 87.28-50.83 4.05-.55 20.05-2.77 30.94-4.9A120.33 120.33 0 0 0 473.76 402C493 373.92 501.4 338.1 498 298.44Zm-411.46-107c9.85-8.33 22.56-15.76 38.21-18.65a172.69 172.69 0 0 0-38.2 18.6Zm185.16 80.89c14.3-2.1 32.3 1.87 52.78 11.67l-.14 1.79c-8.85-4.22-31.65-13.97-52.64-13.46Zm29.1 31.11c15.7-7.46 34.2-1.45 39.64.64v1.76a80.75 80.75 0 0 0-39.64-2.4Zm65.77 23.49a101.74 101.74 0 0 0-18.94-3.29 51.35 51.35 0 0 0-17.48 1.43c.53-.36 1.09-.71 1.67-1 8.75-5 20.74-5.28 35.63-.88Zm-1.33 24.36c-5.57-3.5-16.36-9-26.95-7.13a23.57 23.57 0 0 0-2.67.63l.6-.33c7.1-3.67 17.7-2.32 30.77 3.87Zm125.17-50.62a175.93 175.93 0 0 1-1.43 41c-5-2.58-13.34-6.3-20.71-7-6.79-.61-15.35 2.09-22.89 4.47a86 86 0 0 1-11.21 3.05 71 71 0 0 0-1.06-17.19c10.11-.58 18.87-9.21 26-16.23 2.25-2.23 4.38-4.33 6.34-6 5.85-4.9 19.34-3.3 24.96-2.1Zm-13.58-45.11a103.59 103.59 0 0 1 13 39.36c-5.92-1.05-20.36-2.76-28 3.66-2.12 1.79-4.33 4-6.66 6.27-7 6.93-15 14.77-23.31 14.66a87.7 87.7 0 0 0-5.06-14.18c7.54-4.37 20.8-15.42 25.62-26.72s19.58-20.35 24.41-23.05Zm-2.89-4.74c-5.5 3.08-21.08 12.72-26.58 25.61-4.47 10.48-17.06 20.24-23 23.92a105.2 105.2 0 0 0-10.15-15.62 64.92 64.92 0 0 0 19.34-31.49 56.89 56.89 0 0 1 17.9-27.79 118.6 118.6 0 0 1 22.49 25.37Zm-56.14-47.46a175.69 175.69 0 0 1 16.26 9.21 155.7 155.7 0 0 1 13.06 9.3 62.08 62.08 0 0 0-18.88 29.9 60.38 60.38 0 0 1-17.53 28.69 102.14 102.14 0 0 0-15.23-14.39c.23-.19.55-.45.83-.66 4.26-3.35 17.21-13.54 15.79-34.07-.64-9.1 3.43-21.74 5.7-27.98Zm-5-2.42c-2.38 6.42-6.94 20.31-6.21 30.78 1.22 17.61-9.61 26.13-13.68 29.33a11.94 11.94 0 0 0-2 1.76 62.84 62.84 0 0 0-14.47-7.26c1.72-2.2 3.52-4.63 5.46-7.3 8.19-11.24 6-27 4-40.92a123.61 123.61 0 0 1-1.63-16.94 184.4 184.4 0 0 1 28.51 10.55Zm-281.45-27.45.37-1.21a495.6 495.6 0 0 1 55.42 12l-2.87 5.19v.07c-15.96-5.67-40.93-14.19-52.92-16.05ZM81.2 254.38c5.52-16.8 13.21-35.9 22.43-47.59l2.93 2.76c-3.7 6.17-15.35 25.78-25.36 44.83Zm116.6-50.81-86.66 2.7-1.89-1.79c16.35-2.25 66.87-8.47 90.61-3.48a25.34 25.34 0 0 0-2.06 2.57Zm1.55-8.39a2.81 2.81 0 0 0-.78-.37c-.54-.2-4-1.49-9.07-3.34l3.07-5.55a192.08 192.08 0 0 1 26 9.76c7.19 4.95 14.81 10.55 23.23 17.24 6.6 5.25 12.65 10.24 18.21 15-23.43-13.15-51.49-29.22-52.35-30.64s-.05.09-.06.09-.14.05-.19 0a3 3 0 0 0-.3-.19s0-.09 0-.09a65.94 65.94 0 0 0-7.76-1.91Zm56.46 44.16c-26.5-18.5-45.69-30-52.46-33.94a12.61 12.61 0 0 1 2.58-2.41c7.45 4.46 45.95 27.4 68 39a2.73 2.73 0 0 0 2.35.09c5.54 4.73 10.68 9 15.66 12.67-5.42.31-16.5-1.75-36.13-15.41Zm97.36 24.72h-.3l-.27.08c-5.91 1.17-13.7.63-25.62-1.25a51 51 0 0 1-6.87-1.59c-14.92-4.56-28.11-15.94-46.38-31.69-7.89-6.8-16.83-14.51-27.17-22.73a370 370 0 0 0-48.81-33.39l.23-.08c-2.59-1.41-7.83-4.25-9.33-5-7.11-3.85-14.42-7.61-22.35-11.68-5.93-3.05-12.06-6.2-18.74-9.72a219.38 219.38 0 0 1-51-37.26c12.51 2.65 24.14 5 25.89 5l9-.22L102.23 85A154.59 154.59 0 0 0 133 98.43c15.47 4.74 25.07 4.53 25.47 4.51l6.94-.19-2.4-3.66 23.99 7.32-.9-4.17 24.39 13.2 1.39-4.56c4.31 2.6 10.38 5.06 18.55 7.56 11.6 3.55 25.4 6.55 38.75 9.45 11.29 2.46 21.95 4.78 29.47 7.08 25.15 7.69 44.85 19.78 54.08 27.79 8.49 7.37 19.89 14.7 25.12 17.93-2.37 7.82-1 17.52.42 27.71 1.84 13.07 3.73 26.58-2.62 35.29-8.8 12.06-13.39 18.31-22.48 20.37Zm-23.43 23.55.25-3 35.83-8.16c1.51.91 3.11 2 4.79 3.13-11.61 3.25-31.61 8.26-40.87 8.03Zm16.31 19.83-.06-2.69c17.17-.79 56.79 8.18 57.21 8.27a2.79 2.79 0 0 0 .76.06q1.07 1.51 2.07 3.09c-19.22-1.82-51.27-7.23-59.98-8.73Zm66.71 4.83a148.34 148.34 0 0 0-32.51-35.2 100 100 0 0 0-15.2-9.94 38.12 38.12 0 0 0 5.88-5.11c14.18 3.38 35.53 19.72 47.48 43.66 4.95 9.9 9.46 23.64 7.75 38.92-1.62-9.6-5.72-20.41-13.4-32.33Zm-40.93 16.48.74-3.16c9.47 5.75 36.93 23 43.5 32.89a2.76 2.76 0 0 0 2.82 1.2 46.23 46.23 0 0 1-.85 5.25c-9.42-7.4-37.54-29.46-46.21-36.18Zm4.83 37.07a123.08 123.08 0 0 0-7-11.19l1.64-2.79c6.71 7.62 24.93 28.89 30.5 41.21a140.49 140.49 0 0 1-4.9 5.48c-12.9-19.71-17.28-27.53-20.24-32.71Zm-99 134.8c-3.43.64-4.93.29-5.49.12 0-1.16 2.75-11.46 39.52-41a3.92 3.92 0 0 0 .75-.83c14.83 0 29.19-.4 39.17-.74-23.02 15.53-61.51 40.14-73.94 42.45ZM258 447.93c-1.89-.46-5-1.53-4.52-3.51.83-3.46 8.8-10.31 26.61-14 14.61-3 39.81-4.7 76.93 4.23l1.32.32c.39 2.5 1.37 6.93 3.51 15.05-14.85.65-82.49 3.12-103.85-2.09Zm111.66 1.3c-1.89-7.16-3.68-14.61-3.83-16.39a2.67 2.67 0 0 0 0-.4 142.26 142.26 0 0 0 23.94-16.34c-1.36 4.55-1.9 9.28-.45 13.15 2.24 6 1.55 12.92.87 16.78-7.25 1.26-15.39 2.46-20.56 3.2ZM416.11 439a113 113 0 0 1-20.17 6c.61-4.61.84-11.36-1.48-17.56-2-5.31 2-14.49 5.38-20.6 2-2.05 4.07-4.2 6.08-6.5a77.65 77.65 0 0 0 7.57 18.16c4.93 8.5 3.34 17.5 2.62 20.5Zm6.11-2.67a33 33 0 0 0-3.91-20.71 72.83 72.83 0 0 1-8-20.61c2.19-2.74 4.33-5.62 6.41-8.69.37-.52.74-1.06 1.1-1.61 3.3 5.55 9.55 10.25 16.15 15.19 7 5.27 14.25 10.7 17 16.81a112 112 0 0 1-28.75 19.61Zm45.15-38.68a117.32 117.32 0 0 1-12.25 15c-3.69-6.57-10.83-11.94-17.8-17.16-6.49-4.88-12.62-9.47-15.14-14.38a2.78 2.78 0 0 0-1.32-1.24 137.14 137.14 0 0 0 7.14-13.63c11.66-2.91 18.29 2.59 26 9 4.76 4 10 8.3 16.75 10.37a25.39 25.39 0 0 0 3.49.81 128.41 128.41 0 0 1-6.87 11.22Zm9.51-16.48c-7.92-.72-13.5-5.34-19.36-10.22-7.35-6.1-14.92-12.39-27-10.81a65.53 65.53 0 0 0 3.06-12.23c3.7-.33 8.45-1.82 13.49-3.41 7-2.23 15-4.75 20.73-4.24 7.2.64 15.9 4.87 20.19 7.18a138.94 138.94 0 0 1-11.11 33.72Z" style="fill:#6a6260"/>
      <path class="cls-7" d="M126.26 139.44c-14.06-4.63-27.9-10.08-41.47-16-23-10.05-47.38-21.62-65.67-39.22-15.77-15.17-25.59-48.6-7.44-63.86C52.86-14.26 118.62 6.85 164.93 26.6c34.34 14.63 64.94 36.27 97.79 53.75 33.95 18.07 73.34 23.34 110.9 29.19 7.23 1.13 40.54 6.12 42-7.66"/>
      <path class="cls-7" d="M106.32 124.08c-22.44-12.82-52.56-27.17-69-48-23.7-29.95 8-53.57 37.48-51.68C115.39 27 153.94 44 189.46 62.76 246.72 93 300.87 117.35 366.14 125"/>
    </g>
  </g>
</svg>
