<svg xmlns="http://www.w3.org/2000/svg" xmlns:xlink="http://www.w3.org/1999/xlink" viewBox="0 0 1714.97 650.88"><defs><style>.cls-1{fill:none;}.cls-2{isolation:isolate;}.cls-3{clip-path:url(#clip-path);}.cls-4{fill:#65d5f5;}.cls-5{fill:#0ac0ef;}.cls-6{fill:#3dcbf2;}.cls-7,.cls-8{fill:#09b0ec;}.cls-8,.cls-9{opacity:0.5;mix-blend-mode:multiply;}.cls-9{fill:#06a0de;}.cls-10{fill:#c8ffff;}</style><clipPath id="clip-path" transform="translate(291.82 -12.71)"><rect class="cls-1" width="1419.14" height="770.43"/></clipPath></defs><g class="cls-2"><g id="圖層_2" data-name="圖層 2"><g id="浪3"><g class="cls-3"><path class="cls-4" d="M1368.59,55.33c-41-18.68-85.74-25.63-129.58-22S1149.58,49.43,1112,77.08c-39.57,29.07-70,70.69-103.9,107.79-33,36.12-69.22,65.55-114.11,75.86-59.44,13.65-120.05,6.73-177.88-13.24-28.72-9.93-56.76-22.3-84.28-36.13-30-15.07-59.14-33.74-90-46.28-123-50-245.92,1.36-362.63,49.94C120,239.63,61.58,261.67-1,269.74c-56.9,7.33-112.28,6.77-166.62-16.49-44.71-19.14-86-47.37-124.15-81.19V543.17h1715V91.63A207.64,207.64,0,0,0,1368.59,55.33Z" transform="translate(291.82 -12.71)"/><path class="cls-5" d="M1396.07,113.69C1345.58,82.57,1284,75.4,1228.37,88.1c-46,10.5-83.3,43.12-116,81.14-32.51,37.77-61.58,80-96.92,114.3-39.52,38.4-87,63.31-138.48,68.27-56.43,5.45-111.55-12.17-162.56-39.62-27.47-14.78-54-31.84-80-49.84-27.64-19.11-54.41-39.9-85.49-50.55-115.93-39.72-224,51-324.21,106.36A504.57,504.57,0,0,1,50,376.43c-31.25,4.36-62.53,5.73-94,5.55-27.74-.16-55.92-.73-83.15-7.72-54.88-14.08-104.45-54.35-147.72-95.13q-8.58-8.08-17-16.46v280.5h1715V136.82A117.32,117.32,0,0,0,1396.07,113.69Z" transform="translate(291.82 -12.71)"/><path class="cls-6" d="M1355.17,167c-32.72-9-67.12-13.06-100.33-5.08-28,6.75-54.22,20.73-77.7,40-20.43,16.73-39.05,36.32-56.5,57.17-18.22,21.76-35.32,44.28-56.25,62.6-40.6,35.53-88.49,58.46-138.56,66.85S824.74,392.85,775.94,378c-44.47-13.59-84.3-37-123.05-65.8-36.87-27.37-72.67-58-112.61-79-42.26-22.23-88.09-30.73-133.42-16.8-52.91,16.27-99.64,54.18-143.73,90.95-44.54,37.16-88.78,76.24-139,102.29C71.23,437,13.34,455-44.73,455c-55.78-.06-115-8.67-168.24-28.74-30.83-11.64-56.58-31.94-78.85-57.31V663.58h1715V207.07C1403.94,186.85,1381.49,174.21,1355.17,167Z" transform="translate(291.82 -12.71)"/><path class="cls-5" d="M1423,252a528.1,528.1,0,0,0-118.41-11.16c-30.61.53-62.38,3.73-90.85,15-28.9,11.39-51,33.39-75.63,50.82-65.85,46.51-150.59,94.58-234.2,102.15,37.41-3.38,72.88-3.67,110-12.67,40.69-9.86,80.59-24.52,117.09-44.05,20.52-11,38.65-25.57,59.46-36.11,23.89-12.1,48.06-14.63,74.73-16.67,51.13-3.9,109.82-6.56,158,13Z" transform="translate(291.82 -12.71)"/><path class="cls-5" d="M219,412.43c14.77-6.67,29.74-22.26,44.37-30.72,38.35-22.18,80.61-38.49,124.42-46.08,138.79-24,269,73.2,401.44,99.26,138.56,27.26,292.2,25.67,416.15-49.29-16.37,9.9-30.94,31.62-47.35,43.3-47.26,33.61-101.64,52.54-156.25,61.32-101,16.25-205-1.41-301.77-31-72.8-22.28-133.7-72.93-208.39-90.12-81.2-18.68-166.89.54-242.73,30.67Q233.85,405.71,219,412.43Z" transform="translate(291.82 -12.71)"/><path class="cls-7" d="M402.3,410.1a545.46,545.46,0,0,1,72,5.27c62,8.85,112.05,36.69,169.29,58.24,93.08,35,193.49,56.4,293.35,53.7,84.23-2.27,165.27-27,237.39-69.92,30-17.86,56.84-45.69,89.08-58.73,34-13.73,74.72-10.76,109.6-3-20.52-4.58-64.4,28.48-79.27,38.28a515.15,515.15,0,0,0-73.55,58.83c-22.64,21.84-39.82,49.39-66.25,67.23-78,52.64-205.39,64.82-296.62,65.71-149.1,1.45-286.79-42.26-419.27-107,0,0-204.26-99.77-342.94-35.24,52.06-24.22,97.5-47.7,155.73-58.64C300.56,415.55,351.52,409.64,402.3,410.1Z" transform="translate(291.82 -12.71)"/><path class="cls-4" d="M1419.29,495.89c-31.2-10.39-63.81-18.11-96.54-20.12-41.41-2.55-83.59,9-123.09,20.84a890.48,890.48,0,0,0-103.84,38.5c-33.42,14.79-66.12,31-100.55,43.12-65.69,23.14-134.83,35.4-204.16,29.54-69.84-5.91-135.28-29.57-199.32-58.49C524.67,519,458.48,483.16,387.38,464.21c-70.43-18.76-144-21.45-215.11-5-69.19,16-135.11,46.72-194.51,87.3-52.51,35.88-101.29,78.23-152,117.07H1423.15V497.19Z" transform="translate(291.82 -12.71)"/><path class="cls-8" d="M247.17,501.65c-69.87,7.69-139.86,36.16-201.88,70.16C-1.58,597.5-45,628.5-85.29,663.58H584.2c-50.82-26-96.06-62.85-143.35-95.07C382.34,528.66,319,493.74,247.17,501.65Z" transform="translate(291.82 -12.71)"/><path class="cls-8" d="M1377.33,522c-61.44-11.48-122.55,8.71-176.49,39.1-64.39,36.28-130.85,73.83-200,102.45h422.28V538.85C1408.7,531,1393.43,525,1377.33,522Z" transform="translate(291.82 -12.71)"/><path class="cls-9" d="M217.22,582.86C138.56,585.53,66.8,620,0,663.58H438c-15.24-7.09-30.09-15-44.42-22.86-27.26-14.92-54.49-32.11-83.66-42.6C280.13,587.4,248.78,581.78,217.22,582.86Z" transform="translate(291.82 -12.71)"/><path class="cls-9" d="M1351.21,595.48c-48.51,2.89-92.17,20.81-136.15,41.4a523.61,523.61,0,0,1-70.24,26.7h278.33v-62.4C1399.27,597.37,1375.38,594,1351.21,595.48Z" transform="translate(291.82 -12.71)"/><path class="cls-7" d="M-291.82,471.31s103.88,71.81,291.82,0c0,0-116.17,97.82-291.82,94.85Z" transform="translate(291.82 -12.71)"/><path class="cls-7" d="M336.37,287.77S433,191.06,534,273.78C534,273.78,449.8,234.66,336.37,287.77Z" transform="translate(291.82 -12.71)"/><path class="cls-10" d="M841,267.62c-41-.57-83.44-3.58-121.41-18.87-12.4-5-5.89-18.06-15.43-27.37-7.93-7.74-37.06-11.43-46.72-5.93-2.5-16.67-19.34-29.91-36.29-28.54-8.42-15.34-26.68-24.76-44.18-22.8-4.42-14.28-22.63-22.52-36.41-16.47-4.12-10-15.47-15.17-26.25-16.71s-21.85-.39-32.55-2.39c-9.64-1.79-18.7-6.07-28.41-7.43s-21,1.11-26,9.5c-22.93-15.64-56.69-13.21-77.1,5.55-8.93-4.58-21.17-1.15-26.36,7.39a16.45,16.45,0,0,0-20.12.81,16.1,16.1,0,0,0-3,19.74c-5.27-8.73-25.73-5.24-32.61-1.47-2.72,0-4.81,3.1-6.61,6.78-14.8-4.56-33.63-5.84-46.67,2.47a32,32,0,0,0,4,56.26c9.73,4.44,20.94,3.86,31.62,3,10.88-.9,22.14-2.12,31.56-7.61a31.77,31.77,0,0,0,8.93-7.78l.27-.23c1.15-1,2.36-2.21,3.9-2.42a7,7,0,0,1,3.09.51C312.3,218.1,325.94,224,341,223.84c16.41-.16,33.81-8.25,40.13-23.26,23.9,13,55.27,11.1,77.38-4.71-.33,10,10.73,17.41,20.86,17.24s19.32-5.53,28.17-10.43,18.59-9.62,28.65-8.36l4.65,7.63c4.77-6.74,15.82-2.34,21,4.08s9.39,15,17.5,16.75c10.13,2.17,22.54-7.47,29.92-.26,2.22,2.18,3.09,5.32,4.24,8.2,7.51,18.89,31.83,29.18,50.79,21.49a21.08,21.08,0,0,0,12.55,21.55c8.3,3.44,24-2.69,29.53-9.71,36.09,16.25,78.25,22.57,117.87,23.72,51.21,1.5,98.67-14.29,130-54.43C921.64,258,882,268.19,841,267.62Z" transform="translate(291.82 -12.71)"/><path class="cls-10" d="M1282.83,14.53c-14.56-3-32.38-3.58-41.31,8.59-10.12-10.86-28.15-12.72-40.17-4.12-6.95,4.95-19.27-4.31-27.11-1.94-9.79,3-17.64,9.74-23.15,18.29-25.72-21.43-37.54,5.16-30.55,24.9-20.57,10.1-49.6,33.25-72.73,79.08,10-8.7,20.24-17.14,30.56-25.46,9.15-7.36,18.39-14.59,27.83-21.59,7.26-5.38,15.66-15.84,25.34-16.48,7.28-.48,13.11,3,20.63,1.45,9-1.9,17.25-5.83,25.55-9.68,13-6,26.1-14,40.36-16.65,28.33-5.28,57.64-4.16,85.88,1.19,41.53,7.88,81,24.59,119.19,43C1386,54.21,1336.23,25.62,1282.83,14.53Z" transform="translate(291.82 -12.71)"/></g></g></g></g></svg>