<svg xmlns="http://www.w3.org/2000/svg" viewBox="0 0 840.04 681.38">
  <defs>
    <clipPath id="clip-path" transform="translate(41.5)">
      <path class="cls-1" d="M211.76 382.49S54 336.85 0 392.78c15.73-4.2 32.93-6.8 49.3-5.79 22.51 1.38 43.87 10.11 65.43 16.35 17.86 5.18 38.3 5.37 55.48 10.89 0 0 27.15 8.71 21.24 27.94 0 0-10.63 69.72-6.5 96.76 0 0-4.06 64.86-9.54 71.15 52.33-60.08 56.09-134.2 63.65-210.58Z"/>
    </clipPath>
    <clipPath id="clip-path-2" transform="translate(41.5)">
      <path class="cls-1" d="M393.05 359.62S372 417.52 346 434.4c0 0-1.75-44-45.42-39.18L341.62 364Z"/>
    </clipPath>
    <clipPath id="clip-path-3" transform="translate(41.5)">
      <path class="cls-1" d="M511.52 293c-3.95 9.36-9.56 18.61-15 27.44-9.77 15.85-16.39 21.17-8.64 37.56 5.38 11.37 11.2 22.53 16.79 33.78 0 0 49.2-88.63 38.42-102S511.52 293 511.52 293Z"/>
    </clipPath>
    <clipPath id="clip-path-4" transform="translate(41.5)">
      <path class="cls-1" d="M465.86 123.5s-64.61-41.72-118-14.79c0 0 70.4 36.67 22.31 73.62l16.48-.88Z"/>
    </clipPath>
    <clipPath id="clip-path-5" transform="translate(41.5)">
      <path class="cls-1" d="M680.29 141.3c-8.36-5.67-34.8 5-42.09 8-21.68 8.77-40.11 24.18-54.78 42.2 3.43-4.21 38.61.57 45.54-.43 19.44-2.82 29.49-14.48 41.78-28.88 2.92-3.41 13.93-14.46 11.28-19.07a5.47 5.47 0 0 0-1.73-1.82Z"/>
    </clipPath>
    <style>
      .cls-1,.cls-12,.cls-4{fill:none}.cls-2{fill:#a8a8aa}.cls-12,.cls-4{stroke:#b5c4d3;stroke-miterlimit:10}.cls-4{stroke-width:2.58px}.cls-12{stroke-width:2.27px}.cls-13{fill:#004e84}.cls-14{fill:#86a3c5}
    </style>
  </defs>
  <g id="圖層_2" data-name="圖層 2">
    <g id="浪2">
      <path class="cls-2" d="M211.76 382.49S54 336.85 0 392.78c15.73-4.2 32.93-6.8 49.3-5.79 22.51 1.38 43.87 10.11 65.43 16.35 17.86 5.18 38.3 5.37 55.48 10.89 0 0 27.15 8.71 21.24 27.94 0 0-10.63 69.72-6.5 96.76 0 0-4.06 64.86-9.54 71.15 52.33-60.08 56.09-134.2 63.65-210.58Z" transform="translate(41.5)"/>
      <g style="clip-path:url(#clip-path)">
        <path class="cls-4" d="M207.48 385.09s-181.2-48.67-247.93 44.48" transform="translate(41.5)"/>
        <path class="cls-4" d="M213.8 392.9S32.6 344.23-34.13 437.38" transform="translate(41.5)"/>
        <path class="cls-4" d="M220.12 400.7S38.92 352-27.81 445.19" transform="translate(41.5)"/>
        <path class="cls-4" d="M226.45 408.51S45.25 359.84-21.49 453" transform="translate(41.5)"/>
        <path class="cls-4" d="M232.77 416.32S51.57 367.65-15.16 460.8" transform="translate(41.5)"/>
        <path class="cls-4" d="M213.24 418.6s-155.35-43.14-222.08 50M231.32 426.45s-12.7 211.46-127 253.72" transform="translate(41.5)"/>
        <path class="cls-4" d="M225.36 428.2S205 631.36 99.07 672.72" transform="translate(41.5)"/>
        <path class="cls-4" d="M219.29 423.62S199.76 623.91 93.85 665.28" transform="translate(41.5)"/>
        <path class="cls-4" d="M213.24 418.6s-18.7 197.87-124.61 239.23" transform="translate(41.5)"/>
        <path class="cls-4" d="M83.41 650.38C189.32 609 206.62 423.66 206.62 423.66s-10.4-1.09-39.62-7.66" transform="translate(41.5)"/>
        <path class="cls-4" d="M78.19 642.94C184.09 601.58 199.1 430.6 199.1 430.6s-37.63-13-58.16-6.28" transform="translate(41.5)"/>
      </g>
      <path class="cls-2" d="M393.05 359.62S372 417.52 346 434.4c0 0-1.75-44-45.42-39.18L341.62 364Z" transform="translate(41.5)"/>
      <g style="clip-path:url(#clip-path-2)">
        <path class="cls-4" d="M391.33 355.13c-.73 1.86-25 68.42-79.13 104.16" transform="translate(41.5)"/>
        <path class="cls-4" d="M382.48 354.53c-.73 1.85-25 68.42-79.13 104.15" transform="translate(41.5)"/>
        <path class="cls-4" d="M373.64 353.92c-.73 1.86-25 68.42-79.13 104.16" transform="translate(41.5)"/>
        <path class="cls-4" d="M364.79 353.32c-.73 1.85-25 68.42-79.13 104.15" transform="translate(41.5)"/>
        <path class="cls-4" d="M356 352.71c-.73 1.86-25 68.42-79.13 104.16" transform="translate(41.5)"/>
        <path class="cls-4" d="M347.1 352.11c-.73 1.85-25 68.42-79.13 104.15" transform="translate(41.5)"/>
        <path class="cls-4" d="M338.26 351.5c-.74 1.86-25 68.42-79.13 104.16" transform="translate(41.5)"/>
        <path class="cls-4" d="M329.41 350.9c-.73 1.85-25 68.42-79.13 104.15" transform="translate(41.5)"/>
      </g>
      <path class="cls-2" d="M511.52 293c-3.95 9.36-9.56 18.61-15 27.44-9.77 15.85-16.39 21.17-8.64 37.56 5.38 11.37 11.2 22.53 16.79 33.78 0 0 49.2-88.63 38.42-102S511.52 293 511.52 293Z" transform="translate(41.5)"/>
      <g style="clip-path:url(#clip-path-3)">
        <path class="cls-4" d="M538.47 283.58c0 2.39 9.6 31.48-64.71 151.61" transform="translate(41.5)"/>
        <path class="cls-4" d="M530.82 282.37c0 2.39 9.59 31.48-64.71 151.6" transform="translate(41.5)"/>
        <path class="cls-4" d="M523.17 281.15c0 2.39 9.59 31.49-64.71 151.61" transform="translate(41.5)"/>
        <path class="cls-4" d="M515.51 279.94c0 2.39 9.6 31.49-64.7 151.61" transform="translate(41.5)"/>
        <path class="cls-4" d="M507.86 278.73c0 2.39 9.59 31.49-64.71 151.61" transform="translate(41.5)"/>
      </g>
      <path d="M196.15 379.26c19.91-5.17 51.65-31.78 63.83-42.47 18.7-27.85 35.36-58.4 49.31-75.2C422.35 125.46 590.53 29 765.29.5c26.11-4.25 41.65 19.5 28.46 41.71-90.28 152.32-241.51 273.68-409.52 329.25-19.7 6.52-51.83 10.77-83.08 17.39-9.35 4.68-53.49 27.39-67 46.07 0 0-14.32-4.5-25.54-23.36-13.5-17.33-12.46-32.3-12.46-32.3Z" transform="translate(41.5)" style="fill:#eeeeef"/>
      <path d="M384.23 371.46c-19.7 6.52-51.83 10.77-83.08 17.39-9.35 4.68-53.49 27.39-67 46.07a31.22 31.22 0 0 1-5.81-2.84c15-24.57 55.48-45.44 55.58-45.49 30.81-16.06 65.61-22.54 99.32-29.45 32.71-6.71 60.33-19.1 89.93-34.42a843.68 843.68 0 0 0 111.79-69.11c52.3-38.44 100.11-83.51 139.6-135.12 20.78-27.17 41.89-57.17 54.4-89.33l8-24.86c11.59 7.34 15.73 23 6.86 37.91-90.35 152.32-241.58 273.68-409.59 329.25Z" transform="translate(41.5)" style="fill:#cccdcd"/>
      <path d="M279.72 344.84a339.65 339.65 0 0 1-33.8 27.76c-2.95 2.11-43.31 29.86-43.23 30-7.22-13.22-6.54-23.34-6.54-23.34 19.91-5.17 51.65-31.78 63.83-42.47 18.7-27.85 35.36-58.4 49.31-75.2C422.35 125.46 590.53 29 765.29.5c26.11-4.25 41.65 19.5 28.46 41.71-5.14 8.68-10.51 17.25-16 25.72l-9.89 1.86c-16.47 3.09-32.78 6.72-49 11A942.33 942.33 0 0 0 433 211.83a837.05 837.05 0 0 0-84 65.77q-21 18.81-40.72 39.06c-9.42 9.69-18.79 19.14-28.56 28.18Z" transform="translate(41.5)" style="fill:#accbea"/>
      <path class="cls-2" d="M465.86 123.5s-64.61-41.72-118-14.79c0 0 70.4 36.67 22.31 73.62l16.48-.88Z" transform="translate(41.5)"/>
      <g style="clip-path:url(#clip-path-4)">
        <path class="cls-4" d="M466.77 131.56S389.47 82 328 119.27" transform="translate(41.5)"/>
        <path class="cls-4" d="M465.47 139.18s-77.3-49.61-138.76-12.29" transform="translate(41.5)"/>
        <path class="cls-4" d="M464.17 146.8s-77.3-49.61-138.76-12.3" transform="translate(41.5)"/>
        <path class="cls-4" d="M462.86 154.41s-77.29-49.61-138.75-12.29" transform="translate(41.5)"/>
        <path class="cls-4" d="M461.56 162s-77.29-49.61-138.75-12.29" transform="translate(41.5)"/>
        <path class="cls-4" d="M460.26 169.65S383 120 321.51 157.35" transform="translate(41.5)"/>
        <path class="cls-4" d="M459 177.26S381.66 127.65 320.2 165" transform="translate(41.5)"/>
        <path class="cls-4" d="M457.66 184.88s-77.3-49.61-138.76-12.29" transform="translate(41.5)"/>
        <path class="cls-4" d="M456.35 192.5s-77.29-49.62-138.75-12.3" transform="translate(41.5)"/>
        <path class="cls-4" d="M455.05 200.11s-77.29-49.61-138.75-12.29" transform="translate(41.5)"/>
      </g>
      <path class="cls-2" d="M680.29 141.3c-8.36-5.67-34.8 5-42.09 8-21.68 8.77-40.11 24.18-54.78 42.2 3.43-4.21 38.61.57 45.54-.43 19.44-2.82 29.49-14.48 41.78-28.88 2.92-3.41 13.93-14.46 11.28-19.07a5.47 5.47 0 0 0-1.73-1.82Z" transform="translate(41.5)"/>
      <g style="clip-path:url(#clip-path-5)">
        <path class="cls-12" d="M690.6 143.66s-71.3 1.71-109.88 56.87" transform="translate(41.5)"/>
        <path class="cls-12" d="M693.51 147.92s-71.3 1.72-109.88 56.87" transform="translate(41.5)"/>
        <path class="cls-12" d="M696.42 152.19s-71.31 1.72-109.88 56.87" transform="translate(41.5)"/>
        <path class="cls-12" d="M699.33 156.45s-71.33 1.72-109.88 56.87" transform="translate(41.5)"/>
        <path class="cls-12" d="M702.24 160.72s-71.31 1.72-109.88 56.87" transform="translate(41.5)"/>
        <path class="cls-12" d="M705.15 165s-71.31 1.72-109.88 56.87" transform="translate(41.5)"/>
      </g>
      <path class="cls-13" d="M198.12 391.83a38.88 38.88 0 0 1-2-12.57c19.89-5.16 51.61-31.74 63.8-42.45l.57-.84 1.53-2.3c.73-1.11 1.46-2.21 2.18-3.32.54-.82 1.07-1.64 1.6-2.46l2.06-3.2 1.62-2.53c.67-1.06 1.34-2.12 2-3.18.54-.84 1.08-1.69 1.61-2.54l2-3.16 1.59-2.54 1.72-2.74c2.82-4.54 5.57-9 8.26-13.31l.82-1.3 2.4-3.82 1.19-1.87 2-3.15c.42-.66.84-1.31 1.27-2l1.87-2.86 1.29-1.94 1.81-2.68 1.25-1.83 1.81-2.56c.39-.55.79-1.12 1.18-1.65.65-.89 1.28-1.74 1.92-2.58l1-1.31c1-1.24 1.9-2.43 2.83-3.55q3.38-4.06 6.83-8.07c1.15-1.35 2.31-2.68 3.47-4 .92-1.06 1.85-2.12 2.78-3.17a747.65 747.65 0 0 1 134.5-119.46A826.55 826.55 0 0 1 548.78 72C617.23 37.26 690.65 12.66 765.29.5c26.11-4.25 41.65 19.5 28.46 41.71-1.36 2.31-2.79 4.58-4.18 6.87-1.5 2.46-25.86 3-29.06 3.56a570.08 570.08 0 0 0-57 12.43C641 81.85 580.94 107.31 524.19 138.18a1027.28 1027.28 0 0 0-97.7 60.62c-35.28 24.67-68.7 52.19-98.13 83.67-29.07 31.08-56.21 63.41-91.11 88.36-2.64 1.88-38.41 23.36-39.13 21Z" transform="translate(41.5)"/>
      <path class="cls-13" d="M708 126.14s-52-5.21-73.06-91.49q12.08-4.37 24.26-8.3c-.08.96-2.48 68.78 48.8 99.79Z" transform="translate(41.5)"/>
      <path class="cls-14" d="M608.31 67.93s-16.11 22.55 9.51 25.86l4-1.3s-25.79.15-11-25.4Z" transform="translate(41.5)"/>
      <path class="cls-14" d="M622.93 84.42s-16.11 22.56 9.51 25.86l4-1.3s-25.8.15-11-25.4ZM599.52 90.51s-16.11 22.56 9.5 25.86l4.05-1.3s-25.79.15-11-25.4Z" transform="translate(41.5)"/>
      <path class="cls-14" d="M614.14 107s-16.11 22.55 9.51 25.85l4-1.3s-25.79.15-11-25.4ZM590.72 113.1s-16.1 22.55 9.51 25.85l4-1.3s-25.79.15-11-25.39ZM582.06 76.68s-16.06 22.55 9.51 25.86l4-1.3s-25.79.15-11-25.4Z" transform="translate(41.5)"/>
      <path class="cls-14" d="M605.35 129.59s-16.11 22.55 9.51 25.85l4-1.3s-25.79.16-11-25.39ZM558.7 98.47s-16.11 22.55 9.5 25.86l4-1.3s-25.79.15-11-25.4Z" transform="translate(41.5)"/>
      <path class="cls-14" d="M573.32 115s-16.11 22.55 9.51 25.86l4-1.3s-25.79.15-11-25.4ZM549.9 121.05s-16.1 22.55 9.51 25.86l4.05-1.3s-25.79.15-11-25.4Z" transform="translate(41.5)"/>
      <path class="cls-14" d="M564.53 137.54S548.42 160.1 574 163.4l4.05-1.3s-25.79.15-11-25.4ZM541.11 143.63s-16.1 22.56 9.51 25.86l4-1.3s-25.8.15-11-25.4ZM532.45 107.22s-16.11 22.55 9.5 25.86l4-1.3s-25.79.15-11-25.4Z" transform="translate(41.5)"/>
      <path class="cls-14" d="M555.74 160.13s-16.11 22.55 9.5 25.85l4-1.3s-25.79.15-11-25.39ZM484.69 193.38s-16.11 22.55 9.51 25.86l4-1.3s-25.79.15-11-25.4Z" transform="translate(41.5)"/>
      <path class="cls-14" d="M499.31 209.87s-16.11 22.56 9.51 25.86l4.05-1.3s-25.8.15-11-25.4ZM475.9 216s-16.11 22.56 9.5 25.86l4.05-1.3s-25.79.15-11-25.4ZM467.23 179.55s-16.11 22.55 9.51 25.85l4.05-1.3s-25.8.16-11-25.39Z" transform="translate(41.5)"/>
      <path class="cls-14" d="M490.52 232.46S474.41 255 500 258.31l4.05-1.3s-25.8.15-11-25.4ZM443.87 201.34s-16.11 22.55 9.51 25.85l4-1.3s-25.79.16-11-25.39Z" transform="translate(41.5)"/>
      <path class="cls-14" d="M458.49 217.83s-16.11 22.55 9.51 25.86l4.05-1.3s-25.8.15-11-25.4ZM435.81 239.59s-16.11 22.56 9.51 25.86l4.05-1.3s-25.8.15-11-25.4ZM379.87 256.32s-14.12 19.77 8.33 22.68l3.55-1.14s-22.61.14-9.62-22.26ZM351.8 243.5s-14.12 19.77 8.33 22.66l3.55-1.14s-22.61.14-9.62-22.25Z" transform="translate(41.5)"/>
      <path class="cls-14" d="M364.61 258s-14.11 19.76 8.33 22.66l3.55-1.14s-22.6.13-9.61-22.26ZM350.46 262.79s-14.12 19.77 8.33 22.66l3.55-1.14s-22.61.14-9.62-22.26ZM450.43 256.09s-16.1 22.55 9.51 25.85l4.05-1.3s-25.8.15-11-25.4ZM464.11 243.14S448 265.69 473.62 269l4-1.3s-25.79.16-11-25.39Z" transform="translate(41.5)"/>
      <path class="cls-14" d="M478.73 259.63s-16.11 22.55 9.51 25.86l4.05-1.3s-25.8.15-11-25.4Z" transform="translate(41.5)"/>
      <path d="M706.49 62.7a20.54 20.54 0 1 0 5.4-28.54 20.55 20.55 0 0 0-5.4 28.54Z" transform="translate(41.5)" style="fill:#00918b"/>
      <path d="M707.86 61.77a18.89 18.89 0 1 0 5-26.25 18.89 18.89 0 0 0-5 26.25Z" transform="translate(41.5)" style="fill:#fff"/>
      <path d="M715.64 56.47a9.47 9.47 0 1 0 2.49-13.17 9.47 9.47 0 0 0-2.49 13.17Z" transform="translate(41.5)" style="fill:#4c4948"/>
    </g>
  </g>
</svg>
